<?xml version="1.0" encoding="utf-8"?>
<!-- Generator: Adobe Illustrator 25.4.1, SVG Export Plug-In . SVG Version: 6.00 Build 0)  -->
<svg version="1.1" id="Capa_1" xmlns="http://www.w3.org/2000/svg" xmlns:xlink="http://www.w3.org/1999/xlink" x="0px" y="0px"
	 viewBox="0 0 969.1 1080" style="enable-background:new 0 0 969.1 1080;" xml:space="preserve">
<style type="text/css">
	.st0{fill:#050505;}
	.st1{fill:#253B7C;}
	.st2{fill-rule:evenodd;clip-rule:evenodd;fill:#FFFFFF;}
	.st3{fill:#36A493;}
</style>
<g>
	<path class="st0" d="M867.5,355.1c8.1-2.3,16.6,2.4,18.9,10.5c1.2,3.9,0.7,8.1-1.3,11.7c-1,1.8-2.4,3.4-4.1,4.7
		c-0.4,0.5-0.7,1.1-1,1.7c-1.1,1.7-1.3,3.8-0.7,5.8c1.2,4,5.4,6.4,9.4,5.2c4-1.2,6.3-5.4,5.2-9.4c-5.8-20.3,6-41.4,26.2-47.2
		s41.4,6,47.2,26.2l0,0c2.9,10.1,1.9,19.4-2.9,27.9c-4.9,8.5-9.8,13.4-14.6,14.8c-8.1,2.3-16.5-2.3-18.9-10.4c0,0,0-0.1,0-0.1
		c-1.2-3.9-0.7-8.1,1.4-11.6c1-1.9,2.3-3.5,4-4.8c0.4-0.5,0.7-1.1,1.1-1.7c1-1.8,1.2-3.9,0.6-5.8c-1.2-4-5.4-6.4-9.4-5.2
		c-4.1,1.2-6.4,5.4-5.2,9.4c5.8,20.3-5.9,41.4-26.2,47.3c-20.3,5.8-41.4-5.9-47.3-26.2c0,0,0,0,0-0.1c-2.9-10.1-1.9-19.4,2.9-27.9
		C857.7,361.4,862.6,356.5,867.5,355.1 M885.4,281.4c4.2,7.3,1.6,16.7-5.8,20.8c-7.3,4.2-16.7,1.6-20.8-5.8c0,0,0,0,0,0l-15-26.6
		l-13.3,7.5l22.5,39.9c4.1,7.4,1.5,16.7-5.8,20.8c-7.4,4.1-16.7,1.5-20.8-5.8l-30-53.2c-4.2-7.3-1.6-16.6,5.7-20.8
		c0,0,0.1,0,0.1-0.1l79.9-45.1c7.3-4.1,16.7-1.6,20.8,5.8c0,0,0,0,0,0l30,53.3c4.1,7.4,1.5,16.7-5.8,20.8
		c-7.4,4.1-16.7,1.5-20.8-5.8l-22.5-39.9l-13.3,7.5L885.4,281.4z M797.9,188.1l29.9-31.6c5.8-6.1,15.5-6.4,21.6-0.6
		c6.1,5.8,6.4,15.5,0.6,21.6l-63,66.6c-5.8,6.1-15.5,6.4-21.6,0.6c0,0,0,0,0,0c-3-2.7-4.7-6.6-4.7-10.7c-0.1-1.3,0-2.7,0.3-4
		l-0.1-0.1l11.6-59.5L742.7,202c-5.8,6.1-15.5,6.4-21.6,0.6c-6.1-5.8-6.4-15.5-0.6-21.6c0,0,0,0,0,0l63-66.6
		c5.8-6.1,15.5-6.4,21.6-0.6c0,0,0,0,0,0c3,2.8,4.7,6.6,4.8,10.7c0,1.3-0.1,2.7-0.4,4l0.1,0.1L797.9,188.1z M656.4,128.3
		c15.1,7.6,33.4,1.6,41-13.5c7.6-15.1,1.6-33.4-13.5-41c-15.1-7.6-33.4-1.6-41,13.5c-3.7,7.2-4.3,15.6-1.8,23.3
		C643.6,118.3,649.1,124.8,656.4,128.3z M642.6,155.6c-30.1-15.3-42.1-52-26.9-82.2c15.3-30.1,52.1-42.1,82.2-26.9
		c30.1,15.3,42.1,52,26.9,82.1C709.5,158.8,672.7,170.8,642.6,155.6L642.6,155.6z M573.8,116.7c-1.9,8.2-10,13.4-18.3,11.5
		c-8.2-1.9-13.4-10-11.5-18.3c0,0,0,0,0-0.1l20.3-89.4c1.9-8.2,10.1-13.4,18.3-11.5c8.2,1.9,13.4,10.1,11.5,18.3l0,0L573.8,116.7z
		 M518,18c0.4,0.3,0.8,0.6,1.2,1c2.9,2.8,4.6,6.7,4.6,10.8c0.2,8.4-6.5,15.4-14.9,15.5c0,0-0.1,0-0.1,0c-4.1,0.1-8-1.4-10.8-4.3
		c-0.4-0.3-0.7-0.7-1-1.1c-0.4-0.2-0.7-0.4-1-0.7c-12.1-11.7-31.5-11.4-43.2,0.7C441,52,441.3,71.4,453.4,83.1
		c12.1,11.7,31.5,11.4,43.2-0.7c0.3-0.3,0.6-0.5,0.9-0.8c0.3-0.4,0.6-0.7,1.1-1.2c5.9-6,15.6-6.2,21.6-0.3c6,5.9,6.2,15.5,0.4,21.5
		c-0.5,0.5-1,1-1.5,1.4c-0.2,0.2-0.3,0.3-0.5,0.5c-23.5,24.3-62.2,24.9-86.4,1.5c-11.7-11.3-18.4-26.7-18.6-42.9
		C413,28.4,440,0.5,473.7,0c16.2-0.3,31.8,5.9,43.5,17.2C517.5,17.4,517.8,17.7,518,18z M337,101.6l-22.3-19.9l-2.5,29.8L337,101.6z
		 M309.3,145.5l-0.7,8.5l-0.1,0c-0.2,1.3-0.6,2.6-1.1,3.9c-3.4,7.8-12.5,11.3-20.2,7.9c-6.3-2.8-10-9.3-9.1-16.1l-0.1,0l8.6-102.2
		l0.1,0c0.2-1.3,0.6-2.6,1.2-3.8c1.5-3.8,4.5-6.7,8.3-8.2c3.8-1.6,8-1.5,11.7,0.2c1.2,0.5,2.4,1.2,3.4,2l0,0l76.6,68.2l-0.1,0
		c2.1,1.7,3.7,3.9,4.7,6.4c3.1,7.8-0.7,16.7-8.5,19.9c0,0,0,0,0,0c-3.7,1.6-7.9,1.5-11.6-0.1c-1.3-0.5-2.5-1.2-3.5-2l-0.1,0
		l-6.4-5.7L309.3,145.5z M203.2,142.8c6.7-5.1,16.3-3.9,21.4,2.8c5.1,6.7,3.9,16.3-2.8,21.4l-24.2,18.6l9.3,12.1l36.3-28
		c6.7-5.1,16.3-3.9,21.4,2.8c5.1,6.7,3.9,16.3-2.8,21.4l-48.5,37.3c-6.6,5.2-16.2,3.9-21.4-2.7c0,0,0-0.1-0.1-0.1l-55.9-72.7
		c-5.1-6.7-3.9-16.3,2.8-21.4c0,0,0,0,0,0l48.5-37.3c6.7-5.1,16.3-3.9,21.4,2.8c5.1,6.7,3.9,16.3-2.8,21.4l-36.3,28l9.3,12.1
		L203.2,142.8z M125.6,272.7l-4.1,5.7l24.9,17.7c6.9,4.9,8.5,14.4,3.7,21.3c-4.9,6.9-14.4,8.5-21.3,3.7c0,0,0,0,0,0L54,268
		c-6.9-4.9-8.5-14.4-3.7-21.3c0,0,0,0,0,0l22.1-31.2c12.2-17.2,36-21.3,53.2-9.1c8.3,5.8,13.9,14.7,15.6,24.7
		c0.6,3.5,0.8,7.1,0.4,10.6l32.8,1.6l0,0c2.7,0.3,5.2,1.2,7.4,2.8c6.9,4.9,8.5,14.4,3.7,21.3c0,0,0,0,0,0c-2.3,3.4-5.9,5.6-9.9,6.2
		c-1.3,0.3-2.7,0.4-4,0.3l0,0.1L125.6,272.7z M97.4,233.2l-13.2,18.7l12.5,8.8l13.2-18.7c2.4-3.4,1.7-8.2-1.8-10.6
		c-1.7-1.2-3.7-1.7-5.8-1.3C100.3,230.4,98.5,231.5,97.4,233.2L97.4,233.2z M32.7,322.1c0.4-0.3,0.9-0.6,1.3-0.9
		c3.6-2,7.8-2.4,11.7-1.2c8.1,2.3,12.8,10.7,10.5,18.8c0,0,0,0.1,0,0.1c-1.1,3.9-3.7,7.2-7.3,9.1c-0.4,0.3-0.8,0.5-1.3,0.7
		c-0.3,0.3-0.6,0.5-1,0.7c-14.8,8.1-20.2,26.7-12,41.5c8.1,14.8,26.7,20.2,41.5,12c14.8-8.1,20.2-26.7,12-41.5
		c-0.2-0.4-0.3-0.7-0.5-1.1c-0.3-0.4-0.5-0.8-0.8-1.3c-4-7.4-1.3-16.7,6.1-20.7c7.4-4,16.6-1.3,20.7,6c0.3,0.6,0.6,1.2,0.9,1.8
		c0.1,0.2,0.2,0.4,0.3,0.6c16.3,29.6,5.6,66.7-24,83c-14.2,7.8-30.9,9.7-46.5,5.2C11.7,425.5-7,391.5,2.4,359.1
		c4.5-15.6,15-28.7,29.2-36.5C32,322.4,32.3,322.2,32.7,322.1L32.7,322.1z"/>
	<path class="st0" d="M672.7,1007c0,14.5,11.7,26.8,24.8,26.8c22,0,82.9-59.2,90.8-66.8c0.9-0.9,1.4-2.1,1.4-3.4
		c0-4.1-3.8-9.6-7.2-9.6c-0.8,0.1-1.5,0.4-2.1,1c-10,10-63,57.1-72.6,57.1c-1.4,0-2.1-1-2.1-2.8c0-14.1,39.2-78.8,49.2-88.8
		c0.3-0.3,0.3-0.7,0.3-1.4c0-4.5-12.4-15.5-22.7-15.5c-2.9,0-5.8,1.1-7.9,3.1C711.2,920.7,672.7,986.4,672.7,1007 M750.1,866.3
		c0,7.2,9.6,12.4,16.2,12.4c3.1,0,5.5-1.4,5.5-4.1c0-8.3,24.8-37.5,35.1-37.5c3.4,0,5.2-2.1,5.2-4.8c0-9.3-14.8-27.9-28.6-27.9
		C764.9,804.4,750.1,852.5,750.1,866.3L750.1,866.3z M561.9,877.7c0,7.2,9.6,12.4,15.8,12.4c3.1,0,5.5-1.4,5.5-4.1
		c0-8.3,24.8-37.2,35.1-37.2c3.4,0,5.2-2.1,5.2-4.8c0-9.3-14.5-28.2-28.2-28.2C581.5,815.7,561.9,853.6,561.9,877.7L561.9,877.7z
		 M714,790.3c-7.9,11.7-170.3,210.6-186.2,210.6c-1.4,0-1.7-0.7-1.7-2.4c0-12,30.3-59.9,30.3-57.5c0-4.5-12.4-15.5-22.7-15.5
		c-2.9,0-5.8,1.1-7.9,3.1c-7.6,7.6-34.4,52-34.4,69.2c0,16.5,9.6,24.8,26.2,24.8c23.4,0,71.9-53.7,116-107
		c-27.9,47.1-52.3,92.9-52.3,106.3c0,14.8,11.7,23.4,24.8,23.4c22,0,90.5-70.2,98.1-78.1c1-1,1.4-2.4,1.4-3.8c0-4.1-3.8-9.3-6.9-9.3
		c-1,0-72.6,69.5-85.7,69.5c-0.7,0-1-0.3-1-1.4c0-17.6,100.8-190,129.4-218.2c0.3-0.3,0.3-0.7,0.3-1.4c0-4.5-10.3-15.5-19.6-15.5
		C718.9,787.2,716.1,788.3,714,790.3z M278.6,978.1c35.1-71.9,90.2-161.7,130.1-217.1c60.9,16.9,110.1,46.5,110.1,86.4
		C518.8,902.8,366.4,967.1,278.6,978.1z M425.2,739c6.2-7.9,18.6-20,18.6-22.4c0-4.5-11.4-15.5-21-15.5c-6.9,0-6.9,0-26.8,29.2
		c-34.1-8.4-69.1-12.7-104.3-12.7c-73.3,0-134.5,19.6-134.5,55.4c0,12.4,11,21.3,16.5,21.3c1.6,0.1,3-1.1,3.1-2.7c0-0.1,0-0.3,0-0.4
		c0-32,50.2-46.8,111.8-46.8c30.8,0.2,61.4,3.4,91.5,9.6c-58.5,87.7-168.3,263.2-168.3,293.2c0,18.2,18.2,32.7,27.9,32.7
		c3.1,0,5.5-1.7,5.5-5.9c0-15.8,8.9-42.3,23.1-73.6c92.2,0.3,267.7-54.7,267.7-144.9C536,798.9,487.5,760.7,425.2,739z"/>
	<path class="st1" d="M303.7,319.8c-6.3-6.3-16.6-6.3-22.9,0c-6.3,6.3-6.3,16.6,0,22.9c6.3,6.3,16.6,6.3,22.9,0
		c3-3,4.7-7.2,4.7-11.5C308.5,326.9,306.8,322.8,303.7,319.8 M325.6,349.2l301.6,301.6l34.7,50l-51.4-36.2L310.3,364.5
		c-18.4,9.9-41.3,3.1-51.2-15.3c-9.9-18.4-3.1-41.3,15.3-51.2c18.4-9.9,41.3-3.1,51.2,15.3C331.6,324.5,331.6,338,325.6,349.2
		L325.6,349.2z"/>
	<path class="st1" d="M665.4,319.8c6.3-6.3,16.6-6.3,22.9,0c6.3,6.3,6.3,16.6,0,22.9c-6.3,6.3-16.6,6.3-22.9,0
		c-3-3-4.8-7.2-4.8-11.5C660.7,326.9,662.4,322.8,665.4,319.8 M643.6,349.2L342,650.8l-34.7,50l51.4-36.2l300.1-300.1
		c18.4,9.9,41.3,3.1,51.2-15.3c9.9-18.4,3.1-41.3-15.3-51.2s-41.3-3.1-51.2,15.3C637.6,324.5,637.6,338,643.6,349.2z"/>
	<path class="st2" d="M484.6,335.3c91.5,0,165.6,74.1,165.6,165.6s-74.1,165.6-165.6,165.6c-91.5,0-165.6-74.1-165.6-165.6
		c0-43.9,17.4-86,48.5-117.1C398.5,352.7,440.7,335.3,484.6,335.3"/>
	<path class="st3" d="M447.5,361.8c21.4,29.3,47.4,55,76.9,76c30.3,21.7,64.9,39.4,103.9,53c-0.7-10.4-2.6-20.7-5.5-30.8
		c-63.8-17.5-111.8-51.8-144-102.9C468.1,357.5,457.7,359.1,447.5,361.8 M401.2,383.6c27.9,35.6,61,66.7,98.2,92.3
		c37.2,25.5,78.8,45.7,124.8,60.5c1.9-7.5,3.2-15.2,3.9-22.9c-43.8-14.6-82.6-34-116.3-58.1c-33.2-23.7-62.1-52.8-85.5-86.2
		C417.5,373.2,409,378,401.2,383.6L401.2,383.6z M424.5,631.8c9.3-23.5,21.7-45.6,36.7-66c15.2-20.4,32.5-39.1,51.9-55.6
		c-8.1-4.8-16-9.8-23.7-15.1c-17.5,15.2-33.3,32.4-46.8,51.2c-16.2,22.5-30.3,46.3-42.2,71.3C407.8,623.1,415.9,627.9,424.5,631.8z
		 M468.3,644c7.5-22.5,19-43.5,33.8-62.1c13.9-17.6,31.1-34.3,51.7-50.1c-7-3.3-13.9-6.8-20.7-10.4c-20.4,16.7-38.8,35.9-54.5,57.1
		c-13.8,18.7-25.2,39.1-33.9,60.7C452.4,641.5,460.3,643.1,468.3,644L468.3,644z M554.7,558.8c14.4,10.7,26.7,24,36.4,39.1
		c11-12.1,19.9-25.9,26.2-40.9c-14-4.5-27.6-9.5-40.9-15C568.7,547.4,561.5,553,554.7,558.8L554.7,558.8z M521.3,592.5
		c6.5,4.8,12.3,10.4,17.3,16.6c4.9,6.1,8.9,12.7,12,19.8c8.7-4.5,16.9-9.8,24.5-16c-4.6-7.7-10-14.9-16.1-21.5
		c-6.2-6.7-13.1-12.6-20.5-17.9C532.4,579.6,526.7,585.9,521.3,592.5L521.3,592.5z M496.4,631.6c3.9,3.2,7,7.2,9.1,11.8
		c8.6-1.2,17.1-3.3,25.4-6.1c-2.3-5.3-5.4-10.2-9-14.8c-3.9-4.8-8.3-9.1-13.3-12.7C504,616.8,499.9,624.1,496.4,631.6z M397.5,576.6
		c-8.8-6.4-18.3-11.7-28.3-15.8c-5.7-2.3-11.7-4-17.7-5.1c7.3,17.6,17.9,33.6,31.4,47.1l0.5,0.5C387.9,594,392.6,585.1,397.5,576.6z
		 M419.8,541c-13.3-8.4-27.2-15.7-41.7-21.8c-12.1-5-24.6-8.9-37.3-11.7c0.4,8.6,1.5,17.2,3.5,25.6c11.3,0.7,22.3,3.3,32.8,7.5
		c11.1,4.5,21.7,10.3,31.5,17.4C412.2,552.1,416,546.4,419.8,541L419.8,541z M447,506.4c-14.8-10.5-30.7-19.4-47.4-26.6
		c-17.4-7.4-35.5-12.9-54.1-16.4c-2,7.3-3.3,14.7-4.1,22.2c15.4,3,30.4,7.6,44.9,13.6c16.1,6.7,31.7,14.9,46.4,24.3
		C437.4,517.6,442.2,511.9,447,506.4L447,506.4z M352.8,442.8c19,3.8,37.5,9.5,55.3,17.1c19.1,8.2,37.2,18.5,54,30.8
		c3-2.9,6.1-5.7,9.1-8.5c-32.5-24.4-61.6-53-86.7-84.9c-0.6,0.6-1.2,1.2-1.8,1.8C370.2,411.7,360,426.5,352.8,442.8L352.8,442.8z
		 M565.9,413c5.3-6.1,11.3-11.7,17.8-16.6c-21.5-20.4-48.7-33.6-78-38C521.9,380.5,542.4,399,565.9,413L565.9,413z M598.3,412.5
		c-4.6,3.2-8.9,6.9-12.7,10.9c8.7,4.1,17.6,7.7,26.7,10.8C608.3,426.6,603.6,419.3,598.3,412.5L598.3,412.5z M484.6,335.3
		c91.5,0,165.6,74.1,165.6,165.6s-74.1,165.6-165.6,165.6S319,592.4,319,500.9c0-43.9,17.4-86,48.5-117.1
		C398.5,352.7,440.7,335.3,484.6,335.3L484.6,335.3z"/>
</g>
</svg>
