<?xml version="1.0" encoding="utf-8"?>
<!-- Generator: Adobe Illustrator 25.4.1, SVG Export Plug-In . SVG Version: 6.00 Build 0)  -->
<svg version="1.1" id="Capa_1" xmlns="http://www.w3.org/2000/svg" xmlns:xlink="http://www.w3.org/1999/xlink" x="0px" y="0px"
	 viewBox="0 0 957.1 1080" style="enable-background:new 0 0 957.1 1080;" xml:space="preserve">
<style type="text/css">
	.st0{fill:#FF4A4A;}
	.st1{fill:#FFFFFF;}
	.st2{fill:#021839;}
	.st3{fill:none;stroke:#021839;stroke-width:8;stroke-linecap:round;stroke-linejoin:round;}
	.st4{clip-path:url(#SVGID_00000061446231995372113940000012012030338070067881_);}
	.st5{fill:#520000;}
	.st6{fill:#00A4C6;}
	.st7{fill:#FFCB4C;}
	.st8{fill:#00BF94;}
	.st9{fill:#FF8B21;}
	.st10{fill:#EAA47C;}
	.st11{fill:#735642;}
	.st12{fill:#CC7042;}
	.st13{fill:#BF5B2E;}
	.st14{opacity:0.3;}
	.st15{fill:#EABA94;}
	.st16{fill:#F9C8BB;}
	.st17{fill:#D69A72;}
	.st18{opacity:0.5;}
</style>
<g>
	<path class="st0" d="M760.2,290v441.1c-82.7-19.6-169.8-2.3-238.6,47.6c-11.5,8.3-22.3,17.4-32.4,27.4
		c-76.9-74.9-188.6-101.6-291-69.5V290c0-155.2,125.8-281,281-281C634.3,9,760.1,134.8,760.2,290L760.2,290z"/>
	<path d="M489.2,818.6l-6.3-6.2c-52.7-51.5-123.5-80.3-197.2-80.3c-28.8,0-57.4,4.4-84.9,12.9l-11.7,3.7V290
		c0-159.9,130.1-290,290-290c160.2,0,290,129.8,290.1,290v452.5l-11.1-2.7c-80.1-19-164.6-2.2-231.3,46.1
		c-11.1,8-21.6,16.9-31.4,26.5L489.2,818.6z M285.7,714.2c75.4,0,148,28.3,203.4,79.4c8.6-8,17.7-15.4,27.2-22.2
		c67.8-49,152.9-67.7,234.9-51.5V290C751.1,139.8,629.4,18,479.1,18c-150,0-272,122-272,272v434.5
		C232.8,717.6,259.2,714.1,285.7,714.2z"/>
	
		<ellipse transform="matrix(0.2318 -0.9728 0.9728 0.2318 311.5093 734.4296)" class="st1" cx="620.8" cy="170" rx="43.8" ry="43.8"/>
	<path class="st2" d="M620.8,218.9c-27,0-48.9-21.9-48.9-48.9s21.9-48.9,48.9-48.9c27,0,48.9,21.9,48.9,48.9l0,0
		C669.7,197,647.8,218.9,620.8,218.9z M620.8,131.3c-21.3,0-38.6,17.3-38.6,38.6c0,21.3,17.3,38.6,38.6,38.6
		c21.3,0,38.6-17.3,38.6-38.6l0,0C659.4,148.7,642.1,131.4,620.8,131.3z"/>
	<line class="st3" x1="771.7" y1="418.2" x2="953.1" y2="418.2"/>
	<line class="st3" x1="4.5" y1="418.2" x2="186.6" y2="418.2"/>
	<path class="st2" d="M37,451.8c6.3-4.3,16.3-6.5,29.9-6.5c13.1,0,22.9,2.3,29.3,6.8c6.4,4.5,9.6,11.5,9.6,20.9c0,3-0.4,6-1.2,8.9
		c-0.6,2.1-2.6,3.4-4.7,3.2c-2.5,0-5.1-0.4-7.4-1.4c-2.2-0.9-3-2.1-2.5-3.4c0.7-2.1,1.1-4.3,1.1-6.5c0-4.1-2-7.1-6-9.1
		c-4-2-10.1-3-18.2-3c-8.2,0-14.3,1-18.3,3c-3.8,1.6-6.2,5.5-6.1,9.6c0,1.1,0.1,2.2,0.3,3.3c0.2,0.9,0.5,2,0.9,3.5
		c0.1,0.3,0.1,0.6,0.1,0.9c0,1.4-0.9,2.4-2.7,3.1c-2.3,0.8-4.8,1.1-7.2,1c-1,0-1.9-0.2-2.8-0.6c-0.9-0.5-1.5-1.4-1.8-2.3
		c-0.5-1.5-0.9-3-1.1-4.6c-0.3-2-0.5-3.9-0.5-5.9C27.6,463.1,30.7,456.1,37,451.8z"/>
	<path class="st2" d="M33.7,522.5c4.1-4.3,9.8-6.5,17.2-6.5h50.8c2.3,0,3.5,2,3.5,5.9v4.1c0,3.9-1.2,5.9-3.5,5.9H51.9
		c-2.6-0.1-5.2,0.7-7.3,2.3c-3.5,3.1-3.7,8.5-0.6,11.9c0.2,0.2,0.4,0.5,0.7,0.7c2,1.6,4.6,2.5,7.2,2.4h49.7c2.3,0,3.5,2,3.5,5.9v4
		c0,3.9-1.2,5.9-3.5,5.9H50.9c-7.4,0-13.1-2.2-17.2-6.5c-4.1-4.3-6.1-10.3-6.1-18C27.6,532.8,29.6,526.8,33.7,522.5z"/>
	<path class="st2" d="M31.5,600.7l68.7-4.5c1.2-0.2,2.4,0.1,3.4,0.7c0.8,0.8,1.3,1.9,1.2,3l1.1,17c0.4,6.2-0.9,11.4-4,15.4
		c-3.1,4-8.4,6.3-16.1,6.8c-8.5,0.6-14.9-2.3-19.1-8.5l-0.4,0c-1,1.8-2.4,3.3-4.1,4.4c-2,1.4-4.1,2.4-6.4,3.2l-20.5,7.4l-1.3,0.4
		c-2,0.1-3.1-1.9-3.4-6.1l-0.2-3.6c-0.2-3.6,0.6-5.7,2.5-6.3l20.4-6.7c1.3-0.5,2.4-1.3,3.2-2.3c0.7-1.1,0.9-2.5,0.7-3.8l-0.2-2.4
		l-24.6,1.6c-2.3,0.2-3.6-1.8-3.9-5.9l-0.2-3.5C28.2,603,29.2,600.9,31.5,600.7z M73.5,619.4c0.2,1.6,1.2,3,2.6,3.7
		c2.2,1,4.7,1.4,7.1,1.1c3.1-0.2,5.3-0.9,6.6-2c1.3-1,2-2.6,1.9-4.3l-0.4-5.4l-18.2,1.2L73.5,619.4z"/>
	<path class="st2" d="M40,680.3l68.6-13.5c2.4-0.5,3.9,1.2,4.7,5.1l0.8,4.2c0.7,3.8-0.1,5.9-2.4,6.4L43.1,696
		c-2.4,0.5-3.9-1.2-4.7-5l-0.8-4.2C36.9,682.9,37.7,680.7,40,680.3z"/>
	<path class="st2" d="M84.7,721.4c24.6-8.6,39.9-4.4,45.7,12.4c2.9,8.2,2,15.5-2.5,21.8c-4.5,6.3-13.1,11.7-25.7,16.1
		c-12.7,4.4-22.7,5.5-30.2,3.3c-7.5-2.2-12.6-7.4-15.5-15.6C50.7,742.7,60.1,730,84.7,721.4z M74.1,759.7c1.9,0.9,4.6,1.2,8.3,0.7
		c5-0.8,9.8-2.1,14.6-3.9c4.8-1.5,9.3-3.5,13.7-6c3.2-1.9,5.2-3.8,6.1-5.7c0.9-2,0.9-4.3,0.1-6.3c-0.6-2.1-2.1-3.9-4-4.9
		c-1.9-1-4.6-1.2-8.3-0.8c-4.9,0.8-9.8,2-14.5,3.8c-4.8,1.5-9.4,3.6-13.8,6c-3.2,1.9-5.2,3.9-6.1,5.8c-0.9,2-0.9,4.3-0.1,6.3
		C70.7,757,72.2,758.7,74.1,759.7z"/>
	<path class="st2" d="M86.1,824.7c-0.7-2.8-0.5-5.6,0.4-8.3c0.6-1.2,1.5-2.3,2.7-3c1.9-1,4-1.6,6.2-1.6c2.3-0.1,3.8,0.4,4.4,1.4
		c0.3,0.9,0.4,1.9,0.3,2.8c-0.1,1.4-0.1,2.4-0.1,3c-0.1,2.5,0.4,5,1.4,7.2c0.9,1.8,2.4,3.3,4.2,4.2c1.7,0.9,3.8,0.7,6.1-0.5
		c2.2-1,3.8-2.9,4.6-5.2c0.7-2.9,1.1-5.9,1.1-8.9c0.1-5,1.2-9.9,3.2-14.4c1.8-3.7,5.2-6.8,10-9.4c3.5-2,7.5-3.1,11.5-3.1
		c3.7,0,7.3,1,10.3,3c3.2,2.1,5.8,5,7.6,8.4c1.2,2.2,2,4.6,2.5,7c0.5,2.2,0.7,4.4,0.4,6.6c-0.2,1.5-1.1,2.8-2.5,3.4
		c-1.8,1-3.8,1.6-5.8,1.8c-2.2,0.3-3.6,0-4.2-1c-0.4-1-0.6-2-0.6-3c-0.2-2.3-0.7-4.5-1.7-6.6c-1.4-2.5-2.9-3.9-4.5-4.2
		c-1.6-0.3-3.3,0-4.7,0.7c-2,0.9-3.5,2.5-4.3,4.5c-0.7,2.5-1,5-0.9,7.6c0,0.7,0,1.7,0,3.1c-0.1,4.7-1.3,9.2-3.4,13.4
		c-2,3.4-5.3,6.4-10.1,9c-3.4,1.9-7.2,3-11.1,3.2c-3.8,0.2-7.6-0.7-10.9-2.6c-3.7-2.2-6.7-5.4-8.7-9.3
		C87.8,831.2,86.7,828,86.1,824.7z"/>
	<path class="st2" d="M122.8,880.6l56.7-41c1.9-1.4,4.1-0.5,6.4,2.7l2.5,3.5c2.3,3.1,2.4,5.4,0.5,6.8l-56.7,41
		c-1.9,1.4-4.1,0.5-6.3-2.6l-2.5-3.5C121,884.3,120.8,882,122.8,880.6z"/>
	<path class="st2" d="M156.1,927.3c0.2-1.2,0.8-2.2,1.7-3l48.4-47.4c0.8-0.9,1.8-1.5,3-1.7c1.1,0,2.1,0.5,2.7,1.3l13.5,13.8
		c6.2,6.3,8.5,13.2,6.8,20.6c-1.6,7.4-7,15.6-16.2,24.6c-9.2,9-17.5,14.2-24.9,15.6c-7.5,1.4-14.3-1-20.4-7.3L157.4,930
		C156.6,929.3,156.1,928.3,156.1,927.3z M180.8,933.5c2.5,2.6,5.6,3.2,9.3,1.8c3.7-1.4,8.6-5.2,14.9-11.3c6.2-6.1,10.1-11,11.6-14.6
		c1.5-3.6,1-6.7-1.5-9.3l-4.6-4.7l-34.2,33.5L180.8,933.5z"/>
	<path class="st2" d="M217,983.4c0.4-0.5,0.9-1,1.4-1.4l52.8-47.8c1.6-1.4,3.8-1,6.8,1.1l5.4,3.8c3.1,2.1,4.2,4.2,3.4,6.1
		l-27.1,65.9c-0.5,0.9-0.8,1.5-1,1.7c-0.9,1.3-2.6,1.1-5-0.6l-4.4-3.1c-2.7-1.9-3.7-3.5-3.1-5l5.5-12.4l-12.7-8.9l-9.9,9.3
		c-1.1,1.1-2.8,0.8-5.2-0.9l-4.3-3C217,986.3,216.1,984.7,217,983.4z M258,979.8l9.6-21.6c1.1-2.4,2.4-4.9,3.8-7.5l-0.4-0.3
		c-2,2.2-3.9,4.2-5.8,6.1l-17,16.4L258,979.8z"/>
	<path class="st2" d="M291.7,1032.4c-0.2-1.2-0.1-2.4,0.5-3.4l27.5-61.9c0.4-1.1,1.2-2.1,2.2-2.7c1-0.4,2.1-0.3,3,0.2l17.7,7.9
		c8.1,3.6,12.7,9.1,14,16.6c1.2,7.5-0.7,17.1-5.9,28.8c-5.2,11.7-11,19.6-17.4,23.7c-6.4,4.1-13.6,4.4-21.7,0.8l-17.7-7.9
		C292.9,1034.2,292.1,1033.4,291.7,1032.4z M316.9,1029.1c3.3,1.5,6.4,0.9,9.3-1.8c2.9-2.7,6.1-8,9.7-16c3.5-8,5.3-13.9,5.4-17.9
		c0-3.9-1.6-6.6-4.9-8.1l-6-2.6l-19.4,43.7L316.9,1029.1z"/>
	<path class="st2" d="M375.8,1064.3c-0.5-1.1-0.5-2.3-0.2-3.5l15-66.1c0.2-1.2,0.7-2.3,1.6-3c0.9-0.6,2-0.7,3-0.4l29.3,6.6
		c0.9,0.2,1.7,0.9,1.9,1.8c0.3,1.4,0.2,2.8-0.2,4.2l-0.7,3.3c-0.2,1.4-0.8,2.7-1.6,3.9c-0.6,0.7-1.6,1-2.5,0.8l-17.5-4l-3.5,15.4
		l15.5,3.5c0.9,0.2,1.7,0.9,1.9,1.8c0.3,1.4,0.2,2.8-0.2,4.2l-0.7,3.3c-0.2,1.4-0.8,2.7-1.6,3.9c-0.6,0.7-1.6,1-2.5,0.8l-15.5-3.5
		l-3.9,17.3l17.6,4c0.9,0.2,1.7,0.9,1.8,1.8c0.2,1.4,0.1,2.8-0.3,4.2l-0.7,3.3c-0.2,1.4-0.8,2.7-1.6,3.9c-0.6,0.7-1.5,1.1-2.4,0.8
		l-29.4-6.7C377.3,1065.8,376.4,1065.2,375.8,1064.3z"/>
	<path class="st2" d="M456.2,1077.9c-2.7-0.9-5.1-2.5-6.9-4.6c-0.8-1.1-1.2-2.5-1.2-3.9c0.1-2.2,0.7-4.3,1.8-6.2
		c1.1-2.1,2.3-3.1,3.5-3c0.9,0.2,1.8,0.6,2.5,1.2c1.2,0.8,2,1.3,2.5,1.6c2.1,1.4,4.4,2.2,6.9,2.5c2,0.1,4-0.4,5.8-1.4
		c1.7-1,2.6-2.8,2.7-5.5c0.2-2.4-0.5-4.8-2.1-6.6c-2.1-2.1-4.5-4-7.1-5.5c-4.2-2.6-7.9-6.1-10.7-10.2c-2.2-3.4-3.2-7.9-2.9-13.5
		c0.1-4,1.2-8,3.3-11.5c1.9-3.1,4.6-5.7,7.9-7.3c3.5-1.7,7.3-2.4,11.2-2.2c2.5,0.1,4.9,0.6,7.3,1.5c2.1,0.7,4.1,1.7,5.9,3
		c1.2,1,1.8,2.4,1.7,3.9c-0.1,2.1-0.6,4.1-1.4,6c-0.9,2.1-1.9,3.1-3,3c-1-0.2-2-0.5-2.9-1c-2-1-4.3-1.7-6.5-1.9
		c-2.9-0.1-4.8,0.4-5.9,1.7c-1.1,1.2-1.7,2.8-1.8,4.4c-0.3,2.2,0.3,4.3,1.7,6c1.8,1.8,3.8,3.4,6,4.7c0.6,0.3,1.5,0.9,2.7,1.6
		c3.9,2.5,7.3,5.9,9.7,9.8c1.9,3.4,2.8,7.9,2.5,13.3c-0.1,3.9-1.1,7.7-2.9,11.2c-1.8,3.4-4.5,6.2-7.8,8c-3.8,2.1-8.1,3-12.5,2.6
		C462.6,1079.8,459.3,1079.1,456.2,1077.9z"/>
	<path class="st2" d="M565.6,1069.1l-15.3-67.1c-0.4-1.1-0.3-2.4,0.2-3.5c0.6-0.9,1.5-1.5,2.6-1.6l27.3-6.2c0.9-0.3,1.9,0.1,2.5,0.8
		c0.8,1.2,1.4,2.5,1.6,3.9l0.8,3.3c0.4,1.4,0.5,2.8,0.2,4.2c-0.2,0.9-1,1.6-1.9,1.8l-15.5,3.5l4,17.7l14.6-3.3
		c0.9-0.3,1.9,0.1,2.5,0.8c0.8,1.2,1.4,2.5,1.6,3.9l0.8,3.3c0.4,1.4,0.5,2.8,0.2,4.2c-0.2,0.9-1,1.6-1.9,1.8l-14.6,3.3l5.9,25.8
		c0.5,2.3-1.1,3.8-5,4.7l-4,0.9C568.3,1072.1,566.2,1071.4,565.6,1069.1z"/>
	<path class="st2" d="M637.9,1051c-1-0.6-1.8-1.6-2.1-2.7l-26.4-62.4c-0.6-1.1-0.7-2.3-0.5-3.4c0.4-1,1.2-1.7,2.2-2.1l27.7-11.7
		c0.8-0.4,1.9-0.3,2.6,0.3c1,1,1.8,2.2,2.3,3.5l1.3,3.1c0.6,1.3,1,2.7,1,4.1c-0.1,0.9-0.7,1.8-1.6,2.1l-16.5,7l6.2,14.6l14.6-6.2
		c0.8-0.4,1.9-0.3,2.6,0.3c1,1,1.8,2.2,2.3,3.5l1.3,3.1c0.6,1.3,1,2.7,1,4.1c-0.1,0.9-0.7,1.8-1.6,2.1l-14.6,6.2l6.9,16.3l16.6-7
		c0.8-0.4,1.8-0.3,2.5,0.4c1,1,1.8,2.2,2.2,3.6l1.3,3.1c0.6,1.3,1,2.7,1,4.1c0,0.9-0.6,1.7-1.5,2.1l-27.8,11.8
		C640,1051.4,638.9,1051.4,637.9,1051z"/>
	<path class="st2" d="M706.8,1017.6c-1.1-0.4-2-1.3-2.6-2.3l-37-58c-1.3-2-0.2-4,3.1-6.1l3.4-2.2c3.3-2.1,5.6-2.2,6.9-0.2l31.7,49.6
		l12.8-8.2c0.8-0.6,1.8-0.6,2.7-0.2c1.2,0.8,2.1,1.9,2.8,3.1l1.8,2.9c0.8,1.1,1.4,2.5,1.6,3.9c0.1,1-0.4,1.9-1.3,2.4l-23,14.7
		C708.9,1017.6,707.9,1017.8,706.8,1017.6z"/>
	<path class="st2" d="M760.7,976.9l-45.2-53.3c-1.6-1.8-0.8-4,2.2-6.6l3.3-2.8c3-2.5,5.2-2.8,6.8-1l45.2,53.3c1.6,1.8,0.9,4-2.1,6.5
		l-3.3,2.8C764.5,978.4,762.3,978.7,760.7,976.9z"/>
	<path class="st2" d="M801.8,939.4l-51.4-45.7c-1-0.7-1.6-1.8-1.8-2.9c0-1.1,0.5-2.2,1.3-3l11.7-13.2c3.4-3.9,8-6.5,13.2-7.3
		c5.2-0.9,11.3,1.8,18.3,8c4.8,4.3,7.7,8.4,8.8,12.6c1.1,3.5,1.1,7.2,0.1,10.7c-0.8,2.6-2.1,5-3.8,7.1l-4.7,5.3l18.9,16.8
		c1.7,1.5,1.3,3.8-1.4,6.9l-2.3,2.6C805.7,940.2,803.5,941,801.8,939.4z M786.2,897.5c1.1-1.2,1.5-2.9,1.1-4.5
		c-0.3-1.8-1.8-4-4.6-6.4c-2.7-2.4-4.9-3.6-6.7-3.7c-1.6-0.2-3.2,0.4-4.3,1.6l-3.6,4l14.5,12.9L786.2,897.5z"/>
	<path class="st2" d="M853.9,878.8c-1.2,0.1-2.4-0.3-3.3-1l-57.1-36.4c-1.1-0.6-1.9-1.5-2.3-2.6c-0.2-1,0-2.1,0.7-3l16.2-25.3
		c0.5-0.8,1.4-1.3,2.3-1.2c1.4,0.2,2.7,0.8,3.9,1.6l2.9,1.8c1.2,0.7,2.3,1.7,3.1,2.8c0.5,0.8,0.4,1.8-0.1,2.6l-9.6,15.1l13.4,8.5
		l8.6-13.4c0.5-0.8,1.4-1.3,2.3-1.2c1.4,0.2,2.7,0.8,3.9,1.6l2.9,1.8c1.2,0.7,2.3,1.7,3.1,2.8c0.5,0.8,0.4,1.8-0.1,2.6l-8.6,13.4
		l14.9,9.5l9.7-15.2c0.5-0.8,1.4-1.3,2.3-1.1c1.4,0.3,2.7,0.8,3.9,1.7l2.9,1.8c1.2,0.7,2.3,1.6,3.1,2.8c0.5,0.8,0.5,1.8-0.1,2.6
		l-16.2,25.4C855.8,877.9,854.9,878.6,853.9,878.8z"/>
	<path class="st2" d="M905.5,776.7l-65.1-22.5c-1.2-0.3-2.2-1-2.8-2c-0.4-1-0.4-2.2,0-3.3l5.6-16.1c2-5.9,5.2-10.1,9.6-12.6
		c4.4-2.5,10.2-2.5,17.5,0c8.1,2.8,12.8,7.8,14.3,15.2l0.4,0.1c1.6-1.3,3.5-2.1,5.5-2.4c2.3-0.5,4.7-0.6,7.1-0.5l21.8,1.2l1.3,0.1
		c1.9,0.6,2.1,3,0.7,6.9l-1.2,3.4c-1.2,3.4-2.8,5-4.8,4.8l-21.4-1.7c-1.3,0-2.7,0.3-3.9,0.9c-1.1,0.8-1.8,1.9-2.1,3.2l-0.8,2.3
		l23.3,8.1c2.2,0.8,2.6,3.1,1.3,6.9l-1.1,3.3C909.5,775.9,907.7,777.5,905.5,776.7z M874.1,743.2c0.5-1.5,0.1-3.2-1-4.4
		c-1.6-1.8-3.7-3.1-6.1-3.8c-2.9-1-5.2-1.2-6.9-0.7c-1.6,0.4-2.8,1.6-3.4,3.2l-1.8,5.1l17.2,6L874.1,743.2z"/>
	<path class="st2" d="M931.3,698c-1.1,0.5-2.3,0.6-3.4,0.3l-66.6-12.2c-1.2-0.1-2.3-0.6-3.1-1.5c-0.6-0.9-0.8-2-0.5-3l5.4-29.6
		c0.1-0.9,0.8-1.7,1.7-2c1.4-0.3,2.8-0.3,4.2,0l3.3,0.6c1.4,0.2,2.8,0.7,4,1.4c0.8,0.6,1.1,1.5,0.9,2.4l-3.2,17.6l15.6,2.8l2.9-15.6
		c0.1-0.9,0.8-1.7,1.7-2c1.4-0.3,2.8-0.3,4.2,0l3.3,0.6c1.4,0.2,2.8,0.7,4,1.4c0.8,0.6,1.1,1.5,0.9,2.4l-2.9,15.6l17.4,3.2l3.2-17.7
		c0.1-0.9,0.8-1.7,1.7-1.9c1.4-0.3,2.8-0.2,4.2,0.1l3.3,0.6c1.4,0.2,2.8,0.6,4,1.4c0.8,0.5,1.1,1.5,0.9,2.4l-5.4,29.7
		C932.8,696.4,932.2,697.4,931.3,698z"/>
	<path class="st2" d="M940.1,613l-29.7-1L871,626.3c-0.3,0.1-0.8,0.3-1.4,0.5c-0.4,0.2-0.9,0.3-1.4,0.3c-0.7,0-1.2-0.6-1.5-1.6
		c-0.4-1.5-0.6-3-0.4-4.6l0.2-5.2c0.1-3.3,0.9-5.2,2.3-5.5l27.1-7l-26.6-8.8c-0.8-0.3-1.4-0.9-1.6-1.8c-0.3-1.3-0.4-2.6-0.3-3.9
		l0.2-4.3c0.2-4.3,1-6.4,2.4-6.3c0.9,0.1,1.9,0.4,2.7,0.8l38.5,17.1l29.4,1c2.3,0.1,3.4,2.1,3.3,6.1l-0.1,4
		C943.6,611.2,942.4,613.1,940.1,613z"/>
	<path class="st2" d="M942.9,550c-1,0.7-2.1,1-3.3,0.9h-67.7c-1.2,0.1-2.4-0.2-3.3-0.9c-0.7-0.8-1.1-1.8-1-2.9v-30.1
		c0-0.9,0.5-1.8,1.3-2.2c1.3-0.6,2.7-0.8,4.2-0.7h3.4c1.4-0.1,2.8,0.2,4.2,0.7c0.8,0.4,1.4,1.3,1.3,2.2V535h15.8v-15.9
		c0-0.9,0.5-1.8,1.3-2.2c1.3-0.6,2.7-0.8,4.2-0.7h3.4c1.4-0.1,2.8,0.2,4.2,0.7c0.8,0.4,1.4,1.3,1.3,2.2V535h17.7v-18
		c-0.1-0.9,0.5-1.8,1.3-2.2c1.3-0.5,2.7-0.7,4.2-0.7h3.4c1.4-0.1,2.8,0.1,4.2,0.7c0.8,0.4,1.4,1.3,1.3,2.2v30.2
		C944,548.2,943.7,549.3,942.9,550z"/>
	<path class="st2" d="M943.2,476.8c-0.7,2.7-2.2,5.2-4.3,7.1c-1.1,0.8-2.4,1.3-3.8,1.3c-2.2,0-4.3-0.6-6.2-1.5
		c-2.1-1-3.2-2.1-3.2-3.4c0.2-0.9,0.5-1.8,1.1-2.6c0.7-1.2,1.2-2.1,1.5-2.6c1.3-2.1,2.1-4.5,2.2-7c0-2-0.5-4-1.6-5.7
		c-1.1-1.6-2.9-2.4-5.6-2.4c-2.4-0.1-4.7,0.7-6.5,2.3c-2,2.2-3.8,4.7-5.2,7.3c-2.5,4.3-5.8,8.1-9.7,11.2c-3.3,2.3-7.8,3.5-13.3,3.5
		c-4,0.1-8.1-0.9-11.6-2.8c-3.2-1.7-5.9-4.4-7.6-7.6c-1.8-3.4-2.7-7.2-2.7-11.1c0-2.5,0.4-5,1.1-7.3c0.6-2.2,1.5-4.2,2.8-6
		c0.9-1.2,2.3-1.9,3.8-1.8c2.1,0,4.1,0.4,6,1.2c2.1,0.8,3.2,1.7,3.2,2.9c-0.1,1-0.4,2-0.9,3c-1,2.1-1.5,4.3-1.6,6.6
		c0,2.9,0.7,4.8,2,5.9c1.3,1,2.8,1.6,4.5,1.6c2.2,0.2,4.3-0.5,6-1.9c1.8-1.9,3.2-3.9,4.4-6.2c0.3-0.6,0.8-1.5,1.5-2.8
		c2.3-4.1,5.5-7.5,9.4-10.1c3.4-2.1,7.8-3.1,13.2-3.1c3.9,0,7.8,0.8,11.3,2.4c3.4,1.6,6.3,4.2,8.4,7.4c2.2,3.7,3.3,8,3.2,12.3
		C944.8,470.2,944.3,473.6,943.2,476.8z"/>
	<g>
		<defs>
			<path id="SVGID_1_" d="M739.2,283.9V692c-76.5-18.2-157.1-2.1-220.8,44c-10.6,7.7-20.6,16.1-30,25.3
				c-71.1-69.3-174.5-94-269.3-64.3V283.9c0-143.6,116.4-260,260-260C622.7,24,739.1,140.3,739.2,283.9z"/>
		</defs>
		<clipPath id="SVGID_00000041975479294083661060000013706074360432695948_">
			<use xlink:href="#SVGID_1_"  style="overflow:visible;"/>
		</clipPath>
		<g style="clip-path:url(#SVGID_00000041975479294083661060000013706074360432695948_);">
			<path class="st5" d="M233.6,315.6c0.5-0.4,1.3-0.8,1.9-1.3c12.8-10.2,25.6-20.5,38.4-30.8c0.6-0.5,1.1-1,1.8-1.6
				c-0.3-0.6-0.5-1.1-0.8-1.6c-0.3-0.6-0.8-1.1-1.1-1.7c-0.5-0.7-0.3-1.7,0.4-2.1c0.6-0.4,1.5-0.3,2,0.3c0.2,0.2,0.4,0.4,0.5,0.6
				c1.7,2.2,3.4,4.5,5.1,6.7c0.3,0.4,0.5,0.9,0.7,1.4c0.2,0.6,0,1.2-0.5,1.6c-0.5,0.1-1,0.2-1.5,0c-0.4-0.1-0.7-0.5-1-0.8
				c-0.3-0.2-0.5-0.4-0.8-0.6c-0.2-0.1-0.3-0.1-0.5-0.1c-4.7,3.7-9.4,7.3-14.1,11c-4.7,3.7-9.4,7.4-14,11.2
				c-4.6,3.8-9.2,7.6-14,11.3c0.3,0.7,0.5,1.3,0.8,2c0.2,0.4,0.3,0.8,0.4,1.2c0.1,0.7-0.5,1.3-1.2,1.4c-0.2,0-0.4,0-0.5-0.1
				c-0.4-0.2-0.7-0.4-1-0.7c-1.9-2.1-3.8-4.2-5.6-6.3c-0.4-0.5-0.8-1.1-1-1.8c0-0.5,0.1-1,0.4-1.4c0.4-0.5,1.1-0.6,1.6-0.2
				c0.5,0.3,0.9,0.7,1.3,1.2C231.9,314.8,232.7,315.4,233.6,315.6z M250,331c12.4-9.9,24.8-19.9,37.2-29.8c0.3-0.3,0.7-0.6,1-0.8
				c0.4-0.2,0.9-0.4,1.4-0.6c0.5,0.5,0.9,0.9,1.3,1.3c0.3,0.3,0.6,0.6,0.9,0.9c0.5,0.4,1.2,0.4,1.7,0c0.5-0.4,0.6-1,0.4-1.6
				c-0.1-0.3-0.3-0.6-0.5-0.9c-1.7-2.6-3.6-5-5.8-7.1c-0.4-0.4-0.9-0.7-1.5-0.9c-0.5-0.2-1.1,0.2-1.3,0.7c0,0.1,0,0.3,0,0.4
				c0.2,0.6,0.4,1.1,0.7,1.6c0.4,0.7,1.2,1.2,1.1,2.3c-0.8,0.9-1.6,1.7-2.6,2.3c-11.9,9.5-23.7,19-35.6,28.6c-0.5,0.4-1,0.9-1.6,1.3
				c-0.5,0.3-1,0.6-1.6,0.9c-0.6-0.6-1.2-1.1-1.8-1.6c-0.3-0.4-0.7-0.7-1.2-1c-0.4-0.2-0.8-0.1-1.2,0c-0.3,0.3-0.5,0.7-0.5,1.1
				c0.1,0.7,0.4,1.3,0.7,1.9c1.8,2.3,3.6,4.6,5.4,6.8c0.3,0.3,0.6,0.6,1,0.8c0.5,0.3,1,0.2,1.4-0.1c0.4-0.3,0.6-0.9,0.5-1.4
				c-0.2-0.5-0.4-0.9-0.6-1.4c-0.3-0.6-0.6-1.2-1.1-2C248.7,332.1,249.4,331.6,250,331L250,331z M261.6,270.1
				c-2.4,1.8-4.8,3.6-7.1,5.4c-6.7,5.3-13.4,10.7-20,16c-2.1,1.7-4.2,3.5-6.3,5.3c-1.5,1.3-3,2.5-4.6,3.7c-0.4,0.5-1.1,0.5-1.6,0.1
				c-0.1-0.1-0.1-0.1-0.2-0.2c-0.3-0.3-0.5-0.7-0.8-1c-0.3-0.4-0.7-0.8-1-1.1c-0.5-0.4-1.1-0.5-1.7-0.2c-0.5,0.3-0.8,0.9-0.7,1.5
				c0.2,0.7,0.6,1.4,1,2.1c1,1.4,2.1,2.7,3.3,4c0.7,0.8,1.5,1.6,2.4,2.3c0.5,0.5,1.3,0.5,1.9,0.1c0.5-0.5,0.6-1.3,0.2-1.9
				c-0.4-0.7-1.2-1.3-1-2.5c0.6-0.5,1.3-1.1,2-1.7c3.2-2.6,6.4-5.1,9.7-7.6c1.7-1.3,3.4-2.6,5-3.9c2-1.6,4.1-3.1,6-4.8
				c5.5-4.5,11-9,16.5-13.5c0.5-0.3,1-0.7,1.6-0.9c0.7,0.6,1.3,1.2,1.9,1.8c0.5,0.4,1.2,0.5,1.7,0.1c0.5-0.4,0.7-1,0.5-1.6
				c-0.1-0.4-0.3-0.8-0.5-1.2c-1.6-2.2-3.3-4.4-5-6.5c-0.4-0.5-0.9-0.8-1.5-1c-0.5-0.1-1,0-1.4,0.3c-0.3,0.4-0.4,0.9-0.4,1.4
				c0.1,0.5,0.4,0.9,0.7,1.3c0.7,0.7,1.2,1.6,1.4,2.5C262.9,269,262.3,269.6,261.6,270.1L261.6,270.1z"/>
			<path class="st6" d="M415.6,388.4c6.4,7.8,11.2,16.8,14,26.5c0.7,2.2,1.5,4.3,2.3,6.5c0.2,0.5,0.4,0.9,0.7,1.4
				c0.7,1.4,2.1,2.3,3.7,2.5c2,0.3,4.1,0.3,6.1,0.1c4.4-0.4,8.9-0.5,13.3-0.4c8.2,0.1,16.4,1.5,24.2,4.2c9.6,3.3,18.4,8.5,25.8,15.3
				c8.8,8.1,15.3,18.3,18.9,29.7c1.9,5.7,3.4,11.5,4.4,17.4c1.1,7.4,1,14.9-0.4,22.2c-1.5,8.4-3.7,16.7-6.5,24.8
				c-2.8,7.7-6.6,15-11.3,21.8c-3.4,5-7.2,9.7-11.4,14.2c-1.4,1.5-2.9,2.9-4.4,4.3c-3.6,3.2-7.1,6.4-10.9,9.3
				c-3.5,2.7-7.2,5.2-10.9,7.7c-8.2,5.5-17.1,9.7-26.5,12.6c-8.6,2.8-17.6,4.3-26.7,4.5c-3.8,0.1-7.7,0.2-11.5,0.2
				c-8.7,0.1-17.3-1.4-25.4-4.5c-9.3-3.5-18-8.5-25.7-14.7c-5.6-4.5-10.4-10-14.1-16.1c-9.9-15.8-13.4-34.7-10-52.9
				c0.8-5.1,2-10.1,3.6-14.9c0.8-2.2,1.2-4.5,1.3-6.8c0-1-0.3-2-1-2.8c-1-1.2-2.2-2.2-3.5-3c-2-1.2-4.1-2.4-6.2-3.7
				c-6.2-3.6-11.9-8.1-16.8-13.4c-3.5-3.8-6.7-7.8-9.5-12.1c-1.6-2.4-3-5-4.2-7.6c-2.6-5.9-4-12.2-4.2-18.6
				c-0.1-2.6,0.1-5.1,0.5-7.7c1.5-8.7,4.2-17.1,8.2-25c3.1-6,7-11.6,11.6-16.5c1.2-1.4,2.4-2.9,3.7-4.3c1.4-1.4,2.8-2.7,4.3-4
				c2.3-2.1,4.8-3.9,7.4-5.5c6.9-3.7,13.8-7.4,21.4-9.6c7.2-2.1,14.7-3.1,22.3-3.2c0.6,0,1.2,0,1.8,0c12.6-0.3,23.4,4.4,32.8,12.5
				C410.2,381.7,413,384.9,415.6,388.4z"/>
			<path class="st7" d="M445.9,479.9c-11.4-4.3-22.5-3.8-33.3,2.1c-2.5,1.4-4.8,3.1-7.2,4.7c-2.3,2-4.4,4-6.5,6.2
				c-7,7.9-10.4,18.3-9.6,28.8c0.6,11.6,6.1,22.3,15,29.7c6.4,5.6,14.4,9,22.8,9.8c13,1.6,26-3.2,34.7-12.9
				c6.9-7.3,10.9-16.9,11.1-27C473.6,504.3,463.6,486.6,445.9,479.9z"/>
			<path class="st1" d="M408,609.1c-8,0-15.9-1.4-23.4-4.2c-8.9-3.4-17.2-8.1-24.5-14.1c-5.2-4.2-9.7-9.3-13.2-15
				c-9.3-14.9-12.7-32.8-9.4-50.1c0.8-4.9,2-9.7,3.5-14.4c0.9-2.6,1.4-5.2,1.5-7.9c0.1-2-0.6-4-1.8-5.5c-1.3-1.6-2.8-2.9-4.6-3.9
				c-1.4-0.8-2.7-1.6-4.1-2.4l-2.1-1.2c-5.9-3.4-11.2-7.7-15.9-12.6c-3.3-3.6-6.4-7.4-9-11.5c-1.5-2.3-2.8-4.6-3.9-7.1
				c-2.4-5.4-3.7-11.2-3.9-17.1c-0.1-2.3,0.1-4.5,0.5-6.7c1.4-8.3,4-16.3,7.8-23.8c3-5.7,6.6-10.9,11-15.7c0.6-0.6,1.1-1.3,1.6-2
				c0.7-0.8,1.3-1.5,1.9-2.2c1.3-1.3,2.6-2.5,4-3.7l0.8-0.6c0.6-0.5,1.2-1,1.8-1.5c1.3-1.1,2.7-2.1,4.2-2.9
				c6.6-3.6,13.4-7.2,20.6-9.3c6.9-2,14-3,21.2-3h0.1c0.6,0,1.2,0,1.7,0c10.9-0.3,20.7,3.5,30,11.5c2.8,2.6,5.4,5.5,7.8,8.6l0.4,0.6
				c6,7.3,10.5,15.9,13.2,25c0.5,1.8,1.2,3.5,1.8,5.1l0.6,1.6c0.3,0.7,0.6,1.4,1,2c1.4,2.5,3.9,4.2,6.7,4.5c2.4,0.3,4.7,0.4,7.1,0.1
				c4.3-0.4,8.5-0.5,12.8-0.4c7.8,0,15.5,1.4,22.8,3.9c9.1,3.1,17.4,8,24.4,14.5c8.3,7.6,14.4,17.3,17.8,28c1.9,5.4,3.3,11,4.2,16.7
				c1,6.9,0.9,14-0.4,20.9c-1.5,8.2-3.6,16.3-6.3,24.2c-2.7,7.4-6.3,14.4-10.8,20.8c-3.3,4.8-7,9.4-11,13.7c-1.3,1.4-2.7,2.8-4.1,4
				l-2,1.8c-2.6,2.3-5.2,4.6-7.9,6.8l-0.8,0.6c-2.6,2-5.4,3.9-8.1,5.8c-0.9,0.6-1.7,1.2-2.6,1.8c-7.8,5.2-16.4,9.3-25.4,12.1
				c-8.2,2.7-16.8,4.1-25.5,4.3l-3.5,0.1c-2.7,0.1-5.3,0.1-8,0.2C408.4,609.1,408.2,609.1,408,609.1z M375.3,371.7c-0.3,0-0.6,0-1,0
				c-0.6,0-1.2,0-1.8,0c-7.1,0-14.1,1-20.9,3c-7.1,2-13.8,5.7-20.4,9.2c-1.4,0.8-2.8,1.7-4,2.8c-0.6,0.5-1.2,1-1.8,1.4l-0.8,0.7
				c-1.4,1.1-2.7,2.3-3.9,3.6c-0.6,0.6-1.2,1.3-1.8,2.1c-0.6,0.7-1.1,1.3-1.7,2c-4.2,4.6-7.9,9.8-10.8,15.4
				c-3.7,7.4-6.3,15.3-7.7,23.5c-0.4,2.1-0.5,4.3-0.4,6.5c0.2,5.7,1.4,11.4,3.8,16.7c1.1,2.4,2.4,4.7,3.8,6.9
				c2.6,4,5.6,7.8,8.9,11.4c4.6,4.9,9.8,9,15.6,12.4l2.1,1.2c1.4,0.8,2.7,1.6,4.1,2.4c1.9,1.1,3.6,2.5,4.9,4.3
				c1.4,1.8,2.2,4.1,2.1,6.4c-0.1,2.8-0.7,5.6-1.6,8.3c-1.5,4.6-2.6,9.4-3.4,14.2c-3.2,17,0.1,34.5,9.3,49.2
				c3.4,5.6,7.8,10.6,12.9,14.7c7.3,5.9,15.4,10.6,24.2,13.9c7.5,2.8,15.4,4.2,23.4,4.1c2.7,0,5.3-0.1,8-0.2l3.5-0.1
				c8.5-0.1,17-1.6,25.1-4.2c8.9-2.7,17.4-6.8,25.1-12c0.9-0.6,1.7-1.2,2.6-1.8c2.8-1.9,5.4-3.7,8-5.7l0.8-0.6
				c2.6-2.1,5.3-4.5,7.8-6.7l2-1.8c1.4-1.2,2.7-2.5,4-3.9c4-4.2,7.6-8.7,10.8-13.5c4.4-6.3,8-13.2,10.7-20.5
				c2.7-7.8,4.8-15.9,6.3-24c1.2-6.8,1.4-13.7,0.4-20.5c-0.9-5.6-2.3-11.1-4.2-16.5c-3.3-10.5-9.3-20-17.4-27.4
				c-6.9-6.4-15.1-11.2-23.9-14.2c-7.2-2.5-14.8-3.8-22.4-3.9c-4.2-0.1-8.4,0-12.7,0.3c-2.5,0.2-4.9,0.2-7.4-0.1
				c-3.2-0.4-6.1-2.3-7.7-5.1c-0.4-0.7-0.8-1.4-1.1-2.2l-0.6-1.6c-0.6-1.7-1.3-3.4-1.8-5.2c-2.6-9-7-17.3-12.9-24.6l-0.5-0.6
				c-2.3-3-4.8-5.9-7.6-8.5C394.7,375.4,385.5,371.7,375.3,371.7z"/>
			<path class="st8" d="M270.1,283.3c2.7,3.5,7.3,9.5,11.7,15.6c2.5,3.3,4.7,6.8,6.5,10.5c0.5,1.2,1,2.4,1.4,3.6
				c0.7,1.9,0.6,3.9-0.2,5.8c-0.9,2.3-2.3,4.4-4.1,6.2c-1.7,1.8-3.6,3.4-5.7,4.8c-0.7,0.5-1.3,1.1-1.9,1.7c-2.2,1.9-4.6,3.5-7.3,4.8
				c-0.4,0.2-0.8,0.3-1.2,0.5c-3.5,1.6-7.6,1-10.6-1.4c-2.4-1.8-4.6-3.8-6.7-5.9c-3.4-3.7-6.7-7.5-10-11.3
				c-4.8-5.7-9.5-11.5-14.2-17.2c-1.9-2.4-3.9-4.7-5.8-7.2c-1.5-1.9-2.8-3.9-4.1-5.9c-0.8-1.1-0.8-2.5-0.1-3.6
				c0.2-0.4,0.5-0.9,0.8-1.3c0.6-0.9,1.1-1.7,1.7-2.6c2-2.9,2.7-6.4,1.9-9.8c-0.2-0.9-0.3-1.8-0.5-2.8c-0.2-1.7,0.1-3.4,0.8-5
				c0.6-1.4,1.9-2.5,3.5-2.7c1.6-0.4,3.3-0.3,4.8,0.2c1,0.4,2.1,0.8,3.1,1.3c2.8,1.3,6.1,1.5,9,0.4c1.1-0.4,2.2-0.8,3.4-1.2
				c0.6-0.2,1.1-0.4,1.7-0.6c1.2-0.3,2.4,0,3.3,0.8c1.7,1.5,3.2,3.1,4.5,4.9C260,270.6,264.1,275.7,270.1,283.3z M252.2,301.5
				L252.2,301.5c-0.9-1.4-1.8-2.7-2.8-4c-2.8-3.4-5.7-6.8-8.6-10.2c-0.1-0.1-0.2-0.3-0.4-0.4c-1.4-1.4-2.9-2.6-4.7-3.5
				c-2.1-1.1-4.7-0.8-6.5,0.7c-0.3,0.3-0.7,0.5-1,0.8c-1.9,1.7-2.2,2.9-1.1,5.2c0.1,0.3,0.3,0.6,0.5,0.9c1.4,2,2.8,4.1,4.3,6.1
				c2.8,3.8,5.7,7.5,8.5,11.2c1,1.4,2.1,2.7,3.3,3.9c2.6,2.9,5.1,5.7,7.8,8.5c1.7,1.9,3.5,3.7,5.3,5.5c1.1,1.1,2.3,2.1,3.5,3
				c0.7,0.5,1.4,0.9,2.2,1.2c1.6,0.8,3.5,0.5,4.8-0.8c1.4-1.1,1.9-3,1.2-4.6c-0.4-1.1-0.8-2.2-1.4-3.3c-1.8-3.4-3.9-6.6-6.4-9.6
				C258,308.7,255.1,305.1,252.2,301.5L252.2,301.5z M267.3,287.7c-4.7-5.5-8.3-9.7-11.8-14c-0.2-0.2-0.3-0.4-0.5-0.6
				c-1-1-2-2.1-3.1-3c-1.3-1.3-3.3-1.4-4.7-0.2c-0.6,0.4-1.1,0.8-1.6,1.2c-1.6,1.3-2.4,3.5-1.9,5.5c0.2,1.3,0.7,2.6,1.3,3.8
				c1,1.8,2.1,3.5,3.4,5.1c7.3,9.1,14.4,18.5,22.3,27.1c1.6,1.7,3.4,3.3,5.3,4.8c0.6,0.4,1.1,0.7,1.8,1c2.2,1,4.8,0,5.8-2.3
				c0.3-0.7,0.4-1.5,0.4-2.2c-0.1-0.8-0.3-1.7-0.6-2.5c-0.8-1.7-1.7-3.4-2.6-5c-1.3-2.1-2.7-4.1-4.1-6.2
				C273.7,296,270.6,291.8,267.3,287.7L267.3,287.7z"/>
			<path class="st0" d="M358.7,403.7c5.5,6.7,11.1,13.5,16.6,20.2c8.5,10.4,17.1,20.7,25.6,31.1c8.1,9.8,16.2,19.7,24.3,29.5
				c0.6,0.7,1.2,1.5,1.7,2.3c0.5,0.6,0.3,1.5-0.3,2c-0.1,0.1-0.2,0.1-0.3,0.2c-1.1,0.6-2.2,0.9-3.4,1.1c-3,0.2-5.5,1.7-8.1,3
				c-3.9,2-6.5,5.4-9,8.9c-0.4,0.8-0.8,1.5-1.1,2.3c-0.6,1.1-1.2,2.3-1.9,3.3c-0.4,0.7-1.3,1-2.1,0.5c-0.1-0.1-0.3-0.2-0.4-0.3
				c-0.5-0.5-1-1-1.4-1.5c-5.4-6.8-10.7-13.5-16.1-20.3c-4.6-5.9-9.1-11.8-13.7-17.6c-9.2-11.8-18.4-23.6-27.6-35.4
				c-5.5-7-10.9-14-16.3-21.1c-7.6-9.8-15.2-19.6-22.8-29.4c-6.5-8.4-13-16.8-19.5-25.1c-4.7-6-9.3-12-14-18
				c-0.1-0.1-0.2-0.3-0.3-0.4c-1.1-1.5-1.1-2.1,0.3-3.5c2.2-2.2,4.5-4.5,6.7-6.7c0.9-0.8,1.8-1.6,2.8-2.3c3-2,6-3.9,9-5.9
				c1.2-0.7,1.8-0.6,2.9,0.6c2.1,2.5,4.2,4.9,6.3,7.5c4.6,5.6,9.2,11.3,13.8,16.9c9.1,11.1,18.3,22.2,27.4,33.2
				C344.8,387.2,351.8,395.4,358.7,403.7L358.7,403.7z"/>
			<path class="st5" d="M411.3,494.1c1.9-1.2,3.6-2.6,5.6-3.6c7.9-4.4,17.4-5,25.7-1.6c13.1,5.1,21.5,18,20.9,32
				c-0.2,7.8-3.2,15.2-8.6,20.9c-6.8,7.5-16.8,11.3-26.8,10c-6.5-0.6-12.7-3.3-17.6-7.6c-6.9-5.7-11.1-14-11.6-22.9
				c-0.6-8.1,2-16.2,7.4-22.3C407.9,497.2,409.5,495.6,411.3,494.1z M448.8,542c1.9-1.5,3.6-3.2,5.1-5.1c8.4-10.6,8.4-25.5,0-36.1
				c-9.8-12.6-28-14.9-40.6-5.1c-0.9,0.7-1.8,1.5-2.6,2.3c-5.9,5.5-9.1,13.3-9,21.4c0,6.6,2.3,12.9,6.4,18c6.1,7.8,14.3,11.2,24,11
				C438.3,548.2,444.1,545.9,448.8,542L448.8,542z"/>
			<path class="st5" d="M448.8,542c-4.7,3.9-10.6,6.1-16.7,6.4c-9.7,0.2-17.9-3.2-24-11c-4.2-5.1-6.5-11.4-6.4-18
				c-0.1-8.1,3.2-15.8,9-21.4c11.3-11.3,29.6-11.2,40.9,0.1c0.8,0.8,1.6,1.7,2.3,2.6c8.4,10.6,8.4,25.5,0,36.1
				C452.4,538.8,450.7,540.5,448.8,542z"/>
			<path class="st0" d="M480,540.5c-6.3,5.1-12.7,10.2-19,15.3c-6.5,5.2-12.9,10.4-19.4,15.6c-0.3,0.2-0.5,0.4-0.8,0.6
				c-0.6,0.6-0.6,1.1,0.2,2.3c1.1,1.6,2.4,3.1,3.9,4.3c2.3,1.9,2.7,1.9,4.2,0.7c12.3-9.9,24.7-19.8,37-29.7c0.2-0.2,0.4-0.3,0.6-0.5
				c0.6-0.5,0.6-1.4,0.1-2.4c-0.7-1.6-1.6-3.1-2.7-4.6C482,539.2,481.6,539.2,480,540.5z"/>
			<path class="st9" d="M461.4,556.2c-0.2,0.2-0.5,0.2-0.7,0c-10.8-8.6-176.3-219.7-183.3-228.7c-0.2-0.2-0.2-0.6,0.1-0.8
				c0,0,0,0,0,0c0.3-0.2,0.6-0.2,0.8,0.1c1.7,2.2,172.4,220,183.1,228.5C461.7,555.4,461.7,555.8,461.4,556.2
				C461.5,556.1,461.4,556.1,461.4,556.2z"/>
			<path class="st9" d="M468.3,550.6c-0.3,0.2-0.6,0.2-0.8-0.1L283.7,323.6c-0.2-0.3-0.2-0.6,0.1-0.8c0.3-0.2,0.6-0.2,0.8,0.1
				l183.7,226.9C468.6,550,468.6,550.4,468.3,550.6L468.3,550.6z"/>
			<path class="st9" d="M453.6,562.4L453.6,562.4c-0.3,0.2-0.6,0.2-0.8-0.1c0,0,0,0,0,0L271.3,332.2c-0.2-0.3-0.1-0.6,0.1-0.8
				c0.3-0.2,0.6-0.2,0.8,0.1c0,0,0,0,0,0l181.4,230.1C453.9,561.9,453.8,562.2,453.6,562.4z"/>
			<ellipse class="st10" cx="598.4" cy="629.2" rx="228.5" ry="58.3"/>
			<rect x="369.9" y="600.2" class="st10" width="457.1" height="29"/>
			<ellipse class="st11" cx="598.4" cy="600.2" rx="228.5" ry="58.3"/>
			<rect x="563.2" y="404.6" class="st12" width="72.1" height="71.5"/>
			<path class="st12" d="M631.8,600.4c2.3-0.6,4.3-2,5.5-4c13.9-21.7,22.3-52.4,22.3-72.2c-0.3-33.7-27.8-60.8-61.5-60.5
				c-33.3,0.3-60.2,27.2-60.5,60.5c0,19.8,10.7,50.6,26.5,72.3c1.3,1.8,3.2,3,5.3,3.6c9.6,2.3,19.4,3.4,29.2,3.3
				C617,603.5,627,601.7,631.8,600.4z"/>
			<path class="st13" d="M639.6,407.9c0,2.8-18.5,5-41.3,5s-41.3-2.3-41.3-5s18.5-5,41.3-5S639.6,405.1,639.6,407.9z"/>
			<ellipse class="st13" cx="598.3" cy="400.8" rx="41.3" ry="5"/>
			<rect x="557" y="400.8" class="st13" width="82.7" height="6.7"/>
			<rect x="590.8" y="387.2" class="st12" width="15.7" height="13.5"/>
			<rect x="586.9" y="387.2" class="st13" width="23.5" height="2.9"/>
			<path class="st13" d="M610.4,390c0,1.2-5.3,2.1-11.8,2.1c-6.5,0-11.8-0.9-11.8-2.1c0-1.2,5.3-2.1,11.8-2.1
				C605.1,387.9,610.4,388.8,610.4,390z"/>
			<path class="st13" d="M610.4,387.2c0,1.2-5.3,2.1-11.8,2.1c-6.5,0-11.8-0.9-11.8-2.1c0-1.2,5.3-2.1,11.8-2.1
				C605.1,385.1,610.4,386.1,610.4,387.2z"/>
			<path class="st13" d="M601.9,484c-7.1,0-25-0.7-38.9-7.3l0.5-1.1c17.3,8.2,41.1,7.1,41.4,7.1l0.1,1.2
				C604.9,483.9,603.7,484,601.9,484z"/>
			<g class="st14">
				<ellipse class="st12" cx="591" cy="598.1" rx="153.9" ry="40.2"/>
			</g>
			<g class="st14">
				<path class="st12" d="M591,644.1c-31.1,0.1-62.1-2.2-92.9-7c-27-4.5-48.9-10.8-63.1-18.3l0.5-0.9C465,633.4,524.6,643,591,643
					V644.1z"/>
			</g>
			<g class="st14">
				<path class="st12" d="M671.7,638.9l-0.1-1c27.6-3.8,50.8-9.4,67.1-16.4c16.7-7.1,25.5-15.1,25.5-23.3h1.1
					c0,8.7-9,17.1-26.1,24.3C722.7,629.4,699.4,635.1,671.7,638.9z"/>
			</g>
			<g class="st14">
				<path class="st12" d="M730,571.4c-33.1-11.6-83.8-18.2-139-18.2c-46.4,0-90,4.7-122.7,13.3l-0.3-1c32.9-8.6,76.5-13.3,123-13.3
					c26.5-0.1,52.9,1.6,79.2,5c23.5,3.1,44.3,7.7,60.2,13.3L730,571.4z"/>
			</g>
			<g class="st14">
				<path class="st12" d="M663.1,631.1l-0.2-1c43.7-6.7,70.9-18.9,70.9-31.9c0-4.9-3.7-9.6-11-14.1c-7.2-4.4-17.5-8.4-30.6-11.9
					c-27.1-7.1-63-11-101.3-11c-38.3,0-74.3,3.9-101.3,11c-13.1,3.4-23.4,7.4-30.6,11.9c-7.3,4.5-11,9.3-11,14.1
					c0,5.8,5.5,11.6,15.8,16.8l-0.5,0.9c-10.9-5.5-16.4-11.4-16.4-17.8c0-10.3,15.1-19.9,42.4-27c27.1-7.1,63.2-11,101.6-11
					c38.4,0,74.4,3.9,101.6,11c27.3,7.1,42.4,16.7,42.4,27c0,6.9-6.9,13.6-20,19.4C702.4,623.1,684.5,627.8,663.1,631.1z"/>
			</g>
			<g class="st14">
				<ellipse class="st12" cx="591" cy="598.1" rx="117.9" ry="30.8"/>
			</g>
			<g class="st14">
				<path class="st12" d="M591,625.9c-33.7,0-65.5-4.4-85.2-11.7l0.4-1c19.6,7.3,51.3,11.6,84.9,11.6c27.9,0,54.1-2.9,73.8-8.1
					c19.2-5.1,30.2-12.1,30.2-19.2c0-7.1-11-14.1-30.2-19.2c-19.7-5.2-45.9-8.1-73.8-8.1c-37.6,0-72.4,5.4-90.9,14.1l-0.5-0.9
					c18.6-8.8,53.6-14.2,91.3-14.2c28,0,54.3,2.9,74.1,8.2c20,5.3,31,12.5,31,20.2c0,7.7-11,14.9-31,20.2
					C645.2,623,618.9,625.9,591,625.9z"/>
			</g>
			<path class="st15" d="M773.6,411.9c5,4.9,9.7,10.1,14.1,15.6c0,0-66.4,52-69.7,55.9c-3.3,3.9-16.5,42.8-19.1,46.7
				c-1.2,1.8-9.6,9.9-19,18.6c-11.1,10.3-23.8,21.5-28,24.3c-0.3,0.2-0.7,0.4-1,0.6c-0.1,0.1-0.2,0.1-0.3,0.2
				c-0.6,0.4-1.2,0.7-1.9,1c-0.1,0-0.1,0.1-0.2,0.1c-0.1,0.1-0.2,0.1-0.4,0.1c-0.1,0-0.2,0.1-0.4,0.1c-0.2,0.1-0.3,0.1-0.5,0.2
				c-0.4,0.1-0.7,0.2-1.1,0.3c-0.1,0-0.2,0-0.3,0c-0.1,0-0.2,0-0.3,0c-0.4,0-0.8,0-1.1,0c-0.1,0-0.1,0-0.2,0c-0.1,0-0.1,0-0.2,0
				c0,0-0.1,0-0.1,0c-0.6-0.2-1.2-0.6-1.6-1.1c0,0,0-0.1-0.1-0.1c0,0,0,0,0,0c0,0,0,0,0,0l0,0c0,0-2.6,2.2-5.8,4.5
				c-0.2,0.1-0.3,0.2-0.5,0.3c-0.3,0.2-0.7,0.5-1,0.7c-0.1,0.1-0.2,0.1-0.2,0.2c-0.3,0.2-0.5,0.3-0.8,0.5c-0.2,0.1-0.3,0.2-0.5,0.3
				c-0.2,0.1-0.3,0.2-0.5,0.3c-0.1,0.1-0.3,0.1-0.4,0.2c-0.2,0.1-0.4,0.3-0.7,0.4c-0.2,0.1-0.3,0.2-0.5,0.3
				c-0.1,0.1-0.2,0.1-0.3,0.2c-0.1,0-0.1,0.1-0.2,0.1c-0.2,0.1-0.3,0.2-0.5,0.2c-0.3,0.2-0.7,0.3-1,0.5c-0.2,0.1-0.3,0.1-0.5,0.2
				c-0.5,0.2-1,0.4-1.6,0.5c-0.1,0-0.2,0-0.3,0.1c-0.2,0-0.4,0.1-0.5,0.1c-0.1,0-0.1,0-0.2,0c-0.1,0-0.2,0-0.3,0c-0.1,0-0.1,0-0.2,0
				l-0.2,0c-0.1,0-0.1,0-0.2,0c-0.2,0-0.4,0-0.5-0.1c-0.1,0-0.1,0-0.2,0c-0.1,0-0.1,0-0.2-0.1c-0.9-0.3-1.7-0.9-2.3-1.7
				c0,0,0-0.1-0.1-0.1c0-0.1-0.1-0.1-0.1-0.2c0-0.1-0.1-0.1-0.1-0.2c0,0,0-0.1,0-0.1c0-0.1,0-0.1-0.1-0.2c0-0.1,0-0.1-0.1-0.2
				c0,0,0,0,0-0.1c0-0.1,0-0.1,0-0.2c0-0.1,0-0.1,0-0.2l0,0c0-0.1,0-0.1,0-0.2c0-0.1,0-0.1,0-0.2l0,0c0-0.1,0-0.1,0-0.2
				c0-0.1,0-0.1,0-0.2c0-0.1,0-0.1,0-0.2l0-0.1c0-0.1,0-0.1,0-0.2c0-0.1,0-0.3,0-0.4l0-0.2c0,0,0-0.1,0-0.1c0,0,0,0,0,0
				c0-0.1,0-0.2,0.1-0.3l0,0c0-0.1,0-0.1,0-0.2c0-0.1,0.1-0.2,0.1-0.4c0.1-0.2,0.2-0.5,0.3-0.7l0,0l0,0c0,0-0.1,0-0.2,0.1l0,0
				c-1.3,0.9-8.7,5.9-12.8,2c-0.9-0.8-1.5-1.8-1.8-3c0,0,0-0.1,0-0.1c-1.3-5.3,4.6-11.8,5.4-12.6c0,0,0,0,0.1-0.1l0,0
				c-2.5,1.8-5.9,1.3-7.8-1.2c-0.1-0.2-0.3-0.4-0.4-0.6c0-0.1-0.1-0.1-0.1-0.2c0,0,0-0.1-0.1-0.1c0,0,0-0.1,0-0.1c0,0,0-0.1,0-0.1
				c0,0,0-0.1,0-0.1c-0.1-0.3-0.1-0.5-0.2-0.8c0-0.1,0-0.1,0-0.2c0,0,0,0,0-0.1c0-0.1,0-0.1,0-0.2c0-0.1,0-0.1,0-0.2
				c0-0.1,0-0.1,0-0.2c0-0.1,0-0.1,0-0.2c0-0.1,0-0.1,0-0.2c0-0.3,0.1-0.6,0.1-0.9c0-0.1,0-0.2,0.1-0.3c0.1-0.7,0.3-1.4,0.6-2.1
				c0-0.1,0.1-0.3,0.1-0.4c0.1-0.2,0.1-0.3,0.2-0.5c0-0.1,0.1-0.2,0.1-0.4c0-0.1,0.1-0.2,0.1-0.3c0.1-0.1,0.1-0.3,0.2-0.4
				c0.1-0.1,0.1-0.3,0.2-0.4c0.5-1.3,1.2-2.7,2-4.2c0.1-0.2,0.2-0.3,0.3-0.5c0.2-0.3,0.4-0.7,0.6-1c0.1-0.2,0.2-0.4,0.3-0.5
				c1.2-2.2,2.6-4.5,4.3-7c0.2-0.2,0.3-0.5,0.5-0.7c0.2-0.2,0.3-0.5,0.5-0.7c0.2-0.3,0.4-0.5,0.5-0.8c0.1-0.2,0.3-0.4,0.4-0.6
				c0.2-0.2,0.3-0.5,0.5-0.7c0.2-0.2,0.3-0.5,0.5-0.7c0.2-0.2,0.3-0.5,0.5-0.7c0.2-0.2,0.3-0.5,0.5-0.7l0,0c0.2-0.3,0.4-0.5,0.5-0.8
				c0.2-0.3,0.4-0.6,0.7-0.9c0.1-0.2,0.3-0.4,0.5-0.6c0.2-0.3,0.4-0.5,0.6-0.8c0.8-1,1.6-2.1,2.4-3.2c12-15.6,29.4-45.1,29.7-45.6
				c-0.3,0.4-14.4,17.5-25.1,24.8c-0.8,0.5-1.5,1-2.3,1.4c-3.7,2.1-7.7,3.4-11.9,3.9c-5.9,0.7-9.7-1.2-6.4-5.8
				c1.7-2.3,4.8-6.6,8.4-11.7c0,0,0,0,0,0c2.4-3.4,5.1-7.1,7.7-10.8c7.2-10,14.1-19.7,15.4-21.2c2.5-2.9,31-13.8,51.2-27.4
				c20.1-13.6,59.2-50.4,59.2-50.4L773.6,411.9z"/>
			<path class="st16" d="M613,562.9l7.3-8.1c-0.7-1-6.5-6.1-14,2.5c-0.5,0.5-1.2,1.6-1.9,2.5c0,0.5,0.2,1,0.4,1.4
				c1.5,2.7,4.9,3.6,7.5,2.2C612.6,563.2,612.8,563,613,562.9z"/>
			<path class="st16" d="M608.8,579.2c5.3,5.7,12.2-1.5,13.5-2.4l0,0l2.5-3c0,0,0.8-2.5-0.5-4c-0.8-0.9-6.9-6.5-14,2.5l-2.5,2.9
				c-0.1,0.1-0.2,0.3-0.3,0.5c-0.4,0.7-0.3,1.6,0.1,2.2C608,578.3,608.4,578.8,608.8,579.2z"/>
			<path class="st16" d="M624.7,583.5c1.5,0.3,3,0.2,4.3-0.5l2.2-1.9c3.7-3.3,2.9-5.5,0.6-7.2c-2.3-1.7-4.5-1.1-6.4,0.7l-3.2,2.8
				C621.7,578.8,621,582.1,624.7,583.5z"/>
			<path class="st16" d="M648.6,574.9c0.6-0.5,1.3-1.1,1.8-1.7c1.9-2.3,0.6-3.7-1.4-5.2l-6.6,6.2l0,0
				C642.5,574.3,643.8,576.9,648.6,574.9z"/>
			<path class="st17" d="M613.3,563.1c0.1-0.1,10.5-11.7,19.8-20.9c9.7-9.6,23.1-26.7,30.6-37.6l-0.7-0.4
				c-7.4,10.9-20.9,27.9-30.5,37.5c-9.3,9.2-19.7,20.9-19.8,21L613.3,563.1z"/>
			<path class="st17" d="M622.8,576.9c0-0.1,3.7-5.3,13.6-13.5c10-8.3,37.1-35.8,37.3-36.1l-0.6-0.5c-0.3,0.3-27.3,27.8-37.3,36.1
				c-10,8.3-13.6,13.4-13.7,13.6L622.8,576.9z"/>
			<polygon class="st17" points="642.7,574.4 674.3,544.7 673.7,544.1 642.2,573.8 			"/>
			<path class="st16" d="M612.5,511.9c2.1-1.8,4.1-3.8,6-5.9c4.1-5.2,4.4-9.3-1.2-12.1c-0.9-0.5-2-0.3-2.8,0.4c0,0,0,0,0,0
				c-3.6,5.1-6.7,9.4-8.4,11.7C602.7,510.6,606.5,512.5,612.5,511.9z"/>
			<g class="st18">
				<path class="st12" d="M624.4,507.9L624.4,507.9c0,0,2.5-3.4,0-6.3c-2.4-2.9,3.7-5.4,5.8-10.6c2.1-5.2-1.6-9-8-7.6
					c-6.6,9.2-13.3,18.7-16.1,22.5C600.7,513.4,613.8,513.8,624.4,507.9z"/>
			</g>
			<g class="st18">
				<path class="st12" d="M608.8,579.2c5.3,5.7,12.2-1.5,13.5-2.4l0,0c0.1-0.1,0.2-0.1,0.2-0.1l0,0l0,0c-0.1,0.2-0.2,0.5-0.3,0.7
					c0,0.1-0.1,0.2-0.1,0.4c0,0.1,0,0.1,0,0.2l0,0c0,0.1-0.1,0.2-0.1,0.3c0,0,0,0,0,0c0,0,0,0.1,0,0.1l0,0.2c0,0.1,0,0.3,0,0.4
					c0,0.1,0,0.1,0,0.2l0,0.1c0,0.1,0,0.1,0,0.2c0,0.1,0,0.1,0,0.2c0,0.1,0,0.1,0,0.2l0,0c0,0.1,0,0.1,0,0.2c0,0.1,0,0.1,0,0.2l0,0
					c0,0.1,0,0.1,0,0.2c0,0.1,0,0.1,0,0.2c0,0,0,0,0,0.1c0,0.1,0,0.1,0.1,0.2c0,0.1,0,0.1,0.1,0.2c0,0,0,0.1,0,0.1
					c0,0.1,0.1,0.1,0.1,0.2s0.1,0.1,0.1,0.2c0,0,0,0.1,0.1,0.1c0.6,0.8,1.4,1.4,2.3,1.7c0.1,0,0.1,0.1,0.2,0.1c0.1,0,0.1,0,0.2,0
					c0.2,0,0.3,0.1,0.5,0.1c0.1,0,0.1,0,0.2,0l0.2,0c0.1,0,0.1,0,0.2,0c0.1,0,0.2,0,0.3,0c0.1,0,0.1,0,0.2,0c0.2,0,0.4-0.1,0.5-0.1
					c0.1,0,0.2,0,0.3-0.1c0.5-0.1,1.1-0.3,1.6-0.5c0.2-0.1,0.3-0.1,0.5-0.2c0.3-0.1,0.7-0.3,1-0.5c0.2-0.1,0.3-0.2,0.5-0.2
					c0.1,0,0.2-0.1,0.2-0.1c0.1-0.1,0.2-0.1,0.3-0.2c0.2-0.1,0.3-0.2,0.5-0.3c0.2-0.1,0.4-0.2,0.7-0.4c0.1-0.1,0.3-0.1,0.4-0.2
					c0.2-0.1,0.3-0.2,0.5-0.3c0.2-0.1,0.3-0.2,0.5-0.3c0.3-0.2,0.5-0.3,0.8-0.5c0.1-0.1,0.2-0.1,0.2-0.2c0.3-0.2,0.7-0.4,1-0.7
					c0.2-0.1,0.3-0.2,0.5-0.3c3.3-2.3,5.8-4.5,5.8-4.5l0,0c0,0,0,0,0,0c0,0,0,0,0,0c0,0,0,0.1,0.1,0.1c0.4,0.5,0.9,0.9,1.6,1.1
					c0,0,0.1,0,0.1,0c0.1,0,0.1,0,0.2,0c0.1,0,0.1,0,0.2,0c0.4,0.1,0.8,0.1,1.1,0c0.1,0,0.2,0,0.3,0c0.1,0,0.2,0,0.3,0
					c0.4-0.1,0.7-0.1,1.1-0.3c0.1,0,0.3-0.1,0.5-0.2c0.1,0,0.2-0.1,0.4-0.1c0.1,0,0.2-0.1,0.4-0.1c0.1,0,0.1-0.1,0.2-0.1
					c0.6-0.3,1.3-0.6,1.9-1c0.1-0.1,0.2-0.1,0.3-0.2c0.3-0.2,0.7-0.4,1-0.6c4.2-2.8,16.9-14,28-24.3c-2.9-2-5.1,4.4-9.6,4
					c-4.5-0.4-8.4,3-8.4,3s-6.3-2.2-10.9,2.3c-4.6,4.5-8.5,1.7-8.8-0.4c-0.2-2.1-4.4-3.8-7.5-3.1c-3,0.8-4-3.4-2.6-6.8
					c0.9-1.8,1.1-3.8,0.6-5.8l10-10.9c-1-4.5-8.5,2.8-14,2.8c-5.6,0-3-5.4-6.7-6.4c-0.8,1.1-1.6,2.1-2.4,3.2
					c-0.2,0.3-0.4,0.5-0.6,0.8c-0.2,0.2-0.3,0.4-0.5,0.6c-0.2,0.3-0.4,0.6-0.7,0.9c-0.2,0.3-0.4,0.5-0.5,0.8l0,0
					c-0.2,0.2-0.3,0.5-0.5,0.7c-0.2,0.2-0.4,0.5-0.5,0.7c-0.2,0.2-0.3,0.5-0.5,0.7c-0.2,0.2-0.3,0.5-0.5,0.7
					c-0.1,0.2-0.3,0.4-0.4,0.6c-0.2,0.3-0.4,0.5-0.5,0.8c-0.2,0.2-0.3,0.5-0.5,0.7c-0.2,0.2-0.3,0.5-0.5,0.7c-1.6,2.5-3.1,4.9-4.3,7
					c-0.1,0.2-0.2,0.4-0.3,0.5c-0.2,0.4-0.4,0.7-0.6,1c-0.1,0.2-0.2,0.3-0.3,0.5c-0.8,1.5-1.4,2.9-2,4.2c-0.1,0.1-0.1,0.3-0.2,0.4
					c-0.1,0.1-0.1,0.3-0.2,0.4c0,0.1-0.1,0.2-0.1,0.3c0,0.1-0.1,0.2-0.1,0.4c-0.1,0.2-0.1,0.3-0.2,0.5c0,0.1-0.1,0.3-0.1,0.4
					c-0.2,0.7-0.4,1.4-0.6,2.1c0,0.1,0,0.2-0.1,0.3c-0.1,0.3-0.1,0.6-0.1,0.9c0,0.1,0,0.1,0,0.2c0,0.1,0,0.1,0,0.2
					c0,0.1,0,0.1,0,0.2c0,0.1,0,0.1,0,0.2c0,0.1,0,0.1,0,0.2c0,0,0,0,0,0.1c0,0.1,0,0.1,0,0.2c0,0.3,0.1,0.5,0.2,0.8
					c0,0,0,0.1,0,0.1c0,0,0,0.1,0,0.1c0,0,0,0.1,0,0.1c0,0.1,0,0.1,0.1,0.1c0,0.1,0.1,0.1,0.1,0.2c1.5,2.7,4.9,3.6,7.5,2.2
					c0.2-0.1,0.4-0.2,0.6-0.4l0,0c0,0,0,0-0.1,0.1c-0.8,0.9-6.7,7.3-5.4,12.6c-0.4,0.7-0.3,1.6,0.1,2.2
					C608,578.3,608.4,578.8,608.8,579.2z"/>
			</g>
		</g>
	</g>
</g>
</svg>
