<?xml version="1.0" encoding="utf-8"?>
<!-- Generator: Adobe Illustrator 25.4.1, SVG Export Plug-In . SVG Version: 6.00 Build 0)  -->
<svg version="1.1" id="Capa_1" xmlns="http://www.w3.org/2000/svg" xmlns:xlink="http://www.w3.org/1999/xlink" x="0px" y="0px"
	 viewBox="0 0 874.5 505.6" style="enable-background:new 0 0 874.5 505.6;" xml:space="preserve">
<style type="text/css">
	.st0{enable-background:new    ;}
	.st1{fill:#BC6728;}
	.st2{font-family:'Poppins-Medium';}
	.st3{font-size:28.0537px;}
	.st4{letter-spacing:5;}
	.st5{fill:none;stroke:#BC6728;stroke-linecap:round;stroke-linejoin:round;stroke-dasharray:6.583;}
	.st6{fill:none;stroke:#BC6728;stroke-width:1.2021;stroke-linecap:round;stroke-linejoin:round;}
</style>
<g id="Capa_2_00000020361561333648801630000003265295908675259285_">
	<g class="st0">
		<path class="st1" d="M226.4,392.3h19.2v2.6c-0.9,0.5-1.8,0.9-2.8,1.3c-1,0.4-1.9,0.7-2.9,1v51c0,4.3-0.4,7.7-1.2,10.5
			c-0.8,2.7-1.8,4.9-3,6.6c-1.2,1.7-2.4,2.9-3.8,3.7c-1.3,0.8-2.6,1.3-3.7,1.6l-0.8-1.4c0.8-0.8,1.4-1.7,2.1-2.7
			c0.6-1,1.2-2.3,1.7-3.8c0.5-1.5,0.8-3.4,1.1-5.6c0.3-2.2,0.4-4.9,0.4-8v-52.1c-1.1-0.3-2.2-0.6-3.2-1c-1.1-0.4-2-0.8-2.9-1.3
			V392.3z"/>
	</g>
	<g class="st0">
		<path class="st1" d="M254.2,433.3c0-3.8,0.4-7.2,1.2-10.2c0.8-2.9,2-5.4,3.6-7.5c1.6-2,3.4-3.6,5.6-4.6c2.2-1.1,4.6-1.6,7.3-1.6
			c3.1,0,5.8,0.6,8.1,1.7c2.3,1.2,4.1,2.8,5.6,4.9s2.5,4.6,3.2,7.5c0.7,2.9,1,6.2,1,9.8c0,7.7-1.6,13.6-4.8,17.7
			c-3.2,4.1-7.6,6.2-13,6.2c-3,0-5.6-0.6-7.9-1.7c-2.2-1.1-4.1-2.7-5.5-4.8c-1.5-2.1-2.6-4.6-3.3-7.6
			C254.6,440.2,254.2,436.9,254.2,433.3z M261.5,433.3c0,2.7,0.2,5.3,0.6,7.7c0.4,2.4,1.1,4.5,2,6.3c0.9,1.8,2.2,3.2,3.7,4.2
			c1.5,1,3.3,1.5,5.4,1.5c2.7,0,4.9-1.6,6.7-4.8c1.7-3.2,2.6-8.2,2.6-15c0-2.8-0.2-5.4-0.6-7.8c-0.4-2.4-1.1-4.5-2-6.3
			c-0.9-1.8-2.1-3.2-3.5-4.2c-1.4-1-3.1-1.5-5.1-1.5c-3,0-5.4,1.6-7.2,4.8C262.4,421.5,261.5,426.5,261.5,433.3z"/>
		<path class="st1" d="M295.2,415.1c-0.8-0.2-1.4-0.5-2.1-0.9c-0.6-0.4-1.3-0.8-1.9-1.3v-2.4h15.9v2.3c-1.1,0.9-2.5,1.6-4.3,2.3
			l9.6,27l1.4,5.7h0.1l1.1-5.7l7.2-26.9c-1.5-0.4-2.9-1.1-4.2-2.2v-2.4H331v2.4c-1.1,0.9-2.5,1.6-4.3,2.2l-11.8,41
			c-1.2,3.9-2.4,7-3.4,9.4c-1.1,2.4-2.2,4.3-3.2,5.7c-1.1,1.4-2.2,2.4-3.3,3.1s-2.4,1.1-3.7,1.4c-0.6-1.2-1-2.4-1.5-3.8
			c-0.4-1.4-0.8-2.7-1.1-4l1-2.2h7.9c0.3-0.5,0.6-1,0.8-1.4c0.2-0.5,0.5-1,0.7-1.7c0.3-0.7,0.5-1.5,0.8-2.6c0.3-1,0.7-2.3,1.1-3.9
			L295.2,415.1z"/>
	</g>
	<g class="st0">
		<path class="st1" d="M365.8,449.7c-0.4,1-1,2-1.9,2.9c-0.9,0.9-1.8,1.7-2.9,2.4c-1.1,0.7-2.3,1.2-3.6,1.6c-1.3,0.4-2.6,0.6-4,0.6
			c-3,0-5.6-0.6-7.9-1.7c-2.3-1.1-4.2-2.7-5.7-4.8s-2.7-4.6-3.4-7.5c-0.8-2.9-1.2-6.2-1.2-9.8c0-7.8,1.5-13.7,4.5-17.8
			c3-4.1,7.2-6.1,12.6-6.1c1.8,0,3.5,0.3,5.2,0.9c1.7,0.6,3.2,1.5,4.6,2.9c1.3,1.3,2.4,3.1,3.2,5.3c0.8,2.2,1.2,5,1.2,8.2
			c0,1,0,2.1-0.1,3.1c-0.1,1.1-0.2,2.2-0.4,3.4h-23.6c0,2.6,0.3,4.9,0.8,7.2c0.5,2.2,1.3,4.1,2.4,5.8c1.1,1.6,2.4,2.9,4,3.9
			c1.6,0.9,3.5,1.4,5.7,1.4c1.8,0,3.5-0.3,5.4-0.9c1.8-0.6,3.2-1.4,4.1-2.4L365.8,449.7z M351.9,413.5c-2.9,0-5.1,1.2-6.6,3.5
			c-1.5,2.3-2.4,6.5-2.7,12.4h16.6c0-0.5,0.1-1.1,0.1-1.6c0-0.5,0-1,0-1.5c0-3.9-0.6-7-1.8-9.3C356.4,414.6,354.5,413.5,351.9,413.5
			z"/>
		<path class="st1" d="M390.3,417.4c-0.6,0.4-1.2,1.1-2.1,2.2c-0.8,1.1-1.6,2.8-2.2,5v27.1c1,0.1,2,0.4,3,0.7c1,0.3,2,0.8,3,1.5v2.3
			h-17.8v-2.3c0.9-0.6,1.8-1.1,2.6-1.4c0.8-0.3,1.6-0.6,2.4-0.8v-35.8l-5-0.7v-2.4c1.6-0.9,3.3-1.5,5-2.1c1.7-0.5,3.3-0.9,4.9-1.2
			h1.9v9.7h0.3c0.5-1.2,1.1-2.4,1.9-3.6c0.8-1.2,1.8-2.3,2.9-3.3c1.1-1,2.3-1.7,3.5-2.2c1.3-0.5,2.6-0.7,4-0.5
			c0.4,0.8,0.7,1.7,0.9,2.6c0.3,0.9,0.5,1.9,0.8,3v2.4H390.3z"/>
		<path class="st1" d="M422.6,456.1h-16.8v-2.3c0.8-0.5,1.5-0.9,2.3-1.2c0.8-0.3,1.7-0.7,2.6-1v-35.8l-5-0.7v-2.4
			c1.5-0.7,3-1.4,4.8-1.9c1.7-0.5,3.4-1,5.1-1.4h1.9v42.2c1,0.3,1.9,0.6,2.7,1c0.8,0.3,1.6,0.7,2.3,1.2V456.1z M417.7,386.2
			c0.4-0.1,0.9,0,1.6,0c0.7,0.1,1.3,0.2,2,0.4c0.7,0.2,1.4,0.4,2,0.7c0.6,0.3,1.1,0.6,1.4,0.9v1.7l-14.1,13.8l-1.7-1.6L417.7,386.2z
			"/>
		<path class="st1" d="M458.2,444.2c0,1.3,0,2.5,0.1,3.5c0,1,0.1,2,0.2,3.1l5.2,0.9v1.9c-1.3,0.8-2.7,1.5-4.2,2.1
			c-1.5,0.6-3,1.1-4.4,1.4h-1.9c-0.5-1.4-0.8-2.9-0.9-4.6c-0.1-1.7-0.2-3.5-0.2-5.5h-0.4c-0.2,1.2-0.6,2.4-1.2,3.7
			c-0.6,1.2-1.3,2.4-2.3,3.3c-0.9,1-2,1.8-3.3,2.4c-1.3,0.6-2.7,0.9-4.3,0.9c-3.1,0-5.6-1.1-7.5-3.4c-1.9-2.2-2.9-5.2-2.9-8.8
			c0-2.8,0.5-5.1,1.4-6.9c0.9-1.8,2.3-3.2,4.1-4.2c1.8-1,4.1-1.8,6.7-2.2c2.7-0.5,5.8-0.8,9.3-1c0.2-2.6,0.3-5,0.2-7.1
			s-0.4-3.9-0.8-5.4c-0.5-1.5-1.2-2.6-2.1-3.5c-0.9-0.8-2.2-1.2-3.7-1.2c-0.7,0-1.5,0-2.4,0.1c-0.9,0.1-1.8,0.4-2.6,0.8l-3.5,10.9
			h-2c-0.5-1.8-0.9-3.7-1.3-5.7c-0.4-1.9-0.6-3.9-0.7-5.7c1.9-1.4,4-2.5,6.4-3.3c2.3-0.8,4.9-1.2,7.8-1.2c2.6,0,4.6,0.4,6.2,1.3
			c1.5,0.9,2.7,2,3.5,3.4c0.8,1.4,1.3,2.9,1.6,4.6c0.3,1.7,0.4,3.4,0.4,5.1c0,3.6-0.1,7.2-0.2,10.5
			C458.3,437.8,458.2,441.1,458.2,444.2z M443.6,451.6c1.3,0,2.4-0.3,3.3-0.9c1-0.6,1.8-1.3,2.4-2.2c0.7-0.9,1.2-1.7,1.6-2.6
			c0.4-0.9,0.7-1.6,0.8-2.2v-9.6c-2.9,0-5.3,0.2-7.2,0.5c-1.9,0.4-3.3,0.9-4.4,1.7c-1.1,0.8-1.8,1.8-2.2,3c-0.4,1.2-0.6,2.5-0.6,4.1
			c0,2.6,0.6,4.6,1.7,6.1C440.2,450.9,441.7,451.6,443.6,451.6z"/>
	</g>
	<g class="st0">
		<path class="st1" d="M530.3,398.4c-1.2-0.3-2.4-0.7-3.4-1.2c-1.1-0.5-2.1-1-2.9-1.5v-3.5h19.2v3.5c-0.6,0.5-1.4,1-2.4,1.5
			c-1,0.5-2,0.9-3.1,1.2l-17.4,57.7l-7.5,1.1l-19.5-58.8c-1-0.3-2-0.7-3-1.1c-1-0.5-1.9-1-2.6-1.5v-3.5h25.2v3.5
			c-0.9,0.5-1.8,1-2.9,1.5c-1.1,0.5-2.2,0.9-3.3,1.2l10.6,35.9l1.7,8.6h0.2l1.7-8.8L530.3,398.4z"/>
		<path class="st1" d="M568.2,456.1h-20.8v-3.5c0.8-0.5,1.5-0.9,2.3-1.2c0.8-0.3,1.7-0.7,2.6-1v-33.5l-5-0.7v-3.5
			c0.8-0.4,1.7-0.7,2.8-1.1s2.3-0.7,3.6-1c1.3-0.3,2.5-0.5,3.7-0.7c1.2-0.2,2.3-0.4,3.2-0.5h2.6v41c1,0.3,1.9,0.6,2.7,1
			c0.8,0.3,1.6,0.7,2.3,1.2V456.1z M551.3,395.6c0-2.1,0.6-3.8,1.8-5c1.2-1.2,2.7-1.8,4.6-1.8c1.9,0,3.4,0.6,4.6,1.8
			c1.2,1.2,1.8,2.9,1.8,5c0,2.1-0.6,3.7-1.8,4.9c-1.2,1.2-2.7,1.8-4.6,1.8c-1.9,0-3.4-0.6-4.6-1.8
			C551.9,399.3,551.3,397.7,551.3,395.6z"/>
		<path class="st1" d="M596.3,410.5H614v3.5c-1,0.5-1.9,0.9-2.7,1.3c-0.8,0.4-1.8,0.7-2.8,0.9c-0.8,1.2-1.6,2.4-2.5,3.6
			s-1.8,2.3-2.6,3.4c-0.9,1.1-1.7,2.2-2.5,3.2c-0.8,1-1.5,1.9-2.2,2.7c0.8,1.2,1.6,2.7,2.6,4.4c1,1.7,2.1,3.5,3.2,5.4
			c1.2,1.9,2.4,3.9,3.7,5.9s2.6,3.9,3.9,5.6l3.9,2.2v3.5h-12.8l-2-2.2c-1.2-1.9-2.2-3.6-3.1-5.3c-0.9-1.6-1.7-3.2-2.4-4.7
			c-0.7-1.5-1.4-3-2-4.4c-0.7-1.4-1.3-2.8-2-4.2l-2.5-0.9v16.1c0.9,0.2,1.6,0.5,2.3,0.8c0.7,0.4,1.5,0.8,2.3,1.4v3.5h-20.5v-3.5
			c1.7-1,3.3-1.7,5-2.2v-55.4l-5.7-0.7v-3.5c0.7-0.4,1.7-0.7,2.9-1.1c1.2-0.4,2.5-0.7,3.9-1s2.7-0.5,4-0.7c1.3-0.2,2.4-0.4,3.3-0.5
			h2.6v42.8h2c1.7-2.1,3.2-4.5,4.6-7.1c1.4-2.6,2.7-4.9,3.8-7.1c-0.7-0.2-1.2-0.5-1.8-0.9c-0.5-0.4-1.1-0.8-1.6-1.3V410.5z"/>
		<path class="st1" d="M620.8,416.2c-0.8-0.2-1.4-0.5-2.1-0.9c-0.6-0.4-1.3-0.8-1.9-1.3v-3.5h19.9v3.4c-1.1,0.9-2.5,1.6-4.3,2.3
			l7.6,22.9l1.3,5.9h0.2l1.2-5.9l5.9-22.9c-1.5-0.4-2.9-1.1-4.2-2.2v-3.5H659v3.5c-1.1,0.9-2.5,1.6-4.3,2.2l-12.3,39.9
			c-1.2,3.9-2.4,7.1-3.6,9.5s-2.4,4.4-3.6,5.9c-1.2,1.5-2.4,2.5-3.6,3.1c-1.2,0.6-2.4,1-3.6,1.1c-0.5-0.5-1-1.2-1.4-2.1
			c-0.4-0.8-0.8-1.7-1.1-2.6c-0.3-0.9-0.6-1.9-0.8-2.9c-0.2-1-0.3-1.9-0.4-2.7l1-2.2h9.2c0.5-0.9,0.8-1.8,1.2-2.7
			c0.3-1,0.7-2.4,1.2-4.4L620.8,416.2z"/>
	</g>
	<g class="st0">
		<path class="st1" d="M0.5,475.2L0,466.9h4.1l-0.5,8.2H0.5z M6.6,475.2l-0.5-8.2h4.1l-0.5,8.2H6.6z"/>
		<path class="st1" d="M38,471v3.6H27.1v8.5h9.6v3.5h-9.6v8.8H38v3.6H22.6V471H38z"/>
	</g>
	<text transform="matrix(1 0 0 1 48.6123 498.8902)" class="st1 st2 st3 st4">NCIENDE</text>
	<text transform="matrix(1 0 0 1 226.7598 498.8902)" class="st1 st2 st3 st4">TU</text>
	<text transform="matrix(1 0 0 1 293.1982 498.8902)" class="st1 st2 st3 st4">BRILLO</text>
	<text transform="matrix(1 0 0 1 436.6143 498.8902)" class="st1 st2 st3 st4">CON</text>
	<text transform="matrix(1 0 0 1 537.3906 498.8902)" class="st1 st2 st3 st4">NUESTRAS</text>
	<text transform="matrix(1 0 0 1 743.5898 498.8902)" class="st1 st2 st3 st4">JOYAS</text>
	<g class="st0">
		<path class="st1" d="M864.8,475.2l-0.5-8.2h4.1l-0.5,8.2H864.8z M870.9,475.2l-0.5-8.2h4.1l-0.5,8.2H870.9z"/>
	</g>
	<polygon class="st1" points="293.5,218.9 298.2,244.9 324.2,249.6 298.2,254.3 293.5,280.3 288.8,254.3 262.8,249.6 288.8,244.9 	
		"/>
	<polygon class="st1" points="307.7,235.5 297.8,249.6 307.7,263.8 293.5,254 279.3,263.8 289.2,249.6 279.3,235.5 293.5,245.3 	"/>
	<line class="st5" x1="292.6" y1="207.2" x2="292.6" y2="90.2"/>
	<polygon class="st1" points="589,218.9 593.7,244.9 619.7,249.6 593.7,254.3 589,280.3 584.3,254.3 558.3,249.6 584.3,244.9 	"/>
	<polygon class="st1" points="603.2,235.5 593.4,249.6 603.2,263.8 589,254 574.9,263.8 584.7,249.6 574.9,235.5 589,245.3 	"/>
	<line class="st5" x1="589" y1="207.2" x2="589" y2="90.2"/>
	<line class="st6" x1="530.6" y1="282.5" x2="530.6" y2="296.6"/>
	<line class="st6" x1="530.6" y1="311.5" x2="530.6" y2="325.7"/>
	<line class="st6" x1="552.2" y1="304.1" x2="538.1" y2="304.1"/>
	<line class="st6" x1="523.2" y1="304.1" x2="509.1" y2="304.1"/>
	<line class="st6" x1="372" y1="0" x2="372" y2="14.1"/>
	<line class="st6" x1="372" y1="29" x2="372" y2="43.2"/>
	<line class="st6" x1="393.6" y1="21.6" x2="379.5" y2="21.6"/>
	<line class="st6" x1="364.6" y1="21.6" x2="350.5" y2="21.6"/>
	<path class="st1" d="M563.7,132.5l-1.3-1.3l0,0L511.6,81l0,0l-1.4-1.4c-0.6-0.6-1.5-1-2.3-1.1l-66.1-7.3c-0.3,0-0.6,0-1,0l-3,0.3h0
		l-6.4,0.7l-56.7,6.3c-0.9,0.1-1.7,0.5-2.3,1.1l-32,31.6l-20.2,20l0,0l-1.3,1.3c-1.1,1-1.2,2.7-0.2,3.8l119.6,140.1
		c1.6,1.7,4.2,1.7,5.8,0.2c0.1-0.1,0.1-0.1,0.2-0.2l119.6-140.1C564.9,135.2,564.8,133.5,563.7,132.5z M441.3,76.4l43.9,56.1h-87.8
		L441.3,76.4z M394,130l-16.8-48l59.5-6.6L394,130z M486.3,136.3l-45.1,133.6l-45.1-133.6H486.3z M506.3,92.3l2.8-8l48.9,48.3h-65.8
		L506.3,92.3z M505.3,82l0,0.1l0,0L488.5,130l-42.7-54.6l54,6L505.3,82z M373.4,84.3l8.1,23.2l8.7,24.8l0,0l0.1,0.2h-65.8
		L373.4,84.3z M391.3,136.3c0.1,0,0.2,0,0.3,0c0,0.1,0,0.2,0.1,0.3l44,130.5L324.1,136.3H391.3z M490.9,136.5c0-0.1,0-0.2,0.1-0.3
		c0.1,0,0.2,0,0.3,0h67.2L446.8,267L490.9,136.5z"/>
	<path class="st1" d="M412.3,100c-3.7,2.1-7.9,3.3-12.1,3.5c-8.6,0-17.2-18.3-17.2-18.3l12.7,36.2L412.3,100z"/>
	<path class="st1" d="M441.6,121c-10.7-3.7-10.8-17.6-10-25.5l-26,33.3H477l-11-14.1C466.4,121.8,455.4,125.8,441.6,121z"/>
	<path class="st1" d="M493.7,102c-2.2,2.8-4.9,5.3-7.6,5.3c-5.2,0-16.1-9.1-20.1-12.7l20.9,26.7L493.7,102z"/>
	<path class="st1" d="M532.6,122.7c-4.1,4.4-34.5,6.1-34.5,6.1h50.3L533.3,114C534.3,116.7,534.9,120.3,532.6,122.7z"/>
	<path class="st1" d="M481.7,209.2c-5.9-1.2-6.5-8.6-6.2-13.8L458,247.6l73-85.5C512.9,182.7,487.5,210.3,481.7,209.2z"/>
	<path class="st1" d="M441.3,226.2c-6.9,0-27.6-70.9-31.9-86.2H402l39.2,116.3l28.7-85.2C461.3,191.5,445.9,226.2,441.3,226.2z"/>
	<path class="st1" d="M376.7,182.1c-12.8-15-26.2-31-35.4-42.1h-8.6l91.9,107.6l-14.6-43.4C404.3,203.9,392.5,200.6,376.7,182.1z"/>
	<path class="st1" d="M334.1,128.8h37.5c-9.6-0.8-20.8-2.3-23.6-5.4c-2.3-2.4,0.1-7.2,3.5-11.8L334.1,128.8z"/>
</g>
</svg>
