<?xml version="1.0" encoding="utf-8"?>
<!-- Generator: Adobe Illustrator 25.4.1, SVG Export Plug-In . SVG Version: 6.00 Build 0)  -->
<svg version="1.1" id="Capa_1" xmlns="http://www.w3.org/2000/svg" xmlns:xlink="http://www.w3.org/1999/xlink" x="0px" y="0px"
	 viewBox="0 0 966.8 594.5" style="enable-background:new 0 0 966.8 594.5;" xml:space="preserve">
<style type="text/css">
	.st0{fill:#E670A8;}
</style>
<rect x="-1748.9" y="-505" class="st0" width="1077.7" height="1077.7"/>
<path class="st0" d="M388.2,214.1c-0.4-0.2-0.9-0.3-1.3-0.2c-0.9,0-1.7,0.7-1.9,1.6c-4,13.9,10,34.7,22.1,40.8
	c1.1,0.6,2.5,0.2,3.1-0.9c0.2-0.3,0.3-0.7,0.3-1c0.2-8.2-4.8-16.6-8.8-23.5C398.5,225.5,394,217.1,388.2,214.1z M388.7,219.9
	c3.8,3.5,6.7,9.3,9,13.2c3,4.9,6.6,10.9,7.8,16.9C397,243.6,388.2,230.2,388.7,219.9z"/>
<path class="st0" d="M580.3,253.6c10.6-5.3,22.8-23.5,19.3-35.7c-0.2-0.8-0.9-1.4-1.7-1.4c-0.4-0.1-0.8,0-1.2,0.2
	c-5.2,2.6-8.9,9.9-11.7,14.6c-3.6,5.9-7.8,13.4-7.7,20.6c0,1.1,1,2,2.1,1.9C579.7,253.8,580,253.8,580.3,253.6z M588.4,233.3
	c2-3.4,4.6-8.5,7.9-11.5c0.4,9-7.3,20.7-14.7,26.4C582.7,242.9,585.8,237.7,588.4,233.3z"/>
<path class="st0" d="M141.5,119.2c-4.3,0-7.7-0.9-10.1-2.7c-2.4-1.8-3.8-4.8-4.2-8.9l-13-71.6l-35,70.5c-0.2,0.3-0.4,0.7-0.7,1.2
	c-0.3,0.5-0.7,1-1.2,1.3c-0.6,0.4-1.2,0.8-1.9,1c-0.9,0.3-1.9,0.5-2.8,0.4c-0.6,0-1.1-0.1-1.6-0.4c-0.6-0.3-1.2-0.6-1.8-0.9
	c-0.6-0.4-1.1-0.8-1.6-1.3c-0.4-0.4-0.8-0.9-1-1.5l0.2,0.1l-34-71.2L17,112.8c-0.3,1.7-1,3.2-2,4.6c-0.9,1.1-2.3,1.7-3.7,1.7H9.8
	c-1-0.3-2-0.6-2.9-1.1c-1-0.5-1.9-1.1-2.8-1.7c-0.8-0.6-1.5-1.3-2.1-2.2c-0.5-0.7-0.8-1.6-0.8-2.6v-1L22.3,6
	c0.1-1.4,0.8-2.6,1.9-3.5c1.3-1,2.9-1.5,4.5-1.4c1.3-0.1,2.5,0.3,3.6,1c0.9,0.8,1.7,1.7,2.3,2.7l37.6,79.3l39.7-79.5
	c0.5-1.1,1.3-2,2.2-2.7c1.1-0.7,2.3-1,3.6-0.9c1.5-0.1,3,0.6,4.1,1.7c1.1,1.3,1.9,2.9,2.3,4.6l17.6,96.7c0,0.1,0.1,0.8,0.4,2
	s0.5,2.6,0.8,4.1s0.7,3.4,1.2,5.9L141.5,119.2z"/>
<path class="st0" d="M220.4,104.2c0.2,0.2,0.4,0.5,0.6,0.6l0.1-0.1v0.3c0.6,0.5,1.4,0.7,2.1,0.6c1.2-0.1,2.3-0.5,3.3-1.1
	c1.2-0.5,2.3-1.2,3.3-2.1c0.7-0.7,1.4-1.3,2.2-1.8c0.7-0.3,1.6-0.5,2.4-0.4c0.8,0.1,1.6,0.5,2.2,1.1c0.8,0.7,1.6,1.6,2.2,2.5
	c0.6,0.9,1.2,1.8,1.7,2.8c0.3,0.5,0.6,1.1,0.7,1.7v0.4c0,1.1-0.3,2.1-0.9,3.1c-0.6,1-1.4,1.8-2.2,2.6l0.1-0.1c-2,1.6-4.2,3-6.5,4.1
	c-3,1.4-6.4,2.1-9.8,2c-1.7,0-3.4-0.2-5.1-0.6c-3.8-0.2-6.6-1.4-8.5-3.4s-2.9-5-2.9-9v-2c-3.1,4.1-6.9,7.6-11.2,10.4
	c-3.6,2.5-7.8,3.8-12.1,3.9c-6,0-10.7-1.5-14.1-4.4c-3.4-2.9-5.6-7.1-6.8-12.5c-0.2-1.3-0.3-2.6-0.4-3.9c-0.1-1.6-0.1-3.1-0.1-4.5
	c0.1-5.9,1.2-11.8,3.4-17.4c2.1-5.6,5-10.8,8.6-15.5c3.4-4.5,7.6-8.2,12.4-11.2c4.5-2.8,9.7-4.3,14.9-4.3c1.2,0,2.3,0.1,3.4,0.3
	c1,0.2,2.1,0.5,3.1,0.8c0.8-1.2,2.3-1.9,4.4-1.9h0.5c1,0,2,0.1,2.9,0.4c1,0.2,2,0.6,2.9,1.1c0.8,0.5,1.6,1.1,2.2,1.9
	c0.6,0.8,0.9,1.8,0.9,2.7L220.4,104.2z M176.3,99.7c0.8,4.2,2.8,6.3,6,6.2c2.5,0,5-0.8,7-2.3c2.3-1.6,4.4-3.5,6.2-5.6
	c1.9-2.2,3.5-4.5,4.9-7c1.2-2.2,2.3-4.4,3.2-6.7c1-4.2,1.8-7.9,2.4-11c0.6-2.5,0.8-5.1,0.7-7.7c0-1.7-0.6-3.3-1.8-4.5
	c-1-1-2.6-1.4-4.9-1.4c-3.2,0.1-6.4,1.2-8.9,3.2c-3,2.3-5.6,5-7.7,8.1c-2.3,3.4-4.1,7.1-5.4,11c-1.3,3.9-2,7.9-2.1,12
	c0,0.8,0,1.8,0.1,2.8C176.1,97.8,176.2,98.8,176.3,99.7z"/>
<path class="st0" d="M308.7,95.7c0.1,0.8,0.2,1.5,0.2,2.2c0.1,0.7,0.2,1.4,0.4,2.1c0.2,1.3,0.7,2.5,1.3,3.7c0.6,0.9,1.7,1.4,2.8,1.3
	c1.2-0.1,2.3-0.5,3.3-1.1c1.2-0.5,2.3-1.2,3.3-2c0.7-0.7,1.4-1.3,2.2-1.8c0.7-0.3,1.6-0.5,2.4-0.4c0.8,0.1,1.6,0.5,2.2,1.1
	c0.8,0.7,1.6,1.6,2.2,2.5c0.6,0.9,1.2,1.8,1.7,2.8c0.3,0.5,0.6,1.1,0.7,1.7v0.4c0,1.1-0.3,2.1-0.9,3.1c-0.6,1-1.4,1.8-2.2,2.6
	l0.1-0.1c-2,1.6-4.2,3-6.5,4.1c-3,1.4-6.4,2.1-9.7,2c-2,0-4-0.3-5.9-0.8c-2.1-0.5-4.1-1.4-5.8-2.8c-1.9-1.5-3.4-3.3-4.5-5.5
	c-1.3-2.9-1.9-6-1.8-9.1l-0.1-30c0-1.2,0-2.6-0.1-3.9c-0.1-1.3-0.3-2.5-0.8-3.8c-0.4-1.1-1-2-1.8-2.8c-0.9-0.8-2-1.2-3.1-1.1
	c-2.5,0-5,0.4-7.4,1.2c-2.7,0.9-5.1,2.4-7,4.4c-2.4,2.6-4.2,5.7-5.2,9c-1.4,3.8-2.1,8.8-2.1,14.9v24.4c0.1,1.4-0.3,2.9-1.1,4.1
	c-0.7,1.1-2.1,1.6-4.2,1.6h-0.8c-1,0-1.9-0.2-2.9-0.4c-1-0.3-1.9-0.7-2.7-1.2c-0.8-0.5-1.5-1.1-2.1-1.9c-0.6-0.8-0.9-1.7-0.9-2.6
	V51.7c0-1.4,0.3-2.8,1-4.1c0.7-1.1,2.1-1.7,4.2-1.7h0.6c2.1,0,4.1,0.6,5.8,1.7c0.8,0.5,1.6,1.2,2.1,2c0.5,0.8,0.8,1.7,0.8,2.7v7.1
	c2.6-3.9,6-7.3,9.9-9.9c3.5-2.3,7.5-3.6,11.7-3.5c3.5-0.1,6.9,0.6,10.1,2c2.6,1.2,4.8,3.1,6.4,5.5c1.6,2.4,2.7,5.2,3.2,8.1
	c0.6,3.2,0.9,6.4,0.9,9.7L308.7,95.7z"/>
<path class="st0" d="M382.6,106.2c0-0.3-0.1-0.6-0.1-0.9v0.8c-2.7,3.9-6.2,7.3-10.2,10c-3.4,2.3-7.4,3.5-11.4,3.5
	c-3.5,0.1-7-0.6-10.2-2c-2.6-1.2-4.8-3.1-6.4-5.5c-1.6-2.4-2.7-5.2-3.3-8.1c-0.6-3.2-0.9-6.4-0.9-9.7V51.7c0-1.4,0.3-2.8,1.1-4.1
	c0.7-1.1,2.1-1.7,4.2-1.7h0.5c1,0,2.1,0.1,3.1,0.4c1,0.2,2,0.6,2.9,1.1c0.9,0.5,1.6,1.1,2.2,1.9c0.6,0.8,0.8,1.8,0.8,2.7V94
	c0,1.2,0.1,2.6,0.2,3.9c0.1,1.3,0.4,2.6,0.8,3.8c0.3,1.1,0.9,2.1,1.8,2.9c0.9,0.8,2.1,1.2,3.3,1.1c2.7-0.1,5.3-0.8,7.7-2.1
	c2.7-1.5,5.2-3.5,7.1-5.9c2.2-2.8,4-5.9,5.1-9.2c1.3-3.9,2-8.1,1.8-12.2V51.7c0-1.4,0.3-2.8,1-4.1c0.7-1.1,2.1-1.7,4.2-1.7h0.5
	c2.1,0,4.1,0.6,5.8,1.7c0.9,0.5,1.6,1.2,2.2,2c0.6,0.8,0.9,1.7,0.9,2.7v47.1c0.2,1.3,0.6,2.5,1,3.7c0.3,0.9,1.2,1.3,2.5,1.3
	c1.2-0.1,2.3-0.5,3.3-1.1c1.2-0.5,2.3-1.2,3.3-2.1c0.7-0.7,1.4-1.3,2.2-1.8c0.7-0.3,1.6-0.5,2.4-0.4c0.8,0.1,1.6,0.5,2.2,1.1
	c0.8,0.7,1.6,1.6,2.2,2.5c0.6,0.9,1.2,1.8,1.7,2.8c0.3,0.5,0.5,1.1,0.7,1.7v0.4c0,1.1-0.3,2.1-0.9,3.1c-0.6,1-1.4,1.8-2.2,2.6
	l0.1-0.1c-2,1.6-4.2,3-6.5,4.1c-3,1.4-6.4,2.1-9.8,2c-2.2,0-4.4-0.2-6.6-0.6c-1.7-0.3-3.4-1-4.8-2c-1.4-1-2.5-2.4-3.3-3.9
	C383.7,110.6,383,108.4,382.6,106.2z"/>
<path class="st0" d="M485.3,104.2c0.2,0.2,0.4,0.5,0.6,0.6l0.1-0.1v0.3c0.6,0.5,1.4,0.7,2.1,0.6c1.2-0.1,2.3-0.5,3.3-1.1
	c1.2-0.5,2.3-1.2,3.3-2.1c0.7-0.7,1.4-1.3,2.2-1.8c0.7-0.3,1.6-0.5,2.4-0.4c0.8,0.1,1.6,0.5,2.2,1.1c0.8,0.7,1.6,1.6,2.2,2.5
	c0.6,0.9,1.2,1.8,1.7,2.8c0.3,0.5,0.6,1.1,0.7,1.7v0.4c0,1.1-0.3,2.1-0.9,3.1c-0.6,1-1.4,1.8-2.2,2.6l0.1-0.1c-2,1.6-4.2,3-6.5,4.1
	c-3,1.4-6.4,2.1-9.8,2c-1.7,0-3.4-0.2-5.1-0.6c-3.8-0.2-6.6-1.4-8.5-3.4s-2.9-5-2.9-9v-2c-3.1,4.1-6.9,7.6-11.2,10.4
	c-3.6,2.5-7.8,3.8-12.1,3.9c-6,0-10.7-1.5-14-4.4c-3.4-2.9-5.6-7.1-6.8-12.5c-0.2-1.3-0.3-2.6-0.4-3.9c-0.1-1.6-0.1-3.1-0.1-4.5
	c0.1-5.9,1.2-11.8,3.4-17.4c2.1-5.6,5-10.8,8.6-15.5c3.4-4.5,7.6-8.2,12.4-11.2c4.5-2.8,9.6-4.3,14.9-4.3c1.2,0,2.3,0.1,3.4,0.3
	c1,0.2,2.1,0.5,3.1,0.8c0.8-1.2,2.3-1.9,4.4-1.9h0.5c1,0,2,0.1,2.9,0.4c1,0.2,2,0.6,2.9,1.1c0.8,0.5,1.6,1.1,2.2,1.9
	c0.6,0.8,0.9,1.8,0.9,2.7V104.2z M441.2,99.7c0.8,4.2,2.8,6.3,6,6.2c2.5,0,5-0.8,7-2.3c2.3-1.6,4.4-3.5,6.2-5.6
	c1.9-2.2,3.5-4.5,4.9-7c1.3-2.2,2.3-4.4,3.2-6.7c1-4.2,1.8-7.9,2.4-11c0.6-2.5,0.8-5.1,0.7-7.7c0-1.7-0.6-3.3-1.7-4.6
	c-1-1-2.6-1.4-4.9-1.4c-3.2,0.1-6.4,1.2-8.9,3.2c-3,2.3-5.6,5-7.7,8.1c-2.3,3.4-4.2,7.2-5.5,11.1c-1.3,3.9-2.1,7.9-2.2,12
	c0,0.8,0,1.8,0.1,2.8C440.9,97.8,441,98.8,441.2,99.7L441.2,99.7z"/>
<path class="st0" d="M515.6,96.6V6c0-1.5,0.4-3,1.2-4.2c0.9-1.2,2.4-1.9,3.9-1.8h0.4c0.9,0,1.8,0.1,2.6,0.4c0.9,0.2,1.7,0.6,2.5,1.2
	c0.7,0.5,1.4,1.2,1.9,2c0.5,0.8,0.8,1.8,0.8,2.8l0.1,92c0.1,0.4,0.2,0.8,0.2,1.1c0,0.3,0.1,0.7,0.2,1c0.7,3.3,2.2,5,4.6,5
	c1.2-0.1,2.3-0.5,3.3-1.1c1.2-0.5,2.3-1.2,3.3-2.1c0.7-0.7,1.4-1.3,2.2-1.8c0.7-0.3,1.6-0.5,2.4-0.4c0.8,0.1,1.6,0.5,2.2,1.1
	c0.8,0.7,1.6,1.6,2.2,2.5c0.6,0.9,1.2,1.8,1.7,2.8c0.3,0.5,0.6,1.1,0.7,1.7v0.4c0,1.1-0.3,2.1-0.9,3.1c-0.6,1-1.4,1.8-2.2,2.6
	l0.1-0.1c-2,1.6-4.2,3-6.5,4.1c-3,1.4-6.4,2.1-9.7,2c-5,0-8.7-1.1-11-3.4c-2.3-2.3-4-6-5.1-11.1L515.6,96.6z"/>
<path class="st0" d="M574.5,98.2c0.1,0.4,0.1,0.8,0.2,1.1c0,0.3,0.1,0.7,0.2,1c0.2,1.3,0.7,2.5,1.3,3.7c0.6,0.9,1.7,1.4,2.8,1.3
	c1.2-0.1,2.3-0.5,3.3-1.1c1.2-0.5,2.3-1.2,3.3-2.1c0.7-0.7,1.4-1.3,2.2-1.8c0.8-0.3,1.6-0.5,2.4-0.4c0.8,0.1,1.6,0.5,2.2,1.1
	c0.8,0.7,1.6,1.6,2.2,2.5c0.6,0.9,1.2,1.8,1.7,2.8c0.3,0.5,0.5,1.1,0.7,1.7v0.4c0,1.1-0.3,2.1-0.9,3.1c-0.6,1-1.4,1.8-2.2,2.6
	l0.1-0.1c-2,1.6-4.2,3-6.5,4.1c-3,1.4-6.4,2.1-9.8,2c-0.5,0-1,0-1.6,0.1c-0.5,0.1-1,0-1.4-0.1H574c-1.2-0.1-2.3-0.4-3.4-0.8
	c-1.6-0.6-3.2-1.4-4.6-2.5c-1.6-1.1-3-2.5-4.1-4.1c-1.2-1.7-1.9-3.7-1.8-5.8V49.5c0-1.6,0.6-3.2,1.8-4.2c1.3-1.2,3-1.8,4.7-1.8h0.4
	c0.9,0,1.8,0.1,2.6,0.4c0.9,0.2,1.7,0.6,2.5,1.1c0.8,0.5,1.4,1.2,1.8,2c0.5,0.9,0.7,1.9,0.7,2.9L574.5,98.2z M576.3,14.9
	c0,2.4-0.8,4.7-2.3,6.6c-1.3,1.8-3.4,2.8-5.6,2.8c-2.2,0-4.2-1-5.5-2.8c-1.4-1.9-2.2-4.2-2.1-6.6c-0.1-2.4,0.7-4.7,2.1-6.6
	c1.3-1.8,3.3-2.8,5.5-2.8c2.2,0,4.2,1,5.6,2.7C575.5,10.1,576.3,12.5,576.3,14.9z"/>
<path class="st0" d="M662.9,104.2l0.2,0.2c0.1,0,0.3,0,0.4-0.1v0.4c0.6,0.4,1.3,0.6,2,0.5c1.2-0.1,2.3-0.5,3.3-1.1
	c1.2-0.5,2.3-1.2,3.3-2.1c0.7-0.7,1.4-1.3,2.2-1.8c0.7-0.3,1.6-0.5,2.4-0.4c0.8,0.1,1.6,0.5,2.2,1.1c0.8,0.7,1.6,1.6,2.2,2.5
	c0.6,0.9,1.2,1.8,1.7,2.8c0.3,0.5,0.6,1.1,0.7,1.7v0.4c0,1.1-0.3,2.1-0.9,3.1c-0.6,1-1.4,1.8-2.2,2.6l0.1-0.1c-2,1.6-4.2,3-6.5,4.1
	c-3,1.4-6.4,2.1-9.7,2c-0.6,0-1.2,0-1.7-0.1c-0.5,0-1-0.1-1.6-0.2c-4.2,0-7.5-1-9.7-3c-2.2-2-3.3-5.2-3.3-9.7v-1.2
	c-0.1-0.1-0.1-0.2-0.1-0.4c0-0.1-0.1-0.3-0.1-0.4c-3.1,4.2-6.8,7.8-11.1,10.8c-3.5,2.5-7.7,3.9-12,4c-6,0-10.7-1.5-14.1-4.4
	c-3.4-3-5.6-7.3-6.8-13c-0.2-1.4-0.3-2.8-0.4-4.1c-0.1-1.7-0.1-3.2-0.1-4.8c0.1-6.1,1.2-12.2,3.4-18c2.1-5.8,5-11.2,8.6-16.1
	c3.4-4.6,7.6-8.5,12.4-11.6c4.4-2.9,9.6-4.4,14.9-4.5c0.9,0,1.8,0.1,2.8,0.2c0.9,0.2,1.8,0.4,2.6,0.7V6c0-1.5,0.4-2.9,1.1-4.2
	c0.8-1.2,2.2-1.8,4.4-1.8h0.4c1,0,2.1,0.1,3.1,0.3c1,0.2,2,0.6,2.9,1.2c0.9,0.5,1.6,1.2,2.2,2c0.6,0.8,0.9,1.8,0.9,2.8L662.9,104.2z
	 M618.8,98.9c0.8,4.3,2.8,6.4,6,6.4c2.6-0.1,5.1-1,7-2.7c2.4-1.9,4.5-4.1,6.2-6.6c1.9-2.6,3.5-5.3,4.9-8.2c1.2-2.4,2.3-4.9,3.2-7.4
	c1-3.6,1.6-7.4,1.7-11.1c0-3.2,0.1-6.1,0.1-8.6c-0.4-0.9-1-1.6-1.8-2.3c-1-0.8-2.2-1.2-3.5-1.1c-3.3,0.1-6.4,1.2-8.9,3.3
	c-3.1,2.3-5.7,5.2-7.8,8.4c-2.3,3.6-4.1,7.4-5.4,11.5c-1.3,4-2.1,8.2-2.2,12.4c0,0.9,0,1.9,0.1,3C618.5,96.9,618.6,97.9,618.8,98.9z
	"/>
<path class="st0" d="M750.2,104.2c0.2,0.2,0.4,0.5,0.6,0.6l0.1-0.1v0.3c0.6,0.5,1.4,0.7,2.1,0.6c1.2-0.1,2.3-0.5,3.3-1.1
	c1.2-0.5,2.3-1.2,3.3-2.1c0.7-0.7,1.4-1.3,2.2-1.8c0.7-0.3,1.6-0.5,2.4-0.4c0.8,0.1,1.6,0.5,2.2,1.1c0.8,0.7,1.6,1.6,2.2,2.5
	c0.6,0.9,1.2,1.8,1.7,2.8c0.3,0.5,0.6,1.1,0.7,1.7v0.4c0,1.1-0.3,2.1-0.9,3.1c-0.6,1-1.3,1.8-2.2,2.5l0.1-0.1c-2,1.6-4.2,3-6.5,4.1
	c-3,1.4-6.4,2.1-9.8,2c-1.7,0-3.4-0.2-5.1-0.6c-3.8-0.2-6.6-1.4-8.5-3.4s-2.9-5-2.9-9v-2c-3.1,4.1-6.9,7.6-11.2,10.4
	c-3.6,2.5-7.8,3.8-12.2,3.9c-6,0-10.7-1.5-14.1-4.4c-3.4-2.9-5.6-7.1-6.8-12.5c-0.2-1.3-0.3-2.6-0.4-3.9c-0.1-1.6-0.1-3.1-0.1-4.5
	c0.1-5.9,1.2-11.8,3.4-17.3c2.1-5.6,5-10.8,8.6-15.5c3.4-4.5,7.6-8.2,12.4-11.2c4.5-2.8,9.7-4.3,14.9-4.3c1.2,0,2.3,0.1,3.4,0.3
	c1,0.2,2.1,0.5,3.1,0.8c0.8-1.2,2.3-1.9,4.4-1.9h0.5c1,0,2,0.1,2.9,0.4c1,0.2,2,0.6,2.9,1.1c0.8,0.5,1.6,1.1,2.2,1.9
	c0.6,0.8,0.9,1.8,0.9,2.7L750.2,104.2z M706.1,99.7c0.8,4.2,2.8,6.3,6,6.2c2.5,0,5-0.8,7-2.3c2.3-1.6,4.4-3.5,6.2-5.6
	c1.9-2.2,3.5-4.5,4.9-7c1.3-2.2,2.3-4.4,3.2-6.7c1-4.2,1.8-7.9,2.4-11c0.6-2.5,0.8-5.1,0.7-7.7c0-1.7-0.6-3.3-1.8-4.5
	c-1-1-2.6-1.4-4.9-1.4c-3.2,0.1-6.4,1.2-8.9,3.2c-3,2.3-5.6,5-7.7,8.1c-2.3,3.4-4.1,7.1-5.4,11c-1.3,3.9-2.1,7.9-2.2,12
	c0,0.8,0,1.8,0.1,2.8C705.8,97.8,705.9,98.8,706.1,99.7z"/>
<path class="st0" d="M836.9,104.2l0.2,0.2c0.1,0,0.3,0,0.4-0.1v0.4c0.6,0.4,1.3,0.6,2,0.5c1.2-0.1,2.3-0.5,3.3-1.1
	c1.2-0.5,2.3-1.2,3.3-2.1c0.7-0.7,1.4-1.3,2.2-1.8c0.7-0.3,1.6-0.5,2.4-0.4c0.8,0.1,1.6,0.5,2.2,1.1c0.8,0.7,1.6,1.6,2.2,2.5
	c0.6,0.9,1.2,1.8,1.7,2.8c0.3,0.5,0.6,1.1,0.7,1.7v0.4c0,1.1-0.3,2.1-0.9,3.1c-0.6,1-1.4,1.8-2.2,2.6l0.1-0.1c-2,1.6-4.2,3-6.5,4.1
	c-3,1.4-6.4,2.1-9.7,2c-0.6,0-1.2,0-1.7-0.1c-0.5,0-1-0.1-1.6-0.2c-4.2,0-7.5-1-9.7-3c-2.2-2-3.3-5.3-3.3-9.8v-1.2
	c-0.1-0.1-0.1-0.2-0.1-0.4c0-0.1-0.1-0.3-0.1-0.4c-3.1,4.2-6.8,7.8-11.1,10.8c-3.5,2.5-7.7,3.9-12,4c-6,0-10.7-1.5-14.1-4.4
	c-3.4-3-5.6-7.3-6.8-13c-0.2-1.4-0.3-2.8-0.4-4.1c-0.1-1.7-0.1-3.2-0.1-4.8c0.1-6.1,1.2-12.2,3.4-18c2.1-5.8,5-11.2,8.6-16.1
	c3.4-4.6,7.6-8.5,12.4-11.6c4.4-2.9,9.6-4.4,14.9-4.5c0.9,0,1.8,0.1,2.8,0.2c0.9,0.2,1.8,0.4,2.6,0.6V6c0-1.5,0.4-2.9,1.1-4.2
	c0.8-1.2,2.2-1.8,4.4-1.8h0.4c1,0,2.1,0.1,3.1,0.3c1,0.2,2,0.6,2.9,1.2c0.8,0.5,1.6,1.2,2.2,2c0.6,0.8,0.9,1.8,0.9,2.8V104.2z
	 M792.8,98.9c0.8,4.3,2.8,6.4,6,6.4c2.6-0.1,5.1-1,7-2.7c2.4-1.9,4.4-4.1,6.2-6.6c1.9-2.6,3.5-5.3,4.9-8.2c1.2-2.4,2.3-4.9,3.2-7.4
	c1-3.6,1.6-7.4,1.7-11.1c0-3.2,0.1-6.1,0.1-8.6c-0.4-0.9-1-1.6-1.8-2.3c-1-0.8-2.2-1.2-3.5-1.1c-3.3,0.1-6.4,1.2-8.9,3.3
	c-3,2.3-5.6,5.2-7.7,8.4c-2.3,3.6-4.1,7.4-5.4,11.5c-1.3,4-2.1,8.2-2.2,12.4c0,0.9,0,1.9,0.1,3C792.5,96.9,792.6,97.9,792.8,98.9z"
	/>
<path class="st0" d="M912.3,63.7c0.1,4.1-1.2,8.2-3.5,11.6c-2.3,3.4-5.3,6.3-8.7,8.6c-3.4,2.3-7.1,4.3-10.9,5.7
	c-3.3,1.3-6.7,2.2-10.2,2.6v2c0,0.5,0,1.1,0.1,1.6c0.3,1.7,0.9,3.4,1.9,4.9c0.8,1.2,1.8,2.2,2.9,2.9c1.1,0.7,2.3,1.2,3.6,1.5
	c1.3,0.3,2.6,0.4,3.9,0.4c2,0.1,4-0.3,5.9-1.1c1.5-0.8,3-1.6,4.4-2.6l-0.4,0.1c0.7-0.6,1.4-1.1,2.2-1.5c0.6-0.3,1.2-0.4,1.9-0.4h0.6
	c0.6,0.1,1.2,0.4,1.7,0.8c0.8,0.6,1.5,1.3,2.2,2.1c0.7,0.8,1.4,1.7,1.9,2.6c0.5,0.7,0.8,1.5,0.9,2.3v0.4c0,0.9-0.3,1.8-0.8,2.6
	c-0.5,0.9-1.2,1.7-1.9,2.4c-2.7,2.2-5.9,3.9-9.2,5c-3.2,1-6.6,1.4-9.9,1.4c-3,0-5.9-0.4-8.8-1.1c-2.7-0.7-5.3-2-7.6-3.7
	c-2.3-1.8-4.3-4-5.8-6.6c-1.7-3-2.8-6.3-3.4-9.8c-0.4-1.6-0.6-3.2-0.8-4.8c-0.2-1.9-0.2-3.7-0.2-5.6c0-5.2,0.7-10.3,2.2-15.3
	c1.3-4.8,3.4-9.3,6.1-13.5c2.4-3.8,5.6-7,9.3-9.6c3.5-2.4,7.7-3.7,11.9-3.7c5.3,0,9.7,1.5,13.2,4.6
	C910.5,53.7,912.3,58.1,912.3,63.7z M880,78c2.5-0.4,5-1.2,7.4-2.2c2-0.9,3.9-2,5.6-3.4c1.4-1.1,2.6-2.5,3.6-4
	c0.8-1.2,1.3-2.6,1.4-4c-0.2-1.1-0.7-2.1-1.3-3.1c-0.5-0.7-1.6-1.1-3.1-1.1c-1.6,0-3.2,0.6-4.5,1.6c-1.5,1.1-2.8,2.5-3.9,4.1
	c-1.2,1.8-2.3,3.7-3.1,5.7C881.4,73.6,880.6,75.8,880,78z"/>
<path class="st0" d="M963.2,55c-0.1,1.6-0.6,3.2-1.5,4.5c-0.7,1.2-1.7,2.3-2.9,3c-0.7,0.4-1.5,0.6-2.2,0.5c-0.5,0-1.1-0.1-1.6-0.2
	c-0.6-0.2-1.2-0.5-1.8-0.9h0.2c-1.4-0.6-2.9-1.1-4.4-1.4c-2.1-0.6-4.2-0.8-6.4-0.8c-1.4,0-2.9,0.4-4.1,1.1c-1.3,0.7-2.2,2-2.2,3.4
	c0.1,1.6,0.8,3.1,1.9,4.3c1.2,1.3,2.6,2.5,4.1,3.4l8.9,5.4c1.7,1.1,3.4,2.4,4.9,3.7c1.7,1.5,3.3,3.2,4.6,5.1c1.4,1.9,2.5,4,3.4,6.2
	c0.9,2.2,1.4,4.6,1.4,7c0.1,3.2-0.5,6.5-1.8,9.4c-1.1,2.4-2.8,4.6-4.9,6.2c-2.2,1.7-4.7,2.9-7.4,3.5c-3,0.7-6.1,1.1-9.2,1.1
	c-1.7,0-3.4-0.2-5-0.5c-1.9-0.3-3.7-0.8-5.5-1.3c-1.8-0.5-3.5-1.1-5.2-1.9c-1.5-0.6-2.9-1.4-4.2-2.3l0.1,0.2c-1.1-0.4-2-1.3-2.5-2.3
	c-0.3-0.8-0.5-1.7-0.5-2.6v-0.3c0.1-1.3,0.6-2.5,1.3-3.6c0.8-1.3,1.7-2.5,2.7-3.6l-0.4,0.2c0.4-0.5,1-0.8,1.6-1
	c0.5-0.1,0.9-0.1,1.4-0.1c0.5,0,1.1,0,1.6,0.2c0.6,0.3,1.2,0.6,1.8,1.1c1.8,1.3,3.7,2.2,5.7,2.9c1.9,0.7,3.9,1.1,5.9,1.2
	c2.7,0.1,5.3-0.5,7.7-1.8c1.8-1.1,2.9-3,2.8-5.1c0.1-2.2-0.7-4.3-2.1-6c-1.4-1.6-3.1-3-4.9-4.1l-10.1-6.4c-3.3-2.1-6.1-4.8-8.4-7.9
	c-2.4-3.2-3.6-7.1-3.6-11.1c-0.1-2.9,0.5-5.8,1.7-8.4c1-2.2,2.5-4,4.4-5.5c1.8-1.4,3.9-2.4,6.1-2.9c2.1-0.6,4.3-0.9,6.6-0.9
	c3.4,0,6.8,0.4,10.2,1.2c2.8,0.7,5.5,1.6,8.2,2.7v-0.1c0.9,0.4,1.7,1.1,2.2,1.9c0.6,0.9,1.1,1.9,1.4,2.9V55z"/>
<path class="st0" d="M539.3,175.7c-1-11.9-13.3-20.6-24.7-20.2c-16.9,0.7-26.6,13.8-35.7,26.4c-9.7-19.9-41-27.4-53.3-4.8
	c-7.5,13.8-3.4,27.3,6.7,38.3c12.5,13.5,27.3,26.9,41.5,38.6c0.6,0.5,1.4,0.8,2.1,0.7c0.6,0.1,1.1-0.1,1.6-0.4
	C506.1,239.5,542.3,212,539.3,175.7z M476.5,247.7c-7.7-6.5-14.8-13.6-22-20.6c-8.8-8.6-19.8-15.8-25-27.3
	c-6.4-14.2,5.4-28.9,19.5-30.4c11.8-1.3,22.4,8.8,25.6,19.2c-0.2,2.8,3.6,5.2,5.7,2.4c8.3-11.1,15.7-25.1,30.3-28.6
	c16.5-4,23.8,11,21.5,24.8C527.4,215,500,235.2,476.5,247.7L476.5,247.7z"/>
<path class="st0" d="M540,449.9l-30.6-57.4c-2-3.7-4.1-7.4-6.2-11c0.6-0.2,1-0.6,1.4-1.1c22.7-31.5,43.9-64.1,67.1-95.2
	c16-21.4,35.7-45.2,42.3-71.6c1.9-7.6,1.1-16.8-7-20.2c-14.5-6-27.5,5.1-35.9,15.9c-5.5,7.1-9.9,15.1-14.3,23
	c-7.3,13.1-15.4,25.8-23,38.7c-16,27.2-32.8,53.7-50.2,80c-5-7.4-10-14.7-14.9-22.1c-18.6-27.9-34.8-57.2-52.1-85.9
	c-9.2-15.2-17-35-32.1-45.6c-7.9-5.5-22.5-9.3-29.5-0.2c-5.9,7.6-1.7,18.9,1.6,26.7c5.6,13.6,13.8,26,22,38.1
	c27.8,40.7,56.6,81,85.6,120.9c-37.2,69-74.4,138-111.6,207c-2,3.7,3.2,6.6,5.6,3.3c22.1-30.4,44.3-60.8,64.4-92.5
	c19.6-31,39.2-61.8,61.1-91.2c21,28.3,40.1,57.9,58.8,87.7c20.7,33,43.7,64.5,66.6,96c2.4,3.3,7.6,0.5,5.6-3.3L540,449.9z
	 M487.6,356.5c28.1-42.3,54.3-85.6,79.6-129.6c6.6-11.5,21.5-36.1,38.2-27.2c8.1,4.3-0.5,21.3-3,26.5
	c-10.3,21.9-25.7,41.5-40.1,60.8c-21.6,29-41.3,59.5-62.4,88.9c-4-6.5-8.1-12.9-12.4-19.2L487.6,356.5z M416.8,497.3
	c-11.2,17.8-23.1,35.1-35.2,52.2l86.7-160.8c3.7,5.1,7.4,10.2,11.2,15.3C456.9,433.9,436.8,465.5,416.8,497.3z M550.1,497.3
	c-20.7-32.7-41.4-65.3-64.7-96.1c-20.1-27.4-39.8-55-59.2-82.8c-17-24.4-35.3-48.2-51.1-73.4c-7.1-11.3-17-25.9-16.5-39.8
	c0.2-6.3,6.5-7.1,11.5-7c13,0.3,22.5,16.7,28.4,26.3c15.5,25.5,30.1,51.7,45.4,77.3c17,28.4,36.6,55,53.8,83.2
	c20.6,33.9,37.9,70.1,56.5,105.1l32.3,60.7C573.9,533.3,561.6,515.5,550.1,497.3z"/>
<path class="st0" d="M645,398.4c0,0.4,0.1,0.7,0.1,1.1c0,0.3,0.1,0.7,0.2,1c0.1,0.8,0.4,1.7,0.8,2.4c0.4,0.6,1.1,0.9,1.8,0.9
	c0.8-0.1,1.5-0.3,2.1-0.7c0.8-0.4,1.5-0.8,2.1-1.3c0.4-0.5,0.9-0.9,1.5-1.2c0.5-0.2,1-0.3,1.5-0.3c0.5,0.1,1,0.3,1.4,0.7
	c0.5,0.5,1,1,1.4,1.6c0.4,0.6,0.8,1.2,1.1,1.8c0.2,0.3,0.4,0.7,0.5,1.1v0.2c0,0.7-0.2,1.4-0.6,2c-0.4,0.6-0.9,1.2-1.5,1.7
	c-0.7,0.6-1.4,1.1-2.2,1.5c-1,0.5-2,0.9-3,1.3c-1.2,0.4-2.4,0.6-3.6,0.8c-1.3,0.2-2.6,0.2-3.9,0.1c-0.3,0.1-0.7,0.1-1,0.1
	c-2.7,0-4.8-0.7-6.2-2c-1.4-1.3-2.1-3.4-2.1-6.3v-24c0-0.9,0-1.8-0.1-2.7c0-0.9-0.2-1.7-0.5-2.6c-0.2-0.8-0.6-1.4-1.2-2
	c-0.5-0.5-1.3-0.8-2.1-0.8c-1.7,0-3.3,0.3-4.9,0.9c-1.7,0.6-3.3,1.7-4.5,3.1c-1.5,1.8-2.6,3.9-3.3,6.1c-1,3.2-1.5,6.5-1.4,9.9v16.4
	c0.1,1-0.2,2-0.7,2.9c-0.6,0.8-1.7,1.3-2.7,1.1h-0.5c-0.6,0-1.3-0.1-1.9-0.3c-0.6-0.2-1.2-0.5-1.8-0.8c-0.5-0.3-1-0.8-1.4-1.3
	c-0.4-0.5-0.6-1.1-0.6-1.7v-69.5c0-0.9,0.2-1.9,0.7-2.7c0.4-0.8,1.3-1.2,2.8-1.2h0.4c0.6,0,1.3,0.1,1.9,0.3c0.7,0.2,1.3,0.5,1.9,0.9
	c0.5,0.4,1,0.8,1.4,1.4c0.3,0.5,0.5,1.1,0.5,1.8v32.6c1.7-2.6,3.9-4.8,6.4-6.6c2.2-1.6,4.9-2.4,7.6-2.4c2.3-0.1,4.5,0.4,6.5,1.4
	c1.7,0.9,3.1,2.1,4.1,3.7c1.1,1.6,1.8,3.5,2.1,5.4c0.4,2.2,0.6,4.4,0.6,6.6L645,398.4z"/>
<path class="st0" d="M674.5,399.3c0,0.3,0.1,0.5,0.1,0.7c0,0.2,0.1,0.4,0.1,0.6c0.1,0.8,0.4,1.6,0.8,2.4c0.4,0.6,1.1,0.9,1.8,0.9
	c0.8-0.1,1.5-0.3,2.1-0.7c0.8-0.3,1.5-0.8,2.2-1.3c0.4-0.5,0.9-0.9,1.5-1.2c0.5-0.2,1-0.3,1.5-0.3c0.5,0,1,0.3,1.4,0.7
	c0.5,0.5,1,1,1.4,1.6c0.4,0.6,0.8,1.2,1.1,1.8c0.2,0.3,0.4,0.7,0.4,1.1v0.2c0,0.7-0.2,1.4-0.6,2c-0.4,0.6-0.9,1.2-1.5,1.7l0.1-0.1
	c-1.3,1-2.7,1.9-4.2,2.7c-2,0.9-4.1,1.4-6.3,1.3c-0.3,0-0.7,0-1,0.1c-0.3,0-0.6,0-0.9-0.1h-0.5c-0.8-0.1-1.5-0.2-2.2-0.5
	c-1.1-0.4-2.1-0.9-3-1.6c-1-0.7-1.9-1.6-2.7-2.6c-0.8-1.1-1.2-2.4-1.2-3.8v-37.2c0-1,0.4-2,1.2-2.8c0.8-0.8,1.9-1.2,3-1.1h0.2
	c0.6,0,1.1,0.1,1.7,0.2c0.6,0.2,1.1,0.4,1.6,0.7c1,0.7,1.6,1.9,1.6,3.2L674.5,399.3z M675.6,345.3c0,1.6-0.5,3.1-1.5,4.2
	c-0.8,1.1-2.2,1.8-3.6,1.8c-1.4,0-2.7-0.7-3.6-1.8c-1.8-2.6-1.8-6,0-8.5c0.8-1.1,2.2-1.8,3.6-1.8c1.4,0,2.7,0.7,3.6,1.8
	C675.1,342.2,675.7,343.7,675.6,345.3L675.6,345.3z"/>
<path class="st0" d="M731.7,403.1c0.1,0.2,0.2,0.3,0.4,0.4l0.1-0.1v0.2c0.4,0.3,0.9,0.5,1.4,0.4c0.8-0.1,1.5-0.3,2.1-0.7
	c0.8-0.3,1.5-0.8,2.2-1.3c0.4-0.5,0.9-0.9,1.5-1.2c0.5-0.2,1-0.3,1.5-0.3c0.5,0,1,0.3,1.4,0.7c0.5,0.5,1,1,1.4,1.6
	c0.4,0.6,0.8,1.2,1.1,1.8c0.2,0.3,0.4,0.7,0.4,1.1v0.3c0,0.7-0.2,1.4-0.6,2c-0.4,0.6-0.9,1.2-1.5,1.7l0.1-0.1
	c-1.3,1-2.7,1.9-4.2,2.7c-3,1.3-6.4,1.7-9.6,0.9c-2,0-4-0.8-5.5-2.2c-1.2-1.3-1.9-3.2-1.9-5.8v-1.3c-2,2.6-4.5,4.9-7.3,6.8
	c-2.3,1.6-5,2.5-7.8,2.5c-3.9,0-6.9-0.9-9.1-2.8c-2.3-2.1-3.9-5-4.4-8.1c-0.1-0.8-0.2-1.7-0.2-2.5c0-1-0.1-2-0.1-2.9
	c0.1-3.8,0.8-7.7,2.2-11.2c1.3-3.6,3.2-7,5.6-10c2.2-2.9,4.9-5.3,8-7.2c2.9-1.8,6.2-2.8,9.7-2.8c0.7,0,1.5,0.1,2.2,0.2
	c0.7,0.1,1.3,0.3,2,0.5c0.7-0.9,1.7-1.3,2.8-1.2h0.3c0.6,0,1.3,0.1,1.9,0.2c0.7,0.1,1.3,0.4,1.9,0.7c0.5,0.3,1,0.7,1.4,1.2
	c0.4,0.5,0.6,1.1,0.6,1.8L731.7,403.1z M703.1,400.2c0.5,2.7,1.8,4,3.9,4c1.6,0,3.2-0.5,4.5-1.5c1.5-1,2.8-2.3,4-3.6
	c1.2-1.4,2.3-2.9,3.2-4.6c0.8-1.4,1.5-2.9,2.1-4.4c0.7-2.7,1.2-5.1,1.6-7.1c0.4-1.6,0.5-3.3,0.5-5c0.1-2-1.4-3.8-3.4-3.9
	c-0.3,0-0.6,0-0.9,0c-2.1,0-4.1,0.8-5.8,2.1c-2,1.5-3.6,3.2-5,5.3c-1.5,2.2-2.7,4.6-3.5,7.2c-0.9,2.5-1.3,5.1-1.4,7.8
	c0,0.5,0,1.1,0,1.8C702.9,398.9,703,399.6,703.1,400.2z"/>
<path class="st0" d="M273.1,342.3c0,0.5-0.1,1-0.3,1.5c-0.2,0.7-0.5,1.3-0.9,1.9c-0.4,0.6-0.9,1.1-1.4,1.6c-0.5,0.4-1.1,0.7-1.8,0.7
	c-0.5,0-1.1-0.1-1.6-0.2c-0.7-0.2-1.3-0.6-1.9-1c-0.2,0-0.2,0-0.2-0.1c-1.5-0.8-3.1-1.4-4.7-1.9c-1.8-0.5-3.6-0.8-5.4-0.7
	c-1.5,0-3.1,0.2-4.6,0.5c-1.4,0.3-2.7,0.8-3.9,1.6c-1.1,0.7-2,1.6-2.7,2.7c-0.7,1.2-1,2.6-1,4c0,0.9,0.1,1.8,0.3,2.7h-0.1
	c0.2,1.1,0.7,2.1,1.3,3c0.7,0.9,1.4,1.8,2.3,2.5c1,0.8,2,1.5,3.1,2.1c1.1,0.7,2.3,1.3,3.5,1.9l6.9,3.5c4,1.9,7.6,4.6,10.6,7.8
	c2.4,2.6,4.1,5.7,5,9.1c0.4,1.1,0.6,2.3,0.8,3.5c0.1,1,0.2,2,0.2,3c0.1,2.8-0.5,5.6-1.6,8.2c-1.1,2.3-2.6,4.4-4.6,6
	c-2.1,1.7-4.4,3-7,3.7c-2.9,0.9-5.8,1.3-8.8,1.3c-1.9,0-3.9-0.1-5.8-0.4c-1.6-0.3-3.2-0.7-4.8-1.2c-1.5-0.5-2.9-1.2-4.3-1.9
	c-1.4-0.8-2.8-1.6-4.2-2.6c-0.7-0.4-1.2-1-1.7-1.6c-0.3-0.6-0.5-1.2-0.5-1.9v-0.5c0-0.6,0.2-1.1,0.5-1.6c0.3-0.6,0.7-1.2,1.1-1.8
	c0.4-0.5,0.9-1,1.4-1.4c0.4-0.3,0.9-0.5,1.4-0.6c0.6,0,1.1,0.1,1.6,0.4c0.5,0.3,0.9,0.6,1.4,1l0.5,0.6c0,0,0.1,0,0.2,0
	c1.9,1.4,4,2.5,6.3,3.3c2.1,0.6,4.4,0.9,6.6,0.9c1.5,0,3.1-0.2,4.5-0.7c1.4-0.5,2.7-1.2,3.9-2.1c1.1-0.9,2-2.1,2.7-3.4
	c0.7-1.4,1-2.9,1-4.5c0-1-0.1-2.1-0.4-3.1c-0.6-2.4-1.9-4.6-3.8-6.3c-2-1.8-4.3-3.3-6.6-4.5l-6.9-3.5c-1.9-1-3.8-2.1-5.5-3.2
	c-1.7-1.1-3.2-2.3-4.7-3.6c-1.4-1.3-2.5-2.7-3.5-4.3c-1-1.6-1.7-3.4-2-5.3c-0.2-0.8-0.4-1.7-0.4-2.5c-0.1-0.9-0.1-1.8-0.1-2.7
	c-0.1-2.7,0.5-5.4,1.7-7.9c1.1-2.2,2.7-4,4.7-5.4c2.1-1.5,4.4-2.5,6.9-3.1c2.8-0.7,5.6-1,8.5-1c1.3,0,2.6,0.1,3.9,0.3
	c1.4,0.2,2.8,0.5,4.2,0.9c1.4,0.4,2.7,0.8,4.1,1.3c1.3,0.5,2.5,1,3.6,1.5c0.7,0.4,1.3,0.8,1.8,1.4c0.6,0.7,0.9,1.5,1.1,2.4
	L273.1,342.3z"/>
<path class="st0" d="M322.2,385.4c0.2,3.4-0.2,6.8-1.2,10.1c-0.9,2.9-2.3,5.7-4.1,8.1c-1.7,2.2-3.9,4.1-6.3,5.4
	c-2.4,1.3-5.1,2-7.8,2c-3,0.1-5.9-0.6-8.6-1.9c-2.3-1.2-4.4-2.9-6-5c-1.6-2.2-2.9-4.6-3.6-7.2c-0.8-2.8-1.3-5.6-1.4-8.5
	c-0.2-3.2,0.2-6.4,1-9.5c0.8-3,2.1-5.8,3.8-8.3c1.6-2.4,3.7-4.4,6.1-5.9c2.4-1.5,5.2-2.3,8-2.2c3-0.1,6,0.6,8.7,1.9
	c2.4,1.2,4.5,3,6.2,5.1c1.7,2.2,3,4.7,3.8,7.4C321.6,379.5,322.1,382.4,322.2,385.4z M312.7,385.4c0-1.7-0.3-3.4-0.7-5
	c-0.4-1.6-1-3.1-1.8-4.5c-0.8-1.3-1.9-2.4-3.1-3.2c-1.4-0.9-3-1.3-4.6-1.2c-1.5,0-2.9,0.6-4,1.6c-1.3,1.1-2.3,2.5-3.1,4
	c-0.9,1.7-1.6,3.5-2,5.4c-0.5,1.8-0.6,3.8-0.5,5.6c0.1,1.7,0.3,3.4,0.6,5c0.3,1.6,0.9,3.1,1.6,4.5c0.7,1.3,1.7,2.4,2.9,3.2
	c1.4,0.9,2.9,1.3,4.5,1.2c1.5,0,2.9-0.5,4-1.4c1.3-1,2.5-2.3,3.3-3.8c1-1.7,1.7-3.5,2.2-5.3C312.6,389.6,312.8,387.5,312.7,385.4z"
	/>
<path class="st0" d="M369.5,372.2c0.1,0.6,0.2,1.3,0.2,1.9c0.1,0.8,0.1,1.6,0.1,2.4v1.5c0,4-0.7,8-2.1,11.8
	c-1.3,3.8-3.2,7.3-5.5,10.6c-2.2,3-4.9,5.6-8,7.6c-2.9,1.9-6.3,2.9-9.7,2.9c-0.6,0-1.2,0-1.8-0.1c-0.6-0.1-1.1-0.1-1.6-0.2v33
	c-0.1,0.9-0.3,1.8-0.7,2.7c-0.4,0.7-1.2,1-2.7,1h-0.3c-0.7,0-1.3-0.1-1.9-0.2c-0.7-0.1-1.3-0.4-1.9-0.8c-0.5-0.3-1-0.8-1.4-1.3
	c-0.4-0.6-0.5-1.2-0.5-1.9v-78.4c0-1,0.2-1.9,0.6-2.8c0.4-0.8,1.3-1.2,2.7-1.2h0.4c0.7,0,1.3,0.1,1.9,0.2c0.7,0.1,1.3,0.4,1.9,0.7
	c0.6,0.3,1,0.8,1.4,1.3c0.4,0.6,0.5,1.2,0.5,1.9v5.9c2-2.8,4.4-5.3,7.1-7.3c2.3-1.8,5.1-2.8,8-2.8c3.3-0.1,6.5,0.9,9,3
	C367.6,365.9,369.1,369,369.5,372.2z M360,375.8c-0.1-0.5-0.1-1-0.2-1.4c-0.2-1.2-0.7-2.3-1.4-3.1c-0.6-0.7-1.5-1.1-2.4-1.1
	c-1.7,0-3.5,0.5-5,1.3c-1.8,0.9-3.5,2.2-4.8,3.7c-1.5,1.8-2.8,3.8-3.6,6c-1,2.6-1.5,5.4-1.5,8.2v9.6c0,0.2,0,0.4,0.1,0.6
	c0.2,0.6,0.5,1.1,1,1.4c0.7,0.5,1.5,0.7,2.4,0.7c2.1,0,4.1-0.8,5.7-2.1c2-1.5,3.7-3.4,5-5.5c1.5-2.3,2.7-4.9,3.5-7.5
	c0.9-2.6,1.3-5.4,1.4-8.1V377C360.1,376.7,360.1,376.3,360,375.8L360,375.8z"/>
<path class="st0" d="M738.1,463.4c-4.7-28.7-38.9-37-63.3-32.9c-17.5,3-34.4,11-50,19.1c-4.6,2.4-9.3,4.6-14,7
	c-2.8,1.4-7.3,4.6-11.1,6.2c-1.6,0.2-3.2,0.5-4.7,0.8c-1.6,0.4-2.6,1.9-2.3,3.5c0,1.4,0.9,2.7,2.2,3.1c13.9,4.9,26.1,14.7,39.9,20.3
	c17.4,7.1,35.8,13.6,54.6,15.1C713.5,507.6,742.6,491.6,738.1,463.4z M728.1,454.5c2.5,3.7,3.8,8,3.8,12.5c-6.7-2-13.5-3.4-20.5-4.2
	c1.4-5.7,7-10,10.9-15C724.5,449.8,726.3,452,728.1,454.5L728.1,454.5z M700.5,498.3c-2.4-10.5-5.7-20.9-9.9-30.9
	c4.8,0.2,9.5,0.4,14.2,0.9c2.3,9.2,7.7,17.4,10.6,26.5c-4.6,2.4-9.6,3.9-14.8,4.3C700.5,498.8,700.5,498.6,700.5,498.3z
	 M689.9,461.2c2.9-8.5,12.5-14.6,13.8-23.6c4.9,1.2,9.5,3.3,13.7,6.1c0,0.1-0.1,0.1-0.1,0.1c-3.9,5.3-11.8,11-13,18.1
	C699.4,461.5,694.7,461.3,689.9,461.2L689.9,461.2z M697.3,436.3c-0.4,4.2-4.9,8.7-7.2,11.8c-2.9,3.9-5.8,8-6.9,12.9
	c-7.4-0.1-14.9-0.1-22.2-0.2h-0.1c0-0.1,0.1-0.2,0.1-0.2c3-7.8,9.2-15.6,14.7-21.9c0.4-0.4,0.7-1,0.8-1.6
	C683.4,435.8,690.4,435.6,697.3,436.3z M648.6,486.9c-3-6-6.4-11.8-8.7-18.1c5.3-0.5,10.7-1,16-1.3c1.7,9.3,5.8,17.9,8.5,26.9
	c-5.2-1.5-10.4-3.2-15.5-5.1C649.1,488.4,649,487.6,648.6,486.9z M648.4,445.6c6-2.6,12.2-4.7,18.5-6.4c-4.9,6-9.4,12.7-12.1,19.6
	c-0.3,0.7-0.3,1.4-0.1,2.1c-5.5,0.2-10.9,0.7-16.3,1.2C638.5,455.5,644.4,451,648.4,445.6z M635.6,451.5c-2.3,3.1-3.7,6.9-3.8,10.8
	c0,0.1,0,0.3,0,0.4c-2.6,0.2-5.1,0.3-7.7,0.4c-3.7,0.1-7.3-0.2-11-0.4l0.9-0.5C621.3,458.6,628.4,455,635.6,451.5L635.6,451.5z
	 M626.1,479.7c-6.7-3.1-12.9-7.3-19.3-10.9c5.8,0,11.7,0.7,17.4,0.8c2.9,0,5.8,0,8.7-0.2c1.7,5.8,5,11.5,8,16.7
	C635.8,484,630.9,481.9,626.1,479.7L626.1,479.7z M680,498c-3.2-0.6-6.4-1.3-9.6-2.1c0.6-0.8,0.7-1.8,0.4-2.6
	c-2.6-8.7-6.5-17.1-8.4-26c7,0,14.1-0.1,21.2,0c4.4,10.4,7.9,21.2,10.5,32.1C689.3,499.3,684.6,498.8,680,498z M720.8,490.9
	c-2.6-7.2-6.3-14-9-21.2c-0.1-0.2-0.1-0.3-0.1-0.5c6.6,0.9,13.1,2.3,19.4,4.3C729.5,480.2,726,486.2,720.8,490.9L720.8,490.9z"/>
<path class="st0" d="M374,467.5c0.3-1.6-0.7-3.1-2.3-3.5c-1.5-0.4-3-0.6-4.5-0.8c-3.2-1.4-6.9-4-9.2-5.1c-5-2.5-10-5-15-7.5
	c-15.5-7.7-30.9-14.9-47.8-19l-2-0.4c-0.3-0.1-0.6-0.2-0.9-0.2c-24.4-4.7-56.3,3.6-63.3,30.4c-3.1,12,3.2,25.8,11.6,34.1
	c8.8,8.7,22.2,10.9,34.1,10.7c18.2-0.2,36.7-7.2,53.4-13.7c15.2-5.9,28.5-16.5,43.7-21.8C373.2,470.2,374.1,469,374,467.5z
	 M350.5,461.5c0.9,0.4,1.8,0.9,2.7,1.5c-2.6,0.1-5.2,0.3-7.8,0.4c-3.5,0.1-7,0-10.6-0.1c0.4-4.5-1.2-8.1-3.6-11.5
	C337.6,455,344,458.4,350.5,461.5L350.5,461.5z M318.4,446c4.1,5.7,9.8,9.8,9.7,16.8c-5.4-0.5-10.7-1-16.1-1.3
	c0.3-0.7,0.3-1.5,0-2.2c-2.9-7.1-6.8-13.7-11.4-19.7c5.5,1.7,10.8,3.7,15.8,5.6L318.4,446z M316.2,490.4c-4.6,1.6-9.3,3-14,4.3
	c2.9-8.9,6.5-17.7,8.4-26.9c5.5,0.1,10.9,0.5,16.4,1C324.5,476.3,319.7,483.4,316.2,490.4C316.2,490.4,316.2,490.4,316.2,490.4
	L316.2,490.4z M290.2,437c6,6.8,12.3,15.6,15.6,24c0,0.1,0.1,0.2,0.1,0.2h-0.1c-7.3,0-14.8-0.1-22.3,0c-1.2-4.7-4-8.7-6.8-12.6
	c-2.3-3.2-7-7.8-7.2-12C276.3,435.4,283.3,435.6,290.2,437L290.2,437z M262.6,462.2c-1.3-7-9.1-12.7-13-18l0,0
	c4.2-2.6,8.8-4.6,13.6-6c1.4,8.8,10.7,14.9,13.7,23.2C272,461.5,267.2,461.8,262.6,462.2L262.6,462.2z M244.4,448
	c4,5.1,9.4,9.3,10.8,15c-6.8,0.9-13.5,2.3-20.1,4.2c0.1-3.5,0.9-7,2.4-10.2C239.2,453.6,241.5,450.6,244.4,448L244.4,448z
	 M235.7,473.9c6.3-1.9,12.7-3.3,19.3-4.2c0,0.1-0.1,0.3-0.1,0.4c-2.4,7.4-6.4,14.1-9,21.3C240.7,486.9,237.1,480.7,235.7,473.9
	L235.7,473.9z M251.4,495.2c2.9-9,8.2-17.1,10.5-26.3c4.7-0.4,9.4-0.7,14.1-0.8c-4.1,9.9-7.3,20.2-9.8,30.6
	c-0.1,0.2-0.1,0.5-0.1,0.7c-4.8-0.5-9.4-1.8-13.8-3.8C252,495.5,251.7,495.4,251.4,495.2L251.4,495.2z M272.7,499.8
	c2.6-10.9,6-21.5,10.3-31.8c7-0.1,14-0.1,21-0.2c-2.2,9.8-6.3,19.2-9.2,28.8c-1.9,0.5-3.8,0.9-5.6,1.4
	C283.8,499.3,278.3,499.9,272.7,499.8L272.7,499.8z M325.3,487c3.1-5.7,6.2-11.5,8.1-17.7l6.6,0.6c6.5,0.5,13-0.5,19.5-0.6
	c-5.8,3.2-11.3,6.8-17.1,9.9C336.9,482.1,331.2,484.7,325.3,487z"/>
</svg>
