<?xml version="1.0" encoding="utf-8"?>
<!-- Generator: Adobe Illustrator 25.4.1, SVG Export Plug-In . SVG Version: 6.00 Build 0)  -->
<svg version="1.1" id="Capa_1" xmlns="http://www.w3.org/2000/svg" xmlns:xlink="http://www.w3.org/1999/xlink" x="0px" y="0px"
	 viewBox="0 0 816.5 1084" style="enable-background:new 0 0 816.5 1084;" xml:space="preserve">
<style type="text/css">
	.st0{fill:#DA7F1F;stroke:#121E3B;stroke-width:8;stroke-miterlimit:10;}
	.st1{fill:#A85B34;}
	.st2{clip-path:url(#SVGID_00000031192310647631607280000002694239287898389668_);}
	.st3{fill:#B56F46;}
	.st4{fill:#904928;}
	.st5{clip-path:url(#SVGID_00000052085608228489584810000007994795525662220711_);}
	.st6{fill:none;stroke:#121E3B;stroke-width:8;stroke-linecap:round;stroke-linejoin:round;}
	.st7{fill:#121E3B;}
</style>
<g id="TEXTS">
	<path class="st0" d="M648.1,431.4v375.9c-70.5-16.7-144.7-1.9-203.4,40.5c-9.8,7.1-19,14.9-27.6,23.3
		c-65.5-63.8-160.8-86.6-248-59.2V431.4c0-132.3,107.3-239.5,239.6-239.5C540.9,191.9,648.1,299.1,648.1,431.4z"/>
	<path class="st1" d="M650.9,565.5l8.6-27.5l-59.2-25.4l-14,25.1c-17.4,31.2-42.3,57.5-72.5,76.6c-33.7,21.1-65.7,59.5-86.8,108.5
		c-21,48.9-26.9,98.5-19.1,137.4c1,5.2,3.9,9.9,8,13.2c15.7,12.4,32.9,22.6,51.2,30.4c18.3,7.8,37.6,13.3,57.4,16.3
		c5.2,0.7,10.6-0.4,15.1-3.2c33.6-21.1,65.5-59.5,86.6-108.4c21.1-49,26.9-98.7,19.1-137.6C638.3,635.7,640.2,599.5,650.9,565.5z"/>
	<g>
		<defs>
			<path id="SVGID_1_" d="M650.9,565.5l8.6-27.5l-59.2-25.4l-14,25.1c-17.4,31.2-42.3,57.5-72.5,76.6
				c-33.7,21.1-65.7,59.5-86.8,108.5c-21,48.9-26.9,98.5-19.1,137.4c1,5.2,3.9,9.9,8,13.2c15.7,12.4,32.9,22.6,51.2,30.4
				c18.3,7.8,37.6,13.3,57.4,16.3c5.2,0.7,10.6-0.4,15.1-3.2c33.6-21.1,65.5-59.5,86.6-108.4c21.1-49,26.9-98.7,19.1-137.6
				C638.3,635.7,640.2,599.5,650.9,565.5z"/>
		</defs>
		<clipPath id="SVGID_00000040559765176193169460000009170996753656928135_">
			<use xlink:href="#SVGID_1_"  style="overflow:visible;"/>
		</clipPath>
		<g style="clip-path:url(#SVGID_00000040559765176193169460000009170996753656928135_);">
			<polygon class="st3" points="554.3,807.3 532.3,763.5 482.9,776.5 461.9,733.2 418.2,746.9 417,743.2 463.9,728.5 485,771.9 
				534.4,758.9 556.3,802.5 601.4,787.5 618.2,830.5 614.5,831.9 599.2,792.4 			"/>
			<polygon class="st3" points="569.7,771.6 547.7,727.8 498.2,740.8 477.2,697.6 433.5,711.2 432.3,707.5 479.3,692.8 500.3,736.2 
				549.7,723.2 571.6,766.8 616.8,751.9 633.5,794.8 629.9,796.2 614.5,756.7 			"/>
			<polygon class="st3" points="585,735.9 563,692.1 513.6,705.1 492.6,661.9 448.9,675.5 447.7,671.8 494.6,657.2 515.7,700.6 
				565.1,687.5 587,731.2 632.1,716.2 648.9,759.1 645.2,760.5 629.8,721 			"/>
		</g>
	</g>
	
		<ellipse transform="matrix(0.3951 -0.9186 0.9186 0.3951 -102.3073 896.5462)" class="st1" cx="629.6" cy="526" rx="9.7" ry="45.5"/>
	<path class="st4" d="M625.3,535.9c-10.3-4.3-20.1-9.6-29.3-15.9l1.4-1.9c18.3,12.2,38.7,21,60.1,25.9l-0.4,2.3
		C646.2,543.9,635.5,540.5,625.3,535.9z"/>
	<path class="st1" d="M676.4,532.4c-0.9,2-4.8,2.5-10.7,1.7c-8.6-1.1-21.3-4.9-34.9-10.8c-13.7-5.9-25.2-12.5-31.9-17.9
		c-4.6-3.8-7-7-6.1-9c2.1-4.9,22.5-0.9,45.6,9.1C661.5,515.4,678.5,527.5,676.4,532.4z"/>
	
		<rect x="625.1" y="475.1" transform="matrix(0.3951 -0.9186 0.9186 0.3951 -96.0434 895.4314)" class="st1" width="13.6" height="91"/>
	<path class="st4" d="M665.7,534.1c-8.6-1.1-21.3-4.9-34.9-10.8s-25.2-12.5-31.9-17.9c3.6-3.8,19.4-1.2,36.9,6.3
		S666,528.9,665.7,534.1z"/>
	<path class="st1" d="M281.3,555.1c0.6,1.6-6.2,5.6-15.2,8.9c-9,3.3-16.8,4.7-17.3,3.1c-0.6-1.6,6.2-5.6,15.2-8.9
		C273,554.8,280.8,553.5,281.3,555.1z"/>
	<path class="st1" d="M280,551.3c0.6,1.6-6.2,5.6-15.2,8.9c-9,3.3-16.8,4.7-17.3,3.1c-0.6-1.6,6.2-5.6,15.2-8.9
		C271.6,551.1,279.4,549.7,280,551.3z"/>
	
		<rect x="255.5" y="556.7" transform="matrix(0.9388 -0.3445 0.3445 0.9388 -178.8509 126.7003)" class="st1" width="23.2" height="20"/>
	
		<rect x="247.1" y="557.2" transform="matrix(0.9388 -0.3445 0.3445 0.9388 -176.4886 125.3241)" class="st1" width="34.7" height="4.3"/>
	<path class="st3" d="M433,666.3c18.9,51.6,15.4,117.3-9.3,160.6c-5.8,10.5-13.4,19.8-22.5,27.7c-7.6,3.3-16,6.6-24.8,9.9
		c-8.8,3.2-17.3,6.1-25.2,8.5c-12-0.1-23.9-2.3-35.1-6.6c-46.9-17-92.1-64.8-111-116.4c-27.4-74.7,1.4-154,64.3-177.1
		C332.3,549.7,405.6,591.5,433,666.3z"/>
	<g>
		<defs>
			<path id="SVGID_00000138572909335618697160000004845799377347362450_" d="M433,666.3c18.9,51.6,15.4,117.3-9.3,160.6
				c-5.8,10.5-13.4,19.8-22.5,27.7c-7.6,3.3-16,6.6-24.8,9.9c-8.8,3.2-17.3,6.1-25.2,8.5c-12-0.1-23.9-2.3-35.1-6.6
				c-46.9-17-92.1-64.8-111-116.4c-27.4-74.7,1.4-154,64.3-177.1C332.3,549.7,405.6,591.5,433,666.3z"/>
		</defs>
		<clipPath id="SVGID_00000071542618689781619720000008248823855702720399_">
			<use xlink:href="#SVGID_00000138572909335618697160000004845799377347362450_"  style="overflow:visible;"/>
		</clipPath>
		<g style="clip-path:url(#SVGID_00000071542618689781619720000008248823855702720399_);">
			<path class="st1" d="M339.8,764.7c-55.9,20.5-111.9,30.4-157.8,28c-46.2-2.5-76.5-17.4-85.5-41.8c-9-24.4,4.6-55.4,38.2-87.2
				c33.3-31.5,82.5-60.2,138.4-80.7c55.9-20.5,111.9-30.4,157.8-28c46.2,2.5,76.5,17.4,85.5,41.8c9,24.4-4.6,55.4-38.2,87.2
				C444.8,715.5,395.7,744.2,339.8,764.7z M273.9,585.1c-114.5,42-193.1,116-175.2,164.9c17.9,48.9,125.7,54.5,240.2,12.5
				s193.1-116,175.1-164.9C496.2,548.7,388.4,543.1,273.9,585.1z"/>
			<path class="st1" d="M331.8,742.8c-55.9,20.5-111.9,30.4-157.8,28c-46.2-2.5-76.5-17.4-85.5-41.8s4.6-55.4,38.2-87.2
				c33.3-31.5,82.5-60.2,138.4-80.7c55.9-20.5,111.9-30.4,157.8-28c46.2,2.5,76.5,17.4,85.5,41.8c9,24.4-4.6,55.4-38.2,87.2
				C436.8,693.6,387.7,722.3,331.8,742.8z M265.9,563.3c-114.5,42-193.1,116-175.2,164.9c17.9,48.9,125.7,54.5,240.2,12.5
				c114.5-42,193.1-116,175.1-164.9C488.2,526.8,380.4,521.2,265.9,563.3z"/>
			<path class="st1" d="M323.7,720.9c-55.9,20.5-111.9,30.4-157.8,28c-46.2-2.5-76.5-17.4-85.5-41.8s4.6-55.4,38.2-87.2
				c33.3-31.5,82.5-60.2,138.4-80.7c55.9-20.5,111.9-30.4,157.8-28c46.2,2.5,76.5,17.4,85.5,41.8c9,24.4-4.6,55.4-38.2,87.2
				C428.8,671.7,379.6,700.4,323.7,720.9z M257.8,541.4c-114.5,42-193.1,116-175.2,164.9c17.9,48.9,125.7,54.5,240.2,12.5
				c114.5-42,193.1-116,175.1-164.9C480.1,505,372.4,499.4,257.8,541.4z"/>
			<path class="st1" d="M315.7,699c-55.9,20.5-111.9,30.4-157.8,28c-46.2-2.5-76.5-17.4-85.5-41.8c-9-24.4,4.6-55.4,38.2-87.2
				c33.3-31.5,82.5-60.2,138.4-80.7c55.9-20.5,111.9-30.4,157.8-28c46.2,2.5,76.5,17.4,85.5,41.8c9,24.4-4.6,55.4-38.2,87.2
				C420.8,649.8,371.6,678.5,315.7,699z M249.8,519.5c-114.5,42-193.1,116-175.2,164.9c17.9,48.9,125.7,54.5,240.2,12.5
				C429.4,654.8,508,580.9,490,532C472.1,483.1,364.3,477.5,249.8,519.5z"/>
		</g>
	</g>
	<path class="st3" d="M444.3,827.3c1.7,4.6-16.4,15.7-43.1,27.2c-7.6,3.3-16,6.6-24.8,9.9c-8.8,3.2-17.3,6.1-25.2,8.5
		c-28,8.5-48.9,11.8-50.6,7.2c-1-2.7,4.9-7.7,15.5-13.7c12.4-7,31-15.5,52.4-23.3c21.4-7.9,41.2-13.5,55.1-16.1
		C435.6,824.6,443.3,824.6,444.3,827.3z"/>
	<path class="st1" d="M283.4,611c-31.2,11.5-62.9,18.1-87,18.1c-1.9,0-3.5-1.5-3.5-3.5c0,0,0,0,0,0c0-1.9,1.6-3.5,3.5-3.5
		c23.2,0,54-6.5,84.5-17.7c30.8-11.3,58.7-26.5,76.4-41.6c1.5-1.3,3.7-1.1,5,0.4c1.3,1.5,1.1,3.7-0.4,4.9c0,0,0,0,0,0
		C343.6,583.8,315,599.4,283.4,611z"/>
	<path class="st1" d="M366.2,857.7c-17.9,6.6-40.8,11.8-50.3,9.8l0.5-2.3c11.3,2.3,41.9-5.8,59.8-14.1l1,2.1
		C373.9,854.7,370.1,856.3,366.2,857.7z"/>
	<path class="st0" d="M492.2,1049.1c0,5.4-0.1,10.8-0.6,16.1c-13.7,5.1-27.9,8.8-42.3,11.3c-3.7,0.6-7.4,1.2-11.2,1.7
		c1.4-9.6,2.1-19.4,2.2-29.1c0-108.5-87.9-196.5-196.4-196.6c-25.1,0-50,4.8-73.3,14.2c-1-8.7-1.5-17.4-1.5-26.2V812
		c24.2-7.6,49.3-11.4,74.6-11.4c64.8,0,127.1,25.3,173.4,70.6c4.3,4.1,8.4,8.4,12.4,12.9c7.6,8.5,14.6,17.6,20.9,27.1
		c10.6,15.7,19.4,32.7,26,50.5C486.9,989.6,492.2,1019.2,492.2,1049.1z"/>
	<path class="st0" d="M440.3,1049.1c0,9.7-0.7,19.5-2.2,29.1c-9.8,1.2-19.7,1.8-29.6,1.8c-4.1,0-8.2-0.1-12.2-0.3
		c-4-0.2-7.9-0.6-11.9-0.9c2-9.8,3.1-19.7,3.1-29.7c0-79.5-64.5-143.9-144-143.8c-21.2,0-42.1,4.7-61.3,13.7
		c-5.9-16.9-9.8-34.5-11.7-52.3c100.7-40.4,215.2,8.4,255.6,109.1C435.5,999.1,440.3,1024,440.3,1049.1L440.3,1049.1z"/>
	<path class="st0" d="M387.5,1049.1c0,10-1,19.9-3.1,29.7c-14.1-1.4-28-4.1-41.6-7.9c-7-2-14-4.4-20.7-6.9
		c8.2-43.4-20.3-85.2-63.7-93.4c-4.9-0.9-9.8-1.4-14.8-1.4c-11.2,0-22.3,2.4-32.6,6.9c-12.1-17.7-21.8-36.9-28.9-57.1
		c71.9-33.9,157.7-3.1,191.5,68.9C382.8,1007,387.5,1027.9,387.5,1049.1z"/>
	<path class="st0" d="M323.6,1049.1c0,5-0.5,10-1.4,14.9c-45-17.5-83.7-48.1-111.1-87.8c40.3-18,87.5,0.1,105.5,40.4
		C321.2,1026.8,323.6,1037.9,323.6,1049.1z"/>
	<path class="st0" d="M648.1,807.3v33.2c0,6.9-0.3,13.6-0.9,20.3c-69.9-21-145.6-1.6-196.9,50.3c-6.3-9.5-13.3-18.5-20.9-27.1
		c-4-4.5-8.1-8.8-12.4-12.9c8.6-8.5,17.8-16.3,27.6-23.3C503.4,805.4,577.6,790.6,648.1,807.3z"/>
	<path class="st0" d="M647.2,860.8c-1.4,17.7-4.9,35.2-10.3,52.1c-58.4-19.9-123-0.4-160.6,48.7c-6.7-17.8-15.4-34.7-26-50.5
		C501.6,859.2,577.3,839.8,647.2,860.8L647.2,860.8z"/>
	<path class="st0" d="M636.9,913c-6.6,20.7-15.9,40.3-27.8,58.5c-6.1-1.5-12.4-2.2-18.7-2.2c-44.1,0-79.9,35.7-79.9,79.8
		c0,0,0,0,0,0.1c0,2.6,0.1,5.3,0.4,7.9c-6.3,3-12.8,5.8-19.4,8.2c0.4-5.3,0.6-10.7,0.6-16.1c0-29.9-5.3-59.5-15.8-87.5
		C513.9,912.6,578.5,893,636.9,913z"/>
	<path class="st0" d="M609.2,971.4c-24.2,37-58.2,66.7-98.2,85.6c-0.3-2.6-0.4-5.3-0.4-7.9c0-44.1,35.7-79.9,79.8-79.9
		c0,0,0,0,0.1,0C596.8,969.2,603,969.9,609.2,971.4z"/>
	<line class="st6" x1="657.9" y1="611.9" x2="812.5" y2="611.9"/>
	<line class="st6" x1="4" y1="611.9" x2="159.2" y2="611.9"/>
	<path class="st7" d="M102,550.8c-0.8,0-1.5-0.1-2.2-0.4l-79.5-19.3c-2.3-0.6-3.5-3.1-3.5-7.7v-8.2c0-4.6,1.2-7.2,3.5-7.8l79.5-19.3
		c0.7-0.1,1.5-0.2,2.2-0.3c1.8,0,2.8,1.8,2.7,5.4v6.7c0,4-0.9,6.2-2.6,6.7l-15.2,3.3V529l15.2,3.4c1.7,0.3,2.6,2.3,2.6,5.9v6.5
		C104.8,548.8,103.9,550.8,102,550.8z M71.7,512l-26.5,5.7c-3,0.6-6.2,1.1-9.5,1.5v0.6c3.3,0.4,6.5,0.9,9.5,1.5l26.5,5.5V512z"/>
	<path class="st7" d="M100.8,453.3H22.1c-1.4,0.1-2.8-0.3-3.8-1.2c-0.9-1.1-1.3-2.4-1.2-3.8v-21c0-7.7,1.9-13.9,5.7-18.6
		c3.8-4.7,10.1-7,18.9-7c9.7,0,16.8,4,21.1,11.9h0.5c1.2-2.1,2.9-3.8,5-5c2.3-1.5,4.8-2.6,7.5-3.4l24-7.4l1.5-0.4
		c2.2,0,3.4,2.6,3.4,7.8v4.4c0,4.4-1.1,6.9-3.4,7.5l-23.7,6.7c-1.5,0.5-2.8,1.4-3.9,2.6c-0.9,1.4-1.3,3-1.1,4.6v3h28.2
		c2.7,0,4,2.5,4,7.5v4.3C104.8,450.7,103.5,453.3,100.8,453.3z M54.3,426.9c-0.1-1.9-1.1-3.7-2.7-4.7c-2.4-1.4-5.2-2.1-8-1.9
		c-3.5,0-6.1,0.6-7.7,1.9c-1.6,1.2-2.5,3.1-2.4,5.1v6.7h20.9V426.9z"/>
	<path class="st7" d="M106.4,353.7l-65.6-15.1l-3.1,13.6c-0.2,1.1-1,2-2.1,2.4c-1.6,0.3-3.3,0.3-4.8-0.2l-3.8-0.9
		c-1.6-0.3-3.1-0.9-4.4-1.9c-0.8-0.8-1.2-1.9-0.8-3l10.7-46.5c0.2-1.2,1-2.1,2.1-2.5c1.6-0.3,3.3-0.3,4.8,0.2l3.8,0.9
		c1.6,0.3,3.1,0.9,4.4,1.9c0.8,0.8,1.2,2,0.8,3.2l-3.2,13.7l65.6,15.1c2.6,0.6,3.4,3.3,2.3,8l-1.2,5
		C110.9,352.2,109,354.3,106.4,353.7z"/>
	<path class="st7" d="M129.4,288.2c-1.4,0.2-2.7,0-3.9-0.8L57.1,251c-1.3-0.5-2.3-1.5-2.8-2.8c-0.3-1.3-0.1-2.6,0.6-3.7l17.4-32.7
		c0.5-1,1.5-1.7,2.6-1.7c1.6,0.1,3.2,0.6,4.6,1.5l3.4,1.8c1.5,0.7,2.8,1.7,3.8,3c0.6,1,0.6,2.2,0,3.1l-10.4,19.5l16,8.5l9.2-17.3
		c0.5-1,1.5-1.7,2.6-1.7c1.6,0.1,3.2,0.6,4.6,1.5l3.4,1.8c1.5,0.7,2.8,1.7,3.8,3c0.6,1,0.6,2.2,0,3.1l-9.2,17.3l17.9,9.5l10.4-19.6
		c0.5-1,1.5-1.7,2.6-1.7c1.6,0.1,3.2,0.7,4.6,1.5l3.4,1.8c1.5,0.7,2.8,1.7,3.8,3c0.6,0.9,0.6,2.1,0.1,3.1l-17.5,32.8
		C131.6,286.9,130.6,287.8,129.4,288.2z"/>
	<path class="st7" d="M175.3,216.7c-2.9,1.9-6.2,3-9.6,3.1c-1.6-0.1-3.1-0.7-4.3-1.8c-1.8-1.7-3.2-3.9-4-6.2
		c-0.9-2.6-0.9-4.4,0.2-5.5c0.9-0.7,2-1.2,3.1-1.5c1.6-0.5,2.8-0.9,3.5-1.2c2.9-0.9,5.5-2.5,7.7-4.7c1.7-1.8,2.9-4,3.4-6.4
		c0.4-2.5-0.6-5-2.6-6.5c-1.9-2-4.6-3.1-7.4-2.9c-3.6,0.4-7.1,1.3-10.5,2.6c-6.9,2.2-12.7,3-17.5,2.6c-4.8-0.5-9.5-2.9-14.1-7.2
		c-3.5-3.1-6.1-7.1-7.5-11.5c-1.2-4.2-1.3-8.6-0.1-12.8c1.3-4.5,3.7-8.7,7-12.1c2.1-2.2,4.5-4.2,7.1-5.8c2.3-1.5,4.7-2.6,7.4-3.3
		c1.7-0.4,3.5,0.1,4.7,1.3c1.7,1.6,3.1,3.6,4.1,5.7c1.1,2.3,1.2,4,0.2,5.1c-1,0.8-2,1.5-3.2,2c-2.6,1.2-4.9,2.8-6.9,4.7
		c-2.4,2.6-3.5,4.9-3.2,6.8c0.2,1.9,1,3.6,2.4,4.9c1.7,1.8,4.1,2.9,6.6,2.9c3.1-0.3,6.1-1.1,8.9-2.2c0.8-0.3,2-0.8,3.6-1.3
		c6.4-2,11.8-2.6,16.4-1.9c4.5,0.7,9.1,3.2,13.7,7.4c3.3,3,5.9,6.8,7.5,11c1.5,4.2,1.8,8.8,0.8,13.2c-1.3,5.1-3.9,9.8-7.6,13.6
		C182.1,212,178.9,214.6,175.3,216.7z"/>
	<path class="st7" d="M219.5,170.1c-0.4-0.7-0.7-1.4-0.9-2.1l-25.8-77.6c-0.7-2.3,0.8-4.6,4.6-7l6.9-4.3c3.9-2.4,6.7-2.8,8.5-1.2
		l58.6,57.1c0.5,0.6,1,1.2,1.4,1.8c1,1.6-0.1,3.3-3.1,5.2l-5.6,3.5c-3.4,2.1-5.8,2.6-7,1.3l-10.9-11.2L230,145.7l5.2,14.7
		c0.6,1.7-0.6,3.4-3.6,5.4l-5.5,3.5C222.7,171.4,220.5,171.7,219.5,170.1z M236.3,123.8l-18.8-19.5c-2.1-2.2-4.2-4.6-6.3-7.3
		l-0.5,0.3c1.4,3,2.7,6,3.8,8.8l9.4,25.4L236.3,123.8z"/>
	<path class="st7" d="M299.3,124l-20.7-77.2c-0.7-2.6,1.3-4.5,6-5.7l3.2-0.8c1.3-0.4,2.7-0.5,4.1-0.4c1.3,0.3,2.4,1,3.2,2.1
		l32.4,33.5c2.4,2.6,4.6,5.4,6.6,8.3l0.4-0.4c-1.4-3-2.6-6.1-3.5-9.3l-10.3-38.5c-0.7-2.6,1.3-4.5,6-5.7l2.9-0.8
		c4.7-1.3,7.4-0.6,8.1,2l20.7,77.2c0.7,2.6-1.3,4.5-6,5.7l-2.3,0.6c-1.4,0.4-2.8,0.5-4.2,0.4c-1.3-0.2-2.5-1-3.3-2l-34.2-34.8
		c-2-2.1-3.7-4.4-5.3-6.8l-0.5,0.5c1.3,2.6,2.3,5.2,3.2,7.9l10.6,39.7c0.7,2.6-1.3,4.5-6,5.7l-2.9,0.8
		C302.7,127.2,300,126.6,299.3,124z"/>
	<path class="st7" d="M394.7,105.8l-1-80c0-2.7,2.4-4.2,7.2-4.2l5.3-0.1c4.8-0.1,7.2,1.3,7.2,4l1,80c0,2.7-2.3,4.2-7.1,4.2l-5.3,0.1
		C397.2,109.9,394.8,108.6,394.7,105.8z M395.3,15.6c-0.5-0.2-0.8-0.6-0.8-1.1c0.1-1.2,0.5-2.4,1.3-3.4l5.1-7.2
		c0.9-1.4,2.2-2.5,3.7-3.1c1.9-0.6,3.9-0.8,5.9-0.8c2.1-0.1,4.3,0,6.4,0.4c1.3,0.3,1.9,0.9,1.9,1.8c0,1.2-1.1,2.7-3.3,4.5l-8,6.6
		c-1,1-2.2,1.7-3.5,2.1c-1.7,0.4-3.4,0.5-5.1,0.5C397.7,16,396.5,15.9,395.3,15.6z"/>
	<path class="st7" d="M444.9,107.4c0.2-0.7,0.5-1.5,0.9-2.1L481.9,32c1.1-2.1,3.8-2.7,8.2-1.7l8,1.8c4.5,1,6.8,2.7,6.8,5.1l1.6,81.8
		c0,0.8-0.1,1.5-0.2,2.2c-0.4,1.8-2.4,2.3-5.9,1.5l-6.5-1.4c-3.9-0.9-5.9-2.2-5.9-4l0.1-15.6l-18.6-4.2l-6.6,14.1
		c-0.7,1.6-2.8,2.1-6.3,1.3l-6.4-1.4C446.3,110.5,444.5,109.2,444.9,107.4z M489.4,86.2l0.3-27.1c0.1-3.1,0.3-6.3,0.6-9.6l-0.6-0.1
		c-1.1,3.2-2.3,6.1-3.5,8.9L474.9,83L489.4,86.2z"/>
	<path class="st7" d="M539.1,137.5c-2.6-2.3-4.4-5.2-5.5-8.5c-0.3-1.6-0.1-3.2,0.6-4.6c1.2-2.2,2.9-4,5-5.4c2.2-1.5,4-2,5.4-1.3
		c0.9,0.7,1.7,1.6,2.2,2.6c0.9,1.4,1.6,2.4,2,3c1.6,2.6,3.9,4.7,6.5,6.3c2.2,1.2,4.6,1.8,7.1,1.6c2.5-0.3,4.7-1.9,5.6-4.2
		c1.4-2.4,1.8-5.3,0.9-7.9c-1.3-3.4-3.1-6.5-5.2-9.5c-3.9-6.1-6.2-11.5-6.9-16.3c-0.8-4.7,0.3-9.9,3.3-15.5
		c2.1-4.2,5.3-7.7,9.2-10.2c3.7-2.3,8-3.4,12.4-3.3c4.7,0.1,9.3,1.4,13.5,3.7c2.7,1.5,5.2,3.3,7.4,5.4c2,1.8,3.7,3.9,5.1,6.3
		c0.8,1.5,0.8,3.4-0.1,4.9c-1.1,2.1-2.7,3.9-4.5,5.4c-2,1.7-3.6,2.2-4.9,1.5c-1-0.7-2-1.6-2.7-2.6c-1.8-2.2-3.9-4-6.3-5.5
		c-3.1-1.6-5.6-2.1-7.4-1.4c-1.8,0.7-3.2,1.9-4.1,3.6c-1.3,2.1-1.7,4.7-1.1,7.1c1.1,2.9,2.6,5.6,4.4,8.1c0.5,0.6,1.2,1.7,2.2,3.1
		c3.5,5.7,5.5,10.8,6,15.3c0.5,4.6-0.8,9.6-3.7,15.2c-2.1,4-5.1,7.4-8.7,10c-3.7,2.6-8.1,4-12.6,4.1c-5.3,0.1-10.5-1.3-15.1-3.9
		C545.4,142.9,542,140.5,539.1,137.5z"/>
	<path class="st7" d="M627.3,196.4c0.6-0.5,1.3-0.8,2-1.1l74-34.9c2.2-1,4.7,0.2,7.5,3.8l5.1,6.3c2.9,3.6,3.6,6.3,2.2,8.3l-49.6,65
		c-0.5,0.6-1,1.1-1.6,1.6c-1.4,1.2-3.3,0.3-5.5-2.5l-4.2-5.2c-2.5-3.1-3.2-5.4-2.1-6.8l9.8-12.1l-12-14.8l-14,6.9
		c-1.6,0.8-3.5-0.1-5.8-2.9l-4.1-5.1C626.4,199.7,625.9,197.6,627.3,196.4z M675.3,207.5l17-21c2-2.3,4.1-4.7,6.4-7.1l-0.4-0.5
		c-2.9,1.8-5.6,3.4-8.3,4.8L666,196L675.3,207.5z"/>
	<path class="st7" d="M680.8,273c0.7-1.2,1.8-2.1,3.1-2.5l71.7-29.7c1.2-0.6,2.6-0.7,3.8-0.4c1.2,0.6,2.1,1.6,2.4,2.8l8.6,20.8
		c6.7,16.2,3.6,27.1-9.4,32.5c-8.6,3.6-16.4,2.7-23.4-2.5l-0.4,0.3c0.5,4.2-0.5,8.5-2.8,12.1c-2.7,3.9-6.5,6.8-11,8.5
		c-6.8,2.8-13.3,2.9-19.3,0.2c-6-2.7-10.8-8.4-14.4-17.1l-8.8-21.1C680.5,275.5,680.4,274.2,680.8,273z M704,292.6
		c0.8,2.4,2.6,4.4,5,5.3c2.2,0.7,5.1,0.3,8.8-1.3c3.5-1.5,5.8-3.2,6.7-5.1c1-1.9,0.8-4.4-0.4-7.3l-3.7-8.8l-20.2,8.4L704,292.6z
		 M737.6,277.7c0.7,2.2,2.5,3.9,4.7,4.5c2.1,0.5,4.8,0.1,8.2-1.3c3.3-1.4,5.4-2.9,6.4-4.6c1-2,0.9-4.3-0.1-6.3l-3.4-8.2l-19,7.9
		L737.6,277.7z"/>
	<path class="st7" d="M712.1,355.9l78.3-8.2c1.4-0.3,2.8,0,3.9,0.8c1,1,1.6,2.3,1.6,3.7l2.2,20.9c0.8,7.7-0.4,14-3.7,19.1
		c-3.3,5.1-9.3,8-18.1,9c-9.7,1-17.1-2.2-22.2-9.7l-0.5,0.1c-1,2.2-2.5,4.1-4.5,5.5c-2.1,1.7-4.5,3.1-7.1,4.1l-23.1,9.9l-1.5,0.5
		c-2.2,0.2-3.6-2.2-4.2-7.4l-0.5-4.4c-0.5-4.4,0.4-7,2.6-7.8l22.9-9.1c1.4-0.7,2.7-1.7,3.6-3c0.7-1.4,0.9-3.1,0.6-4.7l-0.3-3
		l-28.1,2.9c-2.7,0.3-4.2-2.1-4.8-7.1l-0.4-4.2C708.3,358.8,709.4,356.2,712.1,355.9z M761,377.3c0.3,1.9,1.5,3.6,3.2,4.4
		c2.5,1.2,5.4,1.6,8.2,1.1c3.5-0.4,6-1.3,7.4-2.7c1.4-1.4,2.2-3.3,1.9-5.3l-0.7-6.6l-20.8,2.2L761,377.3z"/>
	<path class="st7" d="M716.4,445.7h80c2.7,0,4.1,2.4,4.1,7.3v5.3c0,4.8-1.4,7.2-4.1,7.2h-80c-2.7,0-4.1-2.4-4.1-7.2V453
		C712.2,448.1,713.6,445.7,716.4,445.7z"/>
	<path class="st7" d="M713.8,508c1.1-0.8,2.4-1.3,3.8-1.1h78.7c2.7,0,4,2.4,4,7.3v5c0,4.9-1.3,7.3-4,7.3H729v18.7
		c0.1,1.2-0.5,2.3-1.5,2.9c-1.5,0.7-3.1,1-4.7,0.9h-3.9c-1.6,0.1-3.3-0.2-4.7-0.9c-1-0.6-1.6-1.7-1.5-2.9v-33.7
		C712.5,510.3,712.9,509,713.8,508z"/>
</g>
</svg>
