<?xml version="1.0" encoding="utf-8"?>
<!-- Generator: Adobe Illustrator 25.4.1, SVG Export Plug-In . SVG Version: 6.00 Build 0)  -->
<svg version="1.1" id="Capa_1" xmlns="http://www.w3.org/2000/svg" xmlns:xlink="http://www.w3.org/1999/xlink" x="0px" y="0px"
	 viewBox="0 0 1620 301.4" style="enable-background:new 0 0 1620 301.4;" xml:space="preserve">
<style type="text/css">
	.st0{fill:#264653;}
</style>
<g>
	<path class="st0" d="M571,23.8c0,5-1,10-2.7,14.7c-1.9,5.3-4.7,10.3-8.1,15c-3.7,5.2-8.2,10-13.1,14.2c-5.5,4.8-11.5,8.9-17.9,12.4
		c-7.1,3.9-14.5,7.1-22.3,9.5c-8.6,2.7-17.5,4.5-26.5,5.5c-3.9,7.1-7.9,14.2-12.1,21.3c-4.2,6.9-8.6,13.7-13.4,20
		c-4.5,6.1-9.5,12.1-14.9,17.6c-5.2,5.3-10.8,10-17,14.1c-6,4-12.6,7.1-19.4,9.4c-7.1,2.3-14.5,3.4-22.1,3.4c-6.3,0-12.8-1-18.7-2.7
		c-5.8-1.8-11.3-4.5-16.2-8.1c-4.7-3.6-8.4-7.9-11.1-13.1c-2.9-5.5-4.4-11.5-4.2-17.6c-0.2-6.5,1.1-12.8,3.9-18.6
		c2.4-5.2,6-9.7,10.3-13.2c4.4-3.6,9.2-6.3,14.7-7.9c5.3-1.8,11-2.6,16.6-2.6c4.4,0,8.7,0.5,12.9,1.3s8.2,2.1,12.1,3.6
		c3.7,1.5,7.4,3.4,10.8,5.5c3.2,2.1,6.1,4.4,8.9,7.1l-3.2,3.4c-1.9-1.8-4-3.4-6.3-4.8c-2.6-1.6-5.3-3.1-8.2-4.2
		c-3.2-1.3-6.6-2.3-10.2-2.9c-3.9-0.6-7.9-1.1-12-1.1c-4.8,0-9.7,0.8-14.4,2.4c-4.5,1.6-8.7,4-12.4,7.1c-3.7,3.2-6.6,7.1-8.7,11.5
		c-2.3,4.8-3.4,10.2-3.2,15.5c0,9,3.9,17.8,10.8,23.8c3.6,3.1,7.8,5.5,12.1,6.9c5,1.8,10.2,2.6,15.5,2.6c6.1,0,12.4-1,18.3-3.1
		c5.7-2.1,11.1-4.8,16-8.4c5.2-3.7,9.9-8.1,14.1-12.8c4.5-5.2,8.9-10.5,12.8-16.2c3.9-5.8,7.8-12,11.5-18.4
		c3.7-6.5,7.3-13.1,11-19.9h-2.9c-11.3,0.2-22.5-1.1-33.4-3.9c-8.9-2.1-17.5-5.7-25.2-10.5c-6.5-3.9-12-9.2-16-15.5
		c-3.7-5.7-5.7-12.4-5.5-19.2c-0.2-6.3,1.3-12.4,4-18.1c2.6-5.2,6.3-9.7,10.8-13.1c4.7-3.6,10.2-6.3,15.8-8.1
		c6.1-1.3,12.6-2.1,19.1-2.1c5.3,0,10.7,0.5,16,1.3c4.5,0.8,8.9,1.9,13.1,3.6c6.3,2.3,12.3,5.5,17.8,9.5c1.8,1.3,3.4,2.6,4.8,4
		l2.3,2.3l-3.7,3.2l-3.2-2.7c-2.7-2.3-5.5-4.2-8.6-5.8c-4.4-2.4-8.9-4.4-13.6-6c-5.7-1.9-11.6-2.7-17.6-2.7
		c-6.1,0-12.3,0.8-18.1,2.7c-5.2,1.6-10,4.2-14.2,7.8c-3.9,3.2-7.1,7.1-9.4,11.6c-2.3,4.5-3.4,9.5-3.4,14.7c0,6.1,1.8,12,5.2,17
		c3.7,5.3,8.7,9.9,14.4,13.1c6.8,3.9,14.1,6.8,21.8,8.6c8.9,2.1,18.1,3.1,27.3,3.1h5.3c3.9-7.3,7.6-14.5,11.5-21.7
		s7.6-14.1,11.6-20.5c3.9-6.3,7.9-12.3,12.3-18.1c4-5.3,8.6-10.2,13.6-14.5c4.5-3.9,9.7-7.3,15.4-9.5c5.5-2.3,11.5-3.6,17.6-3.6
		c2.6,0,5.2,0.3,7.6,1.1c2.6,0.6,4.8,1.9,6.8,3.6c2.1,1.8,3.7,4,4.8,6.5C570.3,16.9,571,20.3,571,23.8z M551.9,8.7
		c-4.5,0-9,1-13.2,3.1c-4.4,2.3-8.6,5.2-12.1,8.7c-4,4-7.8,8.4-11.1,13.1c-3.6,5-7.1,10.5-10.7,16.5c-3.6,6-6.9,12.3-10.5,19.1
		c-3.6,6.6-7.1,13.4-10.8,20.2c8.9-1.1,17.6-3.1,26-6.1c7.3-2.6,14.2-5.8,20.7-9.7c5.7-3.4,11-7.4,15.7-12.1c4-4,7.8-8.4,10.8-13.1
		c2.6-3.9,4.8-8.1,6.3-12.6c1.3-3.4,1.9-7.1,2.1-10.8c0-2.1-0.2-4.4-0.6-6.5c-0.5-1.8-1.1-3.6-2.3-5.2c-1-1.5-2.4-2.7-4-3.6
		C556.3,9.1,554.2,8.7,551.9,8.7z"/>
	<path class="st0" d="M610.1,88.2c-1,1.9-2.3,4.4-4,7.4c-1.8,3.1-3.6,6.5-5.5,10.2c-1.9,3.7-4,7.6-6,11.6c-1.9,4-3.9,8.1-5.5,11.8
		c-1.6,3.6-2.9,7.3-4,11c-1,2.7-1.5,5.7-1.6,8.7c0,2.4,0.5,3.9,1.5,4.5c1,0.8,2.3,1.1,3.6,1.1c2.3,0,4.5-0.6,6.5-1.9
		c2.4-1.3,4.7-2.9,6.6-4.8c2.3-2.1,4.4-4.4,6.3-6.8c2.1-2.6,4-5,5.8-7.6c1.8-2.6,3.4-5,4.8-7.3l3.9-6l4,3.1
		c-1.3,2.3-2.7,4.8-4.4,7.6c-1.6,2.7-3.6,5.5-5.7,8.2c-2.1,2.7-4.2,5.5-6.6,7.9c-2.3,2.4-4.7,4.8-7.4,6.8c-2.6,1.9-5.3,3.6-8.2,4.7
		c-2.7,1.1-5.8,1.8-8.9,1.8c-4.4,0-7.6-1.3-9.7-4c-2.1-2.9-3.2-6.6-3.1-10.2c0-0.3,0-1,0-1.9c0-0.8,0.2-1.6,0.3-2.4
		c-3.2,4-6.8,7.9-10.5,11.5c-2.9,2.7-6.1,5.2-9.7,7.1c-5.3,3.1-11.3,4.7-17.5,4.7c-2.7,0-5.3-0.5-7.9-1.3c-2.4-1-4.5-2.3-6.5-4
		c-1.9-1.8-3.4-4-4.4-6.5c-1.1-2.9-1.6-5.8-1.6-8.9c0.2-4.8,1.1-9.9,2.7-14.4c2.4-6.3,5.8-12.3,10-17.5c3.7-5,7.9-9.5,12.6-13.6
		c4-3.4,8.2-6.3,12.9-8.9c3.9-2.1,7.9-3.7,12.1-4.8c3.4-1,6.8-1.5,10.3-1.5c6.8,0,12,1.1,15.4,3.4c3.6,2.3,5.8,6.1,6.3,10.3
		c1.5-1.8,3.1-3.7,4.7-5.5c1.6-1.8,3.2-3.7,5-5.7L610.1,88.2z M576.1,130c1-1.6,2.1-3.6,3.6-6c1.5-2.4,2.9-4.8,4.4-7.4
		s3.1-5,4.5-7.4c1.5-2.4,2.7-4.4,3.9-6c0-1.1-0.2-2.1-0.3-3.2c-0.2-1.6-0.6-3.1-1.5-4.5c-1-1.6-2.3-2.9-3.9-3.9
		c-2.3-1.3-4.8-1.8-7.4-1.6c-2.6,0-5.2,0.3-7.6,1.1c-3.1,0.8-6.1,1.9-9,3.6c-3.6,1.8-6.8,4-9.9,6.6c-3.7,3.1-7.1,6.5-10.2,10.2
		c-4.7,5.5-8.7,11.8-11.8,18.4c-2.6,5.2-3.9,10.8-4,16.6c-0.2,3.4,0.8,6.9,2.9,9.7c2.1,2.3,5,3.6,8.1,3.4c3.9,0,7.8-1,11.3-2.7
		c3.7-1.8,7.1-4.2,10-6.9c3.2-2.9,6.1-6.1,8.9-9.5C570.8,137,573.6,133.4,576.1,130L576.1,130z"/>
	<path class="st0" d="M714.3,104.3c0,3.2-0.5,6.6-1.6,9.7c-1.1,3.4-2.6,6.6-4.2,9.9s-3.6,6.5-5.5,9.7c-1.9,3.2-3.7,6.1-5.3,9.2
		c-1.6,2.7-3.1,5.5-4.2,8.4c-1,2.3-1.6,4.8-1.6,7.3c-0.2,1.3,0.2,2.6,1.1,3.4c0.6,0.6,1.6,0.8,2.4,1c2.7,0,6-1.5,9.4-4.2
		c3.9-3.1,7.4-6.6,10.5-10.5c3.6-4.2,7.1-8.7,10.7-13.7c3.6-5,6.8-9.5,9.5-14.1l4,3.1c-0.6,0.8-1.6,2.6-3.2,5.2
		c-1.6,2.6-3.4,5.7-5.8,8.9c-2.3,3.4-4.8,6.8-7.6,10.5c-2.7,3.6-5.8,6.9-9,10c-3.1,2.9-6.3,5.5-10,7.6c-3.1,1.9-6.6,2.9-10.3,2.9
		c-1.8,0-3.7-0.3-5.5-1c-1.6-0.6-2.9-1.6-4.2-2.7c-1.1-1.1-2.1-2.6-2.7-4.2c-0.6-1.6-1-3.2-1-5c0-3.2,0.6-6.3,1.9-9.4
		c1.5-3.6,3.1-6.9,4.8-10.3c1.9-3.6,4-7.1,6.3-10.7s4.4-6.9,6.3-10.2c1.9-3.2,3.6-6.1,4.8-9c1.1-2.3,1.6-4.7,1.8-7.3
		c0-2.1-0.6-4-1.8-5.7c-1.3-1.6-3.1-2.4-5.2-2.3c-2.9,0.2-5.8,1.1-8.1,2.9c-3.7,2.4-7.3,5.3-10.3,8.6c-4.4,4.4-8.6,9-12.6,13.9
		c-4.5,5.5-9.4,11.6-14.7,18.7c-3.1,4-6,7.9-8.9,11.6c-1.3,1.6-2.4,3.2-3.7,5l-3.7,5c-1.3,1.6-2.4,3.2-3.6,4.7s-2.1,2.7-2.9,3.9
		l-9.7-4l12.9-17.8c1.8-2.6,3.7-5.2,5.7-8.1c1.9-2.9,3.9-5.8,5.7-8.9c1.8-3.1,3.7-6.1,5.3-9.2c1.6-3.1,3.2-6.1,4.7-9
		c1.8-3.6,3.2-7.3,4.4-11c0.6-2.3,1.1-4.7,1.3-6.9c0.2-1.5-0.2-2.9-1.1-3.9c-0.8-0.6-1.9-1-3.1-1c-1.8,0.2-3.6,1-4.8,2.1
		c-1.9,1.6-3.7,3.6-5.5,5.5c-2.1,2.4-4,5-5.8,7.6c-1.9,2.9-3.9,5.7-5.7,8.4s-3.4,5.5-5,7.9c-1.6,2.4-2.9,4.5-3.9,6.1l-4-3.1
		c3.7-5.8,7.1-11.3,10.2-16.2c2.7-4.4,5.7-8.6,8.9-12.6c2.4-3.1,5.2-5.8,8.2-8.2c2.4-1.9,5.5-2.9,8.6-2.9c1.6,0,3.2,0.3,4.7,1
		c1.5,0.6,2.9,1.6,4,2.9c1.1,1.5,2.1,2.9,2.7,4.7c0.6,2.1,1,4.2,1,6.5c0,1.9-0.2,4-0.6,6c2.7-2.7,5.8-5.5,9-7.8
		c2.4-1.8,5-3.4,7.8-4.8c2.1-1.1,4.2-1.9,6.5-2.6c1.8-0.5,3.6-0.8,5.3-0.8c1.6,0,3.2,0.3,4.8,0.8c1.9,0.5,3.7,1.6,5.2,2.9
		c1.8,1.6,3.2,3.6,4.4,5.7C713.8,97.7,714.5,101.1,714.3,104.3z"/>
	<path class="st0" d="M757.9,70.5c0.8-1.3,2.1-3.4,3.9-6.5s4-6.5,6.6-10.2c2.6-3.7,5.3-7.4,8.2-11.3c2.7-3.4,5.7-6.6,8.7-9.7l5,2.9
		c-3.1,5.2-6.3,10.8-9.7,16.6c-3.4,5.8-6.6,12-9.9,18.1h36l-2.1,5.7h-36.8c-3.2,6.6-6.5,13.2-9.4,19.7c-2.9,6.6-5.5,12.8-7.6,18.7
		c-2.1,5.5-3.7,11-5.2,16.6c-1.1,4.4-1.8,8.9-1.9,13.6c0,4.8,1.1,8.2,3.2,10.3c2.3,2.1,5.2,3.2,8.1,3.1c3.1,0,6.1-1,8.9-2.6
		c3.2-1.9,6.1-4,8.9-6.6c2.9-2.7,5.7-5.7,8.2-8.7c2.6-3.2,5-6.1,6.9-8.9c1.9-2.7,3.7-5.2,5-7.3s2.1-3.4,2.4-3.9l4.2,3.1
		c-2.6,4.2-5.5,8.7-8.7,13.6c-3.2,4.7-6.8,9.2-10.8,13.2c-3.7,4-8.1,7.4-12.9,10.2c-4.5,2.6-9.7,4-15,4c-2.9,0-6-0.5-8.7-1.8
		c-2.4-1.1-4.5-2.7-6.3-4.8c-1.8-2.3-3.1-4.7-3.9-7.4c-0.8-3.1-1.3-6.1-1.3-9.4c0.2-3.1,0.5-6.3,1-9.4c1-4.8,2.1-9.7,3.6-14.4
		c1.6-5.5,3.9-11.8,6.8-18.7c3.1-7.6,6.6-15,10.7-22.3h-18.3l2.3-5.7C738.1,70.5,757.9,70.5,757.9,70.5z"/>
	<path class="st0" d="M857.9,131.5c0.3,0,0.6,0.2,0.8,0.2h1c1.9,0,3.7-0.2,5.7-0.6c1.6-0.3,3.2-1,4.7-1.9s2.9-2.1,4-3.6
		c1.5-1.6,2.7-3.4,3.9-5.2l4,3.1c-2.7,4.4-6.5,7.9-11,10.5c-3.7,1.9-7.8,3.1-12,2.9c-1.3,0-2.7-0.2-4-0.5
		c-2.9,4.8-6.3,9.4-10.2,13.6c-3.2,3.4-6.9,6.5-11,9c-3.4,2.3-7.3,3.9-11.1,5.2c-3.4,1-6.8,1.6-10.3,1.6c-3.1,0-6.1-0.5-9-1.8
		c-2.7-1.1-5.2-2.7-7.1-4.8c-2.1-2.3-3.6-4.8-4.7-7.8c-1.1-3.2-1.6-6.6-1.6-10c0-3.9,0.6-7.6,1.8-11.3c1.3-3.9,2.9-7.8,4.8-11.3
		c2.1-3.9,4.4-7.4,7.1-10.8c2.7-3.4,5.7-6.6,8.9-9.7c3.1-2.9,6.3-5.7,9.7-8.2c3.2-2.3,6.6-4.4,10.2-6l3.6,4.7
		c-4.4,3.1-8.2,6.6-11.8,10.7c-4,4.4-7.8,9-11,14.1c-3.2,5-6,10.3-8.1,15.8c-1.9,5.2-3.1,10.5-3.1,16c-0.2,3.9,0.8,7.6,3.1,10.8
		c2.1,2.6,5.2,3.9,9.4,3.9c3.2,0,6.6-0.6,9.5-1.9c3.2-1.5,6.5-3.2,9.2-5.3c3.2-2.4,6.1-5.2,8.7-8.1c2.9-3.2,5.5-6.5,7.9-10
		c-2.1-1.3-4-3.1-5.7-5c-1.6-2.3-3.1-4.7-4-7.1c-1.1-2.7-1.9-5.7-2.4-8.7s-0.8-6.3-0.8-9.5c0-3.1,0.3-6.1,1.3-9.2
		c0.6-2.7,1.8-5.2,3.4-7.6c1.3-2.1,2.9-3.9,5-5.2c1.9-1.3,4-1.9,6.3-1.9c1.9,0,3.9,0.5,5.5,1.6c1.6,1.1,3.1,2.6,4,4.4
		c1.1,2.1,2.1,4.4,2.6,6.6c0.6,2.7,1,5.5,0.8,8.2c0,2.4-0.2,4.8-0.5,7.3c-0.3,2.7-1,5.5-1.6,8.1c-0.6,2.7-1.6,5.3-2.6,7.9
		C860.5,127.1,859.4,129.4,857.9,131.5z M842.9,104c0,2.3,0.2,4.7,0.5,6.9c0.3,2.4,1,4.8,1.8,7.3c0.8,2.3,1.8,4.5,3.1,6.6
		c1.1,1.9,2.7,3.6,4.7,4.8c1.3-2.6,2.4-5.2,3.4-7.9c1-2.7,1.6-5.3,2.3-7.8c0.6-2.3,1-4.7,1.3-6.9c0.2-1.9,0.3-3.7,0.3-5.7
		c0-2.1-0.2-4-0.5-6.1c-0.3-1.6-0.8-3.2-1.5-4.8c-0.5-1.3-1.3-2.4-2.3-3.2c-0.8-0.8-1.9-1.1-3.1-1.1c-1.5,0-2.9,0.5-4,1.5
		c-1.3,1.1-2.4,2.4-3.2,4c-1,1.8-1.6,3.7-2.1,5.7C843.2,99.5,842.9,101.7,842.9,104L842.9,104z"/>
	<path class="st0" d="M1067.4,16.6c-0.8,1.1-2.1,3.1-4,5.8c-1.9,2.7-4,6-6.5,9.7c-2.4,3.7-5,7.9-7.9,12.4c-2.9,4.5-5.7,9.2-8.6,14.1
		s-5.7,9.7-8.2,14.7c-2.6,5-5,9.7-7.1,14.2c-3.2,7.1-6,13.4-8.1,18.9c-2.1,5.5-3.9,10.5-5,14.9c-1.1,3.7-1.9,7.4-2.6,11.3
		c-0.5,2.7-0.6,5.5-0.6,8.2c0,4.2,0.6,7.1,1.9,8.7c1.3,1.6,3.2,2.4,5.2,2.4c2.3,0,4.5-0.6,6.6-1.8c2.3-1.3,4.2-2.7,6.1-4.5
		c2.1-1.9,3.9-4,5.5-6.3c1.8-2.4,3.4-4.7,4.8-7.1c1.5-2.4,2.9-4.5,4.2-6.8c1.3-2.3,2.4-3.9,3.2-5.3l4,3.1c-0.8,1.3-1.8,3.1-3.1,5.2
		c-1.3,2.1-2.6,4.5-4.2,7.1c-1.6,2.7-3.4,5.3-5.3,7.8c-1.9,2.6-4.2,5-6.6,7.1c-2.4,2.1-5,3.9-7.9,5.2s-6.1,2.1-9.4,2.1
		c-1.8,0-3.4-0.2-5.2-0.6c-1.8-0.5-3.4-1.3-4.8-2.3c-1.6-1.3-3.1-2.7-4-4.5c-1.3-2.3-2.1-4.8-2.3-7.4c-4.7,5.3-10.2,9.9-16.2,13.6
		c-4.4,2.7-9.5,4.4-14.9,4.5c-2.6,0-5.2-0.5-7.8-1.3c-2.9-0.8-5.7-2.3-8.1-4.2c-2.6-2.1-4.8-4.8-6.3-7.9c-1.8-3.9-2.6-7.9-2.4-12.1
		c0-5.3,0.8-10.5,2.6-15.5c1.6-4.8,4-9.5,6.8-13.7c2.9-4.2,6.1-8.1,9.9-11.5c3.6-3.2,7.4-6.3,11.6-8.7c3.9-2.3,7.9-4.2,12.1-5.7
		c3.7-1.3,7.6-1.9,11.5-1.9c3.9-0.2,7.8,0.5,11.3,1.8c2.3,0.8,4.4,2.1,6.1,3.6c1.1-2.1,2.4-4.7,4.2-7.9c1.8-3.2,3.9-6.8,6.1-10.7
		c2.3-3.9,5-8.1,7.8-12.6c2.7-4.5,6-8.9,9.2-13.4s6.6-9,10.2-13.4c3.6-4.4,7.1-8.6,10.8-12.3L1067.4,16.6z M997.6,134.7
		c0.6-6.5,1.9-12.9,3.9-19.2c2.7-8.7,6-17.3,10-25.5c-1.1-1.6-2.6-2.9-4.4-3.6c-1.9-0.8-4.2-1.3-6.3-1.3c-3.7,0-7.4,0.8-11,2.3
		c-3.9,1.5-7.4,3.6-10.7,6c-3.6,2.6-6.8,5.5-9.7,8.9c-2.9,3.4-5.5,7.1-7.8,11c-2.3,3.9-4,7.9-5.3,12.1c-1.3,4-1.9,8.2-1.9,12.6
		c0,5.5,1.1,9.9,3.6,12.9c2.1,3.1,5.7,4.7,9.4,4.7c2.1,0,4-0.5,6.1-1.1c2.6-1,5-2.1,7.3-3.6c2.9-1.9,5.7-4,8.2-6.5
		C991.7,141.2,994.8,138.1,997.6,134.7z"/>
	<path class="st0" d="M1108.9,131.5c0.3,0,0.6,0.2,0.8,0.2h1c1.9,0,3.7-0.2,5.7-0.6c1.6-0.3,3.2-1,4.7-1.9c1.5-1,2.9-2.1,4.2-3.6
		c1.5-1.6,2.7-3.4,3.9-5.2l4,3.1c-2.7,4.4-6.5,7.9-11,10.5c-3.7,1.9-7.8,3.1-12,2.9c-1.3,0-2.7-0.2-4-0.5
		c-2.9,4.8-6.3,9.4-10.2,13.6c-3.2,3.4-6.9,6.5-11,9c-3.4,2.3-7.3,3.9-11.1,5.2c-3.4,1-6.8,1.6-10.2,1.6c-3.1,0-6.1-0.5-9-1.8
		c-2.7-1.1-5.2-2.7-7.1-4.8c-2.1-2.3-3.6-4.8-4.7-7.6c-1.1-3.2-1.6-6.6-1.6-10c0-3.9,0.6-7.6,1.8-11.3c1.3-3.9,2.9-7.8,4.8-11.3
		c2.1-3.9,4.4-7.4,7.1-10.8s5.7-6.6,8.9-9.7c3.1-2.9,6.3-5.7,9.9-8.2c3.2-2.3,6.6-4.4,10.2-6l3.6,4.7c-4.4,3.1-8.2,6.6-11.8,10.7
		c-4,4.4-7.8,9-11,14.1c-3.2,5-6,10.3-8.1,15.8c-1.9,5-3.1,10.3-3.1,15.8c-0.2,3.9,0.8,7.6,3.1,10.8c2.1,2.6,5.2,3.9,9.4,3.9
		c3.2,0,6.6-0.6,9.5-1.9c3.2-1.5,6.5-3.2,9.2-5.3c3.2-2.4,6.1-5.2,8.7-8.1c2.9-3.2,5.5-6.5,7.9-10c-2.1-1.3-4-3.1-5.5-5.2
		c-1.6-2.3-3.1-4.7-4-7.1c-1.1-2.7-1.9-5.7-2.4-8.7s-0.8-6.3-0.8-9.5c0-3.1,0.3-6.1,1.3-9.2c0.6-2.7,1.8-5.2,3.4-7.6
		c1.3-2.1,3.1-3.7,5-5.2c1.9-1.3,4-1.9,6.3-1.9c1.9,0,3.9,0.5,5.5,1.6c1.6,1.1,3.1,2.6,4,4.4c1.1,2.1,2.1,4.4,2.6,6.6
		c0.6,2.7,1,5.5,0.8,8.2c0,2.4-0.2,4.8-0.5,7.3c-0.3,2.7-1,5.5-1.6,8.1c-0.6,2.7-1.6,5.3-2.6,7.9
		C1111.5,127.1,1110.3,129.4,1108.9,131.5z M1093.9,104c0,2.3,0.2,4.7,0.5,6.9c0.3,2.4,1,4.8,1.8,7.3c0.8,2.3,1.8,4.5,3.1,6.6
		c1.1,1.9,2.7,3.6,4.7,4.8c1.3-2.6,2.4-5.2,3.4-7.9c1-2.7,1.6-5.3,2.3-7.8c0.6-2.3,1-4.7,1.3-6.9c0.2-1.9,0.3-3.7,0.3-5.7
		c0-2.1-0.2-4-0.5-6.1c-0.3-1.6-0.8-3.2-1.5-4.8c-0.5-1.3-1.3-2.4-2.4-3.2c-0.8-0.8-1.9-1.1-3.1-1.1c-1.5,0-2.9,0.5-4,1.5
		c-1.3,1.1-2.4,2.4-3.2,4c-1,1.8-1.6,3.7-2.1,5.7C1094,99.5,1093.9,101.7,1093.9,104z"/>
	<path class="st0" d="M1220.9,101.6c2.1-2.4,4.4-4.7,6.6-6.9c2.1-1.9,4.4-3.9,6.8-5.5c2.1-1.5,4.4-2.6,6.8-3.6
		c2.1-0.8,4.2-1.3,6.5-1.3c1.6,0,3.2,0.3,4.8,0.8c3.2,1.1,6,3.7,7.3,6.9c0.8,1.9,1.1,4.2,1.1,6.3c0,3.6-0.5,7.1-1.5,10.3
		c-1,3.4-2.3,6.8-3.7,10c-1.5,3.2-3.1,6.3-4.7,9.4c-1.6,3.1-3.2,6-4.7,8.7c-1.3,2.6-2.6,5.2-3.6,7.8c-0.8,2.1-1.3,4.5-1.5,6.8
		c-0.2,1.3,0.3,2.6,1.3,3.6c0.8,0.6,1.8,1,2.7,1c1.9,0,4.2-1.1,6.8-3.2c2.9-2.6,5.8-5.5,8.2-8.6c2.9-3.4,5.8-7.3,8.7-11.5
		c2.9-4.2,5.7-8.2,8.4-12.3l4,3.1c-1,1.6-2.3,3.6-3.7,6.1c-1.5,2.6-3.2,5.2-5.2,8.1c-1.9,2.9-4.2,5.8-6.5,8.9
		c-2.3,2.9-4.7,5.7-7.4,8.1c-2.4,2.3-5.2,4.2-8.1,5.8c-2.6,1.5-5.5,2.3-8.4,2.3c-1.5,0-3.1-0.2-4.5-0.6c-1.5-0.5-2.7-1.1-3.9-2.3
		s-2.1-2.4-2.6-3.9c-0.6-1.9-1.1-3.9-1-6c0-3.2,0.5-6.5,1.6-9.5c1.1-3.2,2.6-6.3,4.2-9.2c1.6-3.1,3.6-6,5.5-9c1.9-3.1,3.7-6,5.5-8.9
		c1.6-2.9,3.1-5.8,4.2-8.9c1.1-2.9,1.6-6,1.6-9c0-1.3-0.2-2.6-0.8-3.7c-0.8-1-1.9-1.5-3.2-1.3c-3.1,0.2-5.8,1.3-8.2,3.2
		c-3.2,2.4-6.3,5.3-8.9,8.4c-3.4,3.9-6.6,7.9-9.5,12.3c-3.2,4.7-6.5,9.5-9.7,14.9c-3.2,5.3-6.5,10.5-9.5,15.8
		c-3.1,5.3-6.1,10.5-9,15.4l-9.2-4.8c3.9-8.1,7.6-15.2,11-21.5c3.4-6.3,6.5-12.1,9-17.1c2.4-4.5,4.4-9.2,6.1-14.1
		c1.5-3.9,2.1-7.9,2.3-12c0-0.8,0-1.5-0.2-2.3c-0.2-0.8-0.5-1.5-0.8-2.1c-0.5-0.6-1-1.1-1.8-1.5c-0.8-0.5-1.8-0.6-2.7-0.6
		c-2.9,0.2-5.7,1.5-7.6,3.6c-3.1,2.9-5.8,6-8.2,9.5c-2.9,4-6,8.7-9.2,14.1s-6.8,11-10.5,17c-3.7,6-7.9,12.1-12.3,18.4
		c-4.5,6.3-9.2,12.4-14.4,18.3l-7.6-5c2.4-3.6,4.8-7.3,7.4-11.1c2.6-3.9,5.2-7.9,7.8-12s5-8.1,7.3-12.1s4.4-7.8,6.1-11.5
		c1.6-3.2,3.1-6.5,4.2-10c1-2.4,1.5-5,1.6-7.8c0.2-1.9-0.5-4-1.9-5.3c-1.3-1.1-3.1-1.8-4.8-1.6c-2.6,0-5,1-6.9,2.6
		c-2.6,2.1-5,4.5-7.1,7.1c-2.4,3.1-5.2,6.8-7.9,11.1c-2.9,4.4-6.1,9-9.7,14.2l-4-3.1c3.9-6.1,7.4-11.6,10.5-16.3
		c2.7-4.2,5.7-8.1,8.9-11.8c2.4-2.7,5.2-5.2,8.4-7.1c2.7-1.6,5.8-2.4,9-2.4c1.3,0,2.4,0.2,3.7,0.5c1.6,0.5,3.1,1.1,4.5,1.9
		c1.6,1,2.9,2.4,3.9,4c1.3,1.9,1.9,4.2,2.1,6.5c3.7-4.8,8.1-9,12.9-12.6c3.6-2.9,8.1-4.5,12.6-4.7c2.6-0.2,5,0.5,7.3,1.8
		c1.9,1.1,3.6,2.6,4.8,4.5c1.3,1.9,2.1,4,2.6,6.3c0.5,2.3,0.8,4.7,0.8,6.9c0,0.6,0,1.3,0,1.9S1221,100.9,1220.9,101.6z"/>
	<path class="st0" d="M1306,88.2c-1,1.9-2.3,4.4-4,7.6s-3.6,6.5-5.7,10.2c-2.1,3.7-4,7.6-6.1,11.6c-2.1,4-3.9,8.1-5.7,12
		c-1.5,3.6-2.9,7.3-4,11c-1,2.7-1.5,5.7-1.6,8.6c-0.2,1.6,0.3,3.2,1.3,4.4c1.1,0.8,2.4,1.3,3.7,1.1c3.2,0,6.3-1.1,8.9-2.9
		c3.1-2.3,6-4.8,8.6-7.8c3.1-3.4,5.8-7.1,8.4-11c2.7-4.2,5.3-8.2,8.1-12.4l4,3.1c-2.1,3.9-4.5,7.9-7.3,12.3c-2.6,4.2-5.7,8.2-9,12.1
		c-3.2,3.6-6.8,6.6-11,9.2c-3.9,2.4-8.4,3.7-13.1,3.6c-3.7,0.2-7.4-1.3-10-4c-2.4-2.9-3.7-6.5-3.6-10.2c0.2-5.3,1.3-10.5,3.4-15.5
		c2.4-5.5,5.2-10.8,8.6-16c3.4-5.3,7.1-10.3,11.1-15.2s7.8-9.2,11.1-13.2L1306,88.2z M1326.7,63.6c0,1.6-0.5,3.1-1.1,4.5
		c-0.6,1.6-1.6,3.1-2.7,4.2c-1.1,1.3-2.4,2.3-3.7,3.1c-1.3,0.8-2.7,1.1-4.2,1.3c-1.1,0-2.3-0.5-2.9-1.3c-0.6-1-1-2.1-1-3.4
		c0-1.5,0.3-2.9,0.6-4.2c0.5-1.6,1.1-3.2,1.9-4.5c0.8-1.5,1.9-2.6,3.2-3.7c1.1-1,2.7-1.6,4.4-1.6c1.5,0,2.9,0.6,4,1.8
		C1326.1,60.8,1326.7,62.1,1326.7,63.6z"/>
	<path class="st0" d="M1410.4,104.3c0,3.2-0.5,6.6-1.6,9.7c-1.1,3.4-2.6,6.6-4.2,9.9s-3.6,6.5-5.3,9.7c-1.8,3.2-3.7,6.1-5.3,9.2
		c-1.6,2.7-3.1,5.5-4.2,8.4c-1,2.3-1.6,4.8-1.6,7.3c-0.2,1.3,0.2,2.6,1.1,3.4c0.6,0.6,1.6,0.8,2.4,1c2.7,0,6-1.5,9.4-4.2
		c3.9-3.1,7.4-6.6,10.5-10.5c3.6-4.2,7.1-8.7,10.7-13.7c3.6-4.8,6.8-9.5,9.5-14.1l4,3.1c-0.6,0.8-1.6,2.6-3.2,5.2s-3.6,5.7-5.8,8.9
		c-2.3,3.4-4.8,6.8-7.6,10.5c-2.7,3.6-5.8,6.9-9,10c-3.1,2.9-6.3,5.5-10,7.6c-3.1,1.9-6.6,2.9-10.3,2.9c-1.8,0-3.7-0.3-5.3-1
		s-2.9-1.6-4.2-2.7c-1.1-1.1-2.1-2.6-2.7-4.2c-0.6-1.6-1-3.2-1-5c0-3.2,0.6-6.3,1.9-9.4c1.5-3.6,3.1-6.9,4.8-10.3
		c1.9-3.6,4-7.1,6.3-10.7s4.4-6.9,6.3-10.2c1.9-3.2,3.6-6.1,4.8-9c1.1-2.3,1.8-4.7,1.9-7.1c0-2.1-0.6-4-1.8-5.7
		c-1.3-1.6-3.2-2.4-5.2-2.3c-2.9,0.2-5.8,1.1-8.1,2.9c-3.9,2.4-7.3,5.3-10.5,8.4c-4.4,4.4-8.6,9-12.6,13.9
		c-4.5,5.5-9.4,11.6-14.7,18.7c-3.1,4-6,7.9-8.9,11.6c-1.3,1.6-2.4,3.2-3.7,5l-3.7,5c-1.3,1.6-2.4,3.2-3.6,4.7s-2.1,2.7-2.9,3.9
		l-9.7-4l12.9-17.8c1.8-2.6,3.7-5.2,5.7-8.1c1.9-2.9,3.9-5.8,5.7-8.9c1.8-3.1,3.7-6.1,5.3-9.2c1.6-3.1,3.2-6.1,4.7-9
		c1.8-3.6,3.2-7.3,4.4-11c0.6-2.3,1.1-4.7,1.3-6.9c0.2-1.5-0.2-2.9-1.1-3.9c-0.8-0.6-1.9-1-3.1-1c-1.8,0.2-3.6,1-4.8,2.1
		c-2.1,1.6-3.9,3.6-5.7,5.5c-2.1,2.4-4,5-5.8,7.6c-1.9,2.9-3.9,5.7-5.7,8.4s-3.4,5.5-5,7.9c-1.6,2.4-2.9,4.5-3.9,6.1l-4-3.1
		c3.7-5.8,7.1-11.3,10.2-16.2c2.7-4.4,5.7-8.6,8.9-12.6c2.4-3.1,5.2-5.8,8.2-8.2c2.4-1.9,5.5-2.9,8.6-2.9c1.6,0,3.2,0.3,4.7,1
		c1.5,0.6,2.9,1.6,4,2.9c1.1,1.3,2.1,2.9,2.7,4.7c0.6,2.1,1,4.2,1,6.5c0,1.9-0.2,4-0.6,6c2.9-2.7,5.8-5.5,9-7.8
		c2.4-1.8,5-3.4,7.8-4.8c2.1-1.1,4.2-1.9,6.5-2.6c1.8-0.5,3.6-0.8,5.3-0.8c1.6,0,3.2,0.3,4.8,0.8c1.9,0.5,3.7,1.6,5.2,2.9
		c1.8,1.6,3.2,3.6,4.2,5.8C1409.8,97.9,1410.4,101.1,1410.4,104.3z"/>
	<path class="st0" d="M1473.6,157.8c-3.7,2.6-7.8,4.7-11.8,6.3c-3.7,1.5-7.8,2.3-11.8,2.4c-2.9,0-5.7-0.5-8.4-1.3
		c-2.7-0.8-5.3-2.1-7.6-4c-2.4-2.1-4.4-4.5-5.7-7.4c-1.6-3.6-2.3-7.6-2.1-11.5c0-5.5,1-10.8,2.9-15.8c1.9-5,4.7-9.9,7.9-14.2
		c3.4-4.4,7.1-8.4,11.3-12c4-3.6,8.6-6.6,13.2-9.2c4.4-2.4,8.9-4.4,13.6-6c3.9-1.3,8.1-1.9,12.3-2.1c3.1,0,6.1,0.3,9.2,1.1
		c2.3,0.6,4.5,1.6,6.5,2.9c1.6,1,3.1,2.3,4.2,3.7c1,1.1,1.8,2.4,2.6,3.7l6-7.8l3.6,2.4c0,0-0.6,1.3-1.8,3.6c-1.1,2.3-2.7,5.2-4.7,9
		c-1.9,3.7-4.2,8.1-6.6,13.2s-5.2,10.3-7.9,16.2c-2.7,5.8-5.5,11.5-8.4,17.6c-2.9,6.1-5.5,12-8.1,17.8c6.6-3.9,12.6-7.6,17.6-11.1
		c4.7-3.2,9.4-6.8,13.6-10.7c3.9-3.6,7.6-7.3,10.8-11.3c3.4-4,6.5-8.2,9.4-12.8l4,3.1c-2.9,4.7-6,9-9.5,13.2
		c-3.7,4.4-7.8,8.4-12,12.1c-5.2,4.4-10.5,8.6-16.2,12.3c-6.1,4.2-13.4,8.9-21.8,13.9c-5.8,14.5-12.6,28.8-20.2,42.5
		c-5.3,9.4-11.5,18.4-18.4,26.7c-5.8,6.5-11.1,11.1-16.2,13.7c-4,2.4-8.7,3.7-13.4,4c-1.8,0-3.6-0.2-5.2-0.6
		c-1.9-0.5-3.7-1.3-5.2-2.4c-1.8-1.3-3.1-2.9-4-4.8c-1.1-2.4-1.8-5.2-1.6-7.9c0-6.5,1.8-12.8,4.8-18.3c3.7-6.6,8.6-12.8,14.2-17.9
		c7.1-6.6,14.7-12.6,22.8-17.8c9-5.8,19.2-11.8,30.7-17.8c1.5-3.2,2.7-6.1,3.9-9C1471.5,162.6,1472.6,160.1,1473.6,157.8z
		 M1409.9,256.5c3.2-0.2,6.1-1.1,8.7-3.1c3.4-2.4,6.5-5.3,9.2-8.4c3.4-3.9,6.5-8.1,9.2-12.4c3.1-4.7,6-9.7,8.9-15
		c2.9-5.3,5.8-10.8,8.4-16.3c2.7-5.7,5.2-11.1,7.6-16.5c-9.9,5-19.2,11.1-28.1,17.9c-6.8,5.3-13.2,11.3-19.1,17.8
		c-4.2,4.7-7.8,9.9-10.8,15.4c-2.3,4.5-3.4,8.1-3.4,10.5c-0.2,2.6,0.6,5.2,1.9,7.4C1404.1,255.6,1406.5,256.5,1409.9,256.5z
		 M1479.4,145.7c1.9-3.7,3.9-7.4,6-11.1c1.9-3.6,4-7.3,6.1-11c2.1-3.7,4.2-7.4,6.6-11.1c2.4-3.7,5-7.8,8.1-12
		c-0.2-1.1-0.5-2.3-1.1-3.4s-1.5-2.3-2.4-3.2c-1.1-1.1-2.4-1.9-4-2.4c-1.8-0.6-3.7-1-5.7-1c-2.9,0-5.8,0.3-8.6,1
		c-3.6,0.8-6.8,1.9-10,3.4c-3.9,1.8-7.4,3.9-10.8,6.5c-3.9,3.1-7.6,6.5-10.7,10.3c-4.7,5.5-8.6,11.5-11.6,18.1
		c-2.6,5.2-3.9,10.7-4,16.3c0,4.8,1.3,8.4,3.7,10.8c2.6,2.6,6.3,3.9,9.9,3.7c5-0.2,9.9-1.6,14.1-4
		C1469.9,153.4,1474.9,149.9,1479.4,145.7L1479.4,145.7z"/>
	<path class="st0" d="M1595.7,131.5c0.3,0,0.6,0.2,0.8,0.2h1c1.9,0,3.7-0.2,5.7-0.6c1.6-0.3,3.2-1,4.7-1.9s2.9-2.1,4.2-3.6
		c1.5-1.6,2.7-3.4,3.9-5.2l4,3.1c-2.7,4.4-6.5,7.9-11,10.5c-3.7,1.9-7.8,3.1-12,2.9c-1.3,0-2.7-0.2-4-0.5
		c-2.9,4.8-6.3,9.4-10.2,13.6c-3.2,3.4-6.9,6.5-11,9c-3.4,2.3-7.3,3.9-11.1,5.2c-3.4,1-6.8,1.6-10.2,1.6c-3.1,0-6.1-0.5-9-1.8
		c-2.7-1.1-5.2-2.7-7.1-4.8c-2.1-2.3-3.6-4.8-4.7-7.6c-1.1-3.2-1.6-6.6-1.6-10c0-3.9,0.6-7.6,1.8-11.3c1.3-3.9,2.9-7.8,4.8-11.3
		c1.9-3.9,4.4-7.4,6.9-11c2.7-3.4,5.7-6.6,8.9-9.7c3.1-2.9,6.3-5.7,9.9-8.2c3.2-2.3,6.6-4.4,10.2-6l3.6,4.5
		c-4.4,3.1-8.2,6.6-11.8,10.7c-4,4.4-7.8,9-11,14.1s-6,10.3-8.1,15.8c-1.9,5.2-3.1,10.5-3.1,16c-0.2,3.9,0.8,7.6,3.1,10.8
		c2.1,2.6,5.2,3.9,9.4,3.9c3.2,0,6.6-0.6,9.5-1.9c3.2-1.5,6.5-3.2,9.2-5.3c3.2-2.4,6.1-5.2,8.7-8.1c2.9-3.2,5.5-6.5,7.9-10
		c-2.3-1.3-4-3.1-5.7-5c-1.6-2.3-3.1-4.7-4-7.1c-1.1-2.7-1.9-5.7-2.4-8.7s-0.8-6.3-0.8-9.5c0-3.1,0.3-6.1,1.3-9.2
		c0.6-2.7,1.8-5.2,3.4-7.6c1.3-2.1,3.1-3.7,5-5.2c1.9-1.3,4-1.9,6.3-1.9c1.9,0,3.9,0.5,5.5,1.6c1.6,1.1,3.1,2.6,4,4.4
		c1.1,2.1,2.1,4.2,2.6,6.6c0.6,2.7,1,5.5,0.8,8.2c0,2.4-0.2,4.8-0.5,7.3c-0.3,2.7-1,5.5-1.6,8.1c-0.6,2.7-1.6,5.3-2.6,7.9
		C1598.3,127.1,1597,129.4,1595.7,131.5z M1580.7,104c0,2.3,0.2,4.7,0.5,6.9c0.3,2.4,1,4.8,1.8,7.3c0.8,2.3,1.8,4.5,3.1,6.6
		c1.1,1.9,2.7,3.6,4.7,4.8c1.3-2.6,2.4-5.2,3.4-7.9c1-2.7,1.6-5.3,2.3-7.8c0.6-2.3,1-4.7,1.3-6.9c0.2-1.9,0.3-3.7,0.3-5.7
		c0-2.1-0.2-4-0.5-6.1c-0.3-1.6-0.8-3.2-1.5-4.8c-0.5-1.3-1.3-2.4-2.3-3.2c-0.8-0.8-1.9-1.1-3.1-1.1c-1.5,0-2.9,0.5-4,1.5
		c-1.3,1.1-2.4,2.4-3.2,4c-1,1.8-1.6,3.7-2.1,5.7C1580.9,99.5,1580.7,101.7,1580.7,104z"/>
	<path class="st0" d="M773.8,195.4c0.8,0,1.6,0.2,2.4,0.5c0.8,0.3,1.5,0.6,2.1,1.1c0.6,0.5,1.1,1.1,1.6,1.9c0.3,0.8,0.6,1.6,0.6,2.6
		c-0.2,2.3-0.6,4.4-1.8,6.3c-1.1,2.3-2.7,5-4.5,8.1c-2.1,3.4-3.9,6.6-5.7,10c-1.8,3.4-3.4,6.5-5,9.5c-1.6,3.1-2.9,6-4.2,8.7
		c-1.3,2.7-2.4,5.2-3.4,7.3c1.1,0.2,2.4,0.3,3.6,0.3s2.1,0,3.2,0l0.2,2.3h-2.3c-1.8,0-3.7-0.2-5.5-0.5c-1,2.1-1.6,3.7-2.1,5
		c-0.5,1.3-0.8,1.8-0.8,1.8l-5.2-1.6l2.6-6c-1.9-0.5-4-1-6.3-1.6c-2.3-0.6-4.4-1.3-6.6-1.9c-2.3-0.6-4.5-1.6-6.8-2.6
		c-2.3-1-4.4-1.9-6.5-3.1c-1.9,2.3-4,4.4-6.3,6.5s-4.7,4-7.3,5.8c-2.6,1.6-5.2,3.1-8.1,4c-2.9,1.1-6,1.6-9,1.6
		c-2.9,0-5.7-0.5-8.4-1.3c-2.7-0.8-5.3-2.1-7.6-3.7c-2.3-1.6-4-3.6-5.5-5.8c-1.5-2.4-2.1-5.2-2.1-7.9c0-2.1,0.3-4.2,1.3-6.1
		c0.8-1.8,2.1-3.2,3.6-4.4c1.6-1.3,3.4-2.1,5.3-2.7c2.1-0.6,4.4-1,6.6-1c1.9,0,3.7,0.2,5.7,0.5c1.9,0.3,3.9,1,5.7,1.8
		c1.9,0.8,3.6,1.9,5.2,3.2c1.6,1.5,3.1,3.1,4.2,5l-1.9,1.3c0,0-0.2-0.3-0.5-0.6c-0.5-0.5-0.8-1-1.5-1.5c-0.6-0.6-1.5-1.3-2.3-1.8
		c-1.1-0.6-2.3-1.3-3.4-1.8c-1.5-0.6-2.9-1.1-4.5-1.5c-1.9-0.3-3.9-0.5-5.8-0.5s-4,0.3-5.8,1.1c-1.6,0.6-2.9,1.6-4,2.9
		c-1.1,1.1-1.9,2.4-2.4,3.9c-0.5,1.3-0.8,2.7-0.8,4.2c0,1.5,0.3,2.9,0.8,4.4c0.5,1.3,1.3,2.4,2.3,3.6c1,1.1,2.1,1.9,3.4,2.7
		c1.3,0.8,2.6,1.5,4,1.9c1.5,0.5,2.9,1,4.4,1.1c1.5,0.3,2.9,0.3,4.4,0.3c2.9,0,5.7-0.5,8.4-1.5c2.7-1,5.2-2.3,7.6-3.9
		c2.4-1.6,4.7-3.4,6.8-5.3s4-4,5.8-6.1c-1.9-1.1-3.7-2.4-5.5-3.9c-1.6-1.3-3.1-2.9-4.4-4.5c-1.3-1.6-2.3-3.4-2.9-5.2
		c-0.6-1.9-1-3.9-1-5.8c0-1.6,0.3-3.2,1-4.8c1.3-2.9,3.6-5.3,6.5-6.6c1.5-0.6,3.2-1,4.8-1c1.9,0,3.7,0.3,5.5,1
		c1.8,0.6,3.4,1.5,5,2.4c1.6,1.1,3.1,2.3,4.4,3.7c1.5,1.5,2.7,3.1,3.9,4.7c3.2-3.7,6.6-7.1,9.9-10.3c3.1-3.1,6.1-5.8,9.5-8.6
		c2.7-2.3,5.5-4.2,8.6-5.8C768.8,196.1,771.2,195.4,773.8,195.4z M711.6,225c0,1.5,0.3,3.1,0.8,4.5c0.6,1.5,1.5,2.7,2.4,4
		c1.1,1.3,2.3,2.6,3.7,3.6c1.5,1.1,3.1,2.3,4.5,3.2c2.3-2.6,4.5-5.3,6.8-8.1c2.3-2.7,4.7-5.3,6.9-8.1c-1-1.3-2.1-2.6-3.2-3.7
		c-1-1.1-2.3-2.1-3.4-3.1c-1.1-0.8-2.4-1.5-3.7-1.9c-1.3-0.5-2.6-0.6-3.9-0.6c-1.5,0-2.9,0.3-4.4,0.8c-1.3,0.5-2.4,1.3-3.4,2.3
		c-1,1-1.8,1.9-2.3,3.2C711.7,222.3,711.6,223.7,711.6,225L711.6,225z M749.2,250.2c-0.3-1.3-1-2.9-1.6-4.8
		c-0.6-1.9-1.5-3.9-2.4-6.1c-1-2.3-1.9-4.4-3.1-6.6c-1.1-2.3-2.4-4.4-3.9-6.5c-2.1,2.3-4.2,4.7-6.3,7.3c-2.1,2.6-4.5,5.2-6.8,8.1
		c2.1,1.1,4.2,2.3,6.5,3.1c2.3,1,4.4,1.8,6.6,2.4c2.3,0.6,4.2,1.3,6.1,1.9S747.7,250.1,749.2,250.2L749.2,250.2z M739.8,224.4
		c1.5,2.1,2.6,4.4,3.9,6.6c1.1,2.3,2.3,4.5,3.1,6.6s1.8,4.2,2.4,6.1c0.6,1.9,1.3,3.7,1.9,5.2c3.4-7.6,7.1-14.9,11-22.1
		c4-7.4,8.4-14.5,13.2-21.3c0.6-1,1.3-1.9,1.6-2.9c0.3-0.6,0.5-1.3,0.5-1.9c0-0.8-0.5-1.8-1.1-2.1c-0.8-0.5-1.8-0.8-2.7-0.6
		c-3.2,0-7.8,2.3-13.4,6.6C752.9,210.6,746.1,217.3,739.8,224.4L739.8,224.4z"/>
	<path class="st0" d="M799.6,243c-0.5,0.6-1,1.5-1.6,2.6c-0.6,1.1-1.3,2.3-2.1,3.6c-0.8,1.3-1.6,2.6-2.6,3.9c-1,1.3-1.9,2.4-3.1,3.6
		c-1.1,1-2.3,1.9-3.7,2.6c-1.3,0.6-2.7,1-4.2,1c-0.8,0-1.6-0.2-2.4-0.3c-0.6-0.2-1.5-0.6-1.9-1.1c-0.6-0.5-1-1.3-1.3-1.9
		c-0.3-0.8-0.5-1.8-0.5-2.7c0-1.6,0.3-3.1,0.8-4.5c0.6-1.6,1.3-3.1,1.9-4.5c0.8-1.5,1.6-2.7,2.3-4c0.6-1,1.1-1.9,1.6-2.9
		c0.3-0.6,0.5-1.3,0.5-1.9c0-0.3-0.2-0.8-0.3-1c-0.3-0.3-0.5-0.5-0.8-0.8l-1.1-1c-0.3-0.3-0.8-0.6-1-1.1l-2.3,3.6
		c-0.6,1-1.5,2.3-2.3,3.4s-1.6,2.6-2.3,3.7l-1.6-1.3l9.4-14.7l1.3,0.6c0,0.2-0.2,0.5-0.3,0.8c-0.2,0.3-0.2,0.8-0.2,1.3
		c0,0.3,0,0.6,0.2,1c0.2,0.3,0.3,0.6,0.6,0.8c1.1,1,2.1,1.9,2.7,2.4c0.5,0.5,1,0.8,1.5,1.5c0.3,0.2,0.5,0.5,0.6,0.8
		c0,0.3,0.2,0.6,0.2,0.8c0,0.5,0,0.8-0.2,1.3c-0.2,0.6-0.3,1.3-0.6,1.8c-0.3,0.6-0.6,1.6-1.1,2.4c-0.5,0.8-1.1,2.1-1.8,3.4
		c-0.5,0.8-0.8,1.5-1.3,2.3c-0.5,0.8-0.8,1.6-1.1,2.4c-0.3,0.8-0.6,1.6-0.8,2.4s-0.3,1.5-0.3,2.3c0,0.5,0,1,0.2,1.3
		c0.2,0.3,0.3,0.6,0.6,0.8c0.3,0.2,0.5,0.3,0.8,0.3s0.6,0,1,0.2c1,0,2.1-0.3,2.9-0.8c1-0.6,1.9-1.5,2.9-2.3c1-1,1.9-1.9,2.7-3.1
		s1.6-2.3,2.4-3.6c0.8-1.3,1.5-2.4,2.3-3.4c0.8-1,1.3-2.1,1.8-2.9L799.6,243z"/>
	<path class="st0" d="M806.9,221.8c0.3-0.5,0.8-1.5,1.6-2.6s1.6-2.6,2.6-4c1-1.5,2.1-3.1,3.2-4.5c1.1-1.5,2.3-2.7,3.6-3.9l1.9,1.1
		c-1.3,2.1-2.6,4.4-3.9,6.6c-1.3,2.3-2.6,4.7-3.9,7.3h14.4l-0.8,2.3h-14.7c-1.3,2.6-2.6,5.3-3.7,7.9c-1.1,2.6-2.3,5.2-3.1,7.4
		c-0.8,2.3-1.5,4.4-2.1,6.6c-0.5,1.8-0.6,3.6-0.8,5.3c-0.2,1.5,0.3,3.1,1.3,4.2c0.8,0.8,2.1,1.3,3.2,1.3c1.3,0,2.4-0.3,3.6-1
		c1.3-0.8,2.4-1.6,3.6-2.6c1.1-1.1,2.3-2.3,3.2-3.6c1-1.3,1.9-2.4,2.7-3.6c0.8-1.1,1.5-2.1,1.9-2.9l1-1.6l1.6,1.3
		c-1.1,1.8-2.3,3.6-3.6,5.5c-1.3,1.9-2.7,3.7-4.4,5.3c-1.5,1.6-3.2,2.9-5.2,4c-1.8,1.1-3.9,1.6-6,1.6c-1.1,0-2.4-0.2-3.4-0.6
		c-1-0.5-1.8-1.1-2.4-1.9s-1.3-1.9-1.5-3.1c-0.3-1.3-0.5-2.4-0.5-3.7c0-1.3,0.2-2.6,0.5-3.7c0.3-1.9,0.8-3.9,1.5-5.8
		c0.6-2.3,1.6-4.7,2.7-7.4c1.3-3.1,2.7-6,4.4-8.9h-7.3l0.8-2.3L806.9,221.8z"/>
	<path class="st0" d="M833.5,228.9c-0.3,0.8-1,1.8-1.6,3.1c-0.6,1.3-1.5,2.6-2.3,4s-1.6,3.1-2.4,4.7c-0.8,1.6-1.6,3.2-2.3,4.7
		c-0.6,1.5-1.1,2.9-1.6,4.4c-0.3,1.1-0.6,2.3-0.6,3.4c-0.2,1,0.3,1.9,1.5,2.3c0.2,0,0.5,0,0.6,0c1.3,0,2.6-0.5,3.6-1.1
		c1.3-1,2.4-1.9,3.4-3.1c1.1-1.5,2.3-2.9,3.4-4.4c1.1-1.6,2.1-3.2,3.2-5l1.6,1.3c-0.8,1.5-1.8,3.2-2.9,4.8c-1.1,1.8-2.3,3.4-3.6,4.8
		c-1.3,1.5-2.7,2.7-4.4,3.7c-1.6,1-3.4,1.5-5.2,1.5c-1.5,0.2-3.1-0.5-4-1.6s-1.5-2.6-1.5-4c0-2.1,0.5-4.2,1.5-6.1
		c1-2.3,2.1-4.4,3.4-6.3c1.3-2.1,2.9-4.2,4.5-6.1s3.1-3.7,4.5-5.3L833.5,228.9z M834.5,221.1h-3.1l7.9-8.6h5.5L834.5,221.1z"/>
	<path class="st0" d="M863.6,229.9c0-0.8-0.5-1.8-1.1-2.3c-1.1-0.6-2.3-1-3.6-0.8c-1.5,0-2.7,0.3-4,1c-1.5,0.6-2.7,1.5-3.9,2.4
		c-1.3,1.1-2.4,2.3-3.6,3.6c-1.1,1.5-1.9,2.9-2.7,4.5s-1.5,3.4-1.8,5.2c-0.5,1.8-0.6,3.6-0.6,5.5c0,1.3,0.2,2.6,0.5,3.7
		c0.3,1,0.8,1.8,1.3,2.6c0.6,0.6,1.3,1.1,2.1,1.5c1,0.3,1.8,0.5,2.7,0.5c2.1,0,4-0.5,6-1.3c1.9-1,3.9-2.1,5.5-3.6
		c1.8-1.5,3.4-3.1,4.8-4.8c1.5-1.8,2.7-3.4,3.9-5.3l1.6,1.3c-1.5,2.4-3.2,4.8-5,7.1c-1.6,1.9-3.6,3.6-5.5,5
		c-1.8,1.3-3.7,2.3-5.7,3.1c-1.8,0.6-3.7,1-5.7,1c-1.5,0-2.9-0.2-4.2-0.6s-2.6-1.1-3.6-1.9c-1.1-1-1.9-2.1-2.4-3.4
		c-0.6-1.6-1-3.4-1-5c0-2.3,0.3-4.4,1-6.5c0.6-1.9,1.6-3.9,2.6-5.7c2.1-3.4,5-6.1,8.4-8.2c1.5-1,3.1-1.6,4.8-2.3
		c1.5-0.5,2.9-0.8,4.5-0.8c1.1,0,2.4,0.2,3.6,0.6c0.8,0.3,1.6,0.8,2.1,1.5c0.5,0.5,0.8,1.1,1.1,1.8c0.2,0.5,0.3,1.1,0.3,1.6
		c0,0.8-0.2,1.5-0.3,2.3c-0.2,0.8-0.5,1.5-0.8,2.3c-0.3,0.6-0.8,1.1-1.3,1.6s-1.1,0.6-1.8,0.6c-0.6,0-1.1-0.2-1.6-0.6
		c-0.5-0.5-0.8-1-0.6-1.6c0,0,0-0.2,0-0.5s0.2-0.8,0.5-1c0.3-0.5,0.6-0.8,1.1-1c0.6-0.3,1.3-0.5,2.1-0.5h0.5
		C863.6,231,863.6,230.5,863.6,229.9z"/>
	<path class="st0" d="M889.6,248.6c-1.3,1.6-2.7,3.1-4,4.4c-1.3,1.3-2.6,2.4-4,3.4c-1.1,1-2.6,1.6-3.9,2.3c-1.3,0.5-2.6,0.8-3.9,0.8
		c-1,0-2.1-0.2-3.1-0.6c-0.8-0.3-1.6-1-2.3-1.6c-0.6-0.8-1.3-1.6-1.6-2.6c-0.3-1.1-0.5-2.3-0.5-3.6c0-2.1,0.5-4.4,1.3-6.3
		c1-2.3,2.1-4.4,3.4-6.3c1.5-2.1,2.9-4,4.5-5.8c1.6-1.8,3.2-3.4,4.7-4.8l1.9,1.3c-1.1,1.6-2.3,3.4-3.6,5.3c-1.3,1.9-2.6,4-3.7,6.1
		s-2.1,4.2-2.9,6.3c-0.8,1.9-1.1,3.9-1.1,5.8c0,1.1,0.2,2.1,0.6,3.1c0.5,1,1.6,1.5,2.6,1.3c1.6,0,3.2-0.6,4.7-1.6
		c1.9-1.3,3.6-2.7,5.2-4.4c1.9-1.9,3.7-3.9,5.3-6.1c1.8-2.3,3.4-4.5,5-6.8c1.6-2.3,3.1-4.5,4.4-6.6s2.4-3.9,3.2-5.3l3.2,1.6
		c-1.8,3.4-3.4,6.5-4.8,9.4c-1.5,2.9-2.9,5.5-4.2,7.8c-1.3,2.3-2.3,4.4-2.9,6c-0.6,1.3-1,2.6-1.1,4c0,0.3,0,0.6,0.3,1
		c0.2,0.3,0.5,0.5,0.8,0.3c1.3,0,2.6-0.6,3.6-1.5c1.5-1.1,2.7-2.3,4-3.7c1.3-1.5,2.6-3.1,3.9-4.8c1.3-1.8,2.4-3.4,3.4-5l1.6,1.3
		l-1.1,1.8c-0.5,1-1.3,1.9-2.1,3.1s-1.8,2.4-2.9,3.7c-1,1.3-2.1,2.4-3.4,3.6c-1.1,1-2.3,1.9-3.7,2.6c-1.1,0.6-2.4,1-3.7,1
		c-0.6,0-1.5-0.2-2.1-0.3c-0.6-0.3-1.1-0.6-1.5-1c-0.8-1-1.3-2.1-1.3-3.4c0-0.8,0.2-1.8,0.3-2.6
		C888.8,250.5,889.1,249.6,889.6,248.6z"/>
	<path class="st0" d="M940.2,194c1,0,1.8,0.2,2.6,0.8c0.8,0.6,1.1,1.8,1.1,2.7c0,1.1-0.2,2.3-0.5,3.2c-0.5,1.5-1,2.7-1.5,4.2
		c-0.6,1.5-1.5,3.1-2.3,4.7s-1.8,3.2-2.7,4.8s-1.9,3.2-3.1,4.7s-2.1,2.9-3.2,4.2c-2.1,2.6-4,4.8-5.5,6.6c-1.5,1.8-2.9,3.4-4,4.5
		c-1.1,1.1-2.1,2.3-2.7,3.1l-2.1,1.9c-0.6,0.6-1.1,1.1-1.6,1.5c-0.5,0.3-1,1-1.6,1.5c-0.2,1.1-0.3,2.1-0.3,3.2c0,1,0,1.9,0,2.7
		c-0.2,1.9,0.3,3.9,1.3,5.7c0.8,1.1,2.1,1.9,3.6,1.8c1.1,0,2.1-0.3,3.1-0.8c1.1-0.5,2.1-1.3,3.1-1.9c1-0.8,1.9-1.8,2.9-2.7
		c1-1,1.8-2.1,2.7-3.2c1-1.1,1.6-2.1,2.3-3.1l1.8-2.6l1.6,1.3c0,0.2-0.3,0.6-0.8,1.5c-0.5,0.8-1.1,1.8-1.9,2.9
		c-0.8,1.1-1.8,2.4-2.9,3.7c-1.1,1.3-2.3,2.6-3.6,3.7c-1.3,1.1-2.6,1.9-4,2.7c-1.3,0.6-2.7,1.1-4.2,1.1c-1.1,0-2.4-0.2-3.4-0.6
		c-1.1-0.5-2.1-1.3-2.9-2.1c-1-1.1-1.6-2.4-1.9-3.7c-0.5-1.8-0.8-3.7-0.8-5.5c0-2.7,0.3-5.7,1-8.4c0.6-3.1,1.5-6,2.6-8.9
		c1.1-3.1,2.4-6,3.9-8.7c1.5-2.9,3.1-5.7,4.7-8.2c1.6-2.6,3.4-5,5.2-7.3c1.6-2.1,3.4-4,5.3-5.8c1.5-1.5,3.2-2.7,5-3.7
		C937,194.5,938.6,194,940.2,194z M913.7,238.8c2.6-2.6,5-5.2,7.3-7.9c2.4-2.6,4.5-5.3,6.6-7.9s3.9-5.2,5.7-7.6
		c1.6-2.3,3.1-4.5,4.4-6.9c1.1-1.9,2.1-3.9,2.9-6c0.6-1.5,1-3.1,1-4.7c0-0.3-0.2-0.6-0.3-1c-0.2-0.3-0.5-0.6-0.8-0.6
		c-1.3,0.2-2.6,0.8-3.6,1.8c-1.8,1.5-3.4,3.1-4.8,4.8c-1.9,2.3-3.7,4.7-5.5,7.3c-1.9,2.9-3.7,5.8-5.3,8.9s-3.1,6.5-4.4,9.7
		C915.3,232,914.3,235.4,913.7,238.8L913.7,238.8z"/>
	<path class="st0" d="M958,246.2c0.2,0,0.2,0,0.3,0h0.3c0.8,0,1.5,0,2.3-0.2c0.6-0.2,1.3-0.5,1.9-0.8c0.6-0.3,1.1-0.8,1.6-1.5
		c0.6-0.6,1.1-1.3,1.6-2.1l1.6,1.3c-1.1,1.8-2.7,3.2-4.5,4.2c-1.5,0.8-3.1,1.1-4.8,1.1c-0.5,0-1.1,0-1.6-0.2c-1.1,1.9-2.4,3.7-4,5.5
		c-1.3,1.5-2.7,2.6-4.4,3.6c-1.5,0.8-2.9,1.6-4.5,2.1c-1.3,0.3-2.7,0.6-4,0.6s-2.4-0.2-3.6-0.6s-2.1-1.1-2.9-1.9
		c-0.8-1-1.5-1.9-1.9-3.1c-0.5-1.3-0.6-2.6-0.6-4s0.2-3.1,0.6-4.5c0.5-1.6,1.1-3.1,1.9-4.5c0.8-1.5,1.8-2.9,2.9-4.4
		c2.1-2.7,4.7-5.2,7.4-7.1c1.3-1,2.6-1.8,4-2.4l1.5,1.8c-1.8,1.3-3.4,2.7-4.7,4.2c-1.6,1.8-3.1,3.6-4.4,5.7c-1.3,1.9-2.4,4-3.2,6.3
		c-0.8,2.1-1.3,4.2-1.3,6.3c-0.2,1.6,0.3,3.1,1.3,4.4c1,1.1,2.3,1.6,3.7,1.5c1.3,0,2.6-0.3,3.9-0.8c1.3-0.6,2.6-1.3,3.7-2.1
		c1.3-1,2.4-2.1,3.6-3.2c1.1-1.3,2.3-2.6,3.2-4c-0.8-0.5-1.6-1.1-2.3-1.9c-0.6-0.8-1.1-1.8-1.6-2.9c-0.5-1.1-0.8-2.3-1-3.4
		c-0.2-1.3-0.3-2.6-0.3-3.9c0-1.3,0.2-2.4,0.5-3.7c0.3-1.1,0.8-2.1,1.3-3.1c0.5-0.8,1.1-1.5,1.9-2.1c0.8-0.5,1.6-0.8,2.4-0.8
		s1.6,0.2,2.3,0.6c0.6,0.5,1.3,1.1,1.6,1.8c0.5,0.8,0.8,1.8,1,2.6c0.2,1.1,0.3,2.1,0.3,3.2c0,1-0.2,1.9-0.2,2.9
		c-0.2,1.1-0.3,2.1-0.6,3.2c-0.3,1.1-0.6,2.1-1,3.2C958.9,244.4,958.4,245.4,958,246.2z M951.8,235.2c0,1,0.2,1.9,0.2,2.7
		c0.2,1,0.3,1.9,0.6,2.9c0.3,1,0.8,1.8,1.3,2.6c0.5,0.8,1.1,1.5,1.9,1.9c0.5-1,1-2.1,1.3-3.2s0.6-2.1,1-3.1c0.3-1,0.5-1.9,0.5-2.7
		c0.2-0.8,0.2-1.5,0.2-2.3c0-0.8,0-1.6-0.2-2.4c-0.2-0.6-0.3-1.3-0.6-1.9c-0.2-0.5-0.5-1-1-1.3c-0.3-0.3-0.8-0.5-1.3-0.5
		c-0.6,0-1.1,0.2-1.6,0.6c-0.5,0.5-1,1-1.3,1.6c-0.3,0.8-0.6,1.5-0.8,2.3C952,233.4,951.8,234.2,951.8,235.2z"/>
	<path class="st0" d="M979.6,224.4c-0.3,0.3-0.5,0.6-0.6,1.1c-0.2,0.5-0.5,1-0.5,1.5c-0.2,0.6-0.3,1.3-0.3,1.9
		c0,0.8,0.2,1.8,0.5,2.6c0.3,1,0.6,2.3,1,3.6c0.3,1.3,0.6,2.9,1,4.5c0.3,1.6,0.5,3.2,0.5,5c0,2.3-0.3,4.5-1,6.6
		c-0.6,1.8-1.5,3.4-2.7,4.8c2.6-1.5,4.8-3.2,6.8-5.3c2.6-2.7,4.7-5.7,6.6-8.7l1.5,1.3c-1.3,2.1-2.7,4.2-4.4,6.1
		c-1.6,1.9-3.4,3.9-5.3,5.5s-3.9,2.9-6.1,4c-2.3,1-4.5,1.5-6.9,1.5c-1.9,0-3.9-0.5-5.7-1.6c-1.6-1.1-2.6-2.7-2.7-4.7l1.6-0.3
		c0,0.3,0.2,0.6,0.3,0.8c0.2,0.5,0.5,0.8,0.8,1.1c0.5,0.5,0.8,0.8,1.5,1c0.6,0.3,1.5,0.5,2.3,0.5c1.1,0,2.3-0.3,3.1-0.8
		c1-0.5,1.8-1.3,2.4-2.1c0.6-1,1.3-1.9,1.8-3.1c0.5-1.1,0.8-2.3,1.1-3.6c0.3-1.1,0.5-2.4,0.6-3.6c0.2-1.1,0.2-2.3,0.2-3.1
		c0-0.8,0-1.9-0.2-3.1s-0.2-2.3-0.3-3.2c-0.2-1-0.2-1.9-0.3-2.7c-0.2-0.8-0.2-1.3-0.2-1.5v-0.2c-0.5,0.6-1,1.1-1.3,1.8l-1.6,2.6
		l-1.8,2.9c-0.6,1-1.1,1.8-1.6,2.6l-1.3,1.9c-0.2,0.3-0.3,0.5-0.5,0.8l-1.6-1.3c0,0,0.3-0.6,1.1-1.9s1.6-2.7,2.7-4.7s2.4-4,4-6.3
		c1.6-2.3,2.9-4.5,4.5-6.8l1.8,1.5C979.9,223.9,979.8,224,979.6,224.4z"/>
	<path class="st0" d="M1045.1,243c-0.5,0.6-1,1.5-1.6,2.6c-0.6,1.1-1.3,2.3-2.1,3.6c-0.8,1.3-1.6,2.6-2.6,3.9
		c-1,1.3-1.9,2.4-3.1,3.6c-1.1,1-2.3,1.9-3.7,2.6c-1.3,0.6-2.7,1-4.2,1c-0.8,0-1.6-0.2-2.4-0.3c-0.6-0.2-1.5-0.6-1.9-1.1
		c-0.6-0.5-1-1.3-1.3-1.9c-0.3-0.8-0.5-1.8-0.5-2.7c0-1.6,0.3-3.1,0.8-4.5c0.6-1.6,1.3-3.1,1.9-4.5c0.8-1.5,1.5-2.7,2.3-4
		c0.6-1,1.1-1.9,1.6-2.9c0.3-0.6,0.5-1.3,0.5-1.9c0-0.3-0.2-0.8-0.3-1c-0.3-0.3-0.6-0.6-1-0.8l-1.1-1c-0.5-0.3-0.8-0.6-1-1.1
		c-0.8,1.1-1.5,2.4-2.3,3.6c-0.8,1.1-1.5,2.3-2.3,3.4s-1.6,2.6-2.3,3.7l-1.6-1.3l9.4-14.7l1.3,0.6l-0.3,0.8
		c-0.2,0.3-0.2,0.8-0.2,1.3c0,0.3,0,0.6,0.2,1c0.2,0.3,0.3,0.6,0.6,0.8c1.1,1,2.1,1.9,2.7,2.4c0.5,0.5,1,0.8,1.5,1.5
		c0.3,0.2,0.5,0.5,0.6,0.8c0,0.3,0.2,0.6,0.2,0.8c0,0.5,0,0.8-0.2,1.3c-0.2,0.6-0.3,1.3-0.6,1.8c-0.3,0.6-0.6,1.6-1.1,2.4
		c-0.5,0.8-1.1,2.1-1.8,3.4c-0.5,0.8-0.8,1.5-1.3,2.3c-0.5,0.8-0.8,1.6-1.1,2.4c-0.3,0.8-0.6,1.6-0.8,2.4s-0.3,1.5-0.3,2.3
		c0,0.5,0,1,0.3,1.3c0.2,0.3,0.3,0.6,0.6,0.8c0.3,0.2,0.5,0.3,0.8,0.3c0.3,0,0.6,0,1,0.2c1,0,2.1-0.3,2.9-0.8
		c1.1-0.6,2.1-1.5,3.1-2.3c1-1,1.9-1.9,2.7-3.1s1.8-2.3,2.4-3.6c0.6-1.3,1.5-2.4,2.3-3.4l1.8-2.9L1045.1,243z"/>
	<path class="st0" d="M1046.7,248.1c0,0.3-0.2,0.6-0.2,1.1s0,0.6,0,1c0,1,0.2,2.1,0.5,3.1c0.3,1,0.8,1.8,1.3,2.6
		c0.6,0.6,1.5,1.3,2.3,1.6c1,0.5,1.9,0.6,3.1,0.6c4,0,7.9-1.5,11.1-3.9c4.4-3.4,7.9-7.6,10.7-12.4l1.5,1.3c-1.8,2.9-3.7,5.7-6,8.2
		c-1.8,2.1-3.7,3.9-6,5.3c-1.8,1.3-3.7,2.3-5.8,3.1c-1.8,0.6-3.6,1-5.5,1c-1.3,0-2.7-0.2-4-0.5c-1.5-0.3-2.7-1-3.9-1.8
		c-1.3-0.8-2.3-1.9-2.9-3.2c-0.8-1.6-1.3-3.4-1.1-5.2c0-2.1,0.3-4.4,1.1-6.3c0.8-1.9,1.8-3.9,2.9-5.7c1.1-1.8,2.6-3.4,4.2-4.8
		c1.5-1.5,3.1-2.6,4.7-3.7c1.5-1,3.1-1.8,4.7-2.4c1.3-0.5,2.7-0.8,4-0.8c0.8,0,1.6,0.2,2.3,0.3c0.8,0.2,1.5,0.6,2.1,1.1
		c0.6,0.5,1.3,1.1,1.6,1.9c0.5,1,0.6,1.9,0.6,2.9c0,1.5-0.3,3.1-1.1,4.4c-0.8,1.5-1.8,2.7-2.9,3.9c-1.3,1.1-2.7,2.3-4.2,3.1
		c-1.6,1-3.2,1.8-5,2.4c-1.8,0.6-3.4,1.1-5.2,1.6C1050.2,248,1048.5,248.1,1046.7,248.1z M1047.2,246.2c1.9-0.2,3.7-0.6,5.5-1.3
		c3.2-1.1,6.1-2.9,8.6-5.2c1.1-1,1.9-2.1,2.9-3.2c0.6-1,1.3-2.1,1.8-3.1c0.3-0.8,0.6-1.8,0.6-2.7c0-0.6-0.2-1.3-0.6-1.9
		c-0.3-0.5-1-0.6-1.5-0.6c-1.6,0-3.1,0.5-4.4,1.5c-1.8,1.1-3.4,2.4-4.8,3.9c-1.8,1.8-3.2,3.7-4.5,5.7
		C1049.1,241.3,1048,243.8,1047.2,246.2L1047.2,246.2z"/>
	<path class="st0" d="M1107.6,194c1,0,1.8,0.2,2.6,0.8c0.8,0.6,1.1,1.8,1,2.7c0,1.1-0.2,2.3-0.5,3.2c-0.5,1.5-1,2.7-1.5,4.2
		c-0.6,1.5-1.3,3.1-2.3,4.7c-1,1.6-1.8,3.2-2.7,4.8c-1,1.6-1.9,3.2-3.1,4.7s-2.1,2.9-3.2,4.2c-2.1,2.6-4,4.8-5.5,6.6
		c-1.5,1.8-2.9,3.4-4,4.5c-1.1,1.1-2.1,2.3-2.9,3.1c-0.8,0.8-1.5,1.5-2.1,1.9c-0.6,0.5-1.1,1.1-1.6,1.5c-0.5,0.3-1,1-1.6,1.5
		c-0.2,1.1-0.3,2.1-0.3,3.2c0,1,0,1.9,0,2.7c-0.2,1.9,0.3,3.9,1.3,5.7c0.8,1.1,2.1,1.9,3.6,1.8c1.1,0,2.1-0.3,3.1-0.8
		c1.1-0.5,2.1-1.3,3.1-1.9c1-0.8,1.9-1.8,2.9-2.7c1-1,1.8-2.1,2.7-3.2c1-1.1,1.6-2.1,2.3-3.1l1.8-2.6l1.6,1.3c0,0.2-0.3,0.6-0.8,1.5
		c-0.5,0.8-1.1,1.8-1.9,2.9c-0.8,1.1-1.8,2.4-2.9,3.7c-1.1,1.3-2.3,2.6-3.6,3.7c-1.3,1.1-2.6,1.9-4,2.7c-1.3,0.6-2.7,1.1-4.2,1.1
		c-1.1,0-2.4-0.2-3.4-0.6c-1.1-0.5-2.1-1.3-2.9-2.1c-1-1.1-1.6-2.4-1.9-3.7c-0.5-1.8-0.8-3.7-0.8-5.5c0-2.7,0.3-5.7,1-8.4
		c0.6-3.1,1.5-6,2.6-8.9c1.1-3.1,2.4-6,3.9-8.7c1.5-2.9,3.1-5.7,4.7-8.2s3.4-5,5.2-7.3c1.6-2.1,3.4-4,5.3-5.8c1.5-1.5,3.2-2.7,5-3.7
		C1104.4,194.5,1106,194,1107.6,194z M1081.1,238.8c2.4-2.6,4.8-5.2,7.3-7.9c2.4-2.6,4.5-5.3,6.6-7.9s3.9-5.2,5.7-7.6
		c1.6-2.3,3.1-4.5,4.4-6.9c1.1-1.9,1.9-3.9,2.7-6c0.6-1.5,1-3.1,1-4.7c0-0.3-0.2-0.6-0.3-1c-0.2-0.3-0.5-0.6-0.8-0.6
		c-1.3,0.2-2.6,0.8-3.6,1.8c-1.8,1.5-3.4,3.1-4.8,4.8c-1.9,2.3-3.7,4.7-5.5,7.3c-1.9,2.9-3.7,5.8-5.3,8.9s-3.1,6.5-4.4,9.7
		C1082.7,232,1081.7,235.4,1081.1,238.8z"/>
	<path class="st0" d="M1112,228.9c-0.3,0.8-1,1.8-1.6,3.1c-0.6,1.3-1.5,2.6-2.3,4c-0.8,1.5-1.6,3.1-2.4,4.7
		c-0.8,1.6-1.6,3.2-2.3,4.7s-1.1,3.1-1.6,4.4c-0.3,1.1-0.6,2.3-0.6,3.4c-0.2,1,0.3,1.9,1.5,2.3c0.2,0,0.5,0,0.6,0
		c1.3,0,2.4-0.5,3.6-1.1c1.3-1,2.4-1.9,3.4-3.1c1.1-1.5,2.3-2.9,3.4-4.4c1.1-1.6,2.1-3.2,3.2-5l1.6,1.3c-0.8,1.5-1.8,3.2-2.9,4.8
		c-1.1,1.8-2.3,3.4-3.6,4.8c-1.3,1.5-2.7,2.7-4.4,3.7c-1.6,1-3.4,1.5-5.2,1.5c-1.5,0.2-3.1-0.5-4-1.6c-1-1.1-1.5-2.6-1.5-4
		c0-2.1,0.5-4.2,1.3-6.1c1-2.3,2.1-4.4,3.4-6.3c1.3-2.1,2.9-4.2,4.5-6.1c1.6-1.9,3.1-3.7,4.4-5.3L1112,228.9z M1120.2,219
		c0,0.6-0.2,1.3-0.5,1.8c-0.3,0.6-0.6,1.1-1.1,1.6s-1,1-1.6,1.3c-0.5,0.3-1,0.5-1.6,0.5c-0.5,0-0.8-0.2-1.1-0.5
		c-0.3-0.3-0.5-0.8-0.3-1.3c0-0.5,0.2-1.1,0.3-1.6c0.2-0.6,0.5-1.3,0.8-1.8c0.3-0.6,0.8-1.1,1.3-1.5c0.5-0.3,1.1-0.6,1.8-0.6
		s1.1,0.3,1.6,0.6C1120,217.9,1120.2,218.4,1120.2,219L1120.2,219z"/>
	<path class="st0" d="M1133.6,256.7c-1.5,1-3.1,1.8-4.7,2.4c-1.5,0.6-3.1,1-4.7,1c-1.1,0-2.3-0.2-3.4-0.5c-1.1-0.3-2.1-0.8-3.1-1.6
		c-1-0.8-1.8-1.8-2.3-2.9c-0.6-1.5-1-3.1-0.8-4.5c0-2.1,0.3-4.4,1.1-6.3c0.8-2.1,1.9-3.9,3.2-5.7c1.3-1.8,2.9-3.4,4.5-4.8
		c1.6-1.5,3.4-2.6,5.3-3.7c1.8-1,3.6-1.8,5.3-2.4c1.6-0.5,3.2-0.8,4.8-0.8c1.3,0,2.4,0.2,3.7,0.5c1,0.3,1.8,0.6,2.6,1.1
		c0.6,0.3,1.1,1,1.6,1.5c0.3,0.5,0.6,1,1,1.5l2.4-3.1l1.5,1c0,0-0.2,0.5-0.6,1.5c-0.5,1-1.1,2.1-1.9,3.6c-0.8,1.5-1.6,3.2-2.7,5.3
		s-2.1,4.2-3.2,6.5s-2.3,4.7-3.4,6.9c-1.1,2.3-2.3,4.8-3.2,7.1c2.7-1.5,5-3.1,7.1-4.4c1.9-1.3,3.7-2.7,5.5-4.2
		c1.6-1.5,3.1-2.9,4.4-4.5c1.3-1.6,2.6-3.4,3.7-5l1.6,1.3c-1.1,1.8-2.3,3.6-3.7,5.3c-1.5,1.8-3.1,3.4-4.8,4.8
		c-2.1,1.8-4.2,3.4-6.5,5c-2.4,1.8-5.3,3.6-8.7,5.7c-2.3,5.8-5,11.5-8.1,17c-2.1,3.7-4.5,7.3-7.3,10.7c-1.8,2.3-4,4-6.5,5.5
		c-1.6,1-3.4,1.5-5.3,1.6c-0.6,0-1.5-0.2-2.1-0.2c-0.8-0.2-1.5-0.5-2.1-1c-0.6-0.5-1.3-1.1-1.6-1.9c-0.5-1-0.6-2.1-0.6-3.2
		c0-2.6,0.8-5,2.1-7.3c1.5-2.7,3.4-5.2,5.7-7.1c2.7-2.6,5.8-5,9.2-7.1c3.6-2.4,7.8-4.7,12.3-7.1c0.6-1.3,1.1-2.4,1.6-3.6
		C1132.8,258.6,1133.3,257.7,1133.6,256.7z M1108.2,296.1c1.3,0,2.4-0.5,3.6-1.3c1.3-1,2.6-2.1,3.7-3.4c1.3-1.6,2.6-3.2,3.7-5
		c1.3-1.9,2.4-3.9,3.6-6s2.3-4.4,3.4-6.6s2.1-4.4,3.1-6.6c-4,2.1-7.8,4.4-11.3,7.1c-2.7,2.1-5.3,4.5-7.6,7.1
		c-1.6,1.8-3.1,3.9-4.4,6.1c-0.8,1.3-1.1,2.7-1.3,4.2c0,1,0.2,2.1,0.8,2.9C1106,296,1107.1,296.3,1108.2,296.1L1108.2,296.1z
		 M1135.9,251.8l2.4-4.5c0.8-1.5,1.6-2.9,2.4-4.4c0.8-1.5,1.8-2.9,2.7-4.5c1-1.6,1.9-3.1,3.2-4.8c0-0.5-0.2-1-0.5-1.5
		c-0.3-0.5-0.6-1-1-1.3c-0.5-0.5-1-0.8-1.6-1c-0.8-0.3-1.5-0.5-2.3-0.3c-1.1,0-2.3,0.2-3.4,0.3c-1.5,0.3-2.7,0.8-4,1.5
		c-1.5,0.6-2.9,1.6-4.4,2.6c-1.6,1.1-3.1,2.6-4.2,4c-1.9,2.1-3.4,4.5-4.7,7.3c-1,2.1-1.6,4.4-1.6,6.6c-0.2,1.6,0.5,3.1,1.5,4.4
		c1.1,1,2.4,1.6,4,1.5c1.9,0,3.9-0.6,5.7-1.6C1132.2,254.9,1134.1,253.5,1135.9,251.8z"/>
	<path class="st0" d="M1169.2,228.9c-0.3,0.8-1,1.8-1.6,3.1c-0.6,1.3-1.5,2.6-2.3,4s-1.6,3.1-2.4,4.7c-0.8,1.6-1.6,3.2-2.3,4.7
		s-1.1,3.1-1.6,4.4c-0.3,1.1-0.6,2.3-0.6,3.4c-0.2,1,0.3,1.9,1.5,2.3c0.2,0,0.5,0,0.6,0c1.3,0,2.4-0.5,3.6-1.1
		c1.3-1,2.4-1.9,3.4-3.1c1.1-1.5,2.3-2.9,3.4-4.4c1.1-1.6,2.1-3.2,3.2-5l1.6,1.3c-0.8,1.5-1.8,3.2-2.9,4.8c-1.1,1.8-2.3,3.4-3.6,4.8
		s-2.7,2.7-4.4,3.7c-1.6,1-3.4,1.5-5.2,1.5c-1.5,0.2-3.1-0.5-4-1.6s-1.5-2.6-1.5-4c0-2.1,0.5-4.2,1.3-6.1c1-2.3,2.1-4.4,3.4-6.3
		c1.3-2.1,2.9-4.2,4.5-6.1s3.1-3.7,4.4-5.3L1169.2,228.9z M1177.4,219c0,0.6-0.2,1.3-0.5,1.8c-0.3,0.6-0.6,1.1-1.1,1.6s-1,1-1.6,1.3
		c-0.5,0.3-1,0.5-1.6,0.5c-0.5,0-0.8-0.2-1.1-0.5c-0.3-0.3-0.5-0.8-0.3-1.3c0-0.5,0.2-1.1,0.3-1.6c0.2-0.6,0.5-1.3,0.8-1.8
		c0.3-0.5,0.8-1.1,1.3-1.5c0.5-0.3,1.1-0.6,1.8-0.6c0.6,0,1.1,0.3,1.6,0.6C1177.2,217.9,1177.4,218.4,1177.4,219L1177.4,219z"/>
	<path class="st0" d="M1198.9,246.2c0.2,0,0.2,0,0.3,0h0.3c0.8,0,1.5,0,2.3-0.2c0.6-0.2,1.3-0.5,1.9-0.8c0.6-0.3,1.1-0.8,1.6-1.5
		c0.6-0.6,1.1-1.3,1.6-2.1l1.6,1.3c-1.1,1.8-2.6,3.1-4.4,4.2c-1.5,0.8-3.2,1.3-4.8,1.1c-0.5,0-1.1,0-1.6-0.2c-1.1,1.9-2.4,3.7-4,5.5
		c-1.3,1.5-2.7,2.6-4.4,3.6c-1.5,0.8-2.9,1.6-4.5,2.1c-1.3,0.3-2.7,0.6-4,0.6c-1.3,0-2.4-0.2-3.6-0.6s-2.1-1.1-2.9-1.9
		c-0.8-0.8-1.5-1.9-1.8-3.1c-0.5-1.3-0.6-2.6-0.6-4s0.2-3.1,0.6-4.5c0.5-1.6,1.1-3.1,1.9-4.5c0.8-1.5,1.8-2.9,2.9-4.4
		s2.3-2.7,3.6-3.9c1.3-1.1,2.6-2.3,3.9-3.2c1.3-1,2.6-1.8,4-2.4l1.5,1.8c-1.8,1.3-3.4,2.7-4.7,4.2c-1.6,1.8-3.1,3.6-4.4,5.7
		c-1.3,1.9-2.4,4-3.2,6.3c-0.8,2.1-1.3,4.2-1.3,6.3c-0.2,1.6,0.3,3.1,1.3,4.4c1,1.1,2.3,1.6,3.7,1.5c1.3,0,2.6-0.3,3.9-0.8
		c1.3-0.6,2.6-1.3,3.7-2.1c1.3-1,2.4-2.1,3.6-3.2c1.1-1.3,2.3-2.6,3.2-4c-0.8-0.5-1.6-1.1-2.3-1.9c-0.6-0.8-1.1-1.8-1.6-2.9
		c-0.5-1.1-0.8-2.3-1-3.4c-0.2-1.3-0.3-2.6-0.3-3.9c0-1.3,0.2-2.4,0.5-3.7c0.3-1.1,0.8-2.1,1.3-3.1c0.5-0.8,1.1-1.5,1.9-2.1
		c0.8-0.5,1.6-0.8,2.6-0.8c0.8,0,1.6,0.2,2.3,0.6c0.6,0.5,1.3,1.1,1.6,1.8c0.5,0.8,0.8,1.8,1,2.6c0.2,1.1,0.3,2.1,0.3,3.2
		c0,1-0.2,1.9-0.2,2.9c-0.2,1.1-0.3,2.1-0.6,3.2c-0.3,1.1-0.6,2.1-1,3.2C1199.9,244.4,1199.5,245.4,1198.9,246.2z M1192.9,235.2
		c0,1,0.2,1.9,0.2,2.7c0.2,1,0.3,1.9,0.6,2.9c0.3,1,0.6,1.8,1.3,2.6c0.5,0.8,1.1,1.5,1.9,1.9c0.5-1,1-2.1,1.3-3.2s0.6-2.1,1-3.1
		c0.3-1,0.5-1.9,0.5-2.7c0.2-0.8,0.2-1.5,0.2-2.3c0-0.8,0-1.6-0.2-2.4c-0.2-0.6-0.3-1.3-0.6-1.9c-0.2-0.5-0.5-1-1-1.3
		c-0.3-0.3-0.8-0.5-1.3-0.5c-0.6,0-1.1,0.2-1.6,0.6c-0.5,0.5-1,1-1.3,1.6c-0.3,0.6-0.6,1.5-0.8,2.3
		C1193.1,233.4,1192.9,234.2,1192.9,235.2L1192.9,235.2z"/>
	<path class="st0" d="M1220.5,224.4c-0.3,0.3-0.5,0.6-0.6,1.1c-0.2,0.5-0.5,1-0.5,1.5c-0.2,0.6-0.3,1.3-0.3,1.9
		c0,0.8,0.2,1.8,0.5,2.6c0.3,1,0.6,2.3,1,3.6c0.3,1.3,0.6,2.9,1,4.5c0.3,1.6,0.5,3.2,0.5,5c0,2.3-0.3,4.5-1,6.6
		c-0.6,1.8-1.5,3.4-2.7,4.8c2.6-1.5,4.8-3.2,6.8-5.3c2.6-2.7,4.7-5.7,6.6-8.7l1.5,1.3c-1.3,2.1-2.7,4.2-4.4,6.1s-3.4,3.9-5.3,5.5
		c-1.9,1.6-3.9,2.9-6.1,4c-2.3,1-4.5,1.5-6.9,1.5c-1.9,0-3.9-0.5-5.7-1.6c-1.6-1.1-2.6-2.7-2.7-4.7l1.6-0.3c0,0.3,0.2,0.6,0.3,0.8
		c0.2,0.5,0.5,0.8,0.8,1.1c0.5,0.5,1,0.8,1.5,1c0.6,0.3,1.5,0.5,2.3,0.5c1.1,0,2.1-0.3,3.1-0.8c1-0.5,1.8-1.3,2.4-2.1
		c0.6-1,1.3-1.9,1.8-3.1c0.5-1.1,0.8-2.3,1.1-3.6c0.3-1.1,0.5-2.4,0.6-3.6c0.2-1.1,0.2-2.3,0.2-3.1c0-0.8,0-1.9-0.2-3.1
		c-0.2-1.1-0.2-2.3-0.3-3.2c-0.2-1-0.2-1.9-0.3-2.7c-0.2-0.8-0.2-1.3-0.2-1.5v-0.2c-0.5,0.6-1,1.1-1.3,1.8c-0.5,0.8-1.1,1.6-1.8,2.6
		l-1.8,2.9c-0.6,1-1.1,1.8-1.6,2.6l-1.1,1.9c-0.2,0.3-0.3,0.5-0.5,0.8l-1.6-1.3l1.1-1.9c0.6-1.3,1.6-2.7,2.7-4.7s2.4-4,4-6.3
		c1.6-2.3,2.9-4.5,4.5-6.8l1.8,1.5C1221,223.9,1220.9,224,1220.5,224.4z"/>
	<path class="st0" d="M1256.6,246.2c0.2,0,0.2,0,0.3,0h0.3c0.8,0,1.5,0,2.3-0.2c0.6-0.2,1.3-0.5,1.9-0.8c0.6-0.3,1.1-0.8,1.6-1.5
		c0.6-0.6,1.1-1.3,1.6-2.1l1.6,1.3c-1.1,1.8-2.6,3.1-4.4,4.2c-1.5,0.8-3.1,1.1-4.8,1.1c-0.5,0-1.1,0-1.6-0.2c-1.1,1.9-2.4,3.7-4,5.5
		c-1.3,1.5-2.7,2.6-4.4,3.6c-1.5,0.8-2.9,1.6-4.5,2.1c-1.3,0.3-2.7,0.6-4,0.6s-2.4-0.2-3.6-0.6s-2.1-1.1-2.9-1.9
		c-0.8-0.8-1.5-1.9-1.8-3.1c-0.5-1.3-0.6-2.6-0.6-4s0.2-3.1,0.6-4.5c0.5-1.6,1.1-3.1,1.9-4.5c0.8-1.5,1.8-2.9,2.9-4.4
		c2.1-2.7,4.7-5.2,7.4-7.1c1.3-1,2.6-1.8,4-2.4l1.5,1.8c-1.8,1.3-3.4,2.7-4.7,4.2c-1.6,1.8-3.1,3.6-4.4,5.7c-1.3,1.9-2.4,4-3.2,6.3
		c-0.8,2.1-1.3,4.2-1.3,6.3c-0.2,1.6,0.3,3.1,1.3,4.4c1,1.1,2.3,1.6,3.7,1.5c1.3,0,2.6-0.3,3.9-0.8c1.3-0.6,2.6-1.3,3.7-2.1
		c1.3-1,2.4-2.1,3.6-3.2c1.1-1.3,2.3-2.6,3.2-4c-0.8-0.5-1.6-1.1-2.3-1.9c-0.6-0.8-1.1-1.8-1.6-2.9c-0.5-1.1-0.8-2.3-1-3.4
		c-0.2-1.3-0.3-2.6-0.3-3.9c0-1.3,0.2-2.4,0.5-3.7c0.3-1.1,0.8-2.1,1.3-3.1c0.5-0.8,1.1-1.5,1.9-2.1c0.8-0.5,1.6-0.8,2.4-0.8
		c0.8,0,1.6,0.2,2.3,0.6c0.6,0.5,1.3,1.1,1.6,1.8c0.5,0.8,0.8,1.8,1,2.6c0.2,1.1,0.3,2.1,0.3,3.2c0,1-0.2,1.9-0.2,2.9
		c-0.2,1.1-0.3,2.1-0.6,3.2c-0.3,1.1-0.6,2.1-1,3.2C1257.7,244.4,1257.2,245.2,1256.6,246.2z M1250.6,235.2c0,1,0.2,1.9,0.2,2.7
		c0.2,1,0.3,1.9,0.6,2.9c0.3,1,0.6,1.8,1.3,2.6c0.5,0.8,1.1,1.5,1.9,1.9c0.5-1,1-2.1,1.3-3.2c0.3-1.1,0.6-2.1,1-3.1
		c0.3-1,0.5-1.9,0.5-2.7c0.2-0.8,0.2-1.5,0.2-2.3c0-0.8,0-1.6-0.2-2.4c-0.2-0.6-0.3-1.3-0.6-1.9c-0.2-0.5-0.5-1-1-1.3
		c-0.3-0.3-0.8-0.5-1.3-0.5c-0.6,0-1.1,0.2-1.6,0.6c-0.5,0.5-1,1-1.3,1.6c-0.3,0.8-0.6,1.5-0.8,2.3
		C1250.8,233.4,1250.6,234.2,1250.6,235.2L1250.6,235.2z"/>
	<path class="st0" d="M1278.2,224.4c-0.3,0.3-0.5,0.6-0.6,1.1c-0.2,0.5-0.5,1-0.5,1.5c-0.2,0.6-0.3,1.3-0.3,1.9
		c0,0.8,0.2,1.8,0.5,2.6c0.3,1,0.6,2.3,1,3.6c0.3,1.3,0.6,2.9,1,4.5c0.3,1.6,0.5,3.2,0.5,5c0,2.3-0.3,4.5-1,6.6
		c-0.6,1.8-1.5,3.4-2.7,4.8c2.6-1.5,4.8-3.2,6.8-5.3c2.6-2.7,4.7-5.7,6.6-8.7l1.5,1.3c-1.3,2.1-2.7,4.2-4.4,6.1s-3.4,3.9-5.3,5.5
		c-1.9,1.6-3.9,2.9-6.1,4c-2.3,1-4.5,1.5-6.9,1.5c-1.9,0-3.9-0.5-5.7-1.6c-1.6-1.1-2.6-2.7-2.7-4.7l1.6-0.3c0,0.3,0.2,0.6,0.3,0.8
		c0.2,0.5,0.5,0.8,0.8,1.1c0.5,0.5,0.8,0.8,1.5,1c0.6,0.3,1.5,0.5,2.3,0.5c1.1,0,2.3-0.3,3.1-0.8c1-0.5,1.8-1.3,2.4-2.1
		c0.6-1,1.3-1.9,1.8-3.1c0.5-1.1,0.8-2.3,1.1-3.6c0.3-1.1,0.5-2.4,0.6-3.6c0.2-1.1,0.2-2.3,0.2-3.1c0-0.8,0-1.9-0.2-3.1
		c-0.2-1.1-0.2-2.3-0.3-3.2c-0.2-1-0.2-1.9-0.3-2.7c-0.2-0.8-0.2-1.3-0.2-1.5v-0.2c-0.5,0.6-1,1.1-1.3,1.8l-1.6,2.6l-1.8,2.9
		c-0.6,1-1.1,1.8-1.6,2.6l-1.1,1.9c-0.2,0.3-0.3,0.5-0.5,0.8l-1.6-1.3c0,0,0.3-0.6,1.1-1.9c0.8-1.3,1.6-2.7,2.7-4.7s2.4-4,4-6.3
		c1.6-2.3,2.9-4.5,4.5-6.8l1.8,1.5C1278.7,223.9,1278.5,224,1278.2,224.4z"/>
	<polygon class="st0" points="32.4,285.8 0.1,285.8 0.1,275.6 22.4,275.6 22.4,176.9 71.5,148.4 76.5,157.2 32.4,182.7 	"/>
	<polygon class="st0" points="79,285.8 53.7,285.8 53.7,275.6 68.9,275.6 68.9,123.5 125,83.5 130.8,91.7 79,128.7 	"/>
	<polygon class="st0" points="125,83.5 68.9,123.5 68.9,149.9 22.4,176.9 22.4,275.6 0.1,275.6 0.1,285.8 32.4,285.8 32.4,182.7 
		68.9,161.5 68.9,275.6 53.7,275.6 53.7,285.8 79,285.8 79,128.7 130.8,91.7 	"/>
	<polygon class="st0" points="171.9,83.5 228.1,123.5 228.1,149.9 274.6,176.9 274.6,275.6 296.9,275.6 296.9,285.8 264.5,285.8 
		264.5,182.7 228.1,161.5 228.1,275.6 243.3,275.6 243.3,285.8 218.1,285.8 218.1,128.7 166,91.7 	"/>
	<path class="st0" d="M190.4,285.8h-36.7v-81.3l-7.3-6.5l-7.1,6.5v81.3h-35.5V174l42.7-28l44,28V285.8z M163.8,275.6h16.5v-96.3
		L146.5,158l-32.6,21.3v96.3h15.5V200l17.1-15.5l17.5,15.5L163.8,275.6z"/>
	<path class="st0" d="M159.7,125.6h-24.2V65.9h-27.1V41.8h27.1V15.4h24.2v26.3h26.2v24.1h-26.2V125.6z M142.3,119h10.8V59.2h26.2
		V48.4h-26.2V22.2h-10.8v26.2h-27.1v10.7h27.1V119z"/>
</g>
</svg>
