<svg id="Capa_1" data-name="Capa 1" xmlns="http://www.w3.org/2000/svg" viewBox="0 0 966.82 593.26"><defs><style>.cls-1{fill:#005c2a;}</style></defs><path class="cls-1" d="M178.24,468.52s16.23-53,59.52-90.57,47.84-61.51,47.84-107.08c-20.5,58.1-51.26,77.47-83.16,78.61,39.88-16,45.57-74.05,45.57-90,0,0-12.53,22.5-44.14,34.46S143.21,299.07,132.1,270s15.38-49.56,15.38-49.56c-13.67,15.38-7.69,34.18,9.4,43.58s48.7-5.13,52.11-35.89S180.8,172.9,180.8,172.9C150,135.31,159.15,79.49,159.15,79.49c-19.36,42.15-2,100.25-2,100.25-27.34-30.76-35.31-61.52-35.31-61.52-18.8-63.22,29.05-94,29.05-94C103.05,39.62,58.05,107.4,50.79,140c-.68,3-1.2,6.1-1.7,9.17-4.78-.74-11.29-2.86-19.8-7.87,0,0,6,12.29,18.81,13.92-.53,3.06-1.11,6.12-1.87,9.14-1.92,7.54-4.58,17-9.82,22.79-6,6.61-10.66,11.79-17.17,18.2-4.59,4.53-9.7,8.71-13,14.27s-4.32,13-.51,18.25c4.32,5.91,13.81,7.73,15.63,14.81,2.16,8.45-8.85,15.88-7.25,24.45,1.23,6.62,9.34,10,11.17,16.49a9.43,9.43,0,0,0-7.93,14.63c3.58,5.41,12.45,7,13.37,13.44.58,4.05-2.53,7.55-4.49,11.15-5.71,10.48-1.29,24.44,7.86,32.11s21.79,9.95,33.71,9.27c15.61-.91,29.64-1,45.27-1.66,8.19-.35,16.86-.59,24,3.37a31.49,31.49,0,0,1,9.68,8.9,30.62,30.62,0,0,0,5,5.25c4.59,3.8,13.45,15.3,6.5,44.84-9.11,38.74-81.45,101.39-81.45,158.35,0,0,43.83-64.15,98-100.25,61.51-41,111.07-43.29,145.24-50.12C255.7,422.38,178.24,468.52,178.24,468.52Z"/><path class="cls-1" d="M322.06,227.58c13.67,91.14-41,164-41,164s29.62-19.36,46.7-47.84S341.42,272,322.06,227.58Z"/><path class="cls-1" d="M226.37,176.32c-2.28-6.83-38.74-53.54-21.65-132.14C204.72,44.18,146.62,115.8,226.37,176.32Z"/><path class="cls-1" d="M461.9,481.83l6.75-5.53V410.58l-6.75-5.69v-1h32.43v1l-10.76,5.69v67.14h19.34l15.53-10.66h.91l-1.93,15.79H461.9Z"/><path class="cls-1" d="M523.41,481.83l6.75-5.68V410.58l-6.75-5.69v-1H578l-5.83,15.63h-1L563,409H545.08v33.19l25.23-3.55-3.25,8.68h-22v30.4h17.77l15.43-10.66h1l-1.93,15.79h-54Z"/><path class="cls-1" d="M625.83,482.69a40.13,40.13,0,0,1-21-5.48,37.83,37.83,0,0,1-14.18-14.87,45.09,45.09,0,0,1,0-41.39,37.88,37.88,0,0,1,14.18-14.84,43.15,43.15,0,0,1,42-.05A37.79,37.79,0,0,1,661,420.85a45.21,45.21,0,0,1,0,41.49,37.83,37.83,0,0,1-14.18,14.87A40.05,40.05,0,0,1,625.83,482.69Zm14.36-8a28.16,28.16,0,0,0,8.91-11.2A35.18,35.18,0,0,0,652,449.1a44.29,44.29,0,0,0-4.59-19.39,42.23,42.23,0,0,0-12.56-15.58,28.34,28.34,0,0,0-17.51-6,32,32,0,0,0-6.15.61,26.86,26.86,0,0,0-9.43,10.86,33.06,33.06,0,0,0-3.1,14.36,43.59,43.59,0,0,0,4.74,19.46,42.62,42.62,0,0,0,13,15.71,29.91,29.91,0,0,0,18.19,6.09A31.22,31.22,0,0,0,640.19,474.68Z"/><path class="cls-1" d="M241.22,11.18S343.79-23.15,411,125.46s150.82,200.12,264,176.61c93.56-28.38,71.1-94.62,71.1-94.62s-71.85,111.29-170.36,73.42S447.27,145.77,407.93,88.73C362,22.2,304.75-21.74,241.22,11.18Z"/><path class="cls-1" d="M373,556.42H354l-3.95,9h-5.28L361,529.51H366l16.3,35.88H377Zm-1.79-4.1-7.74-17.58-7.74,17.58Z"/><path class="cls-1" d="M401.39,563.9a13.1,13.1,0,0,1-5.1-4.94,14.74,14.74,0,0,1,0-14.3,12.84,12.84,0,0,1,5.1-4.92,15.22,15.22,0,0,1,7.4-1.77,14.24,14.24,0,0,1,6.59,1.48,10.64,10.64,0,0,1,4.48,4.31l-3.74,2.41a8.28,8.28,0,0,0-3.18-2.92,9,9,0,0,0-4.2-1,9.77,9.77,0,0,0-4.79,1.18,8.41,8.41,0,0,0-3.33,3.36,10.09,10.09,0,0,0-1.21,5,10.23,10.23,0,0,0,1.21,5.05,8.32,8.32,0,0,0,3.33,3.35,9.66,9.66,0,0,0,4.79,1.18,9,9,0,0,0,4.2-1,8.36,8.36,0,0,0,3.18-2.92l3.74,2.35a10.77,10.77,0,0,1-4.48,4.34,14.13,14.13,0,0,1-6.59,1.51A15,15,0,0,1,401.39,563.9Z"/><path class="cls-1" d="M440.42,563.9a12.9,12.9,0,0,1-5.05-4.94,15,15,0,0,1,0-14.3,12.65,12.65,0,0,1,5.05-4.92,15.79,15.79,0,0,1,14.53,0,12.77,12.77,0,0,1,5,4.92,15,15,0,0,1,0,14.3,13,13,0,0,1-5,4.94,15.56,15.56,0,0,1-14.53,0Zm12-3.71a8.56,8.56,0,0,0,3.25-3.39,11.16,11.16,0,0,0,0-10,8.41,8.41,0,0,0-3.25-3.36,9.91,9.91,0,0,0-9.38,0,8.49,8.49,0,0,0-3.28,3.36,10.91,10.91,0,0,0,0,10,8.63,8.63,0,0,0,3.28,3.39,9.77,9.77,0,0,0,9.38,0Z"/><path class="cls-1" d="M501.59,541c2,2,3.05,4.93,3.05,8.79v15.63h-4.92V550.32q0-3.95-1.9-6a7.12,7.12,0,0,0-5.43-2,8.43,8.43,0,0,0-6.3,2.33q-2.31,2.32-2.31,6.69v14h-4.92V538.22h4.72v4.1a9.63,9.63,0,0,1,4-3.23,14.08,14.08,0,0,1,5.77-1.12A11.2,11.2,0,0,1,501.59,541Z"/><path class="cls-1" d="M549.8,527.36v38h-4.72v-4.31a10.65,10.65,0,0,1-4.15,3.44,13,13,0,0,1-5.54,1.18,14.2,14.2,0,0,1-7.07-1.75,12.43,12.43,0,0,1-4.89-4.89,14.56,14.56,0,0,1-1.77-7.25,14.4,14.4,0,0,1,1.77-7.23,12.51,12.51,0,0,1,4.89-4.87,14.3,14.3,0,0,1,7.07-1.74,13,13,0,0,1,5.39,1.1,10.49,10.49,0,0,1,4.1,3.25v-15Zm-9.33,32.83a8.5,8.5,0,0,0,3.28-3.39,11.16,11.16,0,0,0,0-10,8.36,8.36,0,0,0-3.28-3.36,9.87,9.87,0,0,0-9.36,0,8.62,8.62,0,0,0-3.28,3.36,11,11,0,0,0,0,10,8.77,8.77,0,0,0,3.28,3.39,9.73,9.73,0,0,0,9.36,0Z"/><path class="cls-1" d="M569.45,532.07a3,3,0,0,1-.94-2.25,3.1,3.1,0,0,1,.94-2.28,3.26,3.26,0,0,1,2.39-.95,3.32,3.32,0,0,1,2.38.9,2.93,2.93,0,0,1,.95,2.22,3.2,3.2,0,0,1-.95,2.34,3.24,3.24,0,0,1-2.38,1A3.29,3.29,0,0,1,569.45,532.07Zm-.07,6.15h4.92v27.17h-4.92Z"/><path class="cls-1" d="M598.36,563.9a13.1,13.1,0,0,1-5.1-4.94,14.81,14.81,0,0,1,0-14.3,12.84,12.84,0,0,1,5.1-4.92,15.26,15.26,0,0,1,7.41-1.77,14.2,14.2,0,0,1,6.58,1.48,10.61,10.61,0,0,1,4.49,4.31l-3.74,2.41a8.43,8.43,0,0,0-3.18-2.92,9.06,9.06,0,0,0-4.2-1,9.81,9.81,0,0,0-4.8,1.18,8.54,8.54,0,0,0-3.33,3.36,10.19,10.19,0,0,0-1.2,5,10.33,10.33,0,0,0,1.2,5.05,8.45,8.45,0,0,0,3.33,3.35,9.7,9.7,0,0,0,4.8,1.18,9,9,0,0,0,4.2-1,8.51,8.51,0,0,0,3.18-2.92l3.74,2.35a10.74,10.74,0,0,1-4.49,4.34,14.09,14.09,0,0,1-6.58,1.51A15.05,15.05,0,0,1,598.36,563.9Z"/><path class="cls-1" d="M633.52,532.07a3,3,0,0,1-.94-2.25,3.1,3.1,0,0,1,.94-2.28,3.26,3.26,0,0,1,2.39-.95,3.32,3.32,0,0,1,2.38.9,2.93,2.93,0,0,1,1,2.22,3.2,3.2,0,0,1-1,2.34,3.24,3.24,0,0,1-2.38,1A3.29,3.29,0,0,1,633.52,532.07Zm-.07,6.15h4.92v27.17h-4.92Z"/><path class="cls-1" d="M662.35,563.9a12.94,12.94,0,0,1-5-4.94,15,15,0,0,1,0-14.3,12.69,12.69,0,0,1,5-4.92,15.82,15.82,0,0,1,14.54,0,12.77,12.77,0,0,1,5,4.92,15,15,0,0,1,0,14.3,13,13,0,0,1-5,4.94,15.58,15.58,0,0,1-14.54,0Zm12-3.71a8.51,8.51,0,0,0,3.26-3.39,11.16,11.16,0,0,0,0-10,8.37,8.37,0,0,0-3.26-3.36,9.91,9.91,0,0,0-9.38,0,8.55,8.55,0,0,0-3.28,3.36,11,11,0,0,0,0,10,8.7,8.7,0,0,0,3.28,3.39,9.77,9.77,0,0,0,9.38,0Z"/><path class="cls-1" d="M723.53,541c2,2,3.05,4.93,3.05,8.79v15.63h-4.92V550.32q0-3.95-1.9-6a7.12,7.12,0,0,0-5.43-2,8.45,8.45,0,0,0-6.31,2.33q-2.29,2.32-2.3,6.69v14H700.8V538.22h4.71v4.1a9.6,9.6,0,0,1,4-3.23A14.06,14.06,0,0,1,715.3,538,11.23,11.23,0,0,1,723.53,541Z"/><path class="cls-1" d="M764.48,540.74q3,2.76,3,8.25v16.4h-4.66V561.8a7.77,7.77,0,0,1-3.51,2.9,13.53,13.53,0,0,1-5.41,1,11.34,11.34,0,0,1-7.31-2.21,7.57,7.57,0,0,1-.12-11.56q2.61-2.17,8.3-2.17h7.79v-1a6.24,6.24,0,0,0-1.85-4.87,7.8,7.8,0,0,0-5.43-1.69,14.34,14.34,0,0,0-4.71.8,12.12,12.12,0,0,0-3.9,2.12l-2-3.69a15.1,15.1,0,0,1,5-2.59,21.33,21.33,0,0,1,6.21-.89Q761.48,538,764.48,540.74Zm-4.89,19.91a7.23,7.23,0,0,0,3-3.56v-3.8H755q-6.26,0-6.25,4.21a3.82,3.82,0,0,0,1.59,3.23,7.31,7.31,0,0,0,4.41,1.17A9.12,9.12,0,0,0,759.59,560.65Z"/><path class="cls-1" d="M812.64,527.36v38h-4.72v-4.31a10.65,10.65,0,0,1-4.15,3.44,13,13,0,0,1-5.54,1.18,14.2,14.2,0,0,1-7.07-1.75,12.43,12.43,0,0,1-4.89-4.89,14.56,14.56,0,0,1-1.77-7.25,14.4,14.4,0,0,1,1.77-7.23,12.51,12.51,0,0,1,4.89-4.87,14.3,14.3,0,0,1,7.07-1.74,13,13,0,0,1,5.39,1.1,10.49,10.49,0,0,1,4.1,3.25v-15Zm-9.33,32.83a8.5,8.5,0,0,0,3.28-3.39,11.16,11.16,0,0,0,0-10,8.36,8.36,0,0,0-3.28-3.36,9.87,9.87,0,0,0-9.36,0,8.62,8.62,0,0,0-3.28,3.36,11,11,0,0,0,0,10,8.77,8.77,0,0,0,3.28,3.39,9.73,9.73,0,0,0,9.36,0Z"/><path class="cls-1" d="M836.57,563.9a12.94,12.94,0,0,1-5-4.94,14.88,14.88,0,0,1,0-14.3,12.69,12.69,0,0,1,5-4.92,15.82,15.82,0,0,1,14.54,0,12.83,12.83,0,0,1,5,4.92,15,15,0,0,1,0,14.3,13.09,13.09,0,0,1-5,4.94,15.58,15.58,0,0,1-14.54,0Zm12-3.71a8.51,8.51,0,0,0,3.26-3.39,11.16,11.16,0,0,0,0-10,8.37,8.37,0,0,0-3.26-3.36,9.91,9.91,0,0,0-9.38,0,8.55,8.55,0,0,0-3.28,3.36,11,11,0,0,0,0,10,8.7,8.7,0,0,0,3.28,3.39,9.77,9.77,0,0,0,9.38,0Z"/><path class="cls-1" d="M883.52,539.2a13.79,13.79,0,0,1,6.1-1.23v4.76a10.59,10.59,0,0,0-1.12-.05,8.27,8.27,0,0,0-6.28,2.39q-2.28,2.38-2.28,6.79v13.53H875V538.22h4.71v4.57A8.35,8.35,0,0,1,883.52,539.2Z"/><path class="cls-1" d="M930.12,553.45h-22a8.46,8.46,0,0,0,3.15,5.76,10.23,10.23,0,0,0,6.69,2.18,10.07,10.07,0,0,0,7.84-3.28l2.72,3.18a11.93,11.93,0,0,1-4.59,3.28,17.27,17.27,0,0,1-13.76-.64A12.6,12.6,0,0,1,905,559a14.11,14.11,0,0,1-1.82-7.17,14.52,14.52,0,0,1,1.76-7.13,12.64,12.64,0,0,1,4.87-4.94,13.87,13.87,0,0,1,7-1.77,13.61,13.61,0,0,1,7,1.77,12.31,12.31,0,0,1,4.76,4.94,15,15,0,0,1,1.72,7.28C930.22,552.34,930.18,552.83,930.12,553.45Zm-19.25-9.18a8.68,8.68,0,0,0-2.79,5.64H925.5a8.7,8.7,0,0,0-2.79-5.61,9.18,9.18,0,0,0-11.84,0Z"/><path class="cls-1" d="M948.67,564.8a14.24,14.24,0,0,1-4.82-2.28l2-3.9a14.56,14.56,0,0,0,4.36,2,17.72,17.72,0,0,0,5.18.77c4.3,0,6.46-1.23,6.46-3.69a2.4,2.4,0,0,0-.87-2,5.83,5.83,0,0,0-2.18-1c-.87-.22-2.11-.47-3.72-.74a35.6,35.6,0,0,1-5.36-1.18,8.21,8.21,0,0,1-3.56-2.25,6.29,6.29,0,0,1-1.48-4.46,7,7,0,0,1,3.07-5.92,13.74,13.74,0,0,1,8.25-2.23,23.06,23.06,0,0,1,5.44.66,14.91,14.91,0,0,1,4.46,1.8l-2.11,3.89a14.15,14.15,0,0,0-7.84-2.15,9,9,0,0,0-4.76,1,3.07,3.07,0,0,0-1.65,2.71,2.57,2.57,0,0,0,.93,2.1,5.68,5.68,0,0,0,2.28,1.13c.9.24,2.18.51,3.82.82a41.73,41.73,0,0,1,5.3,1.21,7.9,7.9,0,0,1,3.46,2.17,6.07,6.07,0,0,1,1.44,4.31,6.78,6.78,0,0,1-3.16,5.87q-3.15,2.18-8.58,2.18A22.72,22.72,0,0,1,948.67,564.8Z"/><path class="cls-1" d="M48.1,436.21A14.81,14.81,0,1,1,33.29,451,14.82,14.82,0,0,1,48.1,436.21Z"/><path class="cls-1" d="M85,436.21A14.81,14.81,0,1,1,70.2,451,14.82,14.82,0,0,1,85,436.21Z"/><circle class="cls-1" cx="66.56" cy="469.48" r="14.81"/><circle class="cls-1" cx="66.56" cy="432.57" r="14.81"/><path class="cls-1" d="M66.08,436.21A14.81,14.81,0,1,1,51.27,451,14.82,14.82,0,0,1,66.08,436.21Z"/><path class="cls-1" d="M458.35,295l7,17.48a21.59,21.59,0,0,0,12.08,12.09l17.49,7-17.49,7a21.54,21.54,0,0,0-12.08,12.08l-7,17.49-7-17.49a21.54,21.54,0,0,0-12.08-12.08l-17.49-7,17.49-7a21.59,21.59,0,0,0,12.08-12.09Z"/><path class="cls-1" d="M302.26,92.77l7,17.48a21.59,21.59,0,0,0,12.08,12.09l17.49,6.95-17.49,7a21.57,21.57,0,0,0-12.08,12.08l-7,17.49-6.95-17.49a21.62,21.62,0,0,0-12.09-12.08l-17.48-7,17.48-6.95a21.63,21.63,0,0,0,12.09-12.09Z"/></svg>