<?xml version="1.0" encoding="utf-8"?>
<!-- Generator: Adobe Illustrator 25.4.1, SVG Export Plug-In . SVG Version: 6.00 Build 0)  -->
<svg version="1.1" id="Capa_1" xmlns="http://www.w3.org/2000/svg" xmlns:xlink="http://www.w3.org/1999/xlink" x="0px" y="0px"
	 viewBox="0 0 968.2 302.5" style="enable-background:new 0 0 968.2 302.5;" xml:space="preserve">
<style type="text/css">
	.st0{fill:#F29F05;}
	.st1{fill:#FFFFFF;stroke:#F29F05;stroke-width:2.5;stroke-miterlimit:10;}
	.st2{fill:#FFFFFF;stroke:#F29F05;stroke-linecap:round;stroke-linejoin:round;}
	.st3{fill:#FFFFFF;stroke:#F29F05;stroke-miterlimit:10;}
</style>
<path class="st0" d="M16.5,115.1c-6.2-2.5-11.7-6.6-15.9-11.8l16.7-19.7c5.8,7.5,12,11.3,18.7,11.3c4.4,0,7.8-1.3,10.1-4
	c2.3-2.7,3.5-6.6,3.5-11.7V32.7H12.1V9.1h67.6v68.2c0,14-3.5,24.5-10.6,31.5S51.7,119.2,38,119.2C30.7,119.3,23.3,117.9,16.5,115.1z
	"/>
<path class="st0" d="M132.5,112.9c-14.3-7.1-23.3-21.8-23-37.8c-0.2-15.9,8.7-30.5,22.9-37.6c7.5-3.7,15.9-5.6,24.3-5.5
	c8.4-0.1,16.8,1.7,24.4,5.5c6.9,3.4,12.8,8.7,16.8,15.3c4.1,6.7,6.1,14.4,6,22.3c0.1,7.9-1.9,15.6-6,22.4c-4,6.6-9.9,12-16.8,15.4
	c-7.6,3.8-15.9,5.7-24.4,5.6C148.3,118.6,140,116.7,132.5,112.9z M169.3,89.8c3.3-3.5,4.9-8.4,4.9-14.7c0-6.2-1.6-11-4.9-14.5
	c-7-7-18.3-7-25.3,0c0,0,0,0,0,0c-3.3,3.5-5,8.3-4.9,14.5c0,6.3,1.6,11.2,4.9,14.7c6.8,7,18,7.1,25,0.3
	C169.1,90,169.2,89.9,169.3,89.8z"/>
<path class="st0" d="M319,33.5l-36.1,87c-4.2,10.3-9.4,17.5-15.4,21.7s-13.5,6.3-22.2,6.2c-4.5,0-9-0.7-13.3-2.1
	c-4-1.1-7.7-3-10.9-5.5l10.2-20.5c1.7,1.6,3.7,2.8,5.9,3.6c2.2,0.9,4.6,1.3,7,1.3c2.4,0.1,4.8-0.5,6.9-1.7c2-1.3,3.6-3.2,4.6-5.4
	l-35.8-84.7h30.1l20.5,51.1L291,33.5H319z"/>
<path class="st0" d="M424.9,82.7h-60.8c1.1,4.1,3.6,7.6,7.2,9.9c3.5,2.3,8,3.5,13.3,3.5c3.5,0.1,7.1-0.5,10.4-1.7
	c3.3-1.3,6.3-3.2,8.9-5.6l15.4,16c-8.1,9.1-20,13.6-35.6,13.6c-9.8,0-18.4-1.9-25.8-5.6c-14.5-6.9-23.6-21.7-23.3-37.8
	c-0.3-15.7,8.4-30.3,22.4-37.5c14.5-7.3,31.6-7.4,46.3-0.4c6.7,3.4,12.3,8.6,16.1,15c4,6.5,5.9,14.3,5.9,23.2
	C425.4,75.6,425.2,78,424.9,82.7z M369.5,56.8c-3.1,2.7-5.2,6.4-5.8,10.5h34.2c-0.6-4.1-2.7-7.8-5.8-10.5
	C385.5,51.6,376.2,51.6,369.5,56.8L369.5,56.8z"/>
<path class="st0" d="M494.3,34.9c5.2-2,10.8-3,16.4-2.8v26.4c-2.2-0.3-4.4-0.4-6.6-0.5c-6.3,0-11.2,1.7-14.7,5.1
	c-3.5,3.4-5.3,8.6-5.3,15.6v38.4h-29.3V33.5h27.9v10C485.7,39.6,489.7,36.7,494.3,34.9z"/>
<path class="st0" d="M558.7,0H588l-29,23.5h-21L558.7,0z M538.5,33.5h29.3v83.6h-29.3V33.5z"/>
<path class="st0" d="M669.9,41.6c7.3,6.3,11,16,11,29.1v46.4h-27.3v-10.8c-4.2,8.1-12.4,12.2-24.7,12.2c-5.8,0.1-11.5-1-16.8-3.4
	c-4.4-2-8.1-5.1-10.7-9.2c-2.4-4-3.7-8.5-3.6-13.2c0-7.9,3-14.1,9.1-18.4s15.4-6.6,28.1-6.6h16.7c-0.5-8.9-6.4-13.3-17.7-13.3
	c-4.1,0-8.2,0.7-12.2,1.9c-3.8,1.1-7.4,2.9-10.5,5.3l-9.9-19.9c5.2-3.3,10.9-5.7,16.9-7.2c6.5-1.7,13.3-2.5,20-2.5
	C652,32.1,662.6,35.2,669.9,41.6z M646,97.5c2.6-1.7,4.6-4.3,5.6-7.2V83h-12.7c-8.5,0-12.8,2.8-12.8,8.5c-0.1,2.4,1,4.7,2.9,6.2
	c2,1.6,4.6,2.3,8,2.3C640.2,100,643.3,99.2,646,97.5z"/>
<path class="st0" d="M75.1,145.7h30.5v83.8h51.5v24.2H75.1V145.7z"/>
<path class="st0" d="M268.2,219.3h-60.8c1.1,4.1,3.6,7.6,7.2,9.9c3.5,2.3,8,3.5,13.4,3.5c3.5,0.1,7.1-0.5,10.4-1.7
	c3.3-1.3,6.3-3.2,8.9-5.6l15.4,16c-8.1,9.1-20,13.6-35.6,13.6c-9.8,0-18.4-1.9-25.8-5.6c-14.5-6.9-23.6-21.7-23.2-37.8
	c-0.3-15.7,8.4-30.3,22.4-37.5c14.5-7.3,31.6-7.4,46.3-0.4c6.7,3.4,12.3,8.6,16.1,15c4,6.5,5.9,14.3,5.9,23.2
	C268.7,212.3,268.5,214.7,268.2,219.3z M212.7,193.4c-3.1,2.7-5.1,6.4-5.7,10.5h34.2c-0.6-4.1-2.7-7.8-5.8-10.5
	C228.7,188.3,219.4,188.3,212.7,193.4L212.7,193.4z"/>
<path class="st0" d="M307.7,252.7c-6.8-1.6-12.2-3.7-16.4-6.2l8.8-20c4.2,2.5,8.8,4.4,13.6,5.6c5.1,1.4,10.3,2.1,15.6,2.1
	c4.7,0,8.1-0.5,10.1-1.5s3-2.4,3-4.2s-1.2-3.2-3.6-3.9c-3.8-1-7.6-1.8-11.5-2.2c-5.7-0.6-11.4-1.7-17-3.2c-4.6-1.3-8.8-3.9-12.1-7.4
	c-3.4-3.6-5.1-8.6-5.1-15.1c-0.1-5.2,1.6-10.2,4.8-14.3c3.2-4.2,7.9-7.5,14-9.9c6.1-2.4,13.5-3.6,22-3.6c6.1,0,12.1,0.6,18,1.9
	c5.2,1,10.3,2.7,15,5.2l-8.9,19.9c-7.4-4.1-15.6-6.2-24.1-6.2c-4.6,0-8,0.5-10.2,1.6s-3.2,2.5-3.2,4.2c0,1.9,1.2,3.3,3.5,4.1
	c3.8,1.1,7.8,1.9,11.7,2.4c5.8,0.8,11.5,2,17.1,3.5c4.5,1.3,8.6,3.9,11.8,7.3c3.3,3.6,5,8.5,5,14.9c0,5.1-1.6,10.1-4.8,14.1
	c-3.2,4.2-7.9,7.4-14.1,9.8c-6.2,2.4-13.7,3.6-22.4,3.5C321.4,255.1,314.5,254.3,307.7,252.7z"/>
<path class="st0" d="M398.1,139.2h29.3v114.4h-29.3V139.2z"/>
<path class="st0" d="M463.8,156.4c-6.1-5.6-6.6-15.1-1-21.2c0.3-0.4,0.7-0.7,1-1c3.3-3,7.6-4.5,13-4.5c5.4,0,9.7,1.4,13,4.2
	c3.2,2.7,5,6.7,4.9,10.9c0.1,4.4-1.7,8.6-4.9,11.5c-3.3,3-7.6,4.6-13,4.6C471.4,160.8,467.1,159.3,463.8,156.4z M462.1,170.1h29.3
	v83.6h-29.3V170.1z"/>
<path class="st0" d="M611.1,219.3h-60.8c1.1,4.1,3.6,7.6,7.2,9.9c3.5,2.3,8,3.5,13.3,3.5c3.5,0.1,7.1-0.5,10.4-1.7
	c3.3-1.3,6.3-3.2,8.9-5.6l15.4,16c-8.1,9-20,13.6-35.6,13.6c-9.8,0-18.4-1.8-25.8-5.6c-14.5-6.9-23.6-21.7-23.3-37.8
	c-0.3-15.7,8.4-30.3,22.4-37.5c14.5-7.3,31.6-7.4,46.3-0.4c6.7,3.4,12.3,8.6,16.1,15c4,6.5,5.9,14.3,5.9,23.2
	C611.6,212.3,611.4,214.7,611.1,219.3z M555.6,193.4c-3.1,2.7-5.2,6.4-5.8,10.5h34.2c-0.6-4.1-2.7-7.8-5.8-10.5
	C571.6,188.3,562.3,188.3,555.6,193.4z"/>
<path class="st0" d="M93.6,288.1c0.7,0.9,1,2.1,1,3.2c0.1,1.6-0.7,3.1-2,4c-1.7,1-3.7,1.5-5.7,1.4h-9.5v-20h9
	c1.9-0.1,3.7,0.4,5.3,1.4c1.2,0.9,1.9,2.3,1.9,3.8c0,1-0.2,1.9-0.7,2.7c-0.5,0.8-1.2,1.4-2,1.8C91.9,286.6,92.9,287.2,93.6,288.1z
	 M80.2,279v6.4h5.9c1.2,0.1,2.4-0.2,3.4-0.8c1.3-1,1.6-2.9,0.6-4.2c-0.2-0.2-0.4-0.4-0.6-0.6c-1-0.6-2.2-0.9-3.4-0.8H80.2z
	 M90.4,293.6c0.8-0.6,1.3-1.5,1.2-2.5c0-2.2-1.6-3.4-4.9-3.4h-6.6v6.7h6.6C88,294.5,89.3,294.2,90.4,293.6L90.4,293.6z"/>
<path class="st0" d="M105.7,282.1c1.1-0.5,2.2-0.7,3.4-0.7v2.7c-0.2,0-0.4,0-0.6,0c-1.3-0.1-2.6,0.4-3.5,1.3c-0.9,1-1.4,2.4-1.3,3.8
	v7.6h-2.8v-15.2h2.6v2.5C104,283.2,104.7,282.5,105.7,282.1z"/>
<path class="st0" d="M114.8,278.1c-0.3-0.3-0.5-0.8-0.5-1.3c0-0.5,0.2-0.9,0.5-1.3c0.4-0.4,0.8-0.5,1.3-0.5c0.5,0,1,0.2,1.3,0.5
	c0.3,0.3,0.5,0.8,0.5,1.2c0,0.5-0.2,1-0.5,1.3C116.7,278.8,115.5,278.8,114.8,278.1L114.8,278.1z M114.8,281.6h2.8v15.2h-2.8V281.6z
	"/>
<path class="st0" d="M125,275.5h2.8v21.2H125V275.5z"/>
<path class="st0" d="M135.3,275.5h2.8v21.2h-2.8V275.5z"/>
<path class="st0" d="M155.9,283c1.2,1.2,1.8,2.9,1.7,4.6v9.2H155v-2c-0.5,0.7-1.2,1.3-2,1.6c-1,0.4-2,0.6-3,0.6
	c-1.5,0.1-2.9-0.4-4.1-1.2c-1-0.8-1.6-2-1.5-3.2c0-1.2,0.5-2.4,1.5-3.2c1.4-0.9,3-1.3,4.6-1.2h4.4v-0.5c0.1-1-0.3-2-1-2.7
	c-0.8-0.7-1.9-1-3-0.9c-0.9,0-1.8,0.1-2.6,0.4c-0.8,0.3-1.5,0.7-2.2,1.2l-1.1-2.1c0.8-0.7,1.8-1.2,2.8-1.5c1.1-0.3,2.3-0.5,3.5-0.5
	C152.9,281.3,154.6,281.9,155.9,283z M153.2,294.1c0.8-0.5,1.3-1.2,1.7-2V290h-4.2c-2.3,0-3.5,0.8-3.5,2.4c0,0.7,0.3,1.4,0.9,1.8
	c0.7,0.5,1.6,0.7,2.5,0.7C151.4,294.8,152.4,294.6,153.2,294.1L153.2,294.1z"/>
<path class="st0" d="M177.7,283.1c1.2,1.3,1.8,3.1,1.7,4.9v8.7h-2.8v-8.4c0.1-1.2-0.3-2.4-1.1-3.3c-0.8-0.8-1.9-1.2-3-1.1
	c-1.3-0.1-2.6,0.4-3.5,1.3c-0.9,1-1.4,2.4-1.3,3.7v7.8H165v-15.2h2.6v2.3c0.6-0.8,1.3-1.4,2.2-1.8c1-0.4,2.1-0.6,3.2-0.6
	C174.8,281.3,176.5,281.9,177.7,283.1z"/>
<path class="st0" d="M201.2,275.5v21.2h-2.6v-2.4c-0.6,0.8-1.4,1.5-2.3,1.9c-1,0.4-2,0.7-3.1,0.7c-1.4,0-2.7-0.3-3.9-1
	c-1.2-0.6-2.1-1.6-2.7-2.7c-1.3-2.5-1.3-5.6,0-8.1c0.6-1.1,1.6-2.1,2.7-2.7c1.2-0.7,2.6-1,3.9-1c1,0,2.1,0.2,3,0.6
	c0.9,0.4,1.7,1,2.3,1.8v-8.4L201.2,275.5z M196,293.8c0.8-0.4,1.4-1.1,1.8-1.9c0.5-0.9,0.7-1.8,0.7-2.8c0-1-0.2-1.9-0.7-2.8
	c-0.4-0.8-1.1-1.4-1.8-1.9c-1.6-0.9-3.6-0.9-5.2,0c-0.8,0.4-1.4,1.1-1.8,1.9c-0.5,0.9-0.7,1.8-0.7,2.8c0,1,0.2,1.9,0.7,2.8
	c0.4,0.8,1.1,1.4,1.8,1.9C192.4,294.7,194.4,294.7,196,293.8z"/>
<path class="st0" d="M211.1,295.9c-1.2-0.6-2.2-1.6-2.8-2.8c-1.3-2.5-1.3-5.5,0-8c0.7-1.2,1.6-2.1,2.8-2.8c2.5-1.3,5.6-1.3,8.1,0
	c1.2,0.6,2.1,1.6,2.8,2.8c1.4,2.5,1.4,5.5,0,8c-0.7,1.2-1.6,2.1-2.8,2.8C216.7,297.3,213.7,297.3,211.1,295.9z M217.8,293.8
	c0.8-0.4,1.4-1.1,1.8-1.9c0.5-0.9,0.7-1.8,0.7-2.8c0-1-0.2-1.9-0.7-2.8c-0.4-0.8-1-1.4-1.8-1.9c-1.6-0.9-3.6-0.9-5.2,0
	c-0.8,0.4-1.4,1.1-1.8,1.9c-0.5,0.9-0.7,1.8-0.7,2.8c0,1,0.2,1.9,0.7,2.8c0.4,0.8,1.1,1.4,1.8,1.9
	C214.2,294.7,216.2,294.7,217.8,293.8z"/>
<path class="st0" d="M241.7,295.9c-1.2-0.6-2.2-1.6-2.9-2.8c-1.4-2.5-1.4-5.5,0-8c0.7-1.2,1.7-2.1,2.9-2.8c1.3-0.7,2.7-1,4.1-1
	c1.3,0,2.5,0.3,3.7,0.8c1.1,0.5,1.9,1.4,2.5,2.4l-2.1,1.4c-0.4-0.7-1-1.3-1.8-1.6c-0.7-0.4-1.5-0.6-2.4-0.5c-0.9,0-1.9,0.2-2.7,0.7
	c-0.8,0.4-1.4,1.1-1.9,1.9c-0.5,0.9-0.7,1.8-0.7,2.8c0,1,0.2,2,0.7,2.8c0.4,0.8,1.1,1.4,1.9,1.9c0.8,0.4,1.7,0.7,2.7,0.7
	c0.8,0,1.6-0.2,2.4-0.5c0.7-0.4,1.3-0.9,1.8-1.6l2.1,1.3c-0.6,1-1.5,1.9-2.5,2.4c-1.1,0.6-2.4,0.9-3.7,0.9
	C244.4,296.9,243,296.6,241.7,295.9z"/>
<path class="st0" d="M260.1,295.9c-1.2-0.6-2.2-1.6-2.8-2.8c-1.3-2.5-1.3-5.5,0-8c0.7-1.2,1.6-2.1,2.8-2.8c2.5-1.3,5.6-1.3,8.1,0
	c1.2,0.6,2.1,1.6,2.8,2.8c1.4,2.5,1.4,5.5,0,8c-0.7,1.2-1.6,2.1-2.8,2.8C265.6,297.3,262.6,297.3,260.1,295.9z M266.7,293.8
	c0.8-0.4,1.4-1.1,1.8-1.9c0.5-0.9,0.7-1.8,0.7-2.8c0-1-0.2-1.9-0.7-2.8c-0.4-0.8-1-1.4-1.8-1.9c-0.8-0.4-1.7-0.7-2.6-0.7
	c-0.9,0-1.8,0.2-2.6,0.7c-0.8,0.4-1.4,1.1-1.8,1.9c-0.5,0.9-0.7,1.8-0.7,2.8c0,1,0.2,1.9,0.7,2.8c0.4,0.8,1.1,1.4,1.8,1.9
	c0.8,0.5,1.7,0.7,2.6,0.7C265,294.5,265.9,294.3,266.7,293.8z"/>
<path class="st0" d="M290.8,283.1c1.2,1.3,1.8,3.1,1.7,4.9v8.7h-2.8v-8.4c0.1-1.2-0.3-2.4-1.1-3.3c-0.8-0.8-1.9-1.2-3-1.1
	c-1.3-0.1-2.6,0.4-3.5,1.3c-0.9,1-1.4,2.4-1.3,3.7v7.8h-2.8v-15.2h2.6v2.3c0.6-0.8,1.3-1.4,2.2-1.8c1-0.4,2.1-0.6,3.2-0.6
	C287.9,281.3,289.6,281.9,290.8,283.1z"/>
<path class="st0" d="M323.6,290.1h-12.3c0.1,1.3,0.8,2.4,1.8,3.2c1.1,0.8,2.4,1.3,3.7,1.2c1.7,0.1,3.3-0.6,4.4-1.8l1.5,1.8
	c-0.7,0.8-1.6,1.4-2.6,1.8c-2.5,1-5.3,0.8-7.7-0.4c-1.2-0.6-2.2-1.6-2.9-2.8c-1.3-2.5-1.3-5.5,0-8c0.6-1.2,1.6-2.1,2.7-2.8
	c1.2-0.7,2.5-1,3.9-1c1.4,0,2.7,0.3,3.9,1c1.1,0.7,2.1,1.6,2.7,2.8c0.7,1.3,1,2.7,1,4.1C323.6,289.5,323.6,289.7,323.6,290.1z
	 M312.8,284.9c-0.9,0.8-1.5,1.9-1.6,3.1h9.8c-0.1-1.2-0.7-2.3-1.6-3.1c-0.9-0.8-2.1-1.3-3.3-1.2
	C314.9,283.7,313.7,284.1,312.8,284.9z"/>
<path class="st0" d="M330.5,296.4c-1-0.2-1.9-0.7-2.7-1.3l1.2-2.1c0.7,0.5,1.6,0.9,2.4,1.1c0.9,0.3,1.9,0.4,2.9,0.4
	c2.4,0,3.6-0.7,3.6-2.1c0-0.4-0.2-0.8-0.5-1.1c-0.4-0.3-0.8-0.5-1.2-0.6c-0.5-0.1-1.2-0.3-2.1-0.4c-1-0.2-2-0.4-3-0.7
	c-0.8-0.2-1.5-0.7-2-1.3c-0.6-0.7-0.9-1.6-0.8-2.5c0-1.3,0.6-2.6,1.7-3.3c1.4-0.9,3-1.3,4.6-1.2c1,0,2,0.1,3,0.4
	c0.9,0.2,1.7,0.5,2.5,1L339,285c-1.3-0.8-2.8-1.2-4.4-1.2c-0.9-0.1-1.8,0.1-2.7,0.6c-0.6,0.3-0.9,0.9-0.9,1.5c0,0.4,0.2,0.9,0.5,1.2
	c0.4,0.3,0.8,0.5,1.3,0.6c0.5,0.1,1.2,0.3,2.1,0.5c1,0.2,2,0.4,3,0.7c0.7,0.2,1.4,0.7,1.9,1.2c0.6,0.7,0.9,1.5,0.8,2.4
	c0,1.3-0.6,2.6-1.8,3.3c-1.4,0.9-3.1,1.3-4.8,1.2C332.9,297,331.7,296.8,330.5,296.4z"/>
<path class="st0" d="M354.9,295.9c-0.4,0.4-0.9,0.6-1.5,0.8c-0.6,0.2-1.2,0.3-1.8,0.3c-1.3,0.1-2.6-0.4-3.5-1.2
	c-0.9-0.9-1.3-2.2-1.3-3.5v-8.3h-2.6v-2.3h2.6v-3.3h2.8v3.3h4.4v2.3h-4.4v8.2c0,0.7,0.2,1.4,0.6,1.9c0.5,0.5,1.1,0.7,1.8,0.7
	c0.8,0,1.5-0.2,2.1-0.7L354.9,295.9z"/>
<path class="st0" d="M360.6,278.1c-0.3-0.3-0.5-0.8-0.5-1.3c0-0.5,0.2-0.9,0.5-1.3c0.4-0.4,0.8-0.5,1.3-0.5c0.5,0,1,0.2,1.3,0.5
	c0.3,0.3,0.5,0.8,0.5,1.2c0,0.5-0.2,1-0.5,1.3C362.5,278.8,361.3,278.8,360.6,278.1L360.6,278.1z M360.6,281.6h2.8v15.2h-2.8V281.6z
	"/>
<path class="st0" d="M370.8,275.5h2.8v21.2h-2.8V275.5z"/>
<path class="st0" d="M383.5,295.9c-1.2-0.6-2.2-1.6-2.8-2.8c-1.4-2.5-1.4-5.5,0-8c0.7-1.2,1.6-2.1,2.8-2.8c1.2-0.7,2.7-1,4.1-1
	c1.4,0,2.8,0.3,4,1c1.2,0.6,2.1,1.6,2.8,2.8c1.4,2.5,1.4,5.5,0,8c-0.7,1.2-1.6,2.1-2.8,2.8c-1.2,0.7-2.6,1-4,1
	C386.2,296.9,384.8,296.6,383.5,295.9z M390.2,293.8c0.8-0.4,1.4-1.1,1.8-1.8c0.5-0.9,0.7-1.8,0.7-2.8c0-1-0.2-1.9-0.7-2.8
	c-0.4-0.8-1-1.4-1.8-1.9c-1.6-0.9-3.6-0.9-5.2,0c-0.8,0.4-1.4,1.1-1.8,1.9c-0.5,0.9-0.7,1.8-0.7,2.8c0,1,0.2,1.9,0.7,2.8
	c0.4,0.8,1.1,1.4,1.8,1.9C386.6,294.8,388.5,294.8,390.2,293.8L390.2,293.8z"/>
<path class="st0" d="M425,281.6l-7.4,16.7c-0.5,1.3-1.2,2.4-2.3,3.3c-0.9,0.6-2,1-3.1,0.9c-0.7,0-1.5-0.1-2.2-0.4
	c-0.6-0.2-1.2-0.6-1.7-1l1.2-2.1c0.7,0.7,1.7,1.1,2.7,1.1c0.6,0,1.2-0.2,1.7-0.5c0.5-0.5,1-1.1,1.2-1.8l0.5-1.1l-6.7-15.2h2.9
	l5.3,12.1l5.2-12.1H425z"/>
<path class="st0" d="M453.5,290.1h-12.3c0.1,1.3,0.8,2.4,1.8,3.2c1.1,0.8,2.4,1.3,3.7,1.2c1.7,0.1,3.3-0.6,4.4-1.8l1.5,1.8
	c-0.7,0.8-1.6,1.4-2.6,1.8c-2.5,1-5.3,0.8-7.7-0.4c-1.2-0.6-2.2-1.6-2.9-2.8c-1.3-2.5-1.3-5.5,0-8c0.6-1.2,1.6-2.1,2.7-2.8
	c1.2-0.7,2.5-1,3.9-1c1.4,0,2.7,0.3,3.9,1c1.1,0.7,2.1,1.6,2.7,2.8c0.7,1.3,1,2.7,1,4.1C453.6,289.5,453.6,289.7,453.5,290.1z
	 M442.8,284.9c-0.9,0.8-1.5,1.9-1.6,3.1h9.8c-0.1-1.2-0.7-2.3-1.6-3.1c-0.9-0.8-2.1-1.3-3.3-1.2
	C444.9,283.7,443.7,284.1,442.8,284.9z"/>
<path class="st0" d="M459.7,275.5h2.8v21.2h-2.8V275.5z"/>
<path class="st0" d="M483.6,290.1h-12.3c0.1,1.3,0.8,2.4,1.8,3.2c1.1,0.8,2.4,1.3,3.7,1.2c1.7,0.1,3.3-0.6,4.4-1.8l1.5,1.8
	c-0.7,0.8-1.6,1.4-2.6,1.8c-2.5,1-5.3,0.8-7.7-0.4c-1.2-0.6-2.2-1.6-2.9-2.8c-0.7-1.2-1-2.6-1-4c0-1.4,0.3-2.8,1-4
	c0.6-1.2,1.6-2.1,2.7-2.8c1.2-0.7,2.5-1,3.9-1c1.4,0,2.7,0.3,3.9,1c1.1,0.7,2,1.6,2.7,2.8c0.7,1.3,1,2.7,1,4.1
	C483.7,289.5,483.7,289.8,483.6,290.1z M472.9,284.9c-0.9,0.8-1.5,1.9-1.6,3.1h9.7c-0.1-1.2-0.7-2.3-1.6-3.1
	c-0.9-0.8-2.1-1.3-3.3-1.2C475,283.7,473.8,284.1,472.9,284.9z"/>
<path class="st0" d="M504.3,281.6v13.1c0,2.7-0.7,4.6-2,5.9c-1.3,1.3-3.3,1.9-5.9,1.9c-1.4,0-2.8-0.2-4.1-0.6
	c-1.2-0.3-2.2-0.9-3.1-1.7l1.3-2.1c0.8,0.6,1.7,1.1,2.6,1.5c1,0.4,2.1,0.5,3.2,0.5c1.4,0.1,2.8-0.3,3.9-1.3c0.9-1.1,1.4-2.4,1.3-3.8
	v-1.2c-0.6,0.8-1.5,1.4-2.4,1.8c-1,0.4-2,0.6-3.1,0.6c-1.4,0-2.7-0.3-3.9-0.9c-1.1-0.6-2.1-1.5-2.8-2.6c-1.3-2.4-1.3-5.3,0-7.6
	c0.7-1.1,1.6-2,2.8-2.6c1.2-0.6,2.6-0.9,3.9-0.9c1.1,0,2.2,0.2,3.2,0.6c1,0.4,1.8,1,2.4,1.9v-2.4H504.3z M499.1,293.1
	c0.8-0.4,1.4-1,1.9-1.8c0.5-0.8,0.7-1.7,0.7-2.6c0.1-1.3-0.5-2.6-1.5-3.6c-2.2-1.8-5.3-1.8-7.5,0c-1,0.9-1.5,2.2-1.5,3.6
	c0,0.9,0.2,1.8,0.7,2.6c0.4,0.7,1.1,1.4,1.9,1.8c0.8,0.4,1.8,0.6,2.7,0.6C497.4,293.7,498.3,293.5,499.1,293.1L499.1,293.1z"/>
<path class="st0" d="M522.2,283c1.2,1.2,1.8,2.9,1.7,4.6v9.2h-2.6v-2c-0.5,0.7-1.2,1.3-2,1.6c-1,0.4-2,0.6-3,0.6
	c-1.5,0.1-2.9-0.4-4.1-1.2c-1-0.8-1.6-2-1.5-3.2c0-1.2,0.5-2.4,1.5-3.2c1.4-0.9,3-1.3,4.6-1.2h4.3v-0.5c0.1-1-0.3-2-1-2.7
	c-0.8-0.7-1.9-1-3-0.9c-0.9,0-1.8,0.1-2.6,0.4c-0.8,0.3-1.5,0.7-2.2,1.2l-1.1-2.1c0.8-0.7,1.8-1.2,2.8-1.5c1.1-0.3,2.3-0.5,3.5-0.5
	C519.2,281.3,520.9,281.9,522.2,283z M519.5,294.1c0.8-0.5,1.3-1.2,1.7-2V290h-4.2c-2.3,0-3.5,0.8-3.5,2.4c0,0.7,0.3,1.4,0.9,1.8
	c0.7,0.5,1.6,0.7,2.5,0.7C517.7,294.8,518.7,294.6,519.5,294.1L519.5,294.1z"/>
<path class="st0" d="M544,283.1c1.2,1.3,1.8,3.1,1.7,4.9v8.7H543v-8.4c0.1-1.2-0.3-2.4-1.1-3.3c-0.8-0.8-1.9-1.2-3-1.1
	c-1.3-0.1-2.6,0.4-3.5,1.3c-0.9,1-1.4,2.4-1.3,3.7v7.8h-2.8v-15.2h2.6v2.3c0.6-0.8,1.3-1.4,2.2-1.8c1-0.4,2.1-0.6,3.2-0.6
	C541.1,281.3,542.8,281.9,544,283.1z"/>
<path class="st0" d="M555.7,295.9c-1.2-0.6-2.2-1.6-2.8-2.8c-1.4-2.5-1.4-5.5,0-8c0.7-1.2,1.7-2.1,2.8-2.8c1.3-0.7,2.7-1,4.1-1
	c1.3,0,2.5,0.3,3.7,0.8c1.1,0.5,1.9,1.4,2.5,2.4l-2.1,1.4c-0.4-0.7-1-1.3-1.8-1.6c-0.7-0.4-1.5-0.6-2.3-0.5c-0.9,0-1.9,0.2-2.7,0.7
	c-0.8,0.4-1.4,1.1-1.9,1.9c-0.5,0.9-0.7,1.8-0.7,2.8c0,1,0.2,2,0.7,2.8c0.4,0.8,1.1,1.4,1.9,1.9c0.8,0.4,1.7,0.7,2.7,0.7
	c0.8,0,1.6-0.2,2.3-0.5c0.7-0.4,1.3-0.9,1.8-1.6l2.1,1.3c-0.6,1-1.5,1.9-2.5,2.4c-1.1,0.6-2.4,0.9-3.7,0.9
	C558.3,296.9,556.9,296.6,555.7,295.9z"/>
<path class="st0" d="M571.9,278.1c-0.3-0.3-0.5-0.8-0.5-1.3c0-0.5,0.2-0.9,0.5-1.3c0.4-0.3,0.8-0.5,1.3-0.5c0.5,0,1,0.2,1.3,0.5
	c0.3,0.3,0.5,0.8,0.5,1.2c0,0.5-0.2,1-0.5,1.3C573.8,278.8,572.6,278.8,571.9,278.1L571.9,278.1z M571.9,281.6h2.8v15.2h-2.8V281.6z
	"/>
<path class="st0" d="M592.5,283c1.2,1.2,1.8,2.9,1.7,4.6v9.2h-2.6v-2c-0.5,0.7-1.2,1.3-2,1.6c-1,0.4-2,0.6-3,0.6
	c-1.5,0.1-2.9-0.4-4.1-1.2c-1-0.8-1.6-2-1.5-3.2c0-1.2,0.5-2.4,1.5-3.2c1.4-0.9,3-1.4,4.6-1.2h4.4v-0.5c0.1-1-0.3-2-1-2.7
	c-0.8-0.7-1.9-1-3-0.9c-0.9,0-1.8,0.1-2.6,0.4c-0.8,0.3-1.5,0.7-2.2,1.2l-1.1-2.1c0.8-0.7,1.8-1.2,2.8-1.5c1.1-0.3,2.3-0.5,3.5-0.5
	C589.4,281.3,591.1,281.9,592.5,283z M589.7,294.1c0.8-0.5,1.4-1.2,1.7-2V290h-4.2c-2.3,0-3.5,0.8-3.5,2.4c0,0.7,0.3,1.4,0.9,1.8
	c0.7,0.5,1.6,0.7,2.5,0.7C588,294.8,588.9,294.6,589.7,294.1L589.7,294.1z"/>
<path class="st0" d="M600.8,284.8c-0.4-0.4-0.6-0.9-0.6-1.4c0-1.1,0.8-1.9,1.9-1.9c0,0,0,0,0,0c0.5,0,1,0.2,1.3,0.5
	c0.7,0.8,0.7,2,0,2.8c-0.3,0.4-0.8,0.6-1.3,0.6C601.7,285.4,601.2,285.2,600.8,284.8z M600.8,296.4c-0.4-0.4-0.6-0.9-0.6-1.4
	c0-0.5,0.2-1,0.6-1.4c0.4-0.4,0.9-0.6,1.4-0.6c0.5,0,1,0.2,1.3,0.5c0.4,0.4,0.6,0.9,0.5,1.4c0,0.5-0.2,1-0.6,1.4
	c-0.4,0.4-0.8,0.6-1.3,0.6C601.7,296.9,601.2,296.7,600.8,296.4z"/>
<circle class="st1" cx="774.3" cy="107.2" r="16.3"/>
<circle class="st1" cx="774.3" cy="107.2" r="16.3"/>
<circle class="st1" cx="774.3" cy="107.2" r="16.3"/>
<circle class="st1" cx="738.9" cy="58.1" r="16.3"/>
<circle class="st1" cx="738.9" cy="58.1" r="16.3"/>
<circle class="st1" cx="738.9" cy="58.1" r="16.3"/>
<circle class="st1" cx="755.2" cy="84.5" r="16.3"/>
<circle class="st1" cx="755.2" cy="84.5" r="16.3"/>
<circle class="st1" cx="755.2" cy="84.5" r="16.3"/>
<circle class="st1" cx="798.2" cy="121.4" r="16.3"/>
<circle class="st1" cx="798.2" cy="121.4" r="16.3"/>
<circle class="st1" cx="798.2" cy="121.4" r="16.3"/>
<circle class="st1" cx="827.8" cy="129.9" r="16.3"/>
<circle class="st1" cx="827.8" cy="129.9" r="16.3"/>
<circle class="st1" cx="827.8" cy="129.9" r="16.3"/>
<circle class="st1" cx="913.8" cy="107.2" r="16.3"/>
<circle class="st1" cx="913.8" cy="107.2" r="16.3"/>
<circle class="st1" cx="913.8" cy="107.2" r="16.3"/>
<circle class="st1" cx="949.3" cy="58.1" r="16.3"/>
<circle class="st1" cx="949.3" cy="58.1" r="16.3"/>
<circle class="st1" cx="949.3" cy="58.1" r="16.3"/>
<circle class="st1" cx="933" cy="84.5" r="16.3"/>
<circle class="st1" cx="933" cy="84.5" r="16.3"/>
<circle class="st1" cx="933" cy="84.5" r="16.3"/>
<circle class="st1" cx="890" cy="121.4" r="16.3"/>
<circle class="st1" cx="890" cy="121.4" r="16.3"/>
<circle class="st1" cx="890" cy="121.4" r="16.3"/>
<circle class="st1" cx="860.3" cy="129.9" r="16.3"/>
<circle class="st1" cx="860.3" cy="129.9" r="16.3"/>
<circle class="st1" cx="860.3" cy="129.9" r="16.3"/>
<polygon class="st2" points="820.8,150.9 829.4,150.9 829.4,167.2 812.2,167.2 "/>
<polygon class="st2" points="857.7,150.9 849.1,150.9 849.1,167.2 866.3,167.2 "/>
<rect x="831.5" y="150.9" class="st2" width="15.7" height="16.2"/>
<polyline class="st2" points="837.4,213.3 835,213.3 810.6,169.3 828.5,169.3 837.4,213.3 "/>
<polygon class="st3" points="842.9,213.3 845.7,213.3 868.9,169.3 850.2,169.3 "/>
<polygon class="st2" points="839.3,169.3 846.3,169.3 842.8,191.3 839.3,213.3 835.8,191.3 832.4,169.3 "/>
</svg>
