<svg id="Capa_1" data-name="Capa 1" xmlns="http://www.w3.org/2000/svg" viewBox="0 0 2614.24 1480.6"><defs><style>.cls-1,.cls-2,.cls-3{fill-rule:evenodd;}.cls-2{fill:red;}.cls-3{fill:#fff;}.cls-4{fill:none;stroke:#000;stroke-linejoin:round;stroke-width:1.42px;}</style></defs><path class="cls-1" d="M173.33,31l46.92,16c13.62,0,2.73-5.78,20.13-4.85,24.51,1.32,40.85,6.18,76.51,6.51C353.3,49,385.56,48.49,419,60.42c14.81,5.29,26.37,8.89,38.7,17,13.11,8.57,22.11,14.38,32.61,25.09,14.55,14.86,25.95,32.68,31.41,52.84,7,25.72,7.76,47.23-3.34,73.08-10.87,25.33-20.12,37.15-42.3,50.17-11.38,6.68-18.44,12.37-33.17,14.18,15,4.47,42.79-5.92,55.13-8.57,21.8,15.42,37.28,54.77,41.33,82.43,2.07,14.12-2,23.76-4.62,36.4-7.71,36.71-22.16,38.3-22.16,60.13,0,20.52,8.41,48.29,16.76,65.46,34.82,71.55,75.39,73,49.7,95.81-12.61,11.2-25.19,7.61-55.61,26.71-26.25,16.48-17.58,52.65,4.78,38.39-3.05-8.86-27.07-24.69,37.29-41.24,70.2-18,35.45-48.2,10.33-83.92a274,274,0,0,1-15.09-23.87c-5.28-9.64-9.75-14.92-14.89-26.56-25.55-57.94-4.08-54.8,6.77-87,11-32.55,6.18-74.3-9.09-103.9-15.79-30.64-23.34-29.92-31-45.66,14.63-10.48,25.51-16.28,35.76-33.67,21.61-36.63,24.43-89.64.79-123.75L532.34,97.5C496.84,56,427.53,35.74,374.67,35.71c-20.46,0-148.5,1-159.21-1.83C210.3,32.54,178.23,25.83,173.33,31Z"/><path class="cls-1" d="M19,9.91C19,10,167.58,31.58,171.37,24.56c-5.81,0-6.11-6.32-31.35-8C93.18,6.69,19-.45,19,0Z"/><path class="cls-1" d="M263.55,784.34c-23.76,45.41-28.21,138.6-15.65,192.21,4.68,20,21.39,63.82,32.84,78.42,26.41,33.68,65.37,51.08,105.62,62.89,6.58,1.93,13.05,4.5,20.12,6.73,9.48,3,14.13,4.17,22.35,6.46,44.47,12.41,125.74,37.54,138.24,84.62,7.41,27.88.27,47.74-6.68,71-3.31,11.08-8.11,8.43-5.17,20.41,3.07-2.45.74-.29,3.24-3.38.38-.48,2-2.82,2.62-3.63,13.2-18.3,28.14-41.3,31.7-65,9.18-61.35-69.58-86.19-117.5-98.83L444,1126.08c-4.61-1.54-7.21-1.62-11.5-2.81-55.62-15.41-114-39.18-139-93.22-2.13-4.62-3.15-6-4.82-9.54-8.08-17-17-46.56-20.43-64.17-3.86-19.84-4-85.15,1.71-104.06,2.21-7.34,3-14.69,5.43-21.35,1.94-5.29,2-4.22,4-10.4,7.09-22.38,16.79-5,72.62,3,50.26,7.25,144.55,40,147.69-33.21.38-8.72-.11-10.94,1.93-19.81,1.9-8.28,4.24-9.36-1.48-15.3-11.18,1.45-1.3.91-12.51,8.28-5.08,3.35-8.17,4.43-10.65,9.71-5.52,11.75.1,20.52-10.3,33-17.26,20.68-53.57,11.48-65.31,11.15C353.11,815.94,279.09,782.77,263.55,784.34Z"/><path class="cls-1" d="M170.47,486.2c30.66,10.22,109,1.18,145.24-14.08,28.23-11.88,61.77-38.9,75.61-64.51,3.56-6.59,5.75-12.59,8.71-19.69,12.49-30,10.31-49.85,20.93-63.63,6.2-8,11.74-7.48,15.63-13-23.19-7.8-44,5.13-48.32,29.46C376.47,407,324,448.73,264.09,468.08,230.72,478.86,178.92,482.93,170.47,486.2Z"/><path class="cls-1" d="M0,360.88c26.18,0,57.91-4.75,79.41-16,41.69-21.8,50.3-28.23,76.06-65.85,25.28-36.92,32.45-60.88,79.23-65.49-46.42-20-67.93,15.91-86.76,47.81-11.71,19.85-28.1,39.69-45,53.73-11.88,9.87-31,22.74-45.84,28-7.23,2.6-10.24,4.62-18,6.65-18,4.74,2.75,3.15-29.15,7.56C-.22,358.74,2.29,358.66,0,360.88Z"/><path class="cls-1" d="M19.22,531c0,33.74,1.17,66.75,32.9,92.13A41.54,41.54,0,0,0,62,629.5l9,4c2.93.92.66,1,5.9,1.27l-4-3.4c-1.45-1.22-2.16-1.74-3.54-3L49.05,605.52c-18.66-28.59-20.52-67.18-8-99,11.32-28.74,34.17-15,57.89-18.32-3.22-4.75-.23-1.27-4.53-4-.05,0-6.72-3.35-6.87-3.42-5.44-2.59-7.78-3.67-13.93-4.33-23.38-2.51-39.7,2.26-46.92,25.49C24.15,510.13,19.22,521.11,19.22,531Z"/><path class="cls-2" d="M62.84,1382.75a48.93,48.93,0,1,1-48.92,48.93A48.93,48.93,0,0,1,62.84,1382.75Z"/><path class="cls-2" d="M154.19,1364.49a40.67,40.67,0,1,1-40.67,40.66A40.66,40.66,0,0,1,154.19,1364.49Z"/><path class="cls-2" d="M223.75,1326.7a33.41,33.41,0,1,1-33.4,33.41A33.41,33.41,0,0,1,223.75,1326.7Z"/><path class="cls-2" d="M270.3,1283.66a26.65,26.65,0,1,1-26.65,26.65A26.65,26.65,0,0,1,270.3,1283.66Z"/><path class="cls-2" d="M305.59,1242.37a23.27,23.27,0,1,1-23.27,23.27A23.27,23.27,0,0,1,305.59,1242.37Z"/><path class="cls-2" d="M327.24,1206.58a17.39,17.39,0,1,1-17.4,17.39A17.4,17.4,0,0,1,327.24,1206.58Z"/><path class="cls-2" d="M339.75,1164a17.39,17.39,0,1,1-17.39,17.39A17.38,17.38,0,0,1,339.75,1164Z"/><path class="cls-2" d="M343.25,1120a17.4,17.4,0,1,1-17.39,17.4A17.4,17.4,0,0,1,343.25,1120Z"/><path class="cls-2" d="M481.79,735.4a116.64,116.64,0,0,0-22.33-13.47q26.9-3.45,42.59-18.37,9.13-8.32,17.29-9.72c10.26-1.77,22,5.95,21.48,16.88-.39,8.74-3.7,12.13-10.05,16.41,18.41,9.21,6.6,32.39-7.74,35.28C502.49,766.53,496,746.49,481.79,735.4Z"/><path class="cls-2" d="M87,670.17c10.71,0,19.39,6.18,19.39,13.8S97.67,697.78,87,697.78,67.59,691.6,67.59,684,76.26,670.17,87,670.17Z"/><path class="cls-2" d="M76.88,621a4.72,4.72,0,0,1-6.32-7,27.93,27.93,0,0,1,16.31-7.47,24.79,24.79,0,0,1,11.66,1.83,26.25,26.25,0,0,1,9.39,6.67,26.94,26.94,0,0,1,6.82,15.72,28,28,0,0,1-.44,7.78,26.83,26.83,0,0,1-6.91,13.39,23,23,0,0,1-14.75,7c-.82.07-1.64.1-2.5.09l.06,8.56a4.72,4.72,0,0,1-9.43.08L80.7,648l5.64,1.13a19.84,19.84,0,0,0,5.48.35,13.72,13.72,0,0,0,8.81-4.11,17.18,17.18,0,0,0,4.39-8.63,18.65,18.65,0,0,0,.3-5.15,17.51,17.51,0,0,0-4.42-10.21,16.64,16.64,0,0,0-6-4.27,15.42,15.42,0,0,0-7.23-1.12A18.54,18.54,0,0,0,76.88,621Z"/><path class="cls-2" d="M98.84,712.3c-6.18,3.25-8.11-3.55-11.77-15.64-.87,12.15-5.67,17.9-12.14,17.52q5.53,17.15-11.63,17.14,9.35,15.27-6.76,18.89,11.88,17.1-6.13,21.52,11.7,12-.38,23.41,16.78,2.39,12.77,20.39,14.76-7.47,24.52,7.88,6-16.54,22.53-9.13Q107.93,795,123,792.63q-14-13.18-2.37-22.9-16.59-9.68-4.38-19.89c-11.58-5.2-12.79-12.33-7.88-21.4C100,725.75,94.2,722,98.84,712.3Z"/><path class="cls-3" d="M91.89,746.63q-2.67-7.83-5-18A169.42,169.42,0,0,1,82,747.44c-3.25,10-8,19.62-6.83,30.63,1.48,13.47,18.29,12.36,22.38,4.44C103.39,771.13,95.6,757.43,91.89,746.63Z"/><path class="cls-1" d="M2554.47,650c0-27.64-8-41.46-24.12-41.46q-27.27,0-55.4,58.8c-13.94,29-23.88,57.7-29.82,85.94a192,192,0,0,0-4.24,39c0,19.51,6.67,29.33,19.88,29.33q25.64,0,53.95-51.27a363.51,363.51,0,0,0,32-76.5C2551.93,675.66,2554.47,661,2554.47,650Zm58-39.76c-1,3.28-5.21,16.37-12.73,39q-49.46,146.92-49.46,155.41V810c0,8.73,4.12,13.09,12.13,13.09q15.27,0,39.39-42.79H2611c-16.74,36.25-35.28,54.43-55.4,54.43-12.49,0-21.82-4.85-28-14.67-2.91-4.6-6.54-15.15-11-31.88-13.69,16.73-22.42,26.67-25.94,30.06-10.91,10.07-22.55,15-35.15,15q-49.65,0-49.7-76.74,0-81.09,66.43-135.52c18.9-15.64,36.72-23.4,53.21-23.4q26,0,41.58,32.49c2.42-5.45,6.43-13.33,12.12-23.76h31.52A4.21,4.21,0,0,1,2612.42,610.2Zm-195.29,36.73c0,12-4.61,24.12-13.94,36.37-9.94,13.21-21.33,19.75-34.18,19.75-15,0-22.43-6.78-22.43-20.48,0-6.06,2.3-11.88,6.91-17.21s10.06-8.12,16.24-8.12a12,12,0,0,1,10.67,6.18c2.67,4.12,4.85,6.06,6.42,6.06,10.55,0,15.76-8.61,15.76-25.94a23,23,0,0,0-7.87-17.7,26.92,26.92,0,0,0-18.79-7.15q-39.47,0-84,92.85a600.46,600.46,0,0,0-27.27,66.19l-18.91,52.73c-1.22,1.82-5.46,2.79-12.85,2.79-2.55,0-6.55-.24-11.88-.73s-9.34-.73-11.88-.73c-1-.24-1.46-1.09-1.46-2.78t35.52-99.53q5.64-15.27,17.45-46.18c10.55-28.85,15.89-47.52,15.89-55.77,0-7.39-3-11-9.22-11s-12.6,4.36-18.66,13.21-9.95,13.21-11.89,13.21a8.18,8.18,0,0,1-5.93-2.91c12.48-25.33,26.91-38.06,43-38.06q33.63,0,31.27,55.28c28-34.43,51.76-51.65,71.52-51.65,12,0,21.83,3.89,29.34,11.64S2417.13,634.93,2417.13,646.93Zm-218-42.06q-8,26.18-56.37,164.13c-6.43,18.55-9.7,31.4-9.7,38.31,0,9.09,3.88,13.57,11.4,13.57s15.63-6.3,24.85-19q3.63-4.9,17.45-24.73h7.76v5.34c-.24.24-2.67,4.72-7.39,13.33-13.82,25-29.95,37.46-48.73,37.46q-29.1,0-38.67-46.19c-12.73,17.1-20.73,27.16-23.76,30.19q-14.19,13.82-30.55,13.82c-16.12,0-28.25-7.16-36.24-21.34-5.94-10.3-8.85-22.06-8.85-35q0-23.46,21.57-75c14.43-34.43,21.7-57.09,21.7-68.25,0-9.93-2.67-14.9-8.12-14.9-7.88,0-16.85,8.36-27,25h-9.22c2.31-9.22,8-18.06,17-26.67s18-12.85,26.91-12.85q31.83,0,31.77,44c0,15.88-7.52,41.46-22.55,77s-22.55,61-22.55,76.25c0,14.42,5.7,21.69,17.09,21.69,9.46,0,20-7.15,31.64-21.33a162.8,162.8,0,0,0,20.12-31.88q8.37-17.46,28-64c8.24-23.15,20.36-56.12,36.12-98.67,3-1.09,9.21-1.58,18.42-1.58A87.26,87.26,0,0,1,2199.18,604.87ZM1917.7,650c0-27.64-8-41.46-24.12-41.46q-27.27,0-55.4,58.8c-13.94,29-23.88,57.7-29.82,85.94a192,192,0,0,0-4.24,39c0,19.51,6.67,29.33,19.88,29.33q25.63,0,53.94-51.27a363.55,363.55,0,0,0,32-76.5C1915.16,675.66,1917.7,661,1917.7,650Zm57.94-39.76c-1,3.28-5.21,16.37-12.72,39q-49.45,146.92-49.46,155.41V810c0,8.73,4.12,13.09,12.12,13.09q15.29,0,39.4-42.79h9.21c-16.72,36.25-35.28,54.43-55.39,54.43-12.49,0-21.83-4.85-28-14.67-2.91-4.6-6.54-15.15-11-31.88-13.7,16.73-22.42,26.67-25.94,30.06-10.91,10.07-22.55,15-35.16,15q-49.64,0-49.69-76.74,0-81.09,66.42-135.52c18.91-15.64,36.74-23.4,53.22-23.4,17.34,0,31.15,10.8,41.58,32.49,2.42-5.45,6.42-13.33,12.12-23.76h31.52A4.2,4.2,0,0,1,1975.64,610.2ZM1836.85,426.8c0-21-10.3-31.4-30.91-31.4q-60.56,0-119.28,107.52-43.29,79.82-52.61,133.22,57.27-4.54,130.07-78.55Q1836.84,483.78,1836.85,426.8Zm13.09,2.42q0,62.55-83.52,144-75.11,73.1-146.07,99.52c-2.43,4.49-7.88,16.73-16.37,36.85Q1570.53,788.89,1500.46,840q26.37,12.91,115.28,12.86c24.12,0,46.31-3.4,66.43-10.31q50-17.08,49.94-56.85c0-14.91-6.18-22.3-18.66-22.3-4.85,0-7.76.36-8.73,1,2.42-6.42,7.88-9.69,16.73-9.69,15.39,0,23,10.67,23,32q0,51.45-59.64,72.73c-24.61,8.73-48.37,13.09-71,13.09-4,0-8.12-.12-12.48-.36l-146-9.82q16,0-19.64,5.09c-23.88,3.4-39.64,5.09-47.4,5.09a173.36,173.36,0,0,1-43.76-5.69q-38.73-10.37-38.67-34c0-7.76,7.88-11.76,23.76-11.76l129.34,15q44.73,0,84.13-81.1,31.27-64.37,31.28-73.94a6.73,6.73,0,0,0-2.19-5h-41.94q-51.45,0-110.79-31.27-75.1-39.45-75-100.49,0-54.37,58.31-85.95a200.6,200.6,0,0,1,97.7-25.21c40.73,0,65.34,10.91,73.58,32.85q-17.82-19.1-68.36-19a198.13,198.13,0,0,0-91.89,22.3q-56.19,29.1-56.25,81.1,0,33.63,38.79,61.58,51.64,37.28,148.74,37.21a380.05,380.05,0,0,0,38.79-2.54q11.64-28,35.52-83.4,33.09-74.73,97.82-133,51.65-46.55,91.52-46.55Q1850,383.76,1849.94,429.22Zm-579.8,90.91c0,6.18-6.42,13-19.15,20.37l-55.76,32.36-6.43-6.06c15.88-15.88,30.19-30.67,42.92-44.12,11.39-12.12,19.63-18.18,24.6-18.18Q1270.15,504.5,1270.14,520.13Zm-147.28,125.1q0-73.82-39.39-139c-14.67-24.12-32.62-42.91-54-56.12-1.33-.73-4.36-2.42-8.85-5q-16.9,4.54-67.76,157.34-8.19,25.09-31.16,88.74-11.09,29.27-33.45,69.09c-11.39,20.24-28.48,40.24-51.52,60.25-2.3,1.82-6.54,5.33-12.73,10.3-2.17,1.7-8.84,6.06-20.24,13.22q80.91,10.37,104.73,10.3c40.13,0,72.86-5.7,98-17.09q57.83-26,89.46-86.07C1113.89,717.36,1122.86,682,1122.86,645.23Zm24-26.3c0,37.21-8.72,74.67-26.3,112.62q-65.64,141.63-233.83,141.7-73.1,0-122.43-11.64a116.27,116.27,0,0,1-22.68,7.4c-14.91,2.79-26.3,4.24-34.18,4.24a190.73,190.73,0,0,1-42.91-5.33c-6.55-1.7-13.82-6.19-21.58-13.82s-11.75-14.55-11.75-20.85c0-7.4,4.84-11,14.54-11a18.45,18.45,0,0,1,3.88.37L778,839.67q40.18-11.46,68.85-59.27c8.85-14.67,20.61-41.22,35.64-79.53,1.09-4.36,3.4-11.75,6.67-22.42Q918.79,591.35,930,564.62q31.63-73.83,77.34-126.07c-6.67-5.69-20.73-10.42-42.07-14.18-17.69-3.27-33-5-45.82-5-12.12,0-28,2.3-47.63,6.79q-54.2,12.36-102.07,63.4Q719.2,543.41,719.2,597.23c0,15.64,4.85,28.25,14.67,37.7s22.42,14.3,38.18,14.3q37.83,0,70-38.54c20-24,29.94-47.64,29.94-70.68,0-12.6-2.79-20.72-8.49-24.24h6.43c7.64,0,11.51,8.24,11.51,24.85q0,40.54-35.27,80.37c-23.4,26.55-48.61,39.88-75.4,39.88-21.82,0-39.4-8-52.61-23.88-12.85-14.91-19.27-33.33-19.27-55.4,0-24.6,6.78-50.18,20.24-76.49q27.45-53.27,86.67-79.28,46.54-20.18,101.7-20.24A319.86,319.86,0,0,1,993.39,417a122.47,122.47,0,0,1,14.19,5.22c6.67,2.66,10.3,4.12,11,4.12-9.21,0-3.88-4.73,16-14.06s32.73-13.94,38.31-13.94c10.18,0,16,3,17.45,9.21-22.42-1.21-41.46,6.55-56.85,23.15a35.23,35.23,0,0,0,4.61,5Q1089.22,464,1118,512.38,1146.93,560.56,1146.86,618.93Z"/><path class="cls-4" d="M2554.47,650c0-27.64-8-41.46-24.12-41.46q-27.27,0-55.4,58.8c-13.94,29-23.88,57.7-29.82,85.94a192,192,0,0,0-4.24,39c0,19.51,6.67,29.33,19.88,29.33q25.64,0,53.95-51.27a363.51,363.51,0,0,0,32-76.5C2551.93,675.66,2554.47,661,2554.47,650Zm58-39.76c-1,3.28-5.21,16.37-12.73,39q-49.46,146.92-49.46,155.41V810c0,8.73,4.12,13.09,12.13,13.09q15.27,0,39.39-42.79H2611c-16.74,36.25-35.28,54.43-55.4,54.43-12.49,0-21.82-4.85-28-14.67-2.91-4.6-6.54-15.15-11-31.88-13.69,16.73-22.42,26.67-25.94,30.06-10.91,10.07-22.55,15-35.15,15q-49.65,0-49.7-76.74,0-81.09,66.43-135.52c18.9-15.64,36.72-23.4,53.21-23.4q26,0,41.58,32.49c2.42-5.45,6.43-13.33,12.12-23.76h31.52A4.21,4.21,0,0,1,2612.42,610.2Zm-195.29,36.73c0,12-4.61,24.12-13.94,36.37-9.94,13.21-21.33,19.75-34.18,19.75-15,0-22.43-6.78-22.43-20.48,0-6.06,2.3-11.88,6.91-17.21s10.06-8.12,16.24-8.12a12,12,0,0,1,10.67,6.18c2.67,4.12,4.85,6.06,6.42,6.06,10.55,0,15.76-8.61,15.76-25.94a23,23,0,0,0-7.87-17.7,26.92,26.92,0,0,0-18.79-7.15q-39.47,0-84,92.85a600.46,600.46,0,0,0-27.27,66.19l-18.91,52.73c-1.22,1.82-5.46,2.79-12.85,2.79-2.55,0-6.55-.24-11.88-.73s-9.34-.73-11.88-.73c-1-.24-1.46-1.09-1.46-2.78t35.52-99.53q5.64-15.27,17.45-46.18c10.55-28.85,15.89-47.52,15.89-55.77,0-7.39-3-11-9.22-11s-12.6,4.36-18.66,13.21-9.95,13.21-11.89,13.21a8.18,8.18,0,0,1-5.93-2.91c12.48-25.33,26.91-38.06,43-38.06q33.63,0,31.27,55.28c28-34.43,51.76-51.65,71.52-51.65,12,0,21.83,3.89,29.34,11.64S2417.13,634.93,2417.13,646.93Zm-218-42.06q-8,26.18-56.37,164.13c-6.43,18.55-9.7,31.4-9.7,38.31,0,9.09,3.88,13.57,11.4,13.57s15.63-6.3,24.85-19q3.63-4.9,17.45-24.73h7.76v5.34c-.24.24-2.67,4.72-7.39,13.33-13.82,25-29.95,37.46-48.73,37.46q-29.1,0-38.67-46.19c-12.73,17.1-20.73,27.16-23.76,30.19q-14.19,13.82-30.55,13.82c-16.12,0-28.25-7.16-36.24-21.34-5.94-10.3-8.85-22.06-8.85-35q0-23.46,21.57-75c14.43-34.43,21.7-57.09,21.7-68.25,0-9.93-2.67-14.9-8.12-14.9-7.88,0-16.85,8.36-27,25h-9.22c2.31-9.22,8-18.06,17-26.67s18-12.85,26.91-12.85q31.83,0,31.77,44c0,15.88-7.52,41.46-22.55,77s-22.55,61-22.55,76.25c0,14.42,5.7,21.69,17.09,21.69,9.46,0,20-7.15,31.64-21.33a162.8,162.8,0,0,0,20.12-31.88q8.37-17.46,28-64c8.24-23.15,20.36-56.12,36.12-98.67,3-1.09,9.21-1.58,18.42-1.58A87.26,87.26,0,0,1,2199.18,604.87ZM1917.7,650c0-27.64-8-41.46-24.12-41.46q-27.27,0-55.4,58.8c-13.94,29-23.88,57.7-29.82,85.94a192,192,0,0,0-4.24,39c0,19.51,6.67,29.33,19.88,29.33q25.63,0,53.94-51.27a363.55,363.55,0,0,0,32-76.5C1915.16,675.66,1917.7,661,1917.7,650Zm57.94-39.76c-1,3.28-5.21,16.37-12.72,39q-49.45,146.92-49.46,155.41V810c0,8.73,4.12,13.09,12.12,13.09q15.29,0,39.4-42.79h9.21c-16.72,36.25-35.28,54.43-55.39,54.43-12.49,0-21.83-4.85-28-14.67-2.91-4.6-6.54-15.15-11-31.88-13.7,16.73-22.42,26.67-25.94,30.06-10.91,10.07-22.55,15-35.16,15q-49.64,0-49.69-76.74,0-81.09,66.42-135.52c18.91-15.64,36.74-23.4,53.22-23.4,17.34,0,31.15,10.8,41.58,32.49,2.42-5.45,6.42-13.33,12.12-23.76h31.52A4.2,4.2,0,0,1,1975.64,610.2ZM1836.85,426.8c0-21-10.3-31.4-30.91-31.4q-60.56,0-119.28,107.52-43.29,79.82-52.61,133.22,57.27-4.54,130.07-78.55Q1836.84,483.78,1836.85,426.8Zm13.09,2.42q0,62.55-83.52,144-75.11,73.1-146.07,99.52c-2.43,4.49-7.88,16.73-16.37,36.85Q1570.53,788.89,1500.46,840q26.37,12.91,115.28,12.86c24.12,0,46.31-3.4,66.43-10.31q50-17.08,49.94-56.85c0-14.91-6.18-22.3-18.66-22.3-4.85,0-7.76.36-8.73,1,2.42-6.42,7.88-9.69,16.73-9.69,15.39,0,23,10.67,23,32q0,51.45-59.64,72.73c-24.61,8.73-48.37,13.09-71,13.09-4,0-8.12-.12-12.48-.36l-146-9.82q16,0-19.64,5.09c-23.88,3.4-39.64,5.09-47.4,5.09a173.36,173.36,0,0,1-43.76-5.69q-38.73-10.37-38.67-34c0-7.76,7.88-11.76,23.76-11.76l129.34,15q44.73,0,84.13-81.1,31.27-64.37,31.28-73.94a6.73,6.73,0,0,0-2.19-5h-41.94q-51.45,0-110.79-31.27-75.1-39.45-75-100.49,0-54.37,58.31-85.95a200.6,200.6,0,0,1,97.7-25.21c40.73,0,65.34,10.91,73.58,32.85q-17.82-19.1-68.36-19a198.13,198.13,0,0,0-91.89,22.3q-56.19,29.1-56.25,81.1,0,33.63,38.79,61.58,51.64,37.28,148.74,37.21a380.05,380.05,0,0,0,38.79-2.54q11.64-28,35.52-83.4,33.09-74.73,97.82-133,51.65-46.55,91.52-46.55Q1850,383.76,1849.94,429.22Zm-579.8,90.91c0,6.18-6.42,13-19.15,20.37l-55.76,32.36-6.43-6.06c15.88-15.88,30.19-30.67,42.92-44.12,11.39-12.12,19.63-18.18,24.6-18.18Q1270.15,504.5,1270.14,520.13Zm-147.28,125.1q0-73.82-39.39-139c-14.67-24.12-32.62-42.91-54-56.12-1.33-.73-4.36-2.42-8.85-5q-16.9,4.54-67.76,157.34-8.19,25.09-31.16,88.74-11.09,29.27-33.45,69.09c-11.39,20.24-28.48,40.24-51.52,60.25-2.3,1.82-6.54,5.33-12.73,10.3-2.17,1.7-8.84,6.06-20.24,13.22q80.91,10.37,104.73,10.3c40.13,0,72.86-5.7,98-17.09q57.83-26,89.46-86.07C1113.89,717.36,1122.86,682,1122.86,645.23Zm24-26.3c0,37.21-8.72,74.67-26.3,112.62q-65.64,141.63-233.83,141.7-73.1,0-122.43-11.64a116.27,116.27,0,0,1-22.68,7.4c-14.91,2.79-26.3,4.24-34.18,4.24a190.73,190.73,0,0,1-42.91-5.33c-6.55-1.7-13.82-6.19-21.58-13.82s-11.75-14.55-11.75-20.85c0-7.4,4.84-11,14.54-11a18.45,18.45,0,0,1,3.88.37L778,839.67q40.18-11.46,68.85-59.27c8.85-14.67,20.61-41.22,35.64-79.53,1.09-4.36,3.4-11.75,6.67-22.42Q918.79,591.35,930,564.62q31.63-73.83,77.34-126.07c-6.67-5.69-20.73-10.42-42.07-14.18-17.69-3.27-33-5-45.82-5-12.12,0-28,2.3-47.63,6.79q-54.2,12.36-102.07,63.4Q719.2,543.41,719.2,597.23c0,15.64,4.85,28.25,14.67,37.7s22.42,14.3,38.18,14.3q37.83,0,70-38.54c20-24,29.94-47.64,29.94-70.68,0-12.6-2.79-20.72-8.49-24.24h6.43c7.64,0,11.51,8.24,11.51,24.85q0,40.54-35.27,80.37c-23.4,26.55-48.61,39.88-75.4,39.88-21.82,0-39.4-8-52.61-23.88-12.85-14.91-19.27-33.33-19.27-55.4,0-24.6,6.78-50.18,20.24-76.49q27.45-53.27,86.67-79.28,46.54-20.18,101.7-20.24A319.86,319.86,0,0,1,993.39,417a122.47,122.47,0,0,1,14.19,5.22c6.67,2.66,10.3,4.12,11,4.12-9.21,0-3.88-4.73,16-14.06s32.73-13.94,38.31-13.94c10.18,0,16,3,17.45,9.21-22.42-1.21-41.46,6.55-56.85,23.15a35.23,35.23,0,0,0,4.61,5Q1089.22,464,1118,512.38,1146.93,560.56,1146.86,618.93Z"/><path class="cls-2" d="M1582.63,977c0,.49,0,3-.09,7.52s-.09,8.43-.09,11.7.12,7.49.36,12.68.54,9.91.91,14.14q1.62,15.23,4.88,23.56,3.09,7.79,6.9,8c1.56.13,3.2-2.11,4.89-6.7q2.89-7.8,4.35-22.84.72-6.35,1.08-13.86c.25-5,.4-9.18.46-12.51s.09-6.92.09-10.78v-7.07a4.93,4.93,0,0,1,1.63-3.72,5.51,5.51,0,0,1,3.89-1.54,5,5,0,0,1,3.81,1.63,5.59,5.59,0,0,1,1.54,4v7.07c0,4,0,7.7-.09,11.15s-.21,7.7-.45,12.78-.61,9.72-1.09,14q-1.63,16.13-5.07,25.55-5.25,14.33-15.41,13.78-10.87-.54-16.49-14.68-4-10-5.62-26.64-.72-6.72-1.09-14.77t-.36-13.14q0-5.09.09-11.88t.09-7.34a5.44,5.44,0,0,1,10.88,0Zm-26.28,21.93q-4.71-7.79-6.53-10.33-4.17-5.25-6.89-6c-3.14-.72-5.61-.42-7.43.91s-2.65,3.44-2.53,6.34c0,1.45,1.08,3.87,3.26,7.25q.18.36,8.7,12.14,4.17,5.81,6.7,9.88a80.78,80.78,0,0,1,5.26,10.33,44.24,44.24,0,0,1,3.44,11.69,25,25,0,0,1-1.63,12.42,19.33,19.33,0,0,1-7.25,9A18.27,18.27,0,0,1,1540,1065a24.94,24.94,0,0,1-12.15-5,30.71,30.71,0,0,1-6.61-7,41.23,41.23,0,0,1-4.08-6.8c-.61-1.57-1.57-4.17-2.9-7.8a5.28,5.28,0,0,1,.18-4.08,4.92,4.92,0,0,1,3-2.8,5.54,5.54,0,0,1,4.17.18,4.89,4.89,0,0,1,2.81,3.08,84.46,84.46,0,0,0,4.53,10.33,18.91,18.91,0,0,0,5.43,6.16q6.54,4.71,11.24,1.81t3.81-10.87q-1.1-9.62-13.41-26.46-7.44-10.51-8.88-12.87-4.89-7.42-5.08-12.69-.36-10,6.89-15.4,6.88-5.07,16.49-2.72,6.52,1.64,12.87,10a111.26,111.26,0,0,1,7.43,11.42,5,5,0,0,1,.54,4,5.33,5.33,0,0,1-2.44,3.35,5.14,5.14,0,0,1-4.08.63A5.55,5.55,0,0,1,1556.35,998.94Zm-49.66-44.76a5.27,5.27,0,1,1-3.81-1.63A5.22,5.22,0,0,1,1506.69,954.18Zm1.45,24.1q.18,11.6-.09,40.87t.27,40.87a5.87,5.87,0,0,1-1.54,4.17,5,5,0,0,1-3.81,1.63,5.48,5.48,0,0,1-3.9-1.54,5.13,5.13,0,0,1-1.63-3.89q-.54-11.79-.27-41.06t.09-41.05a5.55,5.55,0,0,1,1.54-4,5,5,0,0,1,3.81-1.64,5.48,5.48,0,0,1,3.89,1.54A5.36,5.36,0,0,1,1508.14,978.28Zm-68.87-34.43q2,25.18,1.63,65.24a102,102,0,0,1,6.89-12.14q6.33-9.78,12.68-14.68,9.06-6.88,17.58-4.17a20.19,20.19,0,0,1,10,7.07,25.75,25.75,0,0,1,4.71,11.06q3.45,22.1-15.4,43.49a92.62,92.62,0,0,1-17.76,15.59,87.94,87.94,0,0,1-19.76,10.15,5.56,5.56,0,0,1-4.17-.18,5,5,0,0,1-2.72-3.09,4.73,4.73,0,0,1,0-3.62,5.84,5.84,0,0,1-2.9-2.72c-.12-.36-.24-.78-.36-1.27l-.18-1.26V1053q0-9.42.36-33.52t.18-41.33q-.18-15.95-1.63-33.53a5.44,5.44,0,0,1,5-5.8,5.28,5.28,0,0,1,4,1.27A5.35,5.35,0,0,1,1439.27,943.85Zm1.08,109.83a83.1,83.1,0,0,0,28.82-21.21q15.4-17.4,12.69-34.43-1.09-7.62-7.07-9.43-3.27-1.08-7.61,2.36-4.9,3.63-10.33,12a126.7,126.7,0,0,0-8.16,14.86,105.59,105.59,0,0,0-5.07,12.87q-2,6.35-2.18,7.61t-.72,8.34q0,.9-.18,4.89c-.13,1.09-.19,1.75-.19,2ZM1312,1024.14q5.25-12.87,10.87-23.93a155.85,155.85,0,0,1,9.43-16.13q6-8.34,11.23-10.51a11.16,11.16,0,0,1,11.6,1.45q3.81,2.9,6.17,9.24,3.62,9.06,4.89,26.65a337.83,337.83,0,0,1,.18,48.2,5.59,5.59,0,0,1-1.82,3.72,4.88,4.88,0,0,1-3.89,1.36,5.73,5.73,0,0,1-3.81-1.81,5,5,0,0,1-1.36-4,313.47,313.47,0,0,0-.18-46.58q-1.08-15.94-4.17-23.56c-.84-2.29-1.75-3.81-2.71-4.53-.13-.12-.43-.12-.91,0q-2.18.9-6.34,6.71a120.39,120.39,0,0,0-8.7,14.86,293.93,293.93,0,0,0-12.51,28.09q-.72,2.17-2.72,9.24l-2.72,10v.36c0,.12,0,.42-.09.91s-.15,1-.27,1.63a8.62,8.62,0,0,1-.91,3.62,6,6,0,0,1-4,2.9,6.14,6.14,0,0,1-4.72-.9,6.36,6.36,0,0,1-2-2.36,6.94,6.94,0,0,1-.27-1.09q-.09-.54-.27-1.26a12.57,12.57,0,0,1-.18-2.36c-.12-1.69-.25-3.86-.37-6.53-.12-2.89-.18-6.28-.18-10.14q-.54-39.51-2.89-59.63a5.64,5.64,0,0,1,1.17-4.08,5.53,5.53,0,0,1,7.61-.91,5.56,5.56,0,0,1,2.09,3.54Q1311.5,995.33,1312,1024.14Zm-67.61-29.73a53.59,53.59,0,0,1,7.44-12.5q11.42-14.32,26.27-9.79a14.64,14.64,0,0,1,8.88,7.07q4.17,8,.19,15.22a31.36,31.36,0,0,1-11.42,11.78,41.43,41.43,0,0,1-14.32,5.8,23.69,23.69,0,0,1-11.42-.54,21,21,0,0,1-.54,2.35q-3.26,15.59-.36,27.92,2.53,11.05,9.06,12.32,10,1.82,19.21-12.32,2.17-3.09,6-13.42a4.91,4.91,0,0,1,2.81-3.08,5.58,5.58,0,0,1,4.17-.18,4.89,4.89,0,0,1,3,2.81,5.37,5.37,0,0,1,.18,4.08c-.24.6-.6,1.63-1.08,3.08a29.61,29.61,0,0,1-1.27,3.26l-1.1,2.9a30.36,30.36,0,0,1-1.62,3.45c-.61,1.08-1.27,2.17-2,3.26q-13.23,19.93-30.08,16.67-13.79-2.35-18-20.48-3.26-14.31.55-32.44a87.27,87.27,0,0,1,2.72-10.15,4.82,4.82,0,0,1-.27-3.8,5.62,5.62,0,0,1,2.26-3.09A1.6,1.6,0,0,1,1244.43,994.41Zm9.07,6.53c1.08.72,3.14.84,6.16.36a32.67,32.67,0,0,0,10.33-4.17q5.25-3.43,7-6.79a6.25,6.25,0,0,0,.27-6.08,3.67,3.67,0,0,0-2.36-1.63q-7.61-2.36-14.68,6.16A45.46,45.46,0,0,0,1253.5,1000.94Zm-137-16q2-1.82,9.06-5.26a87.54,87.54,0,0,1,13.6-5.62q9.24-3.08,15-2a11.76,11.76,0,0,1,7.25,3.81,12.55,12.55,0,0,1,2.54,8.51,9.36,9.36,0,0,1-.18,1.82,3.21,3.21,0,0,1,.9.9,4.61,4.61,0,0,1,1.09,1.82,12.18,12.18,0,0,1,.36,1.45c.12.72.24,1.69.36,2.89.12,1.69.25,4.11.36,7.25,0,1.57,0,3.27.1,5.08s.11,3.29.18,4.44.09,1.78.09,1.9q2.36,28.65,9.42,44.59a5.83,5.83,0,0,1-.09,4.17,5,5,0,0,1-2.81,3,5.54,5.54,0,0,1-4.16,0,5.27,5.27,0,0,1-3.09-2.81q-6-14.15-8.7-34.26a145.37,145.37,0,0,1-7.43,15.77q-6,10.69-12.5,16.13-9.07,7.26-18.67,4.89c-4.35-1.08-7.55-3-9.61-5.61q-7.6-10-.36-23.38,4.53-8.34,16.86-20.67l9.06-8.51,10-9.79q7.8-8.16,8-11.42V983a1.48,1.48,0,0,0-.72-.18c-2.18-.37-5.5.18-10,1.62a66.84,66.84,0,0,0-8.52,3.45q-4.53,2-7.16,3.44a37.81,37.81,0,0,0-3.35,2,5,5,0,0,1-3.9,1.27,5.22,5.22,0,0,1-3.72-1.9,5.3,5.3,0,0,1-1.26-4A5.09,5.09,0,0,1,1116.48,985Zm37.52,16.85-1.09,1.27c-2.06,2.18-5.37,5.44-10,9.79l-9.24,8.7q-11.23,11.05-14.86,17.94-4,7.44-.55,11.78a6.91,6.91,0,0,0,3.44,1.63q4.37,1.1,9.25-2.9,4.89-4.17,10-13a114.33,114.33,0,0,0,12.32-31.53A21.32,21.32,0,0,0,1154,1001.84Zm-60-47.66a5.27,5.27,0,1,1-3.81-1.63A5.22,5.22,0,0,1,1094,954.18Zm1.45,24.1q.18,11.6-.09,40.87t.27,40.87a5.87,5.87,0,0,1-1.54,4.17,5,5,0,0,1-3.81,1.63,5.48,5.48,0,0,1-3.9-1.54,5.13,5.13,0,0,1-1.63-3.89q-.54-11.79-.27-41.06t.09-41.05a5.55,5.55,0,0,1,1.54-4,5,5,0,0,1,3.81-1.64,5.48,5.48,0,0,1,3.89,1.54A5.36,5.36,0,0,1,1095.46,978.28Zm-26.64,20.12q-7.08-14-13.6-16.31c-2.77-.85-5.62.3-8.52,3.44q-5.25,5.81-8.6,16.86a65.46,65.46,0,0,0-3,21.38,70,70,0,0,0,2,14.59q1.62,6.26,4.08,9.34a18.72,18.72,0,0,0,4.89,4.53,7.85,7.85,0,0,0,4.62,1.27q6-.37,12-8.79t8.43-24.93a5.17,5.17,0,0,1,2.18-3.62,5.7,5.7,0,0,1,4.07-1,4.84,4.84,0,0,1,3.54,2.09,6,6,0,0,1,1.09,4q-2.73,18.86-11.06,30.64t-19.58,12.5q-11.78.72-19.21-10.51t-8-29.72a82.7,82.7,0,0,1,3.45-25.38q4-12.87,10.87-20.48,9.24-10.15,20.12-6.52,10.68,3.62,19.93,21.56a5.79,5.79,0,0,1,.27,4.18,4.94,4.94,0,0,1-2.62,3.16,5.53,5.53,0,0,1-4.17.37A5.24,5.24,0,0,1,1068.82,998.4Zm-105.48,25.74q5.25-12.87,10.87-23.93a156,156,0,0,1,9.42-16.13q6-8.34,11.24-10.51a11.16,11.16,0,0,1,11.6,1.45q3.81,2.9,6.16,9.24,3.63,9.06,4.89,26.65a337.79,337.79,0,0,1,.19,48.2,5.63,5.63,0,0,1-1.82,3.72,4.89,4.89,0,0,1-3.89,1.36,5.71,5.71,0,0,1-3.81-1.81,5,5,0,0,1-1.36-4,313.47,313.47,0,0,0-.18-46.58q-1.08-15.94-4.17-23.56c-.84-2.29-1.75-3.81-2.72-4.53q-.18-.18-.9,0-2.18.9-6.35,6.71a121.67,121.67,0,0,0-8.7,14.86,293.78,293.78,0,0,0-12.5,28.09c-.49,1.45-1.39,4.53-2.72,9.24l-2.72,10v.36c0,.12,0,.42-.09.91s-.15,1-.27,1.63a8.62,8.62,0,0,1-.91,3.62,6,6,0,0,1-4,2.9,6.1,6.1,0,0,1-4.71-.9,6.36,6.36,0,0,1-2-2.36,6.94,6.94,0,0,1-.27-1.09q-.09-.54-.27-1.26a12.46,12.46,0,0,1-.19-2.36c-.12-1.69-.23-3.86-.36-6.53-.12-2.89-.18-6.28-.18-10.14q-.54-39.51-2.9-59.63a5.64,5.64,0,0,1,1.18-4.08,5.52,5.52,0,0,1,7.61-.91,5.51,5.51,0,0,1,2.08,3.54Q962.78,995.33,963.34,1024.14Zm-67.61-29.73a53.57,53.57,0,0,1,7.43-12.5q11.42-14.32,26.28-9.79a14.66,14.66,0,0,1,8.88,7.07q4.17,8,.18,15.22a31.26,31.26,0,0,1-11.41,11.78,41.5,41.5,0,0,1-14.32,5.8,23.68,23.68,0,0,1-11.42-.54,19.11,19.11,0,0,1-.55,2.35q-3.25,15.59-.35,27.92,2.53,11.05,9,12.32,10,1.82,19.22-12.32,2.17-3.09,6-13.42a4.91,4.91,0,0,1,2.81-3.08,5.58,5.58,0,0,1,4.17-.18,4.91,4.91,0,0,1,3,2.81,5.37,5.37,0,0,1,.18,4.08c-.25.6-.61,1.63-1.09,3.08a26,26,0,0,1-1.27,3.26l-1.09,2.9a28.78,28.78,0,0,1-1.63,3.45c-.6,1.08-1.27,2.17-2,3.26q-13.23,19.93-30.08,16.67-13.79-2.35-18-20.48-3.25-14.31.55-32.44a89.29,89.29,0,0,1,2.71-10.15,4.91,4.91,0,0,1-.27-3.8,5.64,5.64,0,0,1,2.27-3.09A1.6,1.6,0,0,1,895.73,994.41Zm9.06,6.53q1.63,1.08,6.16.36a32.54,32.54,0,0,0,10.34-4.17q5.25-3.43,7-6.79a6.31,6.31,0,0,0,.27-6.08,3.67,3.67,0,0,0-2.36-1.63q-7.62-2.36-14.68,6.16A45.74,45.74,0,0,0,904.79,1000.94Zm-24.28-58q1.1,15.94.91,42.59-.18,34.26,0,42c0,.24,0,1.15.09,2.72s.12,3.59.18,6.07.09,4.74.09,6.8c.12,4.22.24,7.55.36,10v3.45a5.3,5.3,0,0,0-.18,1.27v.72l-.36,1.09a2.7,2.7,0,0,1-.72,1.27,3.46,3.46,0,0,1-.92.91,5.14,5.14,0,0,1-5.25,3.07q-21.75-1.26-37.88-14.31-16.3-12.87-20.48-34.44a55.13,55.13,0,0,1-.36-20.84q2.71-15,13.77-18.67,10.51-3.25,19.76,5.44,6.35,6.17,11.78,18.48a229.54,229.54,0,0,1,9.24,26.83q-.18-7.62,0-41.87.18-26.28-.9-41.87a5.42,5.42,0,0,1,5-5.79,5.42,5.42,0,0,1,5.89,5.07Zm-13.23,110.19-.9-2.35q-.55-1.46-3.63-10.88-.36-1.44-2.36-8.51t-4.25-13.87q-2.28-6.79-4.81-12.6-4.71-10.32-9.42-15-4.35-4.17-8.88-2.72-4.9,1.46-6.35,10.15a45.92,45.92,0,0,0,.18,16.67,47,47,0,0,0,14,25.83A52.54,52.54,0,0,0,867.28,1053.13Zm-112.91-29q5.25-12.87,10.87-23.93a155.85,155.85,0,0,1,9.43-16.13q6-8.34,11.24-10.51A11.15,11.15,0,0,1,797.5,975q3.81,2.9,6.17,9.24,3.62,9.06,4.89,26.65a336.36,336.36,0,0,1,.18,48.2,5.58,5.58,0,0,1-1.81,3.72,4.91,4.91,0,0,1-3.9,1.36,5.68,5.68,0,0,1-3.8-1.81,5,5,0,0,1-1.37-4,313.47,313.47,0,0,0-.18-46.58q-1.08-15.94-4.16-23.56c-.85-2.29-1.75-3.81-2.72-4.53-.12-.12-.42-.12-.91,0q-2.17.9-6.34,6.71a120.39,120.39,0,0,0-8.7,14.86,296.45,296.45,0,0,0-12.51,28.09q-.72,2.17-2.72,9.24l-2.71,10v.36c0,.12,0,.42-.09.91s-.16,1-.28,1.63a8.79,8.79,0,0,1-.9,3.62,6,6,0,0,1-4,2.9,6.1,6.1,0,0,1-4.71-.9,6.38,6.38,0,0,1-2-2.36,6.94,6.94,0,0,1-.27-1.09q-.09-.54-.27-1.26a12.57,12.57,0,0,1-.18-2.36c-.12-1.69-.24-3.86-.37-6.53-.12-2.89-.17-6.28-.17-10.14q-.55-39.51-2.9-59.63a5.64,5.64,0,0,1,1.17-4.08,5.54,5.54,0,0,1,7.62-.91,5.55,5.55,0,0,1,2.08,3.54Q753.83,995.33,754.37,1024.14Zm-67.6-29.73a53.23,53.23,0,0,1,7.43-12.5q11.41-14.32,26.28-9.79a14.61,14.61,0,0,1,8.87,7.07c2.79,5.32,2.84,10.39.19,15.22a31.36,31.36,0,0,1-11.42,11.78,41.43,41.43,0,0,1-14.32,5.8,23.69,23.69,0,0,1-11.42-.54,19,19,0,0,1-.54,2.35q-3.26,15.59-.36,27.92,2.53,11.05,9.06,12.32,10,1.82,19.21-12.32,2.18-3.09,6-13.42a4.91,4.91,0,0,1,2.81-3.08,5.58,5.58,0,0,1,4.17-.18,4.89,4.89,0,0,1,3,2.81,5.37,5.37,0,0,1,.18,4.08c-.24.6-.6,1.63-1.08,3.08a27.7,27.7,0,0,1-1.27,3.26l-1.09,2.9a30.4,30.4,0,0,1-1.63,3.45c-.61,1.08-1.27,2.17-2,3.26q-13.23,19.93-30.08,16.67-13.79-2.35-18-20.48-3.25-14.31.55-32.44a87.27,87.27,0,0,1,2.72-10.15,4.87,4.87,0,0,1-.27-3.8,5.67,5.67,0,0,1,2.26-3.09A1.61,1.61,0,0,1,686.77,994.41Zm9.06,6.53c1.08.72,3.14.84,6.16.36a32.49,32.49,0,0,0,10.33-4.17q5.25-3.43,7-6.79a6.25,6.25,0,0,0,.27-6.08,3.64,3.64,0,0,0-2.36-1.63q-7.61-2.36-14.68,6.16A45.74,45.74,0,0,0,695.83,1000.94Zm-74.67-34.62a70.77,70.77,0,0,0,12.69.73q.9-22.49.9-26.46a5.44,5.44,0,0,1,10.87,0q0,4-.9,25.73.18,0,15.58-1.81a5.35,5.35,0,0,1,3.9,1.18,5.13,5.13,0,0,1,2,3.53,5,5,0,0,1-1.09,3.9,5.67,5.67,0,0,1-3.72,2.08q-15.95,1.81-17,1.81-.52,13.79-.54,24.11,0,23.21.91,33.89,1.46,14.68,4.35,18.31a6.55,6.55,0,0,0,2.17,1.81,2.91,2.91,0,0,0,2-.55c1.69-.84,3.26-3.14,4.71-6.88a64.77,64.77,0,0,0,2.9-15,141.64,141.64,0,0,0,.18-29.55,5.15,5.15,0,0,1,1.27-4,5.37,5.37,0,0,1,3.72-1.81,5.3,5.3,0,0,1,4,1.27,5,5,0,0,1,1.91,3.44,163.81,163.81,0,0,1-.19,31.72,75.66,75.66,0,0,1-3.62,17.58q-3.45,9.62-9.79,12.87a13.19,13.19,0,0,1-10.33,1.09,15.68,15.68,0,0,1-7.61-5.62q-4.71-5.81-6.34-23.75-1.1-11.6-1.09-34.79,0-10.15.54-23.38a81.22,81.22,0,0,1-13.77-.73,5.14,5.14,0,0,1-3.62-2.17,5.53,5.53,0,0,1-1-4,4.72,4.72,0,0,1,2.08-3.44A5.9,5.9,0,0,1,621.16,966.32Z"/><path class="cls-2" d="M2604.09,998.94q-4.71-7.79-6.53-10.33-4.17-5.25-6.88-6-4.71-1.08-7.43.91c-1.82,1.33-2.66,3.44-2.54,6.34,0,1.45,1.08,3.87,3.26,7.25q.18.36,8.7,12.14,4.17,5.81,6.71,9.88a80.87,80.87,0,0,1,5.25,10.33,43.87,43.87,0,0,1,3.44,11.69,25.07,25.07,0,0,1-1.62,12.42,19.45,19.45,0,0,1-7.25,9,18.31,18.31,0,0,1-11.42,2.44,24.94,24.94,0,0,1-12.15-5,30.71,30.71,0,0,1-6.61-7,40.53,40.53,0,0,1-4.08-6.8q-.9-2.36-2.9-7.8a5.32,5.32,0,0,1,.18-4.08,4.9,4.9,0,0,1,3-2.8,5.54,5.54,0,0,1,4.17.18,4.89,4.89,0,0,1,2.81,3.08,84.46,84.46,0,0,0,4.53,10.33,18.83,18.83,0,0,0,5.44,6.16q6.53,4.71,11.23,1.81c3.15-1.93,4.41-5.55,3.81-10.87q-1.1-9.62-13.41-26.46-7.42-10.51-8.88-12.87-4.9-7.42-5.07-12.69-.37-10,6.88-15.4,6.89-5.07,16.5-2.72,6.51,1.64,12.86,10a111.26,111.26,0,0,1,7.43,11.42,5.05,5.05,0,0,1,.54,4,5.33,5.33,0,0,1-2.44,3.35,5.14,5.14,0,0,1-4.08.63A5.55,5.55,0,0,1,2604.09,998.94Zm-72-16.12q-7.26,2.53-12.51,15a75.22,75.22,0,0,0-5.8,27.74q-.18,15,5.08,22.83,4.89,7.24,14.68,4.53,5.43-1.46,8.88-10.51,3.62-9.6,3.62-23.2a80.83,80.83,0,0,0-3.26-23.92c-2.17-6.77-4.78-10.94-7.79-12.5,0-.13-.31-.19-.91-.19h-1.27A1.61,1.61,0,0,1,2532.14,982.82Zm-5.08-9.61a4.91,4.91,0,0,1,4.53-1.63,2.72,2.72,0,0,0,1.09.18h1.81a14.18,14.18,0,0,1,5.62,1.27q8.52,4.53,13,18.84a92.43,92.43,0,0,1,3.81,27.37q0,15.6-4.35,27-5.45,14.13-16.13,17.21-8.52,2.36-15.41-.09a22.54,22.54,0,0,1-11.24-8.79q-7.24-10.68-6.88-29.17a84,84,0,0,1,6.7-31.9Q2516.37,977.93,2527.06,973.21Zm-33.71-19a5.44,5.44,0,0,1-3.81,9.24,5.57,5.57,0,0,1-5.43-5.44,5.38,5.38,0,0,1,9.24-3.8Zm1.45,24.1q.18,11.6-.09,40.87T2495,1060a5.82,5.82,0,0,1-1.54,4.17,5,5,0,0,1-3.8,1.63,5.48,5.48,0,0,1-3.9-1.54,5.13,5.13,0,0,1-1.63-3.89q-.54-11.79-.27-41.06t.09-41.05a5.55,5.55,0,0,1,1.54-4,5,5,0,0,1,3.8-1.64,5.5,5.5,0,0,1,3.9,1.54A5.35,5.35,0,0,1,2494.8,978.28ZM2445,1008.37q9.78-24.29,27.36-37.34a5.76,5.76,0,0,1,4.09-1,4.84,4.84,0,0,1,3.53,2.09,5.69,5.69,0,0,1,1,4.08,4.83,4.83,0,0,1-2.09,3.53q-14.13,10.51-22.11,28.64a122.58,122.58,0,0,0-9.79,39.14,24.81,24.81,0,0,0,0,4.36,33.86,33.86,0,0,1-.18,6.34c-.12.48-.21.88-.27,1.18a3.21,3.21,0,0,1-.27.81,7.1,7.1,0,0,1-1.45,2.18,5.61,5.61,0,0,1-4.53,1.26,5,5,0,0,1-3.63-2,5.58,5.58,0,0,1-.9-2.17,4.1,4.1,0,0,1-.18-1.27,29,29,0,0,1,0-4.89v-11.6c0-.85,0-2.06-.09-3.63s-.09-2.78-.09-3.62q0-2-1-21.57t-1-29.54a5.44,5.44,0,0,1,10.87,0Q2444.23,993.32,2445,1008.37Zm-40.78-25.55q-7.24,2.53-12.5,15a75.22,75.22,0,0,0-5.8,27.74q-.2,15,5.07,22.83,4.9,7.24,14.68,4.53,5.45-1.46,8.88-10.51,3.63-9.6,3.63-23.2a80.83,80.83,0,0,0-3.26-23.92q-3.27-10.16-7.8-12.5c0-.13-.3-.19-.9-.19h-1.27A1.69,1.69,0,0,1,2404.18,982.82Zm-5.07-9.61a4.9,4.9,0,0,1,4.53-1.63,2.69,2.69,0,0,0,1.09.18h1.81a14.22,14.22,0,0,1,5.62,1.27q8.52,4.53,13,18.84a92.43,92.43,0,0,1,3.81,27.37q0,15.6-4.35,27-5.43,14.13-16.13,17.21-8.52,2.36-15.4-.09a22.54,22.54,0,0,1-11.24-8.79q-7.26-10.68-6.89-29.17a84,84,0,0,1,6.71-31.9Q2388.42,977.93,2399.11,973.21Zm-38.43,25.73q-4.71-7.79-6.52-10.33-4.17-5.25-6.89-6-4.71-1.08-7.43.91t-2.54,6.34q0,2.18,3.27,7.25.18.36,8.7,12.14,4.17,5.81,6.7,9.88a82.1,82.1,0,0,1,5.26,10.33,44.24,44.24,0,0,1,3.44,11.69,25.07,25.07,0,0,1-1.63,12.42,19.39,19.39,0,0,1-7.25,9,18.27,18.27,0,0,1-11.41,2.44,24.94,24.94,0,0,1-12.15-5,30.74,30.74,0,0,1-6.62-7,41,41,0,0,1-4.07-6.8c-.61-1.57-1.57-4.17-2.9-7.8a5.32,5.32,0,0,1,.18-4.08,4.9,4.9,0,0,1,3-2.8,5.54,5.54,0,0,1,4.17.18,4.91,4.91,0,0,1,2.81,3.08,84.46,84.46,0,0,0,4.53,10.33,18.8,18.8,0,0,0,5.43,6.16q6.52,4.71,11.24,1.81t3.81-10.87q-1.1-9.62-13.41-26.46-7.44-10.51-8.89-12.87-4.89-7.42-5.07-12.69-.36-10,6.89-15.4,6.88-5.07,16.49-2.72,6.53,1.64,12.87,10a111.26,111.26,0,0,1,7.43,11.42,5.05,5.05,0,0,1,.54,4,5.31,5.31,0,0,1-2.45,3.35,5.11,5.11,0,0,1-4.07.63A5.59,5.59,0,0,1,2360.68,998.94Zm-96.78-4.53a53.24,53.24,0,0,1,7.44-12.5q11.41-14.32,26.27-9.79a14.66,14.66,0,0,1,8.88,7.07q4.17,8,.19,15.22a31.36,31.36,0,0,1-11.42,11.78,41.58,41.58,0,0,1-14.32,5.8,23.69,23.69,0,0,1-11.42-.54,21,21,0,0,1-.54,2.35q-3.27,15.59-.37,27.92,2.54,11.05,9.07,12.32,10,1.82,19.21-12.32,2.18-3.09,6-13.42a4.91,4.91,0,0,1,2.81-3.08,5.58,5.58,0,0,1,4.17-.18,4.94,4.94,0,0,1,3,2.81,5.37,5.37,0,0,1,.18,4.08c-.24.6-.61,1.63-1.09,3.08a26,26,0,0,1-1.27,3.26l-1.09,2.9a30.36,30.36,0,0,1-1.62,3.45c-.61,1.08-1.27,2.17-2,3.26q-13.23,19.93-30.08,16.67-13.78-2.35-17.95-20.48-3.26-14.31.55-32.44a89.29,89.29,0,0,1,2.71-10.15,4.91,4.91,0,0,1-.27-3.8,5.69,5.69,0,0,1,2.27-3.09A1.6,1.6,0,0,1,2263.9,994.41Zm9.07,6.53c1.08.72,3.14.84,6.16.36a32.67,32.67,0,0,0,10.33-4.17q5.25-3.43,7-6.79a6.28,6.28,0,0,0,.27-6.08,3.67,3.67,0,0,0-2.36-1.63q-7.6-2.36-14.68,6.16A45.46,45.46,0,0,0,2273,1000.94Zm-33.53-2.54q-7.08-14-13.6-16.31-4.15-1.27-8.52,3.44-5.25,5.81-8.6,16.86a65.18,65.18,0,0,0-3,21.38,70.07,70.07,0,0,0,2,14.59c1.08,4.17,2.45,7.28,4.08,9.34a18.72,18.72,0,0,0,4.89,4.53,7.85,7.85,0,0,0,4.62,1.27q6-.37,12.05-8.79t8.43-24.93a5.21,5.21,0,0,1,2.18-3.62,5.72,5.72,0,0,1,4.07-1,4.84,4.84,0,0,1,3.54,2.09,5.87,5.87,0,0,1,1.09,4q-2.72,18.86-11.06,30.64t-19.57,12.5q-11.79.72-19.21-10.51t-8-29.72a82.7,82.7,0,0,1,3.45-25.38q4-12.87,10.87-20.48,9.24-10.15,20.12-6.52,10.68,3.62,19.93,21.56a5.84,5.84,0,0,1,.28,4.18,5,5,0,0,1-2.63,3.16,5.53,5.53,0,0,1-4.17.37A5.26,5.26,0,0,1,2239.44,998.4Zm-60.54,0q-7.07-14-13.59-16.31-4.17-1.27-8.52,3.44-5.25,5.81-8.61,16.86a65.42,65.42,0,0,0-3,21.38,69.41,69.41,0,0,0,2,14.59q1.62,6.26,4.07,9.34a18.74,18.74,0,0,0,4.9,4.53,7.85,7.85,0,0,0,4.62,1.27q6-.37,12-8.79t8.43-24.93a5.2,5.2,0,0,1,2.17-3.62,5.74,5.74,0,0,1,4.08-1,4.84,4.84,0,0,1,3.54,2.09,5.92,5.92,0,0,1,1.08,4q-2.72,18.86-11.05,30.64t-19.58,12.5q-11.77.72-19.21-10.51t-8-29.72a82.37,82.37,0,0,1,3.44-25.38q4-12.87,10.88-20.48,9.24-10.15,20.11-6.52,10.7,3.62,19.94,21.56a5.89,5.89,0,0,1,.27,4.18,4.94,4.94,0,0,1-2.62,3.16,5.54,5.54,0,0,1-4.17.37A5.31,5.31,0,0,1,2178.9,998.4ZM2069.25,985q2-1.82,9.07-5.26a87.83,87.83,0,0,1,13.59-5.62q9.24-3.08,15-2a11.76,11.76,0,0,1,7.25,3.81,12.55,12.55,0,0,1,2.54,8.51,9.36,9.36,0,0,1-.18,1.82,3.39,3.39,0,0,1,.91.9,4.6,4.6,0,0,1,1.08,1.82,12.18,12.18,0,0,1,.36,1.45c.13.72.25,1.69.37,2.89q.18,2.53.36,7.25c0,1.57,0,3.27.09,5.08s.12,3.29.18,4.44.09,1.78.09,1.9q2.36,28.65,9.43,44.59a5.89,5.89,0,0,1-.09,4.17,5,5,0,0,1-2.81,3,5.57,5.57,0,0,1-4.17,0,5.26,5.26,0,0,1-3.08-2.81q-6-14.15-8.71-34.26a147.27,147.27,0,0,1-7.42,15.77q-6,10.69-12.51,16.13-9.06,7.26-18.67,4.89c-4.34-1.08-7.55-3-9.6-5.61q-7.62-10-.37-23.38,4.55-8.34,16.86-20.67l9.06-8.51,10-9.79q7.8-8.16,8-11.42V983a1.45,1.45,0,0,0-.72-.18c-2.17-.37-5.5.18-10,1.62a67.43,67.43,0,0,0-8.52,3.45q-4.53,2-7.15,3.44a38.56,38.56,0,0,0-3.36,2,5,5,0,0,1-3.9,1.27,5.2,5.2,0,0,1-3.71-1.9,5.31,5.31,0,0,1-1.27-4A5.12,5.12,0,0,1,2069.25,985Zm37.52,16.85-1.09,1.27q-3.07,3.27-10,9.79l-9.25,8.7q-11.23,11.05-14.86,17.94-4,7.44-.54,11.78c.48.61,1.63,1.15,3.44,1.63q4.35,1.1,9.24-2.9,4.9-4.17,10-13a114,114,0,0,0,12.33-31.53A22,22,0,0,0,2106.77,1001.84Zm-147.35-23.92q-.9,29,0,42.23,1.1,14.69,4,22.47,2.35,7.08,5.07,7.07,2.91,0,5.62-3.62c1.94-2.79,3.57-7,4.9-12.51s2.66-14.68,4-27.73q1.27-13.05,1.27-18.85-.18-4.89-.18-8.34a6.06,6.06,0,0,1,.18-1.45,3.5,3.5,0,0,1,.18-1.09,5.68,5.68,0,0,1,1.27-1.8,4.85,4.85,0,0,1,5.44-1.27,5,5,0,0,1,3.08,2.35,8.89,8.89,0,0,1,.37.91q.17.36.36.9v3.09c.12,2.41.18,4.23.18,5.43v2.54l.91,17.4q.72,13.41.9,21.93.9,34.8-4.53,48.21a37.17,37.17,0,0,1-9.06,13.14,29.65,29.65,0,0,1-13,7.16,26.34,26.34,0,0,1-15-.73,31.56,31.56,0,0,1-13.51-9.24,4.75,4.75,0,0,1-1.45-3.9,5.68,5.68,0,0,1,1.81-3.8,4.87,4.87,0,0,1,3.9-1.36,5.35,5.35,0,0,1,3.72,1.81q8.15,9.06,17.94,6.7a19.29,19.29,0,0,0,8.52-4.71,25.11,25.11,0,0,0,6-9.06q3.26-8.16,3.81-25.19a50.09,50.09,0,0,1-3.09,5.62q-5.79,8.52-14.5,8.34-10.32-.19-15.4-14.32-3.25-9.24-4.53-25.38-.9-13.77,0-43.32a4.8,4.8,0,0,1,1.72-3.71,5.73,5.73,0,0,1,3.9-1.54,4.78,4.78,0,0,1,3.71,1.72A5.69,5.69,0,0,1,1959.42,977.92ZM1827.48,985q2-1.82,9.06-5.26a87.54,87.54,0,0,1,13.6-5.62q9.24-3.08,15-2a11.76,11.76,0,0,1,7.25,3.81,12.55,12.55,0,0,1,2.54,8.51,9.36,9.36,0,0,1-.18,1.82,3.21,3.21,0,0,1,.9.9,4.5,4.5,0,0,1,1.09,1.82,12.18,12.18,0,0,1,.36,1.45c.12.72.24,1.69.36,2.89q.2,2.53.37,7.25c0,1.57,0,3.27.09,5.08s.12,3.29.18,4.44.09,1.78.09,1.9q2.36,28.65,9.42,44.59a5.83,5.83,0,0,1-.09,4.17,5,5,0,0,1-2.81,3,5.54,5.54,0,0,1-4.16,0,5.3,5.3,0,0,1-3.09-2.81q-6-14.15-8.7-34.26a147.27,147.27,0,0,1-7.42,15.77q-6,10.69-12.51,16.13-9.06,7.26-18.67,4.89c-4.35-1.08-7.55-3-9.61-5.61q-7.6-10-.36-23.38,4.53-8.34,16.86-20.67l9.06-8.51,10-9.79q7.79-8.16,8-11.42V983a1.48,1.48,0,0,0-.72-.18c-2.18-.37-5.5.18-10,1.62a66.84,66.84,0,0,0-8.52,3.45q-4.53,2-7.16,3.44a37.81,37.81,0,0,0-3.35,2,5,5,0,0,1-3.9,1.27,5.18,5.18,0,0,1-3.71-1.9,5.31,5.31,0,0,1-1.27-4A5.09,5.09,0,0,1,1827.48,985Zm37.52,16.85-1.09,1.27c-2.06,2.18-5.37,5.44-10,9.79l-9.24,8.7q-11.23,11.05-14.86,17.94-4,7.44-.55,11.78c.49.61,1.64,1.15,3.45,1.63q4.35,1.1,9.24-2.9,4.89-4.17,10-13a113.71,113.71,0,0,0,12.32-31.53A21.32,21.32,0,0,0,1865,1001.84Zm-60-47.66a5.26,5.26,0,1,1-3.81-1.63A5.22,5.22,0,0,1,1805,954.18Zm1.45,24.1q.18,11.6-.09,40.87t.27,40.87a5.82,5.82,0,0,1-1.54,4.17,5,5,0,0,1-3.81,1.63,5.44,5.44,0,0,1-3.89-1.54,5.13,5.13,0,0,1-1.63-3.89q-.55-11.79-.28-41.06t.09-41.05a5.52,5.52,0,0,1,1.55-4,5,5,0,0,1,3.8-1.64,5.48,5.48,0,0,1,3.89,1.54A5.36,5.36,0,0,1,1806.46,978.28Zm-49.84,30.09Q1766.4,984.08,1784,971a5.74,5.74,0,0,1,4.08-1,4.8,4.8,0,0,1,3.53,2.09,5.69,5.69,0,0,1,1,4.08,4.79,4.79,0,0,1-2.08,3.53q-14.13,10.51-22.11,28.64a122.58,122.58,0,0,0-9.79,39.14,24.81,24.81,0,0,0,0,4.36,33.86,33.86,0,0,1-.18,6.34c-.12.48-.21.88-.27,1.18a4.27,4.27,0,0,1-.27.81,7,7,0,0,1-1.46,2.18,5.61,5.61,0,0,1-4.53,1.26,5,5,0,0,1-3.62-2,5.77,5.77,0,0,1-.91-2.17,4.1,4.1,0,0,1-.18-1.27,31.36,31.36,0,0,1,0-4.89v-11.6q0-1.28-.09-3.63c-.06-1.57-.09-2.78-.09-3.62q0-2-1-21.57t-1-29.54a5.44,5.44,0,0,1,10.87,0Q1755.89,993.32,1756.62,1008.37Zm-65.61-14a53.23,53.23,0,0,1,7.43-12.5q11.41-14.32,26.28-9.79a14.66,14.66,0,0,1,8.88,7.07q4.17,8,.18,15.22a31.22,31.22,0,0,1-11.42,11.78A41.43,41.43,0,0,1,1708,1012a23.65,23.65,0,0,1-11.41-.54,23.64,23.64,0,0,1-.55,2.35q-3.25,15.59-.36,27.92,2.54,11.05,9.06,12.32,10,1.82,19.21-12.32,2.19-3.09,6-13.42a4.88,4.88,0,0,1,2.81-3.08,5.56,5.56,0,0,1,4.16-.18,4.89,4.89,0,0,1,3,2.81,5.37,5.37,0,0,1,.19,4.08c-.25.6-.61,1.63-1.09,3.08a27.7,27.7,0,0,1-1.27,3.26l-1.09,2.9a28.78,28.78,0,0,1-1.63,3.45c-.6,1.08-1.27,2.17-2,3.26q-13.23,19.93-30.08,16.67-13.77-2.35-17.94-20.48-3.27-14.31.54-32.44a89.31,89.31,0,0,1,2.72-10.15,4.87,4.87,0,0,1-.27-3.8,5.67,5.67,0,0,1,2.26-3.09A1.67,1.67,0,0,1,1691,994.41Zm9.06,6.53q1.64,1.08,6.16.36a32.49,32.49,0,0,0,10.33-4.17q5.26-3.43,7-6.79a6.25,6.25,0,0,0,.27-6.08,3.65,3.65,0,0,0-2.35-1.63q-7.62-2.36-14.68,6.16A45.46,45.46,0,0,0,1700.07,1000.94Zm-74.67-34.62a70.88,70.88,0,0,0,12.69.73q.9-22.49.9-26.46a5.44,5.44,0,0,1,10.88,0q0,4-.91,25.73.18,0,15.59-1.81a5.36,5.36,0,0,1,3.9,1.18,5.15,5.15,0,0,1,2,3.53,5,5,0,0,1-1.09,3.9,5.65,5.65,0,0,1-3.71,2.08q-16,1.81-17,1.81-.55,13.79-.55,24.11,0,23.21.91,33.89,1.45,14.68,4.35,18.31a6.65,6.65,0,0,0,2.17,1.81,2.91,2.91,0,0,0,2-.55c1.69-.84,3.26-3.14,4.71-6.88a64.77,64.77,0,0,0,2.9-15,141.64,141.64,0,0,0,.18-29.55,5.15,5.15,0,0,1,1.27-4,5.39,5.39,0,0,1,3.72-1.81,5.28,5.28,0,0,1,4,1.27,5,5,0,0,1,1.91,3.44,164.62,164.62,0,0,1-.18,31.72,76.14,76.14,0,0,1-3.63,17.58c-2.3,6.41-5.55,10.69-9.79,12.87a13.19,13.19,0,0,1-10.33,1.09,15.72,15.72,0,0,1-7.61-5.62q-4.71-5.81-6.34-23.75-1.1-11.6-1.09-34.79,0-10.15.55-23.38A81.29,81.29,0,0,1,1624,977a5.18,5.18,0,0,1-3.63-2.17,5.57,5.57,0,0,1-1-4,4.72,4.72,0,0,1,2.08-3.44A5.9,5.9,0,0,1,1625.4,966.32Z"/></svg>