<svg xmlns="http://www.w3.org/2000/svg" viewBox="0 0 1080 333.1469"><defs><style>.cls-1{fill:#fff;}</style></defs><g id="Capa_1" data-name="Capa 1"><path class="cls-1" d="M315.7127,81.7588v39.9731a5.5209,5.5209,0,0,0-.4612,1.1365,28.13,28.13,0,0,1-8.3288,16.074,6.3225,6.3225,0,0,0-2.0274,5.1312q.0588,68.4036.03,136.8073c0,.7686.0027,1.5372-.0007,2.3058-.0319,7.29-3.9518,11.2281-11.256,11.2288q-109.01.0105-218.0207.0012a16.369,16.369,0,0,1-2.3016-.0854c-3.9565-.5643-6.9015-2.5916-8.1766-6.4263a17.85,17.85,0,0,1-.6449-5.5387q-.0492-69.0441.0136-138.0882a6.013,6.013,0,0,0-1.9987-4.8936c-4.8615-4.5926-8.4-10.2448-8.6658-16.933-.5279-13.2945-.5157-26.6189-.3683-39.9269.0508-4.5861,4.1985-8.06,8.8225-8.4826.6544-.06,1.3051-.1591,2.1709-.2666,0-1.0676,0-1.9919,0-2.9162,0-7.2588-.0293-14.5177.01-21.7764.037-6.9034,3.9384-10.8576,10.7874-10.859q109.3946-.0216,218.7892.0006c6.7961.0014,10.8024,4.0558,10.8322,10.8716.0322,7.3441.0076,14.6884.0078,22.0326,0,.9047,0,1.8093,0,2.8C310.7112,73.9263,313.9249,76.905,315.7127,81.7588ZM84.1749,274.5683H193.814v-3.2416q0-40.35.0034-80.7.0036-11.523,11.4592-11.5124,25.3628-.0108,50.7256-.0007c7.8429.0025,11.5436,3.7326,11.5446,11.6327q.0051,40.35.0014,80.7v3.3156c4.9946,0,9.7627-.1486,14.5152.06,2.5643.1123,3.2832-.5761,3.2771-3.2228q-.1383-60.3324-.0641-120.6654v-2.0978l-16.66-5.1251a35.952,35.952,0,0,1-27.1584,15.2538c-11.6626.8788-21.538-3.31-29.7729-11.7043-7.466,7.7144-16.4235,11.803-27.0158,11.822-10.5721.019-19.4836-4.18-26.87-11.6017-14.7373,15.6546-42.816,16.6191-57.1385-3.9369l-16.4862,5.2479ZM285.2764,73.8723c0-4.5316-.1231-8.79.0492-13.0371.0935-2.3057-.538-3.0189-2.9479-3.0164q-97.7029.1014-195.4061.059c-.91,0-1.8195.0763-2.6964.1155v15.879ZM247.7467,274.61V198.8587H213.688V274.61ZM201.743,93.7968H167.7024c0,9.9458-.2494,19.6757.0732,29.3866.2963,8.92,6.8571,15.297,15.8089,16.13a16.5091,16.5091,0,0,0,17.512-12.949c.8022-3.6895.5763-7.6252.6225-11.4515C201.8034,107.9308,201.743,100.9469,201.743,93.7968Zm-87.8595-.1308c0,9.2212-.0082,18.16.01,27.0981a26.1761,26.1761,0,0,0,.2347,3.3087c1.2877,9.9086,9.0353,16.0614,18.8983,15.1587a16.9459,16.9459,0,0,0,14.8821-17.2653c-.106-8.781-.0149-17.5643-.0292-26.3466a16.42,16.42,0,0,0-.2323-1.9536Zm107.96.0243c0,10.0964-.2652,19.9157.077,29.7139a16.6333,16.6333,0,0,0,16.9613,16.0215A16.8293,16.8293,0,0,0,255.65,123.1018c.1653-9.6339-.2148-19.2772-.3692-28.9162-.0022-.1371-.1662-.2717-.3119-.4953ZM73.0814,93.5724c0,8.6273-.2868,16.9025.0983,25.1464a10.208,10.208,0,0,0,10.6791,9.5871c5.6813-.284,9.9583-4.8661,10.0079-10.88.0606-7.3415.0206-14.6839.0069-22.0258a15.3341,15.3341,0,0,0-.2328-1.8276H73.0814Zm202.5936.1045a4.0529,4.0529,0,0,0-.26.8968c-.0149,8.1055-.0616,16.2114-.001,24.3164.0266,3.5626,1.9722,6.1235,4.8986,7.9,7.04,4.2723,15.5276-.838,15.7564-9.5545.1568-5.9685.0332-11.9444.0346-17.9171.0005-1.848,0-3.696,0-5.6412Z"/><path class="cls-1" d="M139.0907,249.4723q-14.5966.0006-29.1932-.0039-11.391-.0205-11.3987-11.2812-.0248-23.9435.0017-47.887c.01-7.3069,3.9266-11.1816,11.2589-11.1849q29.4492-.0133,58.8985.001c7.168.0042,11.1247,3.8961,11.1391,11.0455q.0488,24.2-.0024,48.3991c-.0175,7.05-3.9064,10.8773-10.9987,10.9023C158.8943,249.498,148.9924,249.4719,139.0907,249.4723Zm-20.67-50.63v30.8333h41.4425V198.842Z"/><path class="cls-1" d="M472.5429,6.1625,426.3437,54.7492,380.1022,6.1625h-6.7774V122.67l17.1246-.0038L390.45,43.847l82.2056,82.5166h6.8621V6.1625Zm-3.276,60.2211v34.5645L450.9681,83.6659,432.6692,66.3836l18.2989-17.2823L469.2669,31.819Z"/><path class="cls-1" d="M564.1908,92.2526H508.834q1.8069,9.9879,8.2179,14.5871a23.4429,23.4429,0,0,0,13.9563,4.5991q11.6367,0,19.5007-9.6717l9.9862,7.5486q-11.2452,14.5477-30.116,14.5469-14.47,0-24.2186-9.9076-9.752-9.9076-9.75-24.6118a33.02,33.02,0,0,1,9.8674-23.8639,33.4717,33.4717,0,0,1,48.0842.1573Q564.3473,75.8955,564.1908,92.2526Zm-53.9414-10.93h39.63q-6.6051-13.3657-19.5007-13.3674Q516.3032,67.9554,510.2494,81.3228Z"/><path class="cls-1" d="M600.9688,57.1828V70.55q4.56-8.02,8.9238-11.599,4.3667-3.576,11.3632-3.5769a24.906,24.906,0,0,1,5.6615.9436L622.75,70a34.172,34.172,0,0,0-5.19-.7863,15.4938,15.4938,0,0,0-11.599,4.835,16.678,16.678,0,0,0-4.6778,12.0708v35.9348H587.6014V57.1828Z"/><path class="cls-1" d="M693.8112,102.2389v15.6477q-10.46,5.9776-20.287,5.976-13.446,0-23.5511-10.1033Q639.87,103.6559,639.87,90.3655q0-15.0973,10.0649-25.0434,10.0632-9.9479,25.2408-9.9478a42.1089,42.1089,0,0,1,18.6357,4.7179V75.3468q-10.3016-6.6051-19.5007-6.6051a21.0388,21.0388,0,0,0-14.8614,5.976A18.6178,18.6178,0,0,0,653.08,88.7142a21.02,21.02,0,0,0,5.976,15.2144,19.5645,19.5645,0,0,0,14.6256,6.1735Q682.4874,110.1021,693.8112,102.2389Z"/><path class="cls-1" d="M767.5478,57.1828H781.23v64.8713h-13.682V109.1585q-9.9879,14.7058-24.769,14.7041-12.8187,0-21.9-10.0648-9.0795-10.0632-9.0812-24.4546a34.4486,34.4486,0,0,1,9.1615-23.7869q9.1572-10.1812,21.505-10.182a27.38,27.38,0,0,1,14.4682,4.1675A29.654,29.654,0,0,1,767.5478,70.393ZM769.435,89.815a20.6668,20.6668,0,0,0-6.3809-15.2144,21.4693,21.4693,0,0,0-30.4071-.04,19.98,19.98,0,0,0-6.46,14.7827A21.5521,21.5521,0,0,0,732.49,104.991a20.57,20.57,0,0,0,15.2814,6.4478A21.8371,21.8371,0,0,0,769.435,89.815Z"/><path class="cls-1" d="M861.9629,19.99h13.5247V122.0541H862.12V108.5294q-9.6868,15.3333-25.3546,15.3332-12.6781,0-21.7342-10.1435a35.3419,35.3419,0,0,1-9.0544-24.3759,34.1742,34.1742,0,0,1,9.2117-23.9442q9.2124-10.023,21.97-10.0247A25.8872,25.8872,0,0,1,851.41,59.62a31.8856,31.8856,0,0,1,10.5534,11.0871Zm1.5727,69.5105A21.8371,21.8371,0,0,0,841.95,67.9554a21.2212,21.2212,0,0,0-15.4788,6.25,21.2875,21.2875,0,0,0,.1188,30.4322,20.5891,20.5891,0,0,0,15.0454,6.4863,21.2758,21.2758,0,0,0,15.519-6.2906A20.7167,20.7167,0,0,0,863.5356,89.5005Z"/><path class="cls-1" d="M898.5836,89.3432q0-13.2879,10.4965-23.63,10.5-10.3366,24.1015-10.3392a33.9523,33.9523,0,0,1,24.4545,10.182q10.4573,10.1862,10.4581,23.7869,0,13.682-10.2623,24.1015-10.259,10.42-23.7067,10.4179A34.5873,34.5873,0,0,1,909.16,113.5619Q898.5829,103.2628,898.5836,89.3432Zm56.3.04a19.3991,19.3991,0,0,0-6.2905-14.3779,20.7229,20.7229,0,0,0-14.94-6.1065,21.2567,21.2567,0,0,0-15.2947,6.1851,19.8123,19.8123,0,0,0-6.4077,14.7711,19.1586,19.1586,0,0,0,6.488,14.3378,21.4046,21.4046,0,0,0,15.2144,6.145,20.4688,20.4688,0,0,0,14.8614-6.3023A19.9923,19.9923,0,0,0,954.884,89.3834Z"/><path class="cls-1" d="M502.807,204.4552v13.3674q4.56-8.02,8.9239-11.599,4.3667-3.5762,11.3632-3.5769a24.9111,24.9111,0,0,1,5.6615.9435l-4.1675,13.682a34.16,34.16,0,0,0-5.19-.7863,15.494,15.494,0,0,0-11.5991,4.835,16.6784,16.6784,0,0,0-4.6777,12.0708v35.9348H489.44V204.4552Z"/><path class="cls-1" d="M554.6037,185.5835h13.6819v18.8717H581.81v12.5025H568.2856v52.3688H554.6037v-83.743Z"/><path class="cls-1" d="M664.4306,239.525H609.0738q1.8069,9.9879,8.2179,14.587a23.4424,23.4424,0,0,0,13.9563,4.5992q11.6367,0,19.5007-9.6718l9.9862,7.5487q-11.2452,14.5478-30.116,14.5469-14.47,0-24.2186-9.9076-9.752-9.9076-9.75-24.6118a33.02,33.02,0,0,1,9.8674-23.8639,33.4717,33.4717,0,0,1,48.0842.1573Q664.5871,223.1678,664.4306,239.525Zm-53.9414-10.93h39.63q-6.6051-13.3658-19.5007-13.3674Q616.5431,215.2278,610.4892,228.5952Z"/><path class="cls-1" d="M725.1143,212.1611l-9.1213,8.02a48.07,48.07,0,0,0-6.1332-3.8128,13.5413,13.5413,0,0,0-6.1333-1.2983q-8.3367,0-8.335,6.1333,0,4.4042,10.5768,8.5508,10.5726,4.1482,15.2144,9.0978a16.83,16.83,0,0,1,4.6393,11.937q0,8.1711-6.6837,14.2575a22.59,22.59,0,0,1-15.7264,6.0881q-13.7622,0-22.5673-12.7384l10.7726-5.19q5.6614,5.5059,11.7947,5.5043a12.2838,12.2838,0,0,0,7.4316-2.3205q3.1821-2.3163,3.1837-5.3855,0-5.4255-11.1657-9.76-11.1673-4.3339-15.45-8.775a15.1653,15.1653,0,0,1-4.2863-10.9633,17.234,17.234,0,0,1,6.0932-13.4762q6.093-5.3829,15.2947-5.3837Q713.7128,202.6467,725.1143,212.1611Z"/><path class="cls-1" d="M800.0287,204.4552h13.682v64.8713h-13.682V256.4308q-9.9879,14.7058-24.769,14.7042-12.8187,0-21.9-10.0649-9.0795-10.0632-9.0811-24.4545a34.4487,34.4487,0,0,1,9.1614-23.787q9.1572-10.1811,21.505-10.1819a27.38,27.38,0,0,1,14.4682,4.1674,29.6548,29.6548,0,0,1,10.6153,10.8512Zm1.8872,32.6322a20.6665,20.6665,0,0,0-6.3809-15.2144,21.4694,21.4694,0,0,0-30.4071-.04,19.98,19.98,0,0,0-6.4595,14.7828,21.5521,21.5521,0,0,0,6.3022,15.6478,20.57,20.57,0,0,0,15.2814,6.4478,21.8373,21.8373,0,0,0,21.6639-21.6238Z"/><path class="cls-1" d="M837.5144,269.3265V204.4552h13.3674v10.7726a54.3634,54.3634,0,0,1,10.6939-9.553,19.6287,19.6287,0,0,1,10.6939-3.0281,21.317,21.317,0,0,1,15.0572,5.8187,18.4437,18.4437,0,0,1,6.2521,13.9965v46.8646h-13.682V226.4721a11.9,11.9,0,0,0-3.4213-8.7281,11.7017,11.7017,0,0,0-8.688-3.46q-6.8409,0-11.7947,5.7786a20.73,20.73,0,0,0-4.9538,13.958v35.3057Z"/><path class="cls-1" d="M971.01,204.4552h13.6819v64.8713H971.01V256.4308q-9.9879,14.7058-24.769,14.7042-12.8187,0-21.9-10.0649-9.08-10.0632-9.0812-24.4545a34.4488,34.4488,0,0,1,9.1615-23.787q9.1572-10.1811,21.5049-10.1819a27.38,27.38,0,0,1,14.4683,4.1674A29.6555,29.6555,0,0,1,971.01,217.6653Zm1.8872,32.6322a20.6665,20.6665,0,0,0-6.3809-15.2144,21.4694,21.4694,0,0,0-30.4071-.04,19.98,19.98,0,0,0-6.46,14.7828,21.5522,21.5522,0,0,0,6.3023,15.6478,20.57,20.57,0,0,0,15.2814,6.4478,21.8373,21.8373,0,0,0,21.6639-21.6238Z"/><path class="cls-1" d="M1012.9,167.2623h13.6819V269.3265H1012.9Z"/><path class="cls-1" d="M576.7252,288.4582h24.7941l-15.805,21.3929h15.6778v4.8317H576.4073l15.9874-21.4247H576.7252Z"/><path class="cls-1" d="M608.6313,279.8438a4.033,4.033,0,0,1,1.2715-2.9712,4.145,4.145,0,0,1,3.02-1.2565,4.2278,4.2278,0,0,1,0,8.4555,4.1757,4.1757,0,0,1-3.02-1.24A4.0194,4.0194,0,0,1,608.6313,279.8438Zm1.5576,8.6144h5.4674v26.2246h-5.4674Z"/><path class="cls-1" d="M625.2477,314.6828V288.4582h5.4039v4.3549a21.9382,21.9382,0,0,1,4.323-3.8613,7.9259,7.9259,0,0,1,4.3231-1.2247,8.6168,8.6168,0,0,1,6.0865,2.3523,7.4546,7.4546,0,0,1,2.5279,5.6581v18.9453h-5.531V297.3587a4.81,4.81,0,0,0-1.3836-3.5284,4.73,4.73,0,0,0-3.5117-1.3987,6.0955,6.0955,0,0,0-4.7681,2.3356,8.3839,8.3839,0,0,0-2.0026,5.6431v14.2725Z"/><path class="cls-1" d="M679.2126,288.4582h5.531v26.2246h-5.531V309.47q-4.0378,5.9451-10.013,5.9443a11.5055,11.5055,0,0,1-8.8536-4.0688,14.2367,14.2367,0,0,1-3.6707-9.8859,13.928,13.928,0,0,1,3.7041-9.6165,11.3525,11.3525,0,0,1,8.693-4.1156,11.0718,11.0718,0,0,1,5.8489,1.6847,12.0023,12.0023,0,0,1,4.2913,4.3867Zm.7629,13.1918a8.3506,8.3506,0,0,0-2.58-6.15,8.6779,8.6779,0,0,0-12.2917-.0167,8.0763,8.0763,0,0,0-2.6116,5.976,8.7081,8.7081,0,0,0,2.548,6.3257,8.3143,8.3143,0,0,0,6.1768,2.6066,8.8292,8.8292,0,0,0,8.7583-8.7415Z"/><path class="cls-1" d="M701.6143,288.4582v5.2767q3.9675-6.0078,10.1569-6.0078a11.4059,11.4059,0,0,1,8.7448,4.0521,13.941,13.941,0,0,1,3.6673,9.68,14.1971,14.1971,0,0,1-3.7141,9.8223,11.425,11.425,0,0,1-8.7616,4.1324,11.169,11.169,0,0,1-5.6013-1.5258,12.2062,12.2062,0,0,1-4.4284-4.4185v17.5149h-5.531V288.4582Zm16.7837,13.001a8.29,8.29,0,0,0-2.6015-6.0563,8.4,8.4,0,0,0-6.125-2.59,8.546,8.546,0,0,0-6.2018,2.5748,8.2342,8.2342,0,0,0-2.6183,6.0713,8.6,8.6,0,0,0,2.5865,6.23,8.2645,8.2645,0,0,0,6.1065,2.6383,8.891,8.891,0,0,0,8.8536-8.8687Z"/><path class="cls-1" d="M759.84,302.6354H737.462a8.8106,8.8106,0,0,0,3.3227,5.8974,9.4813,9.4813,0,0,0,5.6414,1.8587,9.7819,9.7819,0,0,0,7.8832-3.91l4.037,3.0516a14.6,14.6,0,0,1-12.1745,5.8807,13.1812,13.1812,0,0,1-9.79-4.0052,13.6191,13.6191,0,0,1-3.9417-9.9495,13.3505,13.3505,0,0,1,3.9885-9.6466,13.5306,13.5306,0,0,1,19.4388.0636A14.5678,14.5678,0,0,1,759.84,302.6354Zm-21.8061-4.4185H754.055q-2.67-5.403-7.8832-5.4038Q740.48,292.8131,738.0342,298.2169Zm4.5138-14.59,4.2277-8.8368h7.5018l-7.025,8.8368Z"/><path class="cls-1" d="M788.2181,306.6724v6.3256a16.5073,16.5073,0,0,1-8.2012,2.4159,13.9614,13.9614,0,0,1-13.605-13.5414,13.6361,13.6361,0,0,1,4.0688-10.1235,13.9211,13.9211,0,0,1,10.2038-4.0219,17.03,17.03,0,0,1,7.5336,1.9072v6.1668a14.7347,14.7347,0,0,0-7.8833-2.67,8.5089,8.5089,0,0,0-6.0078,2.4158,7.5264,7.5264,0,0,0-2.5748,5.6581,8.4956,8.4956,0,0,0,2.4159,6.15,7.9058,7.9058,0,0,0,5.9124,2.4961Q783.639,309.8511,788.2181,306.6724Z"/><path class="cls-1" d="M794.98,288.4582h5.531v14.7811q0,6.8359,6.0078,6.8343a5.2635,5.2635,0,0,0,4.2277-1.8286,7.4734,7.4734,0,0,0,1.5576-5.0057V288.4582h5.4674v15.6712a10.9193,10.9193,0,0,1-3.21,8.1057,12.21,12.21,0,0,1-16.4341,0,11.28,11.28,0,0,1-3.1469-8.2964Z"/><path class="cls-1" d="M848.8834,288.4582h5.531v26.2246h-5.531V309.47q-4.0379,5.9451-10.013,5.9443a11.5058,11.5058,0,0,1-8.8537-4.0688,14.2371,14.2371,0,0,1-3.6706-9.8859,13.928,13.928,0,0,1,3.7041-9.6165,11.3525,11.3525,0,0,1,8.693-4.1156,11.0718,11.0718,0,0,1,5.8489,1.6847,12.0023,12.0023,0,0,1,4.2913,4.3867Zm.7629,13.1918a8.3506,8.3506,0,0,0-2.58-6.15,8.6779,8.6779,0,0,0-12.2917-.0167,8.0763,8.0763,0,0,0-2.6116,5.976,8.7077,8.7077,0,0,0,2.548,6.3257,8.3142,8.3142,0,0,0,6.1768,2.6066,8.8292,8.8292,0,0,0,8.7583-8.7415Z"/><path class="cls-1" d="M871.22,288.4582v5.4039a16.8544,16.8544,0,0,1,3.6071-4.69,7.018,7.018,0,0,1,4.5941-1.4455,10.0862,10.0862,0,0,1,2.2887.3815l-1.6848,5.531a13.9669,13.9669,0,0,0-2.0979-.3179,6.2687,6.2687,0,0,0-4.69,1.9541,6.7483,6.7483,0,0,0-1.89,4.88v14.5268h-5.531V288.4582Z"/><path class="cls-1" d="M886.3105,301.4592a13.0674,13.0674,0,0,1,4.2427-9.5529,13.5012,13.5012,0,0,1,9.7437-4.1792,13.7271,13.7271,0,0,1,9.8858,4.1156,13.02,13.02,0,0,1,4.2278,9.6165,13.4727,13.4727,0,0,1-4.1491,9.7437,13.0645,13.0645,0,0,1-9.5831,4.211,13.9765,13.9765,0,0,1-10.0916-4.1642A13.23,13.23,0,0,1,886.3105,301.4592Zm22.76.0168a7.8452,7.8452,0,0,0-2.543-5.8138,8.3822,8.3822,0,0,0-6.04-2.4677,8.5971,8.5971,0,0,0-6.1835,2.5,8.0154,8.0154,0,0,0-2.59,5.9727,7.7408,7.7408,0,0,0,2.6233,5.7953,8.65,8.65,0,0,0,6.15,2.4845,8.2718,8.2718,0,0,0,6.0078-2.548A8.0814,8.0814,0,0,0,909.07,301.476Z"/><path class="cls-1" d="M422.201,160.9535l-56.4894,116.49h13.7158l13.6987-27.41h58.2474L465.0807,277.44h13.7031Zm.0465,79.11H395.0532L408.65,211.9377l13.5971-28.126,13.597,28.126,13.5972,28.1261Z"/></g></svg>