<svg xmlns="http://www.w3.org/2000/svg" viewBox="0 0 1080 1080"><defs><style>.cls-1{fill:#fff;}</style></defs><g id="Capa_1" data-name="Capa 1"><path class="cls-1" d="M1046.3947,118.4159c-.12.276-.18.7038-.3779.7825s-.5343-.1931-.81-.3112c.1192-.2752.1778-.7057.3745-.7824C1045.7816,118.0267,1046.1177,118.2969,1046.3947,118.4159Z"/><path class="cls-1" d="M891.2876,776.3681c-14.636,5.9256-26.9291,15.6454-39.38,24.9442-39.6946,29.6464-73.0728,65.6311-102.7971,105.0151a277.0806,277.0806,0,0,0-25.1656,39.3993c-8.1735,15.8229-17.748,31.0447-23.5674,48.0173a8.7776,8.7776,0,0,1-6.59,5.78c-8.3814,2.2032-15.804,6.7263-24.39,8.78-7.6189,1.8222-14.9162,5.8217-22.8012,7.4245-6.2951,1.28-12.7067,1.9857-19.0667,2.9462l.176-3.1873c13.2179-33.0353,28.88-64.779,49.4277-93.9652q82.3191-116.9292,218.22-161.3908c5.3747-1.7513,10.8306-3.2628,16.287-4.7444a16.3483,16.3483,0,0,1,4.0117-.0479c.8463,4.3233-2.7914,6.82-3.889,10.2518C904.0147,767.43,897.3787,771.3818,891.2876,776.3681Z"/><path class="cls-1" d="M859.0406,869.5362c-4.2231,3.1607-5.1144,8.59-8.4261,12.3718-12.24,13.2618-24.0591,26.9475-36.8623,39.6412-9.0138,8.9369-19.365,16.5251-29.1189,24.7153-1.8884,1.4022-3.4322,1.9873-3.3033-1.3933l11.7583-21.8238c2.1308-1.2729-.8839-2.09-.286-3.2269,8.0035-3.9709,10.9323-12.24,15.5927-18.9079a384.4972,384.4972,0,0,1,72.5111-78.4507c3.1028-2.5272,6.0336-5.2657,9.6431-7.4493-5.1724,13.7794-12.7145,26.1762-20.3044,38.548q-1.1183,1.6929-2.2362,3.3863l-.0531.081a13.8,13.8,0,0,0-4.3486,6.2289q-.9925,1.5321-1.9854,3.0637Q860.3315,867.9282,859.0406,869.5362Z"/><path class="cls-1" d="M899.5624,610.4708c-.1316,1.2955-.2365,2.5945-.4028,3.8854-.1531,1.19.12,2.9583-1.6883,2.6929-.5082-.0746-.7123-2.2225-1.0582-3.42a13.6193,13.6193,0,0,0,1.5241-6.728c.2309-19.86-3.3178-39.7-.2356-59.598.3666-2.3671-.9694-4.9981-1.5164-7.5068l2.6969-.303q.2569,29.9984.5148,59.9965Q899.48,604.98,899.5624,610.4708Z"/><path class="cls-1" d="M299.6179,937.015q-.8439-.7763-1.6877-1.5524c-.1513-1.8815-1.63-2.4338-3.05-3.0459l-.11-.084q-.7068-.64-1.4145-1.28a.881.881,0,0,0-.8707-.6636c-.4592-.9549-1.0961-1.6023-2.2736-1.3164-6.8174-1.5371-9.6058-7.228-12.8436-12.4555-2.7335-4.4931-6.6571-7.876-10.54-11.2966q-15.8363-19.4728-31.6724-38.9454c-3.2-5.0409-5.2937-10.8276-10.0068-14.8492l-.0514-.1115c-1.7643-5.1672-5.1214-9.3035-8.6383-13.3363-6.3345-13.9275-14.42-26.9189-20.5516-41.0391-9.202-21.1924-15.4387-43.1723-21.2109-65.3637-.8457-3.2512-4.2982-8.3709,2.69-10.0058q24.2958-10.5173,48.6026-21.0392,5.684-1.938,11.3617-3.8723c6.0142-1.2874,12.0584-2.4747,17.62-5.2741l22.6977-5.6909,4.4088-.4947,60.4125-6.67,4.0309-.0227a2.9208,2.9208,0,0,0,3.59-.2168l21.5865.2834a8.8751,8.8751,0,0,0,6.428.2935l12.5656.5792,48.6351,7.644,18.8467,4.6963c6.3689,3.11,13.2537,4.5423,20.0811,6.162q13.3578,4.8672,26.7181,9.7351,5.7255,3.26,11.4458,6.5182c-36.3588,19.4744-70.0032,42.7658-100.2285,70.9255-32.8773,30.6306-60.3327,65.6607-83.2792,104.13a301.4227,301.4227,0,0,0-23.8045,49.4418l-.4142.4321.2175.5151q-1.4957,1.029-2.9916,2.0578C304.23,939.6635,302.74,937.2653,299.6179,937.015Z"/><path class="cls-1" d="M296.5467,155.8446c14.8378,17.5007,29.3671,35.2749,44.5853,52.4384,23.1013,26.0542,46.6812,51.6841,70.0572,77.4942,5.8116,10.049,16.3977,16.1364,21.9266,26.42-.9316,5.8018,1.4159,11.3149,1.507,17.0214.27,16.8852,2.0728,33.7259,3.67,50.4553,2.7347,28.64,4.54,57.35,7.3262,85.9781,1.2806,13.158,1.5812,26.4423,3.5432,39.4865.7143,4.7492-1.0007,10.553,3.5371,14.5075q-.4464,1.4721-.8927,2.9443c-1.4741,1.0269-1.449,2.4114-.9332,3.9129-1.8009,7.5125-3.6017,15.025-5.5,22.9458-3.4142-2.7235-3.294-6.1406-4.0183-9.0547a81.4668,81.4668,0,0,0-7.9379-19.5427c-5.4464-9.9148-14.0756-10.1987-20.0543-.7139-4.057,6.4362-6.6121,13.6023-8.5873,20.9417-9.3336,34.6815-13.9158,70.0866-16.6862,105.8257-.483,6.2314,5.3178,14.102-1.7191,18.4093-5.5287,3.3841-13.0221,3.4386-19.5049,5.4226-5.141,1.5735-6.2273-.1418-6.184-5.098q.2123-24.3022-.3265-48.6094c-.8313-35.46.2715-70.9445-2.3967-106.3911-1.8228-24.2154-2.1594-48.5429-3.1605-72.82,4.8942.425,9.2616-1.6615,13.5283-3.4105,4.8783-2,10.0733-4.43,14.94-3.6316,8.22,1.3485,16.0824.4648,23.984-.9475,4.9791-.89,12.1416-1.2447,14.0924-4.4307,2.42-3.9525.55-10.5864.3455-16.0551a20.7663,20.7663,0,0,0-1.1938-4.515c-1.8957-22.8868-9.0339-44.5735-15.0389-66.54-4.5072-16.488-11.7633-31.3777-26.147-41.079-17.0105-11.473-27.9931-11.4287-42.0276,1.5346-8.9281,8.2466-5.9622,18.608-5.6926,28.55a68.6879,68.6879,0,0,1,.896,6.9688q1.8034,61.53,3.5164,123.0628c.4519,15.6754,1.0649,31.3469,1.4136,47.0243.0511,2.3012,1.7255,6.6214-3.68,5.3835-12.9564-2.9672-25.987-1.7072-39.0171-.8778.8812-30.02.97-60.0686,1.3637-90.0815C297.23,331.144,296.5248,243.49,296.5467,155.8446Z"/><path class="cls-1" d="M165.99,641.8545c2.213-6.1038.8625-12.9059,3.7009-18.8871,3.0176-8.752,7.3433-17.04,9.28-26.1757q.7583-.8325,1.5163-1.6651c8.5438-15.059,18.5793-28.93,31.109-41.025,20.2807-19.5772,44.6582-31.423,71.4511-38.9406,2.8339-.45,5.6621-.9462,8.5042-1.3433,19.8955-2.78,39.5883-2.8274,58.9292,3.7491,3.7461,1.2738,5.6787,2.8152,5.5877,7.0625-.6891,32.1494-10.2156,60.6255-34.0746,83.2663-13.682,12.9835-29.5671,22.6205-47.2529,30.4438,6.5313,5.9364,7.8566,13.2656,8.0623,21.0312.22,8.2878-2.2082,15.9837-5.029,23.6092-4.612,5.301-11.3278,5.0839-17.1364,4.9774-3.3561-.0614-3.0423-5.953-4.2207-9.2546-1.8429-5.1635-3.4887-10.4121-4.9162-15.706-2.0872-7.7411-2.3315-15.5083,1.132-22.9764.9768-2.1067,2.6375-3.8858,3.788-5.9261.9713-1.7223,3.6543-2.4673,3.1823-5.482-13.2673,9.9281-21.0159,22.139-19.2005,38.9943.3388,3.1458-.8841,5.51-2.733,7.8557-5.8673,7.4424-10.0861,15.8189-13.6221,24.5646-7.4957,1.2223-14.16,4.7629-21.15,7.4356-9.6284,3.6816-18.1471,10.0415-28.5657,11.776-7.0193-20.4826-11.56-41.3451-9.6869-63.1908a4.46,4.46,0,0,0,.373-4.4571q.3525-3.32.7053-6.64Q165.857,643.4028,165.99,641.8545Zm130.8006-90.5858a9.9844,9.9844,0,0,0,10.4282-9.3581c.2126-5.3489-4.2077-10.2292-9.3823-10.3586-6.41-.16-10.6726,3.6317-10.5938,9.7241C287.3231,547.4477,290.5454,550.864,296.7909,551.2687Z"/><path class="cls-1" d="M183.0058,403.1924q.0028-1.5.0063-3.0006.0085-3.99.0159-7.9795.8423-87.8939,1.685-175.7872.1122-1.5447.2231-3.09c4.0816-6.0451,8.3109-11.97,13.7572-16.9011a12.0335,12.0335,0,0,0,5.4286-6.4068l.0016-.0441a8.5965,8.5965,0,0,0,4.1258-4.9982c11.1162-12.85,22.8142-25.2306,31.9781-39.6564,1.8969-2.9861,4.0615-5.3937,8.0188-3.0929-1.702,1.1716-2.0647,2.9061-2.025,4.81.4948,23.7048-1.9958,47.292-2.7836,70.9265-1.0677,32.03-.271,64.1218-1.8493,96.1672-.8708,17.68-1.0855,35.465-1.0628,53.0824.06,46.4211-3.4182,92.7027-3.6564,139.0812-.0386,7.5279-.0167,15.0563-.0228,22.5844a196.9251,196.9251,0,0,0-35.7528,29.9482c-6.9088,7.4173-11.4243,16.6828-19.1288,23.3653q-.06-1.5679-.1208-3.1355-.1075-1.5273-.215-3.0551-.0033-3.1814-.006-6.3623a1.9684,1.9684,0,0,0-.0346-1.537q.1642-10.2225.3286-20.4445a3.4948,3.4948,0,0,0,.0272-4.74q.5364-64.305,1.0732-128.61Q183.012,408.7545,183.0058,403.1924Z"/><path class="cls-1" d="M236.8464,528.8869c.006-7.5281-.0159-15.0565.0227-22.5844.2382-46.3785,3.7164-92.66,3.6564-139.0812-.0227-17.6174.192-35.4023,1.0628-53.0824,1.5783-32.0454.7816-64.1371,1.8493-96.1672.7878-23.6345,3.2784-47.2217,2.7836-70.9265-.04-1.9038.323-3.6383,2.025-4.81q24.151,6.804,48.3013,13.6093c-.0227,87.645.682,175.2994-.4668,262.93-.3935,30.0129-.4825,60.0618-1.3626,90.0811-5.0818,1.6925-10.7323,1.3656-15.454,4.3431a.7731.7731,0,0,0-1.1935-.1167l-1.412.1376C262.2154,515.4629,249.8163,522.9,236.8464,528.8869Z"/><path class="cls-1" d="M684.6652,360.9961q.0531-4.7918.1061-9.5829c.94-4.1105,4.3741-6.1178,7.3625-8.367,2.6706-2.01,5.7173-3.5317,6.5764-7.1532,18.9453-8.1459,38.335-15.13,57.74-22.0762,3.5612,16.0152,4.5029,31.8862-2.6,47.3107-3.8643,8.6694-1.0515,18.0274-2.8611,27.0039-3.3356,16.5456-8.09,32.8076-10.101,49.6192q-.8149,11.9637-1.6275,23.9275c-.2315,3.4454.2119,6.3748,4.7867,5.992,3.9712,11.3834.5645,23.0568,1.3587,34.5652l-1.4977,1.125c-10.1477.8736-16.3736,9.1677-24.8807,13.1482a26.1458,26.1458,0,0,0-9.8947-3.6627c-8.18-1.6-16.4725.0536-24.5818-1.5606q.0407-72.9213.0811-145.84A2.9269,2.9269,0,0,0,684.6652,360.9961Z"/><path class="cls-1" d="M898.8821,539.4932q-1.3483.1515-2.6967.3033c-8.1842-8.027-17.2246-15.3694-24.3345-24.2562-8.7538-10.9413-19.2928-13.9635-32.29-11.6482-1.4133-1.6747-1.6918-3.71-1.8365-5.7877-1.4765-4.3322,2.2937-9.1891-1.3322-13.3049q-.0463-2.2382-.093-4.4762a3.2155,3.2155,0,0,0-1.3209-3.4178l-.2231-7.6174c.1562-1.7614.3724-3.5387-1.2675-4.8288q-.0456-3.087-.0916-6.174c1.0284-10.3328,2.8284-20.6582,2.9271-31,.2183-22.8815-3.7482-45.2594-10.1747-67.2021q-.0124-1.1763-.0253-2.3525c.1042-.1844.34-.4281.2882-.5421a6.0861,6.0861,0,0,0-.6481-.9567c-2.27-6.693-7.1653-12.8006-4.5878-20.5744,2.3017,1.15,4.6441,2.2262,6.8981,3.4635,9.1073,4.9994,17.1011,12.7585,27.2281,14.9016,7.29,1.5425,12.6349,5.1545,18.5967,8.69,8.6963,5.1571,15.4723,13.1067,25.0672,16.8625q.092,62.869.1767,125.738c.01,9.8947-.0757,19.79-.1173,29.6836-.169.187-.499.3961-.4776.5582a7.5255,7.5255,0,0,0,.4155,1.3377Q898.9225,538.193,898.8821,539.4932Z"/><path class="cls-1" d="M746.5722,683.1588c2.4842-20.4523,12.8832-37.3283,24.29-53.7491,2.1,1.4881,3.9991,3.5755,6.3353,4.3573A168.4546,168.4546,0,0,1,802.1,644.3165c10.2211,5.3645,19.9467,11.9158,30.603,16.1509,15.7186,6.2471,31.2447,13.6065,48.3091,15.6681,5.8018.7011,9.261,6.3621,14.849,6.3321,4.663-.0251,8.5008.3929,10.7394,4.9847-.6513,10.3307-2.7089,20.3139-7.331,29.6633-1.7981,2.4589-3.4759,5.0181-5.421,7.3547-3.3646,4.0423-6.1822,9.0249-12.6668,8.4136-7.0978-4.105-13.5615.9391-20.3375,1.45-18.0934,1.364-35.72,5.46-53.3607,9.4384-1.669-5.9494-7.8655-1.7725-11.13-5.701,25.6243-5.88,51.6207-6.9676,77.5749-8.4082-3.4192-3.7865-5.7792-5.0007-15.5449-7.9984-2.0086-2.3992-4.4807-3.6226-7.6728-3.0123l.0326.0294c-5.7012-4.6227-12.5581-5.479-19.5009-5.7215-8.1482-.2845-16.3074-.25-24.4619-.3533.5971-2.1565,2.3785-4.0368,1.5225-6.53,1.5224-3.2811-1.4534-2.6985-2.8092-2.9548-13.248-2.5043-26.1924-6.4089-39.6761-7.9244-6.7939-.7636-14.1539.1968-20.2153-4.3211.1443-1.19.2886-2.3808.4313-3.5635A4.8859,4.8859,0,0,0,746.5722,683.1588Z"/><path class="cls-1" d="M826.1233,357.7306c.0086.7842.017,1.5684.0195,2.3469-17.1863-4.2162-34.4847-6.5939-52.1465-3.3773q-10.0764,2.212-20.15,4.4309c7.1066-15.4281,6.1649-31.2991,2.6037-47.3143q.0027-6.2733.0054-12.5468c1.9618-3.4357,2.5829-7.2455,3.0945-11.0858,1.7169-11.3719,13.2885-15.0365,18.51-23.6646q.4646,1.7193.9313,3.4355c-2.6166,7.5169-4.1453,15.051-.819,23.3351a19.3819,19.3819,0,0,0,5.0979-9.375c1.2734-.0205,1.6366-4.4771,3.5177-.8979,1.3155,2.5034,1.8109,5.4251,2.926,8.0525.4625,1.0893,1.4686,2.5266,2.4317,2.7057,2.0825.3873,2.0931-1.7569,2.6776-3.112,1.2577-2.9153-.2841-6.7454,2.8026-9.3485,2.2075,3.0967,2.4771,7.03,5.7227,9.35,4.0515-5.04,3.2743-10.3538,2.6124-15.8589-.675-5.6169-4.905-9.7181-5.76-15.1623,10.6.6985,19.0036-4.4457,27.1733-10.213,12.4858,1.6808,24.2726-2.15,36.23-4.6115,5.0968-1.0491,10.2079-2.0548,15.255-3.3117,4.8465-1.207,9.43-2.6767,11.62-8.1325,1.0448-2.6025,3.7865-5.2116,6.8527-3.6883a4.8959,4.8959,0,0,1,1.9913,7.1137c-2.976-.5413-5.8384-.1258-5.9235,3.4449-.0951,4,3.3479,2.6753,5.6563,2.8477,2.1933,7.6712-1.2481,11.0745-8.19,14.6361-16.2418,8.3334-32.4735,16.576-49.3316,23.6137-4.5393,1.8949-8.5788,4.984-9.962,10.2811-3.116.3734-4.018,2.4089-4.591,5.2573-2.5821,12.8338-4.42,25.769-5.8064,38.7766-2.5775,7.7738,2.3175,13.8814,4.5866,20.5734A2.2281,2.2281,0,0,0,826.1233,357.7306Zm-48.73-42.995c-1.2621-4.1179-1.3047-8.838-6.415-10.1146-3.7908-.947-7.2627.5313-8.5712,3.7915-2.4832,6.1882.9676,11.63,3.781,16.91,1.03,1.9331,3.5008,3.7428,5.1083,2.8174,4.7957-2.7612,4.0753-8.5714,5.9892-12.9755A1.2685,1.2685,0,0,0,777.3931,314.7356Z"/><path class="cls-1" d="M783.0105,606.44c.9059-10.8789,6.0047-20.9338,6.2769-31.9374,8.79-10.3411,20.3138-18.49,25.4644-31.75,2.062.2291,2.7061,2.0789,3.9118,3.3266,1.6178,1.6741,3.6867,3.1778,6.0368,2.363,3.2637-1.1319,1.29-3.7843,1.1318-5.8682-.0765-1.0111-.12-2.0246-.1781-3.037,16.3819-1.9917,21.62.027,28.5473,14.1433,11.9736,24.3978,26.1321,47.587,38.607,71.6932,1.4034,2.7114,3.4458,5.291,3.1453,8.6633-2.58,3.726-5.3217,7.3917-10.6306,6.1862-13.2265-3.0032-27.06-2.4535-40.0341-6.7323-5.24-1.7282-10.5783-1.8376-15.9562-4.8163-10.5216-5.8276-20.4472-13.0842-32.7016-16.125C792.353,611.4874,784.9951,613.7667,783.0105,606.44Z"/><path class="cls-1" d="M551.78,428.4883q-.0594,2.1925-.1183,4.3859-.5145.8741-1.0293,1.7467c-5.448-2.3057-8.8964-6.7846-12.6871-11.0732-6.1018-6.9032-11.633-14.5068-20.0449-19.006-.7333-3.5886-3.2448-5.8207-6.0114-7.8575-3.8-8.1774-10.4086-12.4622-19.1378-13.8084-4.7916-9.1145-14.1593-15.0473-17.5019-25.1693,3.5058-.2224,6.546,1.4758,9.7811,2.37,1.7484.4836,4.4843,1.2051,3.77-1.6393-3.185-12.6771,1.6513-23.8382,5.278-35.4864,2.0138-6.4676,2.0575-13.2865,11.4117-12.4091l6.0084,1.8118,26.68,17.3943c1.0362,3.1343,3.0847,6.3248,2.915,9.3927-.4649,8.4035,4.3631,9.7368,10.9367,9.5388q-.2559,1.1052-.5134,2.212c-.8678,3.9041-1.2713,7.7947.29,11.6363q-.0183,1.4634-.0362,2.9268c-.1694.18-.5062.3944-.4776.5341a7.4008,7.4008,0,0,0,.4913,1.2777q.0739,9.33.1483,18.6592A195.2672,195.2672,0,0,0,551.78,428.4883Z"/><path class="cls-1" d="M552.0293,348.68c-6.5737.198-11.4017-1.1353-10.9368-9.5388.17-3.0679-1.8788-6.2584-2.915-9.3927,5.8925-2.7744,11.6192-5.6972,18.4976-5.8406,2.2-.0459,6.38-1.2837,6.3419-4.7054-.1275-11.3931,7.4586-12.0083,15.7489-11.9826q38.7857-.0147,77.5708-.03c7.6208-.02,15.2276-.5669,16.9848,10.0372.595,3.5906,5.667,6.3839,8.1821,6.2993,9.4363-.3177,12.1955,7.33,17.2031,12.3645-.8556,3.6236-3.9023,5.1451-6.5729,7.1553-2.9884,2.2492-6.4221,4.2565-7.3625,8.367-1.3943-4.3692-5.08-2.8034-7.8919-2.7964q-60.096.15-120.1919.4816C555.1355,349.1047,553.5821,348.8259,552.0293,348.68Zm29.783-36.1286c-3.03.9711-8.731-.75-8.7711,4.7657-.0412,5.6484,5.592,3.9152,9.12,4.6014a6.8148,6.8148,0,0,0,2.3386-.08c3.1763-.5191,7.9042.5091,8.1957-3.9824.3324-5.1238-4.7076-4.447-8.0964-5.1606A19.9759,19.9759,0,0,0,581.8123,312.5512Zm72.3929,9.479c2.919-1.2324,8.9273,1.2557,9.027-4.2343.1041-5.73-5.7541-4.7271-9.7483-5.17a7.5409,7.5409,0,0,0-3.1149.159c-2.7308.91-7.1875.0028-6.9706,4.5534.2,4.1893,4.3383,3.7406,7.2481,4.4334A23.8083,23.8083,0,0,0,654.2052,322.03Zm-35.4918-.04c1.6492-.111,2.9386-.1491,4.2158-.294,2.6434-.3,5.3553-.7084,5.4417-4.1833.0891-3.5847-2.8609-3.7744-5.34-4.337-1.2462-.2828-2.6166-.7866-3.7808-.5244-3.8576.8686-10.3635-1.2087-10.2188,4.98C609.1644,323.3418,615.4734,320.8355,618.7134,321.99Z"/><path class="cls-1" d="M780.7646,596.1277c2.1306-21.522,21.1687-61.1712,28.5929-56.0878,13.25-5.0431,19.692-4.1562,32.9185-1.153,5.3089,1.2055,51.0979,98.8754,53.6777,95.1494,8.7151,16.7753,11.9407,34.6455,10.6469,53.4162-2.2386-4.592-6.0764-5.01-10.7394-4.9849-5.588.03-9.0472-5.631-14.849-6.3321-17.0644-2.0616-32.5905-9.421-48.3091-15.6681-10.6563-4.2351-20.3819-10.7864-30.603-16.1509A168.4546,168.4546,0,0,0,777.197,633.767c-2.3362-.7818-4.2355-2.8692-6.3353-4.3573l.1212-.23A89.7772,89.7772,0,0,0,780.7646,596.1277Z"/><path class="cls-1" d="M821.1756,335.6575c1.3867-13.0076,3.2243-25.9428,5.8064-38.7766.573-2.8484,1.475-4.8839,4.591-5.2573q1.7024.87,3.4113,1.7417c3.9636,5.1078,9.2781,8.1487,15.35,10.0314,11.0607,3.7934,22.35,6.0056,34.1149,4.9464,3.08-.2773,6.18-.4144,9.24-.8371,4.6981-.649,6.2259,1.212,4.8461,5.65-.96,1.069-.7487,2.1952-.1273,3.3371q.2791,31.5414.5585,63.0823c-9.5949-3.7563-16.3709-11.7059-25.0672-16.863-5.9618-3.5355-11.3071-7.1475-18.5967-8.69-10.127-2.1431-18.1208-9.9022-27.2281-14.9016C825.82,337.8837,823.4773,336.8077,821.1756,335.6575Z"/><path class="cls-1" d="M505.4893,310.5422c-9.3542-.8774-9.3979,5.9415-11.4117,12.4091-3.6267,11.6482-8.463,22.8093-5.278,35.4864.7147,2.8444-2.0212,2.1229-3.77,1.6393-3.2351-.8947-6.2753-2.5929-9.7792-2.37-3.2713-2.151-5.4649-5.2937-7.98-8.2138-5.9349-6.8909-9.7186-15.7463-18.2308-20.3172a33.6145,33.6145,0,0,0-15.9238-16.9787c-5.5294-10.2838-16.1155-16.3712-21.9271-26.42,5.1351-3.7536,11.1754-5.3845,17.0971-7.2927l9.4176-1.0113,4.8584.0254a9.7312,9.7312,0,0,0,6.2872.7681c4.431,1.7318,8.7081,3.9388,13.5547,4.3872q5.6535,3.1986,11.3065,6.3974l18.8034,11.4751q2.1159,1.2817,4.2317,2.564l2.0876,1.3635C500.527,307.0572,504.4594,307.2134,505.4893,310.5422Z"/><path class="cls-1" d="M534.6279,676.0865c-4.06,2.1994-7.4719,5.846-12.61,5.6371-7.2806-.09-7.8116-5.4755-8.3163-10.7417-1.0684-11.15,2.9626-21.8947,2.6214-33.0264-.6741-21.9945-.4226-44.0414-1.8919-65.9772-.7438-11.1073,1.7442-21.8586,1.2447-32.9083-.2258-4.9951-2.6432-13.2971,6.7191-14.9758,1.201,2.8656,2.6174,5.66,3.5691,8.6055,9.7122,30.0548,14.2157,61.1372,16.76,92.43,1.2633,15.54,4.5388,31.7668-4.4844,46.5245l-.0251.0376q-1.7637,2.2091-3.5275,4.4178Z"/><path class="cls-1" d="M522.3942,524.0934c-9.3619,1.68-6.9445,9.9815-6.7187,14.9766.4995,11.05-1.9885,21.801-1.2447,32.9083,1.4693,21.9358,1.2178,43.9827,1.8919,65.9772.3412,11.1317-3.69,21.8765-2.6214,33.0264.5047,5.2662,1.0357,10.6519,8.3163,10.7417-10.29,3.2945-19.6992,1.8758-28.0369-5.2548,2.1786-.19,3.0634-.9206,2.67-3.5035a62.2486,62.2486,0,0,1-.7132-12.3846c1.11-22.3457,2.5236-44.6744-.0007-67.0278-.4051-3.5881-1.2963-8.127.3665-10.7493,4.5008-7.0979.681-8.6892-5.05-9.9006q-.0516-3.9384-.1036-7.8769c2.6987-1.9156,2.1508-5.1206,2.91-7.74,3.2523-11.2222,5.227-22.8317,10.208-33.5228,1.8772-4.0293,3.8414-8.6628,8.92-8.79C518.7729,514.8331,520.7175,519.6159,522.3942,524.0934Z"/><path class="cls-1" d="M747.0174,695.2751c-.5533.8773-1.0636.7377-1.5461-.0651-2.0763-2.617-5.62-.4405-7.8922-2.4125a459.2908,459.2908,0,0,0-67.4724.8981q-.19-.9-.38-1.8c-24.7921,3.0737-49.5151,6.5444-73.3831,14.308-11.1475,3.6261-22.2,7.5423-33.2963,11.3271.3816,3.2623-1.82,3.83-4.2922,4.1129q-13.4084,6.375-26.8179,12.7535-8.6109,4.8027-17.2214,9.6063-.856.6826-1.7127,1.3648l-.0387-.051c-5.5973,3.2972-11.3387,6.3737-16.7657,9.93-29.4274,19.286-55.2788,42.6932-78.417,69.0954a378.4564,378.4564,0,0,0-32.5227,42.9636C366.9946,895.3507,353.7383,925.84,341.42,956.75c-1.1687,2.9326-5.2168,8.19.7347,11.5783,11.0373,6.2842,22.0961,12.5306,33.122,18.8348,3.42,1.9555,5.2344,1.1817,5.942-2.8129a46.1269,46.1269,0,0,1,2.37-8.2243C394.9116,946.25,408.0337,917.5,425.831,890.5576a445.202,445.202,0,0,1,50.0492-63.27c12.2909-12.8208,25.5337-24.61,39.0025-36.1571,5.0514-4.6813,5.4552-4.16,7.9564-5.9093,8.7606-6.1274,17.373-12.4795,26.2994-18.3545,22.3161-14.6874,46.5846-25.6193,70.9486-36.3392,2.4861-.7805,5.0025-1.477,7.4539-2.3546,27.067-9.69,54.7082-17.0377,83.311-20.4662,12.6072-1.5109,25.2205-2.9712,37.831-4.4546-.36-4.5185,1.7022-6.69,6.2515-6.4514C752.6767,694.3127,749.7214,695.4464,747.0174,695.2751Z"/><path class="cls-1" d="M475.3523,672.7862c-8.8643,2.2252-16.9959-.0784-24.8621-4.0226,5.9-21.1667.9867-42.1867-1.1271-63.1907-1.1892-11.8178-3.5633-23.5161-5.4039-35.27,2.1979-9.269,4.3072-18.5588,6.6176-27.7986,2.5755-10.3,4.4963-20.8553,9.6394-30.3014,5.2608-9.6621,9.9293-9.6911,15.7314-.4207-3.8174,5.3838-4.1255-4.222-7.8774-1.2258-1.1441,3.52.5226,7.7979.9737,11.4836,1.1426,9.3362-3.5549,17.8-1.824,27.3734,1.8471,10.2158,2.8946,21.4089,1.317,31.4-2.4292,15.3831-1.9959,30.4451-.6819,45.5845.7,8.0624-1.9152,16.2389.1117,23.8027C469.9967,657.7758,464.7167,668.0492,475.3523,672.7862Z"/><path class="cls-1" d="M475.3523,672.7862c-10.6356-4.737-5.3556-15.01-7.3856-22.5857-2.0269-7.5638.588-15.74-.1117-23.8027-1.314-15.1394-1.7473-30.2014.6819-45.5845,1.5776-9.9907.53-21.1838-1.317-31.4-1.7309-9.5731,2.9666-18.0372,1.824-27.3734-.4511-3.6857-2.1178-7.9632-.9737-11.4836,3.7519-2.9962,4.06,6.61,7.8778,1.2265,9.0494,16.6115,11.7976,35.0209,15.2015,53.2432q.0518,3.9384.1025,7.8756c-1.8724,12.0229-4.0651,24.0074-5.543,36.0794-2.4247,19.8043-5.56,39.6821.7775,59.3976C482.9883,670.3866,479.4618,672.3227,475.3523,672.7862Z"/><path class="cls-1" d="M656.3367,307.19q-38.7852.015-77.5708.03c4.169-10.7482,13.1181-19.1827,14.9532-31.0767.9043-5.8611,2.0482-11.6854,3.0824-17.526q21.457-.0147,42.9156-.03.4285,4.0467.8564,8.0936c.962,8.2951,3.3065,16.0674,8.5993,22.724.8133,2.9937,1.3442,6.1734,4.8637,7.385l-.0139.2551Q655.18,302.1172,656.3367,307.19Z"/><path class="cls-1" d="M443.9594,570.3046c1.84,11.7522,4.2145,23.45,5.4037,35.2683,2.1138,21.004,7.0274,42.024,1.1271,63.1907-4.4981,5.4441-7.0874,12.6373-14.2914,15.6026-4.785.3361-9.3226-1.13-13.9532-1.9244,6.985-2.2127,9.1269-6.5978,7.7669-13.9565a126.971,126.971,0,0,1-1.6138-22.1088c-.1158-16.7033.668-33.3861.5012-50.12-.2241-22.4883-3.8543-45.3971,2.8851-67.67a143.09,143.09,0,0,1,11.0535,38.9653l.7879,2.2256.4228.1024Z"/><path class="cls-1" d="M827.3739,249.43c-8.17,5.7673-16.5733,10.9115-27.1683,10.22-5.9223,4.41-10.5595.0846-15.4861-2.282-2.2439.678-4.2658,1.5154-3.2568,4.5311l.0193-.0182c-1.7439-.6852-1.6344.4594-1.5549,1.5746l-.0244.0326c-1.7046.4412-2.625,1.28-1.5794,3.1155l-.2622-.0865c-5.223,8.63-16.7946,12.2943-18.5115,23.6663a11.4316,11.4316,0,0,0-8.0381-1.3258l0,.03q.1926-.822.385-1.6436-.0115-.8283-.0228-1.6564c.1646-.1738.5015-.4219.4639-.5087a7.4439,7.4439,0,0,0-.6765-1.0881c-1.9016-11.4823-1.9014-23.0414-1.398-34.6208,1.8534-7.4864,6.1636-13.8752,5.1991-22.7336-.701-6.4379,7.9612-5.8881,13.48-6.0887,4.8818.7587,4.2039,2.7265,1.1872,5.2927-6.0992,5.1881-2.4721,8.845,1.6226,13.064,4.3729,4.5054,7.83,4.605,11.4142-.5213,1.2846,1.8306-2.3975,11.3736,5.2313,3.3644.885-.9291,1.84-.5946,2.7492.0429,1.2966.9091,2.7364,2.06,3.978.2232a3.3926,3.3926,0,0,0-.2541-2.8658c-.945-1.7011-2.3936-2.7139-4.5441-1.9154-2.3276.8641-4.6491,1.8636-7.2383,1.2311,4.3475-2.9448,8.7737-5.026,13.7637-1.319,1.8909,1.4046,2.9614.107,3.4117-1.4079,1.8667-6.2769,3.0978-12.7314.0575-18.9031-2.571-5.2195-6.9771.7235-10.2483-1.1679-.2032-.1175-.3045-.41-.4532-.6219,7.5778-5.7523,15.7687-9.73,25.7913-7.9484.0149,3.1885-5.1067,4.3613-5.3534,7.7635-.296,4.0856,1.5159,8.4193.804,12.3543-.8166,4.5135,3.0489,6.8255,3.2725,10.923l-3.1008-4.5121c-2.12,1.4686-1.9564,3.5581-1.8166,5.1324.3785,4.2616,1.6161,8.0482,6.6182,9.3823C819.66,249.16,823.7085,247.4975,827.3739,249.43Z"/><path class="cls-1" d="M425.5369,148.1124c-5.3581-3.104-10.7045-6.2286-16.0791-9.3036-2.8809-1.6484-5.37-.5512-7.9473,1.0255-4.4044,2.6942-9.0085,5.0609-13.4247,7.7368-3.2215,1.952-4.6552,1.3148-4.8985-2.5245-.3945-6.2275,1.498-11.9806,3.2991-17.7712,2.631-5.48-2.1245-6.8145-5.1286-9.132a40.9934,40.9934,0,0,1-12.0851-12.6462c3.0559-2.8469,6.7249-2.24,9.901-1.9243,11.37,1.13,17.0732-5.3205,20.8922-14.666.29-.7093.219-1.6018.6067-2.2293,1.4421-2.3335,1.7306-6.0606,4.9336-6.4416,4.0186-.478,3.4053,3.8593,4.8667,6.0446A34.3576,34.3576,0,0,1,412.6667,90.3c3.1675,6.464,6.5573,12.1059,15.3238,12.0213,4.6807-.0451,9.3817,2.0065,15.2168,3.3812-3.6851,4.2429-6.0611,8.7011-9.7752,10.9191-9.6286,5.75-7.8786,13.3043-4.8485,21.4938q.3063,2.2554.6134,4.5154-.0987,2.5173-.1985,5.0318Q427.2666,147.8843,425.5369,148.1124Z"/><path class="cls-1" d="M751.8739,285.5887q.0111.8281.0224,1.6561-.8244.6945-1.6483,1.3895c-24.2335-18.0762-54.1665-26.0775-78.3241-44.15-7.3029-5.4634-15.3329-10.75-19.261-19.7458,2.822-.798,4.2375,1.4517,5.947,2.869,7.9786,6.6145,17.6718,8.6923,27.4577,10.5632l-.1415.199c.0127,1.5953,1.187,1.5618,2.2878,1.6316,3.2446-1.4333,1.6858-4.5027,2.3245-6.8236,18.027,12.3346,39.232,12.9519,59.7246,16.1948-.5031,11.5784-.5033,23.1375,1.3985,34.62Q751.7678,284.7907,751.8739,285.5887Z"/><path class="cls-1" d="M812.887,72.0841c1.2973,6.2636-1.1654,12.2418-2.3742,18.0774-.7487,3.6148-5.6339,6.337-9.3866,8.8036-7.6227,5.01-21.07,4.2968-26.7307-1.9161-9.6926-10.6385-10.3725-23.0892-2.722-34.4309,7.5075-11.13,21.5573-13.0529,33.3359-4.5633q.8057.64,1.6132,1.2812c.4938,1.0133.9442,2.0875,2.4186,1.7308l.0579.0143c.0475.5684.095,1.1367.1456,1.704Q811.0688,67.4336,812.887,72.0841Z"/><path class="cls-1" d="M514.4193,170.8846c7.2056-3.5071,14.74-4.7213,22.51-2.5171,12.3034,3.49,16.9654,13.8781,13.9173,30.4246-1.3675,7.4236-12.9556,14.3643-23.0908,13.83a28.3616,28.3616,0,0,1-24.1841-17.3644,11.76,11.76,0,0,1,.6935-10.9266,9.79,9.79,0,0,0,2.6013-5.4692q.9414-1.3108,1.8825-2.6228.8052-.9219,1.6115-1.8413l.0519.05A7.0171,7.0171,0,0,0,514.4193,170.8846Z"/><path class="cls-1" d="M639.7171,258.5868q-21.4581.0153-42.9156.03c-1.6068-9.5713-.8836-19.2127-.5427-28.8037.2363-6.6548,4.7356-10.6247,11.0109-11.1755a118.8872,118.8872,0,0,1,21.5065.1987c6.6209.6278,11.242,4.494,11.3441,11.659C640.2537,239.8554,639.8752,249.2227,639.7171,258.5868Z"/><path class="cls-1" d="M486.4865,668.379c-6.3378-19.7155-3.2022-39.5933-.7775-59.3976,1.4779-12.072,3.6706-24.0565,5.543-36.0794,5.7321,1.2124,9.5519,2.8037,5.0511,9.9016-1.6628,2.6223-.7716,7.1612-.3665,10.7493,2.5243,22.3534,1.1108,44.6821.0007,67.0278a62.2486,62.2486,0,0,0,.7132,12.3846c.3936,2.5829-.4912,3.3139-2.67,3.5035C490.026,675.1212,489.4875,670.61,486.4865,668.379Z"/><path class="cls-1" d="M611.9847,205.4558a.8453.8453,0,0,0,.3668-1.02c.8424-1.3092,1.4957-2.6154-.0058-3.919l.0539-.0794q-.1176-2.174-.2308-4.3524-.039-.8054-.0785-1.6106c2.1-10.165-6.8048-6.8361-11.1529-9.0945q-.7-1.1315-1.4-2.2629a1.9453,1.9453,0,0,0-.1821-1.212c-.4279-5.6729,3.1511-8.3431,7.8345-7.6563,4.6747.6854,5.46-1.0984,5.19-4.6619-.2951-3.9079-.2117-7.695,4.8662-7.6705,4.6493.0224,7.0432,3.14,6.7667,7.6758-.2324,3.8154,1.3976,5.09,4.9032,5.1922,4.4962.1308,6.0973,3.2363,6.7765,7.1159.0078,2.6177-2.4641,2.6289-3.7711,3.8693-3.706,3.5172-9.3677,6.5287-6.3218,13.37l2.1992-.0033.0157-.0409q-.0916,2.3649-.1836,4.73l-2.099-.9826c-1.8132,7.6953-7.932,5.2008-12.8952,5.4479Q612.3086,206.8746,611.9847,205.4558Z"/><path class="cls-1" d="M622.7192,851.93c-8.6112,6.0078-13.8586,15.1088-20.8171,22.6363-.766.7539-4.378,5.6361-4.378,5.6361-4.4115,5.8814-11.5343,14.54-17.145,21.9331-13.3078,17.0072-23.5249,35.842-32.6992,55.2934-2.4254,1.8374-3.3054,4.6822-4.2988,7.2855-5.8936,15.4454-13.7852,30.0186-18.6178,45.9789-4.6452,15.3414-5.4508,15.0974,10.327,16.1485q1.58.0705,3.16.144a4.74,4.74,0,0,0,1.4713-.3975q2.341.2747,4.6841.5477l1.5835.0858c1.567-.0156,3.1316-.0486,4.6966-.0818a35.2368,35.2368,0,0,1,12.6388-.1681c3.13-.0824,5.1067-1.1916,6.3956-4.5014,6.1955-15.9075,29.2326-66.58,34.2792-76.1166q10.7014-16.2523,21.4036-32.5057l35.1547-42.8531q13.4163-13.2462,26.8338-26.4929c1.7128-.8009,2.3911-2.7723,3.62-3.754,33.02-26.3878,67.5163-50.4984,106.6684-67.1356,30.7651-13.0732,62.0415-24.51,95.5735-28.2473,2.3173-.2583,3.9049-1.03,4.3151-3.53.598-3.64-2.7695-.2153-3.674-2.1043-.6526-1.3627-2.849-1.9862-4.3567-2.9394l-8.3552-3.9075c-7.0979-4.105-13.5616.9391-20.3377,1.45-18.0932,1.364-35.72,5.46-53.3606,9.4384a364.3868,364.3868,0,0,0-116.9443,52.0314l-1.0722.9418a25.258,25.258,0,0,1-4.3351,3.0655,56.0734,56.0734,0,0,0-5.371,3.32h0c-9.2937,5.3209-17.4942,12.0731-25.3,19.342-9.161,5.5385-16.1573,13.5071-23.5774,21a1.7617,1.7617,0,0,1-.7847.75c-1.7992,1.2039-3.9451,3.2471-7.3733,7.7057"/><path class="cls-1" d="M627.631,203.8256q.092-2.3649.1834-4.7288,1.1369.1732,2.2745.3446c-1.8688-7.3386,1.9248-4.4565,5.2794-3.0465,9.201,3.8672,16.4044,10.9364,25.1678,15.4848l.049.0113q.8253.6623,1.6506,1.3258a8.7778,8.7778,0,0,0,5.7556,3.5328q.9561.78,1.91,1.5611l-.0676.02c.6494,3.04,3.4339,4.36,5.2339,6.4713,3.745,4.3923,9.142,7.4229,11,13.3685-9.7859-1.8709-19.4791-3.9487-27.4577-10.5632-1.71-1.4173-3.125-3.667-5.947-2.869l-.2171-.262c.1347-1.0287-.344-1.4382-1.3388-1.3243a4.52,4.52,0,0,1-1.182-.8709q-.65-.6659-1.2985-1.3368C642.1011,214.6576,636.7487,206.933,627.631,203.8256Z"/><path class="cls-1" d="M789.62,215.0448c.1487.2114.25.5044.4532.6219,3.2712,1.8914,7.6773-4.0516,10.2483,1.1679,3.04,6.1717,1.8092,12.6262-.0575,18.9031-.45,1.5149-1.5208,2.8125-3.4117,1.4079-4.99-3.707-9.4162-1.6258-13.7637,1.319l.0776-.08c-3.5838,5.1262-7.0409,5.0266-11.4138.5212-4.0947-4.219-7.7218-7.8759-1.6226-13.064,3.0167-2.5662,3.6946-4.534-1.1872-5.2927A116.537,116.537,0,0,0,789.62,215.0448Z"/><path class="cls-1" d="M781.9005,170.1372c.0418-13.7353,3.187-15.8085,16.5214-10.617A44.8023,44.8023,0,0,1,806.65,163.99c4.9095,3.2334,7.9793,6.5307.2351,10.3822-3.0031,1.4937-4.0086,5.248-6.6931,7.5128-4.585,3.8684-9.4068,5.9445-14.946,3.3927-4.83-2.2252-2.4068-7.4-3.3-11.23A17.65,17.65,0,0,1,781.9005,170.1372Z"/><path class="cls-1" d="M602.9006,747.2811c15.74-8.8527,32.2354-14.4577,48.8365-19.7736,1.6619-.5323,3.7971-1.7825,5.1372-.3075,1.6437,1.8089.02,3.9523-.8965,5.6926-1.943,3.6885-4.2792,7.1712-6.1891,10.8751-1.3914,2.6991-3.3929,3.5685-6.3,3.5506C629.96,747.2344,616.43,747.2811,602.9006,747.2811Z"/><path class="cls-1" d="M825.6541,539.5365c.0583,1.0124.1016,2.0259.1781,3.037.1577,2.0839,2.1319,4.7363-1.1318,5.8682-2.35.8148-4.419-.6889-6.0368-2.363-1.2057-1.2477-1.85-3.0975-3.9128-3.3243q-.0606-1.3536-.12-2.7145c3.4378-8.2293,1.4476-16.8019,1.6059-25.2376l4.7235-12.5678.0916.174c3.2574-1.1063,6.35-5.1675,9.9012-2.1333,3.7,3.1613,2.1224,7.6087.8747,11.6536C829.0411,520.9661,822.931,529.2664,825.6541,539.5365Z"/><path class="cls-1" d="M836.2993,480.3233q.0467,2.2382.0941,4.4773c-2.6718,2.8836-.8945,6.4836-1.5616,9.6894-3.617-.9089-7.2469-.4879-10.8763-.1041.0442-10.3763.3-20.7581.0362-31.1267-.1161-4.5631,1.2387-6.8824,5.9593-6.6817q1.7235.8535,3.4452,1.7078.0457,3.087.0909,6.1739c-.1581,1.7621-.3776,3.5406,1.2682,4.8289q.1116,3.8087.2229,7.619A3.5073,3.5073,0,0,0,836.2993,480.3233Z"/><path class="cls-1" d="M516.4172,714.3006q-5.7216-3.2587-11.4458-6.5182c-3.11-3.3683-1.3106-7.4148-1.53-11.1765-.1481-2.5392,1.4119-3.0213,3.5387-2.7854,1.5519.1722,3.1119.3084,4.6717.367,12.18.4584,11.6925.4762,12.3262,12.9153C524.3077,713.5723,522.1132,715.2249,516.4172,714.3006Z"/><path class="cls-1" d="M754.9694,719.0189q-2.2425-3.249-4.4853-6.4983c.7261-1.8834,2.4223-1.7337,3.9393-1.7888,16.95-.6155,33.865-.2941,50.6981,2.0153-2.4179,2.2594-5.4626,1.2391-8.2249,1.4716C782.8712,715.3992,768.8268,716.38,754.9694,719.0189Z"/><path class="cls-1" d="M523.8533,725.3881c.3532,5.8888-1.6392,10.25-6.3477,12.8913-3.4748,1.9489-7.1063,1.1562-10.23-1.1695-4.6061-3.429-4.4705-7.3514.4133-10.3334,3.087-1.885,6.52-3.21,9.5761-5.1373C522.7591,718.1728,524.6163,719.8943,523.8533,725.3881Z"/><path class="cls-1" d="M478.2533,698.0473c-6.8274-1.62-13.7122-3.0522-20.0811-6.162-1.1355-6.1126.986-8.9484,7.4588-7.4253a3.6992,3.6992,0,0,0,.7827.0027C479.4615,684.6138,479.4615,684.614,478.2533,698.0473Z"/><path class="cls-1" d="M754.9694,719.0189c13.8574-2.6391,27.9018-3.62,41.9272-4.8,2.7623-.2325,5.807.7878,8.2249-1.4716q.83-.07,1.6584-.1413c8.1555.1049,16.3147.07,24.4629.3545,6.9428.2425,13.8,1.0988,19.5009,5.7215-8.8566-.0019-16.5273-5.7819-25.7425-4.7452-20.7969,2.34-41.6511,4.1732-62.4881,6.1494-2.5762.2445-5.1887.1059-7.785.1441A7.426,7.426,0,0,0,754.9694,719.0189Z"/><path class="cls-1" d="M773.8919,177.8725c.1247.7378.3171,2.0221.563,3.296.4155,2.1541.4908,4.6408-1.7755,5.3527-2.0078.6307-2.8176-1.9295-3.8475-3.3178-1.704-2.2971-3.1752-4.7668-4.7449-7.1635-1.5624-2.3855-3.7827-4.844-1.195-7.6624,1.9033-2.073,4.155-4.2888,7.4128-3.437,4.1074,1.074,3.4809,4.6158,3.5785,7.6852C773.9329,174.1854,773.8919,175.748,773.8919,177.8725Z"/><path class="cls-1" d="M745.4713,695.21c-2.0764-2.617-5.62-.4405-7.8922-2.4125,2.5417-1.1961,5.8254.6826,8.0244-1.926,6.0607,4.5234,13.4207,3.563,20.2146,4.3266,13.4837,1.5155,26.4281,5.42,39.6761,7.9244,1.3558.2563,4.3316-.3263,2.8092,2.9548a35.43,35.43,0,0,1-16.1649-2.0325c-.07-2.6759-2.23-2.1185-3.8553-2.655-10.8451-3.5783-22.3467-2.2581-33.3487-4.59-2.2577-2.4876-5.2131-1.3539-7.9167-1.5255Q746.2454,695.2312,745.4713,695.21Z"/><path class="cls-1" d="M828.9871,198.6618h64.5382q.0245.6474.0487,1.2948H828.8376Z"/><path class="cls-1" d="M749.1066,207.4049c3.0309-.0524,5.0874.99,5.0609,4.4325-.021,2.7672-8.7571,8.0554-12.98,7.3645-2.3711-.3879-5.7076-.4946-6.469-3.3647C733.8737,212.6511,743.389,207.2389,749.1066,207.4049Z"/><path class="cls-1" d="M754.9345,696.8c11.002,2.3314,22.5036,1.0112,33.3487,4.59,1.6256.5365,3.785-.0209,3.8553,2.655q-11.5257-.7465-23.0494-1.49c-.5373-.731-1.1015-.7592-1.6935-.0642l-18.7133.7609C748.3226,698.7331,750.3852,696.562,754.9345,696.8Z"/><path class="cls-1" d="M896.0919,187.9538H832.0807c21.2442-4.0542,42.5606-2.4082,63.8738-1.1292Q896.05,187.3846,896.0919,187.9538Z"/><path class="cls-1" d="M810.5065,186.561c1.6373.7752,5.5451-.988,4.7508,2.8659-1.4459,7.0161-8.0976,6.97-13.3517,8.5876-2.0434.6293-3.6228-.1038-3.84-2.4627C797.7939,192.6035,806.0325,186.6253,810.5065,186.561Z"/><path class="cls-1" d="M565.5445,192.0039c-3.56,2.099-1.1194,4.5841-.1333,6.6106.9908,2.0365,1.81,3.7349-.0592,5.5422a3.89,3.89,0,0,1-4.3158.8008c-2.0859-.788-2.291-2.577-2.2176-4.4736.3237-8.3713,1.26-16.72-.2384-26.5165,6.1485,5.3133-.1622,13.5291,6.9837,16.6072A11.6378,11.6378,0,0,1,565.5445,192.0039Z"/><path class="cls-1" d="M686.0676,238.17c-1.858-5.9456-7.255-8.9762-11-13.3685-1.8-2.111-4.5845-3.4309-5.2339-6.4713,4.7824,3.0946,12.3672,1.7457,14.452,9.1165-2.8881,5.5224,1.9183,2.519,3.4654,3.127a2.6254,2.6254,0,0,1,2.7875,2.6084c-.6389,2.3158.92,5.3852-2.3259,6.8183-.3369-1.1409-.888-1.98-2.2866-1.6314Z"/><path class="cls-1" d="M740.9556,185.6383c-17.0639-.0666-34.1279-.1-51.1912-.2365-2.4742-.02-5.1088.6795-7.3856-.966-.11-.079-.0995-.4407-.0273-.6246a2.803,2.803,0,0,1,.4609-.616c2.865.0448,5.7315.1051,8.5985.13q27.7566.2422,55.5132.4717-.7893.8575-1.577,1.7134Q743.1535,185.5726,740.9556,185.6383Z"/><path class="cls-1" d="M746.9241,183.797q-27.7566-.2346-55.5132-.4717c-2.867-.025-5.7335-.0853-8.5985-.13,2.7268-2.2712,5.9726-1.2065,8.9682-1.23q23.6764-.1866,47.3552-.0271C741.7909,181.9552,744.9391,180.6733,746.9241,183.797Z"/><path class="cls-1" d="M896.7975,178.5208H872.11C880.6456,174.1492,888.8689,174.6654,896.7975,178.5208Z"/><path class="cls-1" d="M788.9945,109.7777a9.9121,9.9121,0,0,1,1.5508,0c2.3983.3338,6.3778-.9922,6.5133,2.2638.15,3.6143-3.8937,2.0528-6.1987,2.4852a6.33,6.33,0,0,1-2.318.0806c-2.6693-.5205-6.146,3.4881-7.9573-.98C779.548,111.0705,782.5146,109.7439,788.9945,109.7777Z"/><path class="cls-1" d="M755.8045,195.4072c-2.874-4.7419.3237-9.2235-1.1989-15.3829C762.9475,188.9727,762.9475,188.9727,755.8045,195.4072Z"/><path class="cls-1" d="M850.3338,303.3967c-6.0714-1.8827-11.3859-4.9236-15.35-10.0314,2.8788-2.0449,5.3718-.6956,7.746.9772,2.2181,1.5629,3.8628,3.3417,7.189,3.6719C854.4561,298.4647,850.3612,301.4966,850.3338,303.3967Z"/><path class="cls-1" d="M805.3961,139.0034c-1.8217-6.5667-.47-12.5747-7.0106-15.9625C808.234,122.8744,810.5718,128.2746,805.3961,139.0034Z"/><path class="cls-1" d="M751.5115,288.8585a11.4316,11.4316,0,0,1,8.0381,1.3258c-.5116,3.84-1.1327,7.65-3.0945,11.0857C753.984,297.4608,751.8263,293.5266,751.5115,288.8585Z"/><path class="cls-1" d="M831.6675,174.2462c2.9244-5.4712,5.8395-6.9659,9.7692-5.9053,1.2374.3341,1.78,2.289,1.0954,3.3613C839.8852,175.8477,836.2922,172.832,831.6675,174.2462Z"/><path class="cls-1" d="M842.04,215.5539c-.7342,3.1185-2.24,4.102-4.6382,3.1242-2.0273-.8266-5.16-1.1529-4.9695-3.8728.1878-2.679,2.7824-2.611,4.7058-1.4918C838.7346,214.2425,842.28,212.0812,842.04,215.5539Z"/><path class="cls-1" d="M600.9374,185.38q-6.2394.138-12.4785.2774-6.3274.02-12.655.0374-2.2994-.2277-4.6009-.4535l-.1852-.106q-.1435-.8733-.2887-1.7467,1.1658-.34,2.3285-.679,13.2371.2053,26.48.4075Q600.2374,184.249,600.9374,185.38Z"/><path class="cls-1" d="M599.5372,183.1175q-13.2411-.2029-26.48-.4075c8.7209-1.8065,17.5376-.3826,26.2977-.8046A1.947,1.947,0,0,1,599.5372,183.1175Z"/><path class="cls-1" d="M899.0561,243.0927c-2.3084-.1724-5.7514,1.152-5.6563-2.8477.0851-3.5707,2.9475-3.9862,5.9235-3.4449Q899.1894,239.9459,899.0561,243.0927Z"/><path class="cls-1" d="M834.8318,494.49c.6671-3.2058-1.11-6.8058,1.5616-9.6894,3.6248,4.1147-.1454,8.9716,1.3311,13.3038Q836.2769,496.2981,834.8318,494.49Z"/><path class="cls-1" d="M583.368,191.72c-2.58,1.355-4.5916,1.8032-7.1215-.6535C579.0124,189.6091,581.03,189.0669,583.368,191.72Z"/><path class="cls-1" d="M573.2571,850.9934c35.6921-35.8771,76.0045-65.29,121.7019-87.2281,16.5-7.9215,33.69-14.1057,50.7107-20.7282q10.0883-2.84,20.1772-5.68c3.0291.0081,62.989-13.0929,90.9009-14.1958q-3.018-2.2542-6.0362-4.5087l.0319.03c-8.8564-.002-16.527-5.782-25.7423-4.7453-20.7969,2.34-41.6511,4.1732-62.488,6.1495-2.5762.2444-5.1888.1058-7.7851.1441-4.7007.9012-39.8277,8.8228-52.72,11.761-1.2546.2859-2.5274.4929-3.7933.7359-24.89,8.6067-49.5984,17.634-72.7942,30.32-19.4327,10.6277-38.5547,21.7257-55.842,35.701-38.1619,27.344-69.5578,61.1994-96.1682,99.6981C452.13,929.2343,436.56,962.9287,422.8052,997.539c-2.3079,5.8073-.0242,9.6082,6.064,12.0144,12.623,4.9887,25.797,7.609,38.9851,10.3165,4.0984.8414,6.4406-.7566,7.4467-4.7439,5.0552-20.0361,14.6294-38.3385,23.0142-56.9792,9.1062-20.2452,19.8794-39.9752,33.2011-57.7778,12.89-17.2248,27.7475-32.9768,41.7406-49.3756"/><path class="cls-1" d="M856.7479,723.1612q-3.018-2.2543-6.0362-4.5088c3.1915-.61,5.6636.6131,7.6722,3.0123Q857.564,722.4128,856.7479,723.1612Z"/><path class="cls-1" d="M896.0919,187.9538q-.043-.5683-.1374-1.1292c1.4474-.0822,3.0144-.5611,4.0679.9031A1.327,1.327,0,0,1,899.7539,189C898.16,190.13,897.0179,189.3477,896.0919,187.9538Z"/><path class="cls-1" d="M687.7511,230.574c-1.5471-.608-6.3535,2.3954-3.4654-3.127Z"/><path class="cls-1" d="M565.5445,192.0039a11.6378,11.6378,0,0,0,.0194-1.4293c1.1024-.37,2.2667-.8752,3.0777.4457.135.22-.2415,1.0958-.4209,1.1083A19.7032,19.7032,0,0,1,565.5445,192.0039Z"/><path class="cls-1" d="M740.9556,185.6383q2.1968-.0648,4.3915-.1279C743.9234,186.9989,742.4584,186.9745,740.9556,185.6383Z"/><path class="cls-1" d="M571.203,185.2417q2.3009.2262,4.6009.4535C574.125,187.0078,572.5805,186.97,571.203,185.2417Z"/><path class="cls-1" d="M898.4072,316.4933c-.6214-1.1419-.8326-2.2681.1273-3.3371A2.8334,2.8334,0,0,1,898.4072,316.4933Z"/><path class="cls-1" d="M612.3457,200.5173c1.5015,1.3036.8482,2.61.0058,3.919Q612.35,202.48,612.3457,200.5173Z"/><path class="cls-1" d="M570.7291,183.3891q.1447.8733.2887,1.7466-.9529-.3561-1.9043-.712Z"/><path class="cls-1" d="M750.248,288.6343q.8238-.695,1.6483-1.3895-.1917.8221-.3846,1.6439l-.6683.0528Z"/><path class="cls-1" d="M514.7155,744.0037q-.8559.6826-1.7126,1.3648Q513.8584,744.6857,514.7155,744.0037Z"/><path class="cls-1" d="M767.3956,702.4907c.592-.695,1.1562-.6668,1.6935.0642Q768.2422,702.5219,767.3956,702.4907Z"/><path class="cls-1" d="M662.2357,213.2168q-.8253-.6633-1.6506-1.3258Q661.41,212.5546,662.2357,213.2168Z"/><path class="cls-1" d="M669.9013,218.3107q-.9543-.7808-1.91-1.5611Q668.9453,217.5305,669.9013,218.3107Z"/><path class="cls-1" d="M648.6265,220.9441q.6491.67,1.2985,1.3368C648.9643,222.3473,648.5362,221.8979,648.6265,220.9441Z"/><path class="cls-1" d="M898.963,536.8926a7.5255,7.5255,0,0,1-.4155-1.3377c-.0214-.1621.3086-.3712.4776-.5582Q898.9941,535.9453,898.963,536.8926Z"/><path class="cls-1" d="M651.107,223.1518c.9948-.1139,1.4735.2956,1.3388,1.3243Q651.7731,223.8148,651.107,223.1518Z"/><path class="cls-1" d="M237.3507,696.7586c-4.0683.7117-6.2743-.4711-4.7427-4.9717a21.9946,21.9946,0,0,1,2.694-5.6256c6.08-8.5727,14.3574-16.3273,9.6417-28.98,3.5793,11.7152,9.2365,22.3113,10.0363,34.3043C249.4091,694.2839,243.3649,695.4712,237.3507,696.7586Z"/><path class="cls-1" d="M563.0471,717.531q-17.4513-38.9191-3.392-79.188c.6849-1.962,1.3536-3.93,2.03-5.8946,7.2831-11.3738,14.4664-22.8262,23.3169-33.0849,2.3121-2.68,2.48-5.4067,1.8482-8.7132-2.0446-10.7015-5.51-20.671-13.3439-28.6476-2.3658-2.409-3.7867-5.1681.7362-6.3133,21.0862-5.338,42.248-10.5267,63.76-1.9346,3.3148,1.3241,7.1992,2.3031,7.0965,7.1553-.03,1.4442.76,3.058,2.1939,2.2152,8.5324-5.0162,10.0283,2.4156,13.0353,7.1583,1.24,1.9566,2.3241,4.0126,4.1071,7.1161-7.6409-1.4043-13.9112-.661-19.8031,3.3087-8.419,5.6724-10.0645,12.9488-4.0017,20.91,6.6154,8.6865,13.2428,17.3638,20.7526,27.209,6.9633-15.5875,12.12-30.2564,6.7082-46.3858-1.0256-3.0573-1.49-5.5766,1.5166-6.0516,2.4377-.385,3.7021-6.1258,8.3111-.728,3.8835,4.5481,5.8838,8.614,6.5559,14.1283,2.1589,17.7082-1.9459,33.8467-12.6375,48.0011-3.2246,4.2693-3.8434,8.0158-2.6744,12.9263a92.2253,92.2253,0,0,1,.5643,41.1786c-24.7927,3.0735-49.5157,6.5442-73.3838,14.3078C585.1959,709.83,574.1429,713.7462,563.0471,717.531Z"/><path class="cls-1" d="M535.1085,543.1413c-5.4743-9.2918-6.3126-20.6091-12.8568-29.4305a1.8254,1.8254,0,0,1,.37-.8388l9.81.0456,4.9787.1447q7.3895-.0215,14.7792-.0426,16.8634-.0237,33.7268-.0461c13.4263-.0115,13.4426-.0074,13.4493-13.0377.0144-27.7127-.0243-55.4254.0286-83.138.0245-12.8717,8-22.9313,17.8584-22.7552,11.7687.21,19.8623,9.2632,19.91,22.5826q.1427,40,.0757,80c-.0033,8.2541-.07,8.255-7.5965,4.2622-3.1474-1.67-6.2921-3.3443-10.6618-3.9837,6.4192,11.3495,12.9632,22.6314,19.1743,34.0936,1.6634,3.07,6.1192,5.9829,4.0984,9.4461-1.6439,2.8171-6.2913,1.0949-9.5759,1.1035-29.8054.0782-59.6112-.0026-89.4168.0484C540.5014,541.6,537.4382,540.6237,535.1085,543.1413Z"/><path class="cls-1" d="M833.3964,458.2853q-1.7224-.8541-3.4454-1.7078c-.477-2.2647-.8863-4.5465-1.4476-6.79-.6073-2.4264-.61-5.7415-4.3329-5.26-3.2885.425-3.5865,3.265-3.6309,6.016-.0269,1.671-.2114,3.3394-.436,6.6375-2.8926-5.29-1.9141-9.5455-2.2537-13.5144-1.21-14.1378-9.8771-22.4142-23.2807-21.8928-12.3684.481-20.3941,9.3021-20.6888,22.8024-.0772,3.5335-.0115,7.07-.0115,11.1952-4.8931-2.6277-.4793-9.4149-6.4842-10.2465-2.8726-.3981-3.2032,2.0914-4.3256,3.6948q-.1659-6.63-.3308-13.2605c.2708-2.0509.59-4.0966.8045-6.1533,1.5542-14.93,8.8933-29.6869,1.1483-44.9107-1.3-2.5552.1836-5.08,1.7318-7.28a43.2719,43.2719,0,0,0,7.585-20.9112c17.66-3.22,34.9586-.8423,52.1447,3.3739,6.4325,21.9484,10.399,44.3263,10.1807,67.2078C836.2246,437.6271,834.4246,447.9525,833.3964,458.2853Z"/><path class="cls-1" d="M631.4482,507.2957l69.6356,38.9488c-2.0622,1.2541-2.6486,1.7026-3.3048,1.9931-2.2584,1-5.7173,1.04-5.6462,4.2815.0573,2.6191,3.0329,3.5014,5.2093,4.0943,5.8027,1.5805,7.2141,4.91,4.1305,9.866-1.5959,2.5652-1.0444,4.346.9178,6.0466,20.7072,17.9474,38.793,38.5721,58.6668,57.3686,1.7328,1.639,3.5382,2.6676,1.164,5.5142-2.859,3.4281-4.4662.9709-6.2425-.7084q-18.5126-17.5015-36.9235-35.11c-7.9176-7.5577-15.7711-15.1829-23.7126-22.7154-1.0891-1.0329-2.91-2.703-3.7356-2.3834-6.9878,2.7051-10.6274.1281-13.8108-6.3515-1.9584-3.9862-5.8461-3.7916-7.5674,1.3938-.5643,1.7-1.2615,3.357-2.465,6.5284-12.8158-23.18-25.0154-45.2452-37.2149-67.31Q630.9985,508.0237,631.4482,507.2957Z"/><path class="cls-1" d="M814.632,540.0424q.0587,1.3572.1188,2.712c-5.15,13.2577-16.6731,21.4068-25.4634,31.7479-6.9114,3.1386-14.844,2.158-21.7559,5.54-3.5729,1.7481-5.2717-1.12-6.18-3.9842-1.8807-5.9311-3.5284-11.9643-2.8136-18.28.353-3.1169.7179-6.1664-.418-9.1863,10.688-16.7847,24.5329-28.3148,45.7788-27.6479,2.8773.09,5.7782-.1,7.5729-2.95C812.7963,525.3042,812.1978,532.8906,814.632,540.0424Z"/><path class="cls-1" d="M684.5509,511.2852c8.1093,1.6142,16.4018-.0395,24.5818,1.5606a26.1458,26.1458,0,0,1,9.8947,3.6627c.9611,6.9147,3.5786,13.67,2.2891,20.7989-.5649,3.1241-1.7855,4.1186-5.8564,4.9212-11.78,2.3221-19.6643-4.014-28.5137-9.2889-11.0919-6.6114-23.0987-11.684-35.2446-20.74,9.8254,0,17.7271-.1686,25.6139.0969C679.8745,512.3822,682.4167,513.7765,684.5509,511.2852Z"/><path class="cls-1" d="M552.19,513.02l-14.7838.0426c-1.27-20.2567-1.1172-40.7987-11.9022-59.1406-.6752-6.6415-6.0152-12.266-4.24-19.4419,7.93,1.61,11.6377,8.093,15.9513,13.8564,5.3492,7.1475,8.292,15.8676,14.6037,22.39Q552.0043,491.873,552.19,513.02Z"/><path class="cls-1" d="M561.6587,474.3982c0-7.323.0976-14.6477-.0292-21.9685-.112-6.4669,3.994-9.2105,9.3522-9.2126,5.0673-.0021,9.3126,3.2932,9.44,8.6983.3757,15.9441.1559,31.9021.1781,47.8548.0042,3.06-1.73,4.081-4.5207,4.0433-2.8763-.0388-5.7689-.1576-8.6275.0809-4.4948.3752-6.0033-1.6675-5.9034-5.9589.1824-7.8419.0519-15.6911.0519-23.5373Z"/><path class="cls-1" d="M655.9905,475.1648c0-7.31.0389-14.62-.0117-21.93-.0454-6.552,4.03-10.0022,9.6805-9.9805,5.3223.02,9.2223,3.5916,9.25,9.64.0686,15.1418-.08,30.2854.1025,45.4254.0565,4.7-2.1285,5.6526-6.2525,5.5373-14.3193-.4007-12.7026,1.8654-12.8061-12.2439-.04-5.4823-.0063-10.9653-.0063-16.4479Z"/><path class="cls-1" d="M561.8576,383.87c0-7.3252-.0836-14.6516.026-21.9751.0909-6.0754,3.0134-10.3623,9.3138-10.3188,6.1442.0423,9.4421,4.0313,9.48,10.2332.09,14.9117.294,29.8288-.008,44.7345-.1581,7.8039-6.7745,5.387-11.1932,5.901-4.1694.485-7.9535.1154-7.7838-5.816.217-7.5806.0527-15.1721.0527-22.7588Z"/><path class="cls-1" d="M675.1592,384.6151c0,7.3209-.0676,14.6428.0251,21.9626.0558,4.4039-1.5208,5.7647-6.2,5.2981-13.0421-1.3007-13.07-1.0464-13.05-13.922q.0242-15.6879.0535-31.3756a29.2311,29.2311,0,0,1,1.03-8.5025c1.4407-4.8347,4.76-7,9.3819-6.3737,4.7039.6376,8.465,3.1277,8.5447,8.6015.1182,8.1022.0307,16.2074.0307,24.3114Z"/><path class="cls-1" d="M551.8191,470.7263c-6.3117-6.5225-9.2545-15.2426-14.6037-22.39-4.3136-5.7634-8.0212-12.2466-15.9537-13.8551.2145-10.13-4.05-19.7584-3.3618-29.9425,8.412,4.5023,13.9432,12.1059,20.045,19.0091,3.7907,4.2886,7.2391,8.7675,12.6884,11.0728q.0866,1.7118.1708,3.4246a1.6791,1.6791,0,0,0,.82,1.14Q551.7219,454.9557,551.8191,470.7263Z"/><path class="cls-1" d="M699.007,638.6433c3.6411,0,7.2822-.009,10.9233.0017,10.1914.03,13.3053,4.4743,10.4188,14.552-1.0147,3.5432-3.7344,4.15-6.62,4.1867-11.4422.144-22.8875.2076-34.33.1-6.7617-.064-5.5479-5.7109-6.1079-9.725-.7169-5.1371,1.3712-8.8394,6.9936-9.0862,6.23-.2734,12.48-.0625,18.7215-.0625Z"/><path class="cls-1" d="M813.0759,480.9548c-.0926,10.4392-6.8422,17.2689-17.1411,17.3444-8.7139.0639-16.02-7.7317-15.8481-16.91.1832-9.8061,7.4158-16.984,16.886-16.7586C806.9171,464.8675,813.1623,471.1983,813.0759,480.9548Zm-16.4711-11.3421c-3.2624,4.8719-4.5527,11.0074-1.2744,14.208,2.3537,2.2981,8.6395.168,12.9722-2.6811C800.5464,481.0666,796.0761,478.18,796.6048,469.6127Z"/><path class="cls-1" d="M543.0261,580.5345c-3.6961-6.2589-3.5866-13.3748-4.5592-20.2464,5.4915.0224,11.047.5949,16.4577-.0492,10.9363-1.3021,16.7722,5.2588,21.934,13.1448,3.13,4.7812,1.8517,7.1914-4.0291,7.1407C562.8958,580.4389,552.9606,580.5222,543.0261,580.5345Z"/><path class="cls-1" d="M762.7283,435.9586q.1653,6.63.3308,13.2605-.3708,3.7995-.7422,7.5978-1.3088,5.4588-2.6182,10.9189-7.826-.0327-15.6516-.0657c-4.5748.3828-5.0182-2.5466-4.7867-5.992q.8034-11.9644,1.6266-23.9275C748.1582,437.0482,755.6489,439.01,762.7283,435.9586Z"/><path class="cls-1" d="M795.3283,455.04c-15.2038.0358-15.1032.054-12.4236-14.7725,1.2687-7.0186,4.8317-11.5755,12.1835-11.88,7.5627-.3128,12.0516,3.87,14.031,11.0066C812.7152,452.3611,810.3953,455.005,795.3283,455.04Z"/><path class="cls-1" d="M744.0471,467.67q7.8258.0328,15.65.0645c-.0188,8.2536-.5667,16.5525.1146,24.7494.5383,6.4761-1.3256,10.0592-7.8513,10.8754q-3.2724.0657-6.5436.1317a8.1893,8.1893,0,0,0-.0115-1.2559C744.6116,490.7269,748.0183,479.0535,744.0471,467.67Z"/><path class="cls-1" d="M751.9609,503.3594c6.5257-.8162,8.39-4.3993,7.8513-10.8754-.6813-8.1969-.1334-16.4958-.1146-24.7494q1.311-5.4579,2.6193-10.9177c3.3139-.4419,5.44.1817,5.392,4.34-.1429,12.51-.1025,25.0237.0577,37.5335.0535,4.1728-1.7425,5.52-5.6724,5.1336C758.7337,503.494,755.34,503.5014,751.9609,503.3594Z"/><path class="cls-1" d="M720.8694,570.7111c.125,2.6483,1.5371,7.1969-2.1049,7.7291-5.5237.8072-7.8594-5.0244-11.2161-8.3453a5.9377,5.9377,0,0,1-.1878-7.9311c2.4459-3.178,6.2541-2.1715,9.363-1.135C721.1544,562.506,722.3728,565.9767,720.8694,570.7111Z"/><path class="cls-1" d="M553.8787,637.1957a27.331,27.331,0,0,1-4.639,18.913q-.2956-5.4961-.5963-10.9927c1.5336-2.5448-2.2174-7.589,3.7863-8.0224l.7506.172.7695-.0363Z"/><path class="cls-1" d="M551.78,428.4883a195.2672,195.2672,0,0,1,.152-42.5624A342.5948,342.5948,0,0,1,551.78,428.4883Z"/><path class="cls-1" d="M551.8058,362.5281c-1.5613-3.8416-1.1578-7.7322-.29-11.6363A21.9766,21.9766,0,0,1,551.8058,362.5281Z"/><path class="cls-1" d="M550.8041,438.0451q-.0847-1.7126-.1708-3.4246.5127-.8724,1.0279-1.7463.093,2.5412.1869,5.0819A2.8368,2.8368,0,0,0,550.8041,438.0451Z"/><path class="cls-1" d="M684.665,360.9961a2.9267,2.9267,0,0,1-.033,4.4487Q684.6487,363.2184,684.665,360.9961Z"/><path class="cls-1" d="M553.95,637.2293l-.7695.0363-.7506-.172C553.0211,636.1956,553.5146,636.3866,553.95,637.2293Z"/><path class="cls-1" d="M551.7833,367.2667a7.4008,7.4008,0,0,1-.4913-1.2777c-.0286-.14.3082-.354.4776-.5341Q551.7762,366.3611,551.7833,367.2667Z"/><path class="cls-1" d="M550.8042,438.0451a2.836,2.836,0,0,1,1.0439-.089,1.0335,1.0335,0,0,1-.2233,1.2312A1.6881,1.6881,0,0,1,550.8042,438.0451Z"/><path class="cls-1" d="M630.5489,508.7516q-.3965-.7629-.793-1.5258.8483.0365,1.6942.0714Q630.9977,508.0229,630.5489,508.7516Z"/><path class="cls-1" d="M745.4058,502.2353a8.1891,8.1891,0,0,1,.0115,1.2559l-1.51-.1307Q744.6573,502.7977,745.4058,502.2353Z"/><path class="cls-1" d="M353.3348,417.4205c-1.194-18.3219-2.6245-36.6326-3.49-54.97a57.495,57.495,0,0,0-9.2583-28.5788c-1.9607-3.0859-3.5047-7.86-9-6.58-.2675-9.94-3.2334-20.3012,5.6947-28.5478,14.0345-12.9633,25.0171-13.0076,42.0276-1.5346,14.3837,9.7013,21.64,24.591,26.147,41.079,6.005,21.9666,13.1432,43.6533,15.0391,66.54-6.5843-4.235-13.5407-5.5777-21.1792-3.1588-3.9339,1.2458-8.01.395-12.054.342-6.9668-.0914-13.9592,1.4749-20.9339,2.3985-3.1288.4142-4.2295,2.9767-6.1235,5.065C357.8612,412.0576,359.1878,418.0635,353.3348,417.4205Z"/><path class="cls-1" d="M471.5556,447.5163c-2.9715-14.4771-4.0189-29.5039-13.4019-44.0581.2835,5.5967.265,9.7022.734,13.7512,2.8464,24.579,5.8418,49.1408,8.6918,73.7194.5625,4.85.9761,9.0365-4.9588,12.2722-5.7717,3.1469-6.2074,11.1307-9.9234,16.4444-4.5356-3.9536-2.8206-9.7574-3.5349-14.5066-1.962-13.0442-2.2626-26.3285-3.5432-39.4865-2.7862-28.6282-4.5915-57.3385-7.3262-85.9781-1.5974-16.7294-3.4-33.57-3.67-50.4553-.0911-5.7065-2.4386-11.22-1.507-17.0214a33.5915,33.5915,0,0,1,15.9217,16.9816c1.226,12.1276,3.07,24.1654,3.1714,36.4337.049,5.9422.9114,12.6118,8.68,14.879,1.79.5223,3.3154,2.5361,4.5876,4.1577,16.1126,20.5394,27.9091,43.1978,33.53,68.854-4.404-4.8813-9.1526-8.9534-16.4772-7.431a2.8042,2.8042,0,0,1-2.1994-.6123C476.2455,441.4046,473.9121,444.4381,471.5556,447.5163Z"/><path class="cls-1" d="M353.3348,417.4205c5.853.643,4.5264-5.3629,6.8688-7.9456,1.894-2.0883,2.9947-4.6508,6.1235-5.065,6.9747-.9236,13.9671-2.49,20.9339-2.3985,4.0445.053,8.12.9038,12.054-.342,7.6385-2.4189,14.5949-1.0762,21.1792,3.1588a20.7771,20.7771,0,0,1,1.1936,4.515c.2043,5.4687,2.0745,12.1026-.3455,16.0551-1.9508,3.186-9.1133,3.5408-14.0924,4.4307-7.9016,1.4123-15.7642,2.296-23.984.9475-4.8669-.7984-10.0619,1.632-14.94,3.6316-4.2667,1.749-8.6341,3.8355-13.5283,3.4105Q354.066,427.62,353.3348,417.4205Z"/><path class="cls-1" d="M451.8068,522.5906a4.4158,4.4158,0,0,1-.9351,3.9109C450.3578,525.002,450.3327,523.6175,451.8068,522.5906Z"/><path class="cls-1" d="M296.7985,551.2616c-6.2531-.3976-9.4754-3.8139-9.5555-9.9855-.0788-6.0924,4.1842-9.8842,10.5938-9.7241,5.1746.1294,9.5949,5.01,9.3823,10.3586A9.9716,9.9716,0,0,1,296.7985,551.2616Zm1.0163-15.8638c-3.4.7715-6.0181,2.4112-5.8877,6.18.1111,3.209,2.0628,5.6369,5.363,5.5549,3.1725-.0786,5.2292-2.2545,5.3506-5.614C302.7611,538.19,300.9357,536.2378,297.8148,535.3978Z"/><path class="cls-1" d="M278.0706,513.0817l-.72-.0515-.6943.189C277.1293,513.1734,277.6,513.1276,278.0706,513.0817Z"/><path class="cls-1" d="M762.7283,435.9586c-7.0794,3.051-14.57,1.09-21.8413,1.792,2.012-16.8116,6.7663-33.0736,10.1019-49.6192,1.81-8.9765-1.0032-18.3345,2.8611-27.0039q10.0685-2.2117,20.1463-4.4273a43.2533,43.2533,0,0,1-7.5834,20.9146c-1.5482,2.2-3.0315,4.7246-1.7318,7.28,7.745,15.2238.4059,29.981-1.1483,44.9107C763.3187,431.862,762.9991,433.9077,762.7283,435.9586Z"/><path class="cls-1" d="M834.7555,469.2881c-1.646-1.2883-1.4265-3.0668-1.2682-4.8289C835.1277,465.7494,834.9115,467.5267,834.7555,469.2881Z"/><path class="cls-1" d="M836.2993,480.3233a3.5068,3.5068,0,0,1-1.3209-3.4162A3.2121,3.2121,0,0,1,836.2993,480.3233Z"/><path class="cls-1" d="M826.1233,357.7307a2.2285,2.2285,0,0,1-.3611-1.5,6.0666,6.0666,0,0,1,.6493.9577C826.4628,357.3026,826.2275,357.5463,826.1233,357.7307Z"/><path class="cls-1" d="M784.72,257.3689c4.9266,2.3666,9.5638,6.6921,15.4861,2.282.85,5.4367,5.08,9.5379,5.7551,15.1548.6619,5.5051,1.4391,10.8187-2.6124,15.8589-3.2456-2.3192-3.5152-6.2529-5.7227-9.35-3.0867,2.6031-1.5449,6.4332-2.8026,9.3485-.5845,1.3551-.5951,3.4993-2.6776,3.112-.9631-.1791-1.9692-1.6164-2.4317-2.7057-1.1151-2.6274-1.6105-5.5491-2.926-8.0525-1.8811-3.5792-2.2443.8774-3.5185.8993.486-3.5281,1.1525-7.0457,1.3867-10.5919.1251-1.8935,1.1247-4.587-1.2079-5.4826-1.059-.4066-2.9456,1.342-4.4569,2.113q-.4662-1.717-.9313-3.4355l.2637.0846c1.9621-.3111,2.25-1.47,1.5792-3.1152l.0244-.0326c1.3332.28,1.6325-.4614,1.5549-1.5746l-.0191.0179C784.1446,261.5362,784.4641,259.4755,784.72,257.3689Z"/><path class="cls-1" d="M777.3931,314.7356a1.2685,1.2685,0,0,1-.1077.4288c-1.9139,4.4041-1.1935,10.2143-5.9892,12.9755-1.6075.9254-4.0786-.8843-5.1083-2.8174-2.8134-5.28-6.2642-10.7218-3.781-16.91,1.3085-3.26,4.78-4.7385,8.5712-3.7915C776.0884,305.8976,776.131,310.6177,777.3931,314.7356Z"/><path class="cls-1" d="M778.9911,269.9551c1.5113-.771,3.3979-2.52,4.4569-2.113,2.3326.8956,1.333,3.5891,1.2079,5.4826-.2342,3.5462-.9007,7.0638-1.3867,10.5919a19.3755,19.3755,0,0,1-5.0971,9.3736C774.8458,285.0061,776.3745,277.472,778.9911,269.9551Z"/><path class="cls-1" d="M499.006,453.5035c-5.6208-25.6562-17.4173-48.3146-33.53-68.854-1.2722-1.6216-2.7977-3.6354-4.5876-4.1577-7.7682-2.2672-8.6306-8.9368-8.68-14.879-.1014-12.2683-1.9454-24.3061-3.1714-36.4337,8.5148,4.5679,12.2985,13.4233,18.2334,20.3142,2.515,2.92,4.7086,6.0628,7.98,8.2138,3.3407,10.1214,12.7084,16.0542,17.5,25.1685,3.1414,14.9517,3.904,30.2135,5.89,45.316,2.2918,17.4289,4.0942,34.9312,6.8113,52.2917,1.5519,9.9164.9628,20.1942,4.7368,29.7519-10.6936,8.8417-11.916,22.4857-17.5937,34.2837-4.4762-23.5428-20.7417-43.8416-17.7177-69.1892,7.7235,2.1874,15.7455-1.5116,23.5543,1.4086,2.9285,1.0951,4.2018-1.89,3.5806-4.3512C500.4418,466.1649,501.5527,459.542,499.006,453.5035Z"/><path class="cls-1" d="M510.1887,510.2352c-3.774-9.5577-3.1849-19.8355-4.7368-29.7519-2.7171-17.36-4.52-34.8628-6.8113-52.2917-1.9861-15.1025-2.7487-30.3643-5.89-45.316,8.73,1.3464,15.3382,5.6312,19.1365,13.81-4.496,4.3131-.3215,8.8767-.1959,13.2528.6838,23.8426,6.0218,47.1517,8.53,70.7856,1.1319,10.6658,4.56,21.2217,2.4009,32.1477a1.8246,1.8246,0,0,0-.37.8387C518.63,511.159,514.7883,509.3812,510.1887,510.2352Z"/><path class="cls-1" d="M522.6221,512.872c2.1593-10.9259-1.269-21.4818-2.4009-32.1476-2.5083-23.6339-7.8463-46.943-8.53-70.7856-.1256-4.3761-4.3-8.94.1959-13.2528,2.7682,2.035,5.28,4.2671,6.013,7.8557-.6885,10.181,3.5762,19.81,3.3617,29.9394-1.7732,7.1746,3.5668,12.7991,4.2426,19.4384-2.1868,2.0451-.7613,4.3171-.4455,6.548q3.7119,26.2214,7.373,52.45Z"/><path class="cls-1" d="M581.8123,312.5512a19.9759,19.9759,0,0,1,2.7869.144c3.3888.7136,8.4288.0368,8.0964,5.1606-.2915,4.4915-5.0194,3.4633-8.1957,3.9824a6.8148,6.8148,0,0,1-2.3386.08c-3.5281-.6862-9.1613,1.047-9.12-4.6014C573.0813,311.8014,578.7823,313.5223,581.8123,312.5512Z"/><path class="cls-1" d="M654.2052,322.03a23.8083,23.8083,0,0,1-3.5587-.2583c-2.91-.6928-7.0484-.2441-7.2481-4.4334-.2169-4.5506,4.24-3.6431,6.9706-4.5534a7.5409,7.5409,0,0,1,3.1149-.159c3.9942.4427,9.8524-.5606,9.7483,5.17C663.1325,323.2859,657.1242,320.7978,654.2052,322.03Z"/><path class="cls-1" d="M618.7134,321.99c-3.24-1.1545-9.549,1.3518-9.6824-4.3592-.1447-6.1882,6.3612-4.1109,10.2188-4.98,1.1642-.2622,2.5346.2416,3.7808.5244,2.4794.5626,5.4294.7523,5.34,4.337-.0864,3.4749-2.7983,3.8833-5.4417,4.1833C621.652,321.8409,620.3626,321.879,618.7134,321.99Z"/><path class="cls-1" d="M745.4713,695.21q.7738.0212,1.5465.0648C746.4642,696.1524,745.9538,696.0128,745.4713,695.21Z"/><path class="cls-1" d="M408.95,539.7359a44.2427,44.2427,0,0,1,5.9432-15.2177c1.8515-3.14,3.8118-6.8488,8.1034-6.36,3.9417.4493,6.1992,3.5074,7.204,7.3369-2.6964,2.7079-.7956,3.0771,1.62,3.1845l-.0357-.0936c-6.74,22.2727-3.1093,45.1815-2.8852,67.67.1668,16.7343-.617,33.4171-.5012,50.12a126.971,126.971,0,0,0,1.6138,22.1088c1.36,7.3587-.7819,11.7438-7.7669,13.9565q-10.3931-1.9722-20.787-3.9477c2.1081-4.2415,9.1646-7.0088,6.0181-12.6136-3.5874-6.39-.81-11.9861-.2491-17.9307.6809-7.22,1.7689-14.4142,2.1347-21.6472.6076-12.0078-2.4336-23.8893-1.47-35.9518,1.2648-15.8271-1.753-31.9126,2.8726-47.5506C411.1873,541.3731,410.257,540.3453,408.95,539.7359Z"/><path class="cls-1" d="M442.8385,567.551q.3943,1.1128.7883,2.2256Q443.2323,568.6638,442.8385,567.551Z"/><path class="cls-1" d="M783.0881,238.4646c2.5892.6325,4.9107-.367,7.2383-1.2311,2.15-.7985,3.5991.2143,4.5441,1.9154a3.3926,3.3926,0,0,1,.2541,2.8658c-1.2416,1.8371-2.6814.6859-3.978-.2232-.9091-.6375-1.8642-.972-2.7492-.0429-7.6288,8.0092-3.9467-1.5338-5.2313-3.3644Z"/><path class="cls-1" d="M784.72,257.3689c-.2554,2.1066-.5749,4.1673-3.2566,4.5308C780.4537,258.8843,782.4756,258.0469,784.72,257.3689Z"/><path class="cls-1" d="M779.9027,263.489c.67,1.6448.3829,2.8041-1.5792,3.1152C777.2777,264.7691,778.1981,263.93,779.9027,263.489Z"/><path class="cls-1" d="M781.482,261.8818c.0776,1.1132-.2217,1.8544-1.5549,1.5746C779.8476,262.3412,779.7381,261.1966,781.482,261.8818Z"/><path class="cls-1" d="M751.8739,285.5887q-.1062-.7983-.2124-1.5966a7.4472,7.4472,0,0,1,.6763,1.0879C752.3754,285.1668,752.0385,285.4149,751.8739,285.5887Z"/><path class="cls-1" d="M685.9261,238.3693c1.3986-.3482,1.95.49,2.2866,1.6314C687.1131,239.9311,685.9388,239.9646,685.9261,238.3693Z"/><path class="cls-1" d="M625.6,199.14c.7316-.9422,1.4629-2.2092,2.1992-.0033Z"/><path class="cls-1" d="M811.4719,517.9933c-.0469-3.5035,2.3644-3.3388,4.7645-3.1917-.1576,8.4364,1.8326,17.009-1.6052,25.2383C812.1978,532.8906,812.7963,525.3042,811.4719,517.9933Z"/><path class="cls-1" d="M408.95,539.7359c1.3068.6094,2.2371,1.6372,1.815,3.0643-4.6256,15.638-1.6078,31.7235-2.8726,47.5506-.9639,12.0625,2.0773,23.944,1.47,35.9518-.3658,7.233-1.4538,14.4275-2.1347,21.6472-.5608,5.9446-3.3383,11.5406.2491,17.9307,3.1465,5.6048-3.91,8.3721-6.0181,12.6136q-1.4141-.9693-2.8275-1.9446c-6.1976-10.8111-7.5963-22.5485-6.6687-34.7274C394.5924,607.2891,398.5612,572.9782,408.95,539.7359Z"/><path class="cls-1" d="M341.6754,676.3078c-15.3936,3.14-31.0865,3.2486-46.6564,4.6084-.9474-15.4574,1.45-31.0308-1.5985-46.4166,16.9751-10.6356,33.0948-22.2965,46.7359-38.2043.46,11.3184,1.1126,22.6331,1.3336,33.9562C341.7894,645.6,342.9949,660.9513,341.6754,676.3078Z"/><path class="cls-1" d="M499.006,453.5035c2.5467,6.0385,1.4358,12.6614,3.0062,18.8836.6212,2.4613-.6521,5.4463-3.5806,4.3512-7.8088-2.92-15.8308.7788-23.5543-1.4086q-1.6612-13.9083-3.32-27.8143c2.3548-3.0773,4.6882-6.1108,8.7721-2.0552a2.8042,2.8042,0,0,0,2.1994.6123C489.8534,444.55,494.602,448.6222,499.006,453.5035Z"/><path class="cls-1" d="M293.4205,634.5c3.0488,15.3858.6511,30.9592,1.5985,46.4166q-6.37.9873-12.7413,1.9779c4.41-13.3645,7.1945-26.7992.9062-40.3629-1.1012-2.3755-.1771-3.4,1.6711-4.2543C287.6873,636.9682,290.5632,635.754,293.4205,634.5Z"/><path class="cls-1" d="M431.8208,528.68c-2.4156-.1074-4.3164-.4766-1.62-3.1845Z"/><path class="cls-1" d="M796.6048,469.6127c-.5287,8.5668,3.9416,11.4539,11.6978,11.5269-4.3327,2.8491-10.6185,4.9792-12.9722,2.6811C792.0521,480.62,793.3424,474.4846,796.6048,469.6127Z"/><path class="cls-1" d="M297.8148,535.3978c3.1209.84,4.9463,2.7921,4.8259,6.1207-.1214,3.36-2.1781,5.5354-5.3506,5.614-3.3.082-5.2519-2.3459-5.363-5.5549C291.7967,537.809,294.4149,536.1693,297.8148,535.3978Z"/></g></svg>