<svg xmlns="http://www.w3.org/2000/svg" viewBox="0 0 1080 1080"><g id="Capa_1" data-name="Capa 1"><path d="M445.9836,248.0312,303.9991,397.3537,161.884,248.0312H141.0549V606.0956l52.6293-.0115.0026-242.2364,252.6439,253.6H467.42V248.0312ZM435.9155,433.11V539.3376l-56.2381-53.1139L323.4392,433.11l56.2382-53.1139,56.2381-53.1139Z"/><path d="M765.0485,473.9571l-173.61,358.0117h42.1531l42.1-84.2406H854.7045l42.1267,84.2277h42.1139Zm.1426,243.131H681.6145l41.7886-86.4405,41.788-86.44,41.788,86.44,41.7887,86.4405Z"/><path d="M451.9225,813.6705,653.3853,290.1644a3.7363,3.7363,0,0,1,1.1889-1.6041l25.19-19.6512a3.7365,3.7365,0,0,1,5.7838,4.2923L483.2673,796.9528a3.737,3.737,0,0,1-1.1581,1.5769l-24.372,19.4059A3.7365,3.7365,0,0,1,451.9225,813.6705Z"/></g></svg>